<svg width="1230" height="836" viewBox="0 0 1230 836" fill="none" xmlns="http://www.w3.org/2000/svg">
<path fill-rule="evenodd" clip-rule="evenodd" d="M61.1865 62.4027L23.9958 100.327C10.6625 113.923 10.6462 135.685 23.9592 149.301L102.032 229.153L180.131 309.032C193.43 322.633 193.43 344.367 180.131 357.968L102.032 437.847L23.9592 517.699C10.6462 531.315 10.6625 553.077 23.9958 566.673L61.1865 604.597L97.4082 641.545C111.116 655.527 133.629 655.544 147.357 641.582L224.686 562.94L302.044 484.269C315.758 470.322 338.242 470.322 351.956 484.269L429.314 562.94L506.643 641.582C520.372 655.544 542.884 655.527 556.592 641.545L592.814 604.597L630.004 566.673C643.338 553.077 643.354 531.315 630.041 517.699L551.968 437.847L473.869 357.968C460.57 344.367 460.57 322.633 473.869 309.032L551.968 229.153L630.041 149.301C643.354 135.685 643.338 113.923 630.004 100.327L592.814 62.4027L556.592 25.4554C542.884 11.4729 520.372 11.456 506.643 25.418L429.314 104.06L351.956 182.731C338.242 196.678 315.758 196.678 302.044 182.731L224.686 104.06L147.357 25.418C133.629 11.456 111.116 11.4729 97.4083 25.4554L61.1865 62.4027Z" fill="#1D2723"/>
<path fill-rule="evenodd" clip-rule="evenodd" d="M637.186 231.403L599.996 269.327C586.662 282.923 586.646 304.685 599.959 318.301L678.032 398.153L756.131 478.032C769.43 491.633 769.43 513.367 756.131 526.968L678.032 606.847L599.959 686.699C586.646 700.315 586.662 722.077 599.996 735.673L637.186 773.597L673.408 810.545C687.116 824.527 709.629 824.544 723.357 810.582L800.686 731.94L878.044 653.269C891.758 639.322 914.242 639.322 927.956 653.269L1005.31 731.94L1082.64 810.582C1096.37 824.544 1118.88 824.527 1132.59 810.545L1168.81 773.597L1206 735.673C1219.34 722.077 1219.35 700.315 1206.04 686.699L1127.97 606.847L1049.87 526.968C1036.57 513.367 1036.57 491.633 1049.87 478.032L1127.97 398.153L1206.04 318.301C1219.35 304.685 1219.34 282.923 1206 269.327L1168.81 231.403L1132.59 194.455C1118.88 180.473 1096.37 180.456 1082.64 194.418L1005.31 273.06L927.956 351.731C914.242 365.678 891.758 365.678 878.044 351.731L800.686 273.06L723.357 194.418C709.629 180.456 687.116 180.473 673.408 194.455L637.186 231.403Z" fill="#1D2723"/>
</svg>
