<!--<svg width="353" height="135" viewBox="0 0 353 135" fill="none" xmlns="http://www.w3.org/2000/svg">-->
<svg width="100%" height="100%" viewBox="0 0 353 135" fill="none" xmlns="http://www.w3.org/2000/svg">
<path d="M241.707 109.041C241.667 108.69 241.504 108.418 241.218 108.226C240.931 108.03 240.571 107.933 240.136 107.933C239.825 107.933 239.555 107.982 239.328 108.081C239.101 108.177 238.924 108.311 238.798 108.481C238.675 108.649 238.613 108.841 238.613 109.056C238.613 109.236 238.655 109.392 238.739 109.522C238.825 109.653 238.938 109.763 239.076 109.852C239.217 109.939 239.368 110.012 239.528 110.071C239.689 110.128 239.843 110.175 239.991 110.212L240.732 110.404C240.974 110.464 241.223 110.544 241.477 110.645C241.732 110.747 241.968 110.88 242.185 111.045C242.402 111.211 242.578 111.416 242.711 111.661C242.847 111.905 242.915 112.198 242.915 112.539C242.915 112.969 242.804 113.35 242.581 113.684C242.362 114.017 242.042 114.28 241.622 114.473C241.204 114.666 240.699 114.762 240.106 114.762C239.538 114.762 239.046 114.672 238.631 114.492C238.216 114.311 237.891 114.056 237.657 113.725C237.422 113.391 237.292 112.996 237.268 112.539H238.416C238.439 112.813 238.528 113.041 238.683 113.224C238.841 113.405 239.043 113.539 239.287 113.628C239.534 113.715 239.805 113.758 240.099 113.758C240.422 113.758 240.71 113.707 240.962 113.606C241.217 113.502 241.417 113.359 241.562 113.176C241.708 112.991 241.781 112.775 241.781 112.528C241.781 112.303 241.717 112.119 241.588 111.976C241.462 111.832 241.291 111.714 241.073 111.62C240.858 111.526 240.615 111.443 240.343 111.372L239.447 111.127C238.839 110.961 238.357 110.718 238.001 110.397C237.648 110.076 237.472 109.651 237.472 109.122C237.472 108.685 237.59 108.303 237.827 107.977C238.064 107.651 238.386 107.398 238.791 107.218C239.196 107.035 239.653 106.943 240.162 106.943C240.676 106.943 241.129 107.034 241.522 107.214C241.917 107.394 242.228 107.643 242.455 107.959C242.683 108.272 242.801 108.633 242.811 109.041H241.707ZM246.647 114.751C246.087 114.751 245.604 114.631 245.198 114.392C244.796 114.149 244.485 113.81 244.265 113.373C244.047 112.933 243.939 112.418 243.939 111.827C243.939 111.244 244.047 110.73 244.265 110.286C244.485 109.841 244.791 109.494 245.184 109.245C245.579 108.995 246.041 108.87 246.57 108.87C246.891 108.87 247.202 108.923 247.503 109.03C247.805 109.136 248.075 109.303 248.315 109.53C248.554 109.757 248.743 110.052 248.882 110.416C249.02 110.776 249.089 111.215 249.089 111.731V112.124H244.565V111.294H248.004C248.004 111.002 247.944 110.744 247.826 110.519C247.707 110.292 247.54 110.113 247.325 109.982C247.113 109.851 246.863 109.786 246.577 109.786C246.266 109.786 245.994 109.862 245.762 110.015C245.532 110.166 245.354 110.364 245.228 110.608C245.105 110.85 245.043 111.113 245.043 111.397V112.046C245.043 112.426 245.11 112.75 245.243 113.017C245.379 113.284 245.568 113.487 245.81 113.628C246.052 113.767 246.335 113.836 246.658 113.836C246.868 113.836 247.06 113.806 247.233 113.747C247.406 113.685 247.555 113.594 247.681 113.473C247.807 113.352 247.904 113.202 247.97 113.024L249.019 113.213C248.935 113.522 248.784 113.792 248.567 114.025C248.352 114.254 248.081 114.434 247.755 114.562C247.432 114.688 247.062 114.751 246.647 114.751ZM251.427 111.257V114.636H250.319V108.944H251.382V109.871H251.452C251.583 109.569 251.788 109.327 252.068 109.145C252.349 108.962 252.704 108.87 253.131 108.87C253.519 108.87 253.859 108.952 254.15 109.115C254.442 109.275 254.668 109.515 254.828 109.834C254.989 110.152 255.069 110.546 255.069 111.016V114.636H253.961V111.149C253.961 110.737 253.854 110.414 253.639 110.182C253.424 109.947 253.129 109.83 252.753 109.83C252.496 109.83 252.268 109.886 252.068 109.997C251.87 110.108 251.713 110.271 251.597 110.486C251.483 110.698 251.427 110.955 251.427 111.257ZM256.555 114.636V108.944H257.663V114.636H256.555ZM257.115 108.066C256.922 108.066 256.756 108.002 256.618 107.874C256.482 107.743 256.414 107.587 256.414 107.407C256.414 107.224 256.482 107.068 256.618 106.94C256.756 106.809 256.922 106.743 257.115 106.743C257.307 106.743 257.472 106.809 257.607 106.94C257.746 107.068 257.815 107.224 257.815 107.407C257.815 107.587 257.746 107.743 257.607 107.874C257.472 108.002 257.307 108.066 257.115 108.066ZM261.551 114.751C261.017 114.751 260.552 114.629 260.154 114.384C259.756 114.14 259.447 113.797 259.228 113.358C259.008 112.918 258.898 112.404 258.898 111.816C258.898 111.226 259.008 110.709 259.228 110.267C259.447 109.825 259.756 109.482 260.154 109.237C260.552 108.993 261.017 108.87 261.551 108.87C262.085 108.87 262.55 108.993 262.948 109.237C263.346 109.482 263.654 109.825 263.874 110.267C264.094 110.709 264.204 111.226 264.204 111.816C264.204 112.404 264.094 112.918 263.874 113.358C263.654 113.797 263.346 114.14 262.948 114.384C262.55 114.629 262.085 114.751 261.551 114.751ZM261.555 113.821C261.901 113.821 262.187 113.729 262.414 113.547C262.642 113.364 262.81 113.121 262.918 112.817C263.029 112.513 263.085 112.178 263.085 111.812C263.085 111.449 263.029 111.116 262.918 110.812C262.81 110.506 262.642 110.26 262.414 110.075C262.187 109.889 261.901 109.797 261.555 109.797C261.206 109.797 260.917 109.889 260.688 110.075C260.46 110.26 260.291 110.506 260.18 110.812C260.071 111.116 260.017 111.449 260.017 111.812C260.017 112.178 260.071 112.513 260.18 112.817C260.291 113.121 260.46 113.364 260.688 113.547C260.917 113.729 261.206 113.821 261.555 113.821ZM265.441 114.636V108.944H266.512V109.849H266.571C266.675 109.542 266.858 109.301 267.119 109.126C267.384 108.948 267.683 108.859 268.016 108.859C268.085 108.859 268.167 108.862 268.261 108.867C268.357 108.872 268.432 108.878 268.487 108.885V109.945C268.442 109.933 268.363 109.919 268.25 109.904C268.136 109.887 268.022 109.878 267.909 109.878C267.647 109.878 267.413 109.934 267.208 110.045C267.006 110.154 266.845 110.306 266.727 110.501C266.608 110.693 266.549 110.913 266.549 111.16V114.636H265.441Z" fill="#43D18C"/>
<path d="M301.308 114.636V107.047H302.453V113.65H305.891V114.636H301.308ZM309.562 114.751C309.001 114.751 308.518 114.631 308.113 114.392C307.71 114.149 307.399 113.81 307.179 113.373C306.962 112.933 306.853 112.418 306.853 111.827C306.853 111.244 306.962 110.73 307.179 110.286C307.399 109.841 307.705 109.494 308.098 109.245C308.493 108.995 308.955 108.87 309.484 108.87C309.805 108.87 310.116 108.923 310.418 109.03C310.719 109.136 310.99 109.303 311.229 109.53C311.469 109.757 311.658 110.052 311.796 110.416C311.935 110.776 312.004 111.215 312.004 111.731V112.124H307.479V111.294H310.918C310.918 111.002 310.859 110.744 310.74 110.519C310.622 110.292 310.455 110.113 310.24 109.982C310.027 109.851 309.778 109.786 309.491 109.786C309.18 109.786 308.908 109.862 308.676 110.015C308.446 110.166 308.269 110.364 308.143 110.608C308.019 110.85 307.957 111.113 307.957 111.397V112.046C307.957 112.426 308.024 112.75 308.157 113.017C308.293 113.284 308.482 113.487 308.724 113.628C308.966 113.767 309.249 113.836 309.573 113.836C309.783 113.836 309.974 113.806 310.147 113.747C310.32 113.685 310.47 113.594 310.596 113.473C310.722 113.352 310.818 113.202 310.885 113.024L311.933 113.213C311.849 113.522 311.699 113.792 311.481 114.025C311.266 114.254 310.996 114.434 310.67 114.562C310.346 114.688 309.977 114.751 309.562 114.751ZM314.889 114.762C314.529 114.762 314.203 114.695 313.911 114.562C313.62 114.426 313.389 114.23 313.218 113.973C313.05 113.716 312.966 113.401 312.966 113.028C312.966 112.707 313.028 112.442 313.152 112.235C313.275 112.027 313.442 111.863 313.652 111.742C313.862 111.621 314.096 111.53 314.356 111.468C314.615 111.406 314.88 111.359 315.149 111.327C315.49 111.288 315.766 111.255 315.979 111.231C316.191 111.204 316.346 111.16 316.442 111.101C316.538 111.042 316.587 110.945 316.587 110.812V110.786C316.587 110.462 316.495 110.212 316.312 110.034C316.132 109.856 315.863 109.767 315.505 109.767C315.131 109.767 314.838 109.85 314.623 110.015C314.41 110.178 314.263 110.36 314.182 110.56L313.14 110.323C313.264 109.977 313.444 109.698 313.681 109.485C313.921 109.27 314.196 109.115 314.508 109.019C314.819 108.92 315.146 108.87 315.49 108.87C315.717 108.87 315.958 108.897 316.212 108.952C316.469 109.004 316.709 109.1 316.931 109.241C317.156 109.382 317.34 109.583 317.483 109.845C317.627 110.104 317.698 110.441 317.698 110.856V114.636H316.616V113.858H316.572C316.5 114.001 316.393 114.142 316.249 114.28C316.106 114.419 315.922 114.534 315.697 114.625C315.472 114.716 315.203 114.762 314.889 114.762ZM315.13 113.873C315.437 113.873 315.698 113.812 315.916 113.691C316.136 113.57 316.302 113.412 316.416 113.217C316.532 113.019 316.59 112.808 316.59 112.583V111.85C316.551 111.889 316.474 111.926 316.36 111.961C316.249 111.993 316.122 112.021 315.979 112.046C315.836 112.068 315.696 112.089 315.56 112.109C315.424 112.126 315.311 112.141 315.219 112.153C315.004 112.181 314.808 112.226 314.63 112.291C314.455 112.355 314.314 112.447 314.208 112.568C314.104 112.687 314.052 112.845 314.052 113.043C314.052 113.317 314.153 113.524 314.356 113.665C314.558 113.804 314.817 113.873 315.13 113.873ZM321.305 114.747C320.845 114.747 320.435 114.63 320.074 114.395C319.716 114.158 319.435 113.821 319.23 113.384C319.027 112.944 318.926 112.416 318.926 111.801C318.926 111.186 319.028 110.66 319.233 110.223C319.441 109.786 319.725 109.451 320.085 109.219C320.446 108.986 320.855 108.87 321.312 108.87C321.665 108.87 321.949 108.93 322.164 109.048C322.382 109.164 322.55 109.3 322.668 109.456C322.789 109.611 322.883 109.749 322.95 109.867H323.017V107.047H324.125V114.636H323.043V113.75H322.95C322.883 113.872 322.787 114.01 322.661 114.166C322.537 114.321 322.367 114.457 322.149 114.573C321.932 114.689 321.65 114.747 321.305 114.747ZM321.549 113.802C321.868 113.802 322.137 113.718 322.357 113.55C322.579 113.38 322.747 113.144 322.861 112.843C322.977 112.541 323.035 112.19 323.035 111.79C323.035 111.395 322.978 111.049 322.865 110.753C322.751 110.456 322.584 110.225 322.364 110.06C322.145 109.894 321.873 109.812 321.549 109.812C321.216 109.812 320.938 109.898 320.715 110.071C320.493 110.244 320.325 110.48 320.211 110.779C320.1 111.078 320.045 111.415 320.045 111.79C320.045 112.171 320.102 112.513 320.215 112.817C320.329 113.121 320.497 113.361 320.719 113.539C320.944 113.715 321.221 113.802 321.549 113.802Z" fill="#43D18C"/>
<path d="M130.372 107.047H131.762L134.178 112.946H134.267L136.683 107.047H138.072V114.636H136.983V109.145H136.913L134.674 114.625H133.77L131.532 109.141H131.462V114.636H130.372V107.047ZM139.648 114.636V108.944H140.756V114.636H139.648ZM140.208 108.066C140.015 108.066 139.85 108.002 139.711 107.874C139.575 107.743 139.507 107.587 139.507 107.407C139.507 107.224 139.575 107.068 139.711 106.94C139.85 106.809 140.015 106.743 140.208 106.743C140.4 106.743 140.565 106.809 140.701 106.94C140.839 107.068 140.908 107.224 140.908 107.407C140.908 107.587 140.839 107.743 140.701 107.874C140.565 108.002 140.4 108.066 140.208 108.066ZM144.377 114.747C143.918 114.747 143.508 114.63 143.147 114.395C142.789 114.158 142.507 113.821 142.302 113.384C142.1 112.944 141.998 112.416 141.998 111.801C141.998 111.186 142.101 110.66 142.306 110.223C142.514 109.786 142.798 109.451 143.158 109.219C143.519 108.986 143.928 108.87 144.385 108.87C144.738 108.87 145.022 108.93 145.237 109.048C145.454 109.164 145.622 109.3 145.741 109.456C145.862 109.611 145.956 109.749 146.023 109.867H146.089V107.047H147.197V114.636H146.115V113.75H146.023C145.956 113.872 145.86 114.01 145.734 114.166C145.61 114.321 145.44 114.457 145.222 114.573C145.005 114.689 144.723 114.747 144.377 114.747ZM144.622 113.802C144.941 113.802 145.21 113.718 145.43 113.55C145.652 113.38 145.82 113.144 145.934 112.843C146.05 112.541 146.108 112.19 146.108 111.79C146.108 111.395 146.051 111.049 145.937 110.753C145.824 110.456 145.657 110.225 145.437 110.06C145.217 109.894 144.946 109.812 144.622 109.812C144.288 109.812 144.011 109.898 143.788 110.071C143.566 110.244 143.398 110.48 143.284 110.779C143.173 111.078 143.118 111.415 143.118 111.79C143.118 112.171 143.174 112.513 143.288 112.817C143.402 113.121 143.57 113.361 143.792 113.539C144.017 113.715 144.293 113.802 144.622 113.802ZM150.909 114.747C150.45 114.747 150.04 114.63 149.679 114.395C149.321 114.158 149.039 113.821 148.834 113.384C148.632 112.944 148.53 112.416 148.53 111.801C148.53 111.186 148.633 110.66 148.838 110.223C149.045 109.786 149.33 109.451 149.69 109.219C150.051 108.986 150.46 108.87 150.917 108.87C151.27 108.87 151.554 108.93 151.769 109.048C151.986 109.164 152.154 109.3 152.273 109.456C152.394 109.611 152.488 109.749 152.555 109.867H152.621V107.047H153.729V114.636H152.647V113.75H152.555C152.488 113.872 152.392 114.01 152.266 114.166C152.142 114.321 151.972 114.457 151.754 114.573C151.537 114.689 151.255 114.747 150.909 114.747ZM151.154 113.802C151.473 113.802 151.742 113.718 151.962 113.55C152.184 113.38 152.352 113.144 152.466 112.843C152.582 112.541 152.64 112.19 152.64 111.79C152.64 111.395 152.583 111.049 152.469 110.753C152.356 110.456 152.189 110.225 151.969 110.06C151.749 109.894 151.478 109.812 151.154 109.812C150.82 109.812 150.542 109.898 150.32 110.071C150.098 110.244 149.93 110.48 149.816 110.779C149.705 111.078 149.649 111.415 149.649 111.79C149.649 112.171 149.706 112.513 149.82 112.817C149.934 113.121 150.102 113.361 150.324 113.539C150.549 113.715 150.825 113.802 151.154 113.802ZM156.419 107.047V114.636H155.311V107.047H156.419ZM160.362 114.751C159.801 114.751 159.318 114.631 158.913 114.392C158.511 114.149 158.199 113.81 157.979 113.373C157.762 112.933 157.653 112.418 157.653 111.827C157.653 111.244 157.762 110.73 157.979 110.286C158.199 109.841 158.506 109.494 158.898 109.245C159.294 108.995 159.756 108.87 160.284 108.87C160.605 108.87 160.917 108.923 161.218 109.03C161.519 109.136 161.79 109.303 162.03 109.53C162.269 109.757 162.458 110.052 162.597 110.416C162.735 110.776 162.804 111.215 162.804 111.731V112.124H158.28V111.294H161.718C161.718 111.002 161.659 110.744 161.54 110.519C161.422 110.292 161.255 110.113 161.04 109.982C160.828 109.851 160.578 109.786 160.292 109.786C159.98 109.786 159.709 109.862 159.477 110.015C159.247 110.166 159.069 110.364 158.943 110.608C158.819 110.85 158.758 111.113 158.758 111.397V112.046C158.758 112.426 158.824 112.75 158.958 113.017C159.094 113.284 159.283 113.487 159.525 113.628C159.767 113.767 160.05 113.836 160.373 113.836C160.583 113.836 160.775 113.806 160.948 113.747C161.121 113.685 161.27 113.594 161.396 113.473C161.522 113.352 161.618 113.202 161.685 113.024L162.734 113.213C162.65 113.522 162.499 113.792 162.282 114.025C162.067 114.254 161.796 114.434 161.47 114.562C161.146 114.688 160.777 114.751 160.362 114.751Z" fill="#43D18C"/>
<path d="M44.6511 107.047H45.7924V112.428C45.7924 112.914 45.6961 113.331 45.5034 113.676C45.3132 114.022 45.0451 114.287 44.6993 114.469C44.3534 114.65 43.9483 114.74 43.4839 114.74C43.0565 114.74 42.6724 114.662 42.3314 114.506C41.993 114.351 41.725 114.125 41.5273 113.828C41.3322 113.529 41.2346 113.166 41.2346 112.739H42.3722C42.3722 112.949 42.4204 113.13 42.5167 113.284C42.6155 113.437 42.7502 113.557 42.9206 113.643C43.0936 113.727 43.2912 113.769 43.5135 113.769C43.7556 113.769 43.9606 113.718 44.1286 113.617C44.2991 113.513 44.4288 113.361 44.5177 113.161C44.6066 112.961 44.6511 112.717 44.6511 112.428V107.047ZM50.9755 112.276V108.944H52.0872V114.636H50.9978V113.65H50.9385C50.8075 113.954 50.5976 114.208 50.3085 114.41C50.022 114.61 49.665 114.71 49.2376 114.71C48.872 114.71 48.5484 114.63 48.2668 114.469C47.9876 114.306 47.7678 114.065 47.6072 113.747C47.4491 113.428 47.37 113.034 47.37 112.565V108.944H48.478V112.431C48.478 112.819 48.5855 113.128 48.8004 113.358C49.0153 113.587 49.2945 113.702 49.6378 113.702C49.8453 113.702 50.0516 113.65 50.2567 113.547C50.4642 113.443 50.6359 113.286 50.7717 113.076C50.9101 112.866 50.978 112.599 50.9755 112.276ZM54.6838 111.257V114.636H53.5759V108.944H54.6394V109.871H54.7098C54.8407 109.569 55.0458 109.327 55.3249 109.145C55.6065 108.962 55.961 108.87 56.3884 108.87C56.7762 108.87 57.1159 108.952 57.4074 109.115C57.6989 109.275 57.925 109.515 58.0855 109.834C58.2461 110.152 58.3264 110.546 58.3264 111.016V114.636H57.2184V111.149C57.2184 110.737 57.111 110.414 56.896 110.182C56.6811 109.947 56.3859 109.83 56.0104 109.83C55.7535 109.83 55.525 109.886 55.3249 109.997C55.1273 110.108 54.9704 110.271 54.8543 110.486C54.7407 110.698 54.6838 110.955 54.6838 111.257ZM59.8123 114.636V108.944H60.9203V114.636H59.8123ZM60.3718 108.066C60.1792 108.066 60.0136 108.002 59.8753 107.874C59.7394 107.743 59.6715 107.587 59.6715 107.407C59.6715 107.224 59.7394 107.068 59.8753 106.94C60.0136 106.809 60.1792 106.743 60.3718 106.743C60.5645 106.743 60.7288 106.809 60.8647 106.94C61.003 107.068 61.0722 107.224 61.0722 107.407C61.0722 107.587 61.003 107.743 60.8647 107.874C60.7288 108.002 60.5645 108.066 60.3718 108.066ZM64.8083 114.751C64.2747 114.751 63.809 114.629 63.4113 114.384C63.0136 114.14 62.7048 113.797 62.4849 113.358C62.2651 112.918 62.1551 112.404 62.1551 111.816C62.1551 111.226 62.2651 110.709 62.4849 110.267C62.7048 109.825 63.0136 109.482 63.4113 109.237C63.809 108.993 64.2747 108.87 64.8083 108.87C65.3419 108.87 65.8075 108.993 66.2053 109.237C66.603 109.482 66.9118 109.825 67.1317 110.267C67.3515 110.709 67.4615 111.226 67.4615 111.816C67.4615 112.404 67.3515 112.918 67.1317 113.358C66.9118 113.797 66.603 114.14 66.2053 114.384C65.8075 114.629 65.3419 114.751 64.8083 114.751ZM64.812 113.821C65.1578 113.821 65.4444 113.729 65.6717 113.547C65.899 113.364 66.0669 113.121 66.1756 112.817C66.2868 112.513 66.3424 112.178 66.3424 111.812C66.3424 111.449 66.2868 111.116 66.1756 110.812C66.0669 110.506 65.899 110.26 65.6717 110.075C65.4444 109.889 65.1578 109.797 64.812 109.797C64.4637 109.797 64.1746 109.889 63.9449 110.075C63.7176 110.26 63.5484 110.506 63.4372 110.812C63.3285 111.116 63.2742 111.449 63.2742 111.812C63.2742 112.178 63.3285 112.513 63.4372 112.817C63.5484 113.121 63.7176 113.364 63.9449 113.547C64.1746 113.729 64.4637 113.821 64.812 113.821ZM68.6982 114.636V108.944H69.7691V109.849H69.8284C69.9321 109.542 70.1149 109.301 70.3768 109.126C70.6411 108.948 70.94 108.859 71.2735 108.859C71.3427 108.859 71.4242 108.862 71.5181 108.867C71.6144 108.872 71.6898 108.878 71.7441 108.885V109.945C71.6997 109.933 71.6206 109.919 71.507 109.904C71.3933 109.887 71.2797 109.878 71.1661 109.878C70.9042 109.878 70.6708 109.934 70.4657 110.045C70.2631 110.154 70.1026 110.306 69.984 110.501C69.8654 110.693 69.8061 110.913 69.8061 111.16V114.636H68.6982Z" fill="#43D18C"/>
<g filter="url(#filter0_d_803_1214)">
<rect x="206.413" y="16.6305" width="91.9567" height="81.4867" rx="6.52174" fill="#1D2723"/>
<rect x="206.413" y="16.6305" width="91.9567" height="81.4867" rx="6.52174" stroke="#43D18C" stroke-width="0.652174"/>
</g>
<g filter="url(#filter1_d_803_1214)">
<rect x="298.37" y="16.6305" width="28.0435" height="81.4867" rx="6.52174" fill="#1D2723"/>
<rect x="298.37" y="16.6305" width="28.0435" height="81.4867" rx="6.52174" stroke="#43D18C" stroke-width="0.652174"/>
</g>
<g filter="url(#filter2_d_803_1214)">
<rect x="85.7607" y="16.6305" width="120.652" height="81.4867" rx="6.52174" fill="#43D18C"/>
</g>
<g filter="url(#filter3_d_803_1214)">
<rect x="26.4131" y="16.6306" width="59.3479" height="81.4867" rx="6.52174" fill="#1D2723"/>
<rect x="26.4131" y="16.6306" width="59.3479" height="81.4867" rx="6.52174" stroke="#43D18C" stroke-width="0.652174"/>
</g>
<path d="M49.9428 53.2033V61.2695H48.741V54.4268H48.6869L46.7705 55.6882V54.5188L48.7735 53.2033H49.9428ZM53.7973 61.3778C53.3029 61.3778 52.8589 61.284 52.4656 61.0963C52.0758 60.905 51.7636 60.6434 51.529 60.3113C51.2944 59.9757 51.1699 59.5949 51.1555 59.1691H52.3356C52.3645 59.5119 52.5179 59.7952 52.7958 60.019C53.0737 60.2428 53.4075 60.3546 53.7973 60.3546C54.1077 60.3546 54.382 60.2825 54.6202 60.1381C54.8584 59.9937 55.046 59.797 55.1832 59.548C55.3203 59.2954 55.3889 59.0067 55.3889 58.6819C55.3889 58.357 55.3185 58.0665 55.1778 57.8103C55.037 57.5504 54.8421 57.3465 54.5931 57.1985C54.3477 57.0506 54.0644 56.9766 53.7432 56.9766C53.4977 56.9766 53.2523 57.0199 53.0069 57.1065C52.7615 57.1895 52.563 57.2978 52.4114 57.4313L51.2908 57.2689L51.7456 53.2033H56.1793V54.2482H52.7633L52.5089 56.5056H52.5522C52.7074 56.3504 52.9149 56.2241 53.1747 56.1267C53.4382 56.0256 53.7215 55.9751 54.0247 55.9751C54.5155 55.9751 54.9522 56.0924 55.3347 56.327C55.7209 56.5579 56.0241 56.8755 56.2442 57.2797C56.4644 57.6803 56.5744 58.1405 56.5744 58.6602C56.5744 59.1835 56.4553 59.6509 56.2172 60.0623C55.979 60.4701 55.6505 60.7913 55.2319 61.0259C54.8168 61.2605 54.3386 61.3778 53.7973 61.3778ZM61.7227 59.7537V59.3315C61.7227 59.0247 61.7859 58.745 61.9122 58.4924C62.0385 58.2397 62.2244 58.0376 62.4698 57.8861C62.7152 57.7309 63.013 57.6533 63.363 57.6533C63.7203 57.6533 64.0199 57.7291 64.2617 57.8806C64.5035 58.0322 64.6858 58.2361 64.8085 58.4924C64.9312 58.745 64.9925 59.0247 64.9925 59.3315V59.7537C64.9925 60.0605 64.9294 60.342 64.803 60.5983C64.6803 60.8509 64.4981 61.053 64.2563 61.2046C64.0145 61.3561 63.7167 61.4319 63.363 61.4319C63.0094 61.4319 62.7098 61.3561 62.4644 61.2046C62.219 61.053 62.0331 60.8509 61.9068 60.5983C61.7841 60.342 61.7227 60.0605 61.7227 59.7537ZM62.6376 59.3315V59.7537C62.6376 59.9811 62.6918 60.1868 62.8 60.3709C62.9083 60.5549 63.096 60.647 63.363 60.647C63.6265 60.647 63.8106 60.5549 63.9152 60.3709C64.0199 60.1868 64.0722 59.9811 64.0722 59.7537V59.3315C64.0722 59.1041 64.0217 58.9002 63.9206 58.7197C63.8196 58.5357 63.6337 58.4437 63.363 58.4437C63.0996 58.4437 62.9119 58.5357 62.8 58.7197C62.6918 58.9002 62.6376 59.1041 62.6376 59.3315ZM57.668 55.1414V54.7191C57.668 54.4124 57.7311 54.1327 57.8575 53.88C57.9874 53.6238 58.1732 53.4199 58.4151 53.2683C58.6605 53.1167 58.9564 53.0409 59.3029 53.0409C59.6602 53.0409 59.9597 53.1167 60.2015 53.2683C60.4469 53.4199 60.631 53.6238 60.7537 53.88C60.8764 54.1327 60.936 54.4124 60.9324 54.7191V55.1414C60.936 55.4445 60.8746 55.7242 60.7483 55.9805C60.622 56.2331 60.4379 56.437 60.1961 56.5922C59.9543 56.7438 59.6566 56.8196 59.3029 56.8196C58.9492 56.8196 58.6496 56.7438 58.4042 56.5922C58.1624 56.437 57.9784 56.2331 57.852 55.9805C57.7293 55.7242 57.668 55.4445 57.668 55.1414ZM58.5829 54.7191V55.1414C58.5829 55.3688 58.637 55.5745 58.7453 55.7585C58.8536 55.9426 59.0394 56.0328 59.3029 56.0292C59.5699 56.0328 59.7558 55.9426 59.8605 55.7585C59.9651 55.5745 60.0175 55.3688 60.0175 55.1414V54.7191C60.0175 54.4918 59.9669 54.286 59.8659 54.102C59.7648 53.9179 59.5772 53.8277 59.3029 53.8313C59.043 53.8277 58.8572 53.9179 58.7453 54.102C58.637 54.286 58.5829 54.4918 58.5829 54.7191ZM58.0415 61.2695L63.585 53.2033H64.527L58.9835 61.2695H58.0415Z" fill="#43D18C"/>
<path d="M135.857 59.6942V58.7143L139.338 53.2033H140.112V54.6542H139.614L137.123 58.5952V58.6602H141.904V59.6942H135.857ZM139.668 61.2695V59.3964L139.679 58.9471V53.2033H140.837V61.2695H139.668ZM145.46 61.3778C144.966 61.3778 144.522 61.284 144.129 61.0963C143.739 60.905 143.427 60.6434 143.192 60.3113C142.957 59.9757 142.833 59.5949 142.819 59.1691H143.999C144.028 59.5119 144.181 59.7952 144.459 60.019C144.737 60.2428 145.071 60.3546 145.46 60.3546C145.771 60.3546 146.045 60.2825 146.283 60.1381C146.521 59.9937 146.709 59.797 146.846 59.548C146.983 59.2954 147.052 59.0067 147.052 58.6819C147.052 58.357 146.982 58.0665 146.841 57.8103C146.7 57.5504 146.505 57.3465 146.256 57.1985C146.011 57.0506 145.727 56.9766 145.406 56.9766C145.161 56.9766 144.915 57.0199 144.67 57.1065C144.425 57.1895 144.226 57.2978 144.074 57.4313L142.954 57.2689L143.409 53.2033H147.842V54.2482H144.426L144.172 56.5056H144.215C144.37 56.3504 144.578 56.2241 144.838 56.1267C145.101 56.0256 145.385 55.9751 145.688 55.9751C146.179 55.9751 146.615 56.0924 146.998 56.327C147.384 56.5579 147.687 56.8755 147.907 57.2797C148.127 57.6803 148.238 58.1405 148.238 58.6602C148.238 59.1835 148.118 59.6509 147.88 60.0623C147.642 60.4701 147.314 60.7913 146.895 61.0259C146.48 61.2605 146.002 61.3778 145.46 61.3778ZM153.386 59.7537V59.3315C153.386 59.0247 153.449 58.745 153.575 58.4924C153.702 58.2397 153.887 58.0376 154.133 57.8861C154.378 57.7309 154.676 57.6533 155.026 57.6533C155.383 57.6533 155.683 57.7291 155.925 57.8806C156.167 58.0322 156.349 58.2361 156.472 58.4924C156.594 58.745 156.656 59.0247 156.656 59.3315V59.7537C156.656 60.0605 156.592 60.342 156.466 60.5983C156.343 60.8509 156.161 61.053 155.919 61.2046C155.678 61.3561 155.38 61.4319 155.026 61.4319C154.672 61.4319 154.373 61.3561 154.127 61.2046C153.882 61.053 153.696 60.8509 153.57 60.5983C153.447 60.342 153.386 60.0605 153.386 59.7537ZM154.301 59.3315V59.7537C154.301 59.9811 154.355 60.1868 154.463 60.3709C154.571 60.5549 154.759 60.647 155.026 60.647C155.29 60.647 155.474 60.5549 155.578 60.3709C155.683 60.1868 155.735 59.9811 155.735 59.7537V59.3315C155.735 59.1041 155.685 58.9002 155.584 58.7197C155.483 58.5357 155.297 58.4437 155.026 58.4437C154.763 58.4437 154.575 58.5357 154.463 58.7197C154.355 58.9002 154.301 59.1041 154.301 59.3315ZM149.331 55.1414V54.7191C149.331 54.4124 149.394 54.1327 149.521 53.88C149.65 53.6238 149.836 53.4199 150.078 53.2683C150.324 53.1167 150.619 53.0409 150.966 53.0409C151.323 53.0409 151.623 53.1167 151.865 53.2683C152.11 53.4199 152.294 53.6238 152.417 53.88C152.539 54.1327 152.599 54.4124 152.595 54.7191V55.1414C152.599 55.4445 152.538 55.7242 152.411 55.9805C152.285 56.2331 152.101 56.437 151.859 56.5922C151.617 56.7438 151.32 56.8196 150.966 56.8196C150.612 56.8196 150.313 56.7438 150.067 56.5922C149.825 56.437 149.641 56.2331 149.515 55.9805C149.392 55.7242 149.331 55.4445 149.331 55.1414ZM150.246 54.7191V55.1414C150.246 55.3688 150.3 55.5745 150.408 55.7585C150.517 55.9426 150.702 56.0328 150.966 56.0292C151.233 56.0328 151.419 55.9426 151.524 55.7585C151.628 55.5745 151.681 55.3688 151.681 55.1414V54.7191C151.681 54.4918 151.63 54.286 151.529 54.102C151.428 53.9179 151.24 53.8277 150.966 53.8313C150.706 53.8277 150.52 53.9179 150.408 54.102C150.3 54.286 150.246 54.4918 150.246 54.7191ZM149.705 61.2695L155.248 53.2033H156.19L150.647 61.2695H149.705Z" fill="#141615"/>
<path d="M245.182 61.3778C244.637 61.3778 244.154 61.2858 243.731 61.1017C243.309 60.914 242.975 60.6542 242.73 60.3222C242.484 59.9901 242.354 59.6058 242.34 59.1691H243.564C243.582 59.4073 243.663 59.613 243.807 59.7862C243.951 59.9595 244.141 60.0948 244.376 60.1922C244.614 60.2861 244.879 60.333 245.171 60.333C245.489 60.333 245.77 60.277 246.016 60.1652C246.261 60.0533 246.453 59.8999 246.59 59.705C246.73 59.5065 246.801 59.2773 246.801 59.0175C246.801 58.7468 246.732 58.5086 246.595 58.3029C246.458 58.0936 246.258 57.9312 245.994 57.8157C245.731 57.7002 245.413 57.6425 245.041 57.6425H244.354V56.6464H245.041C245.337 56.6464 245.599 56.5922 245.826 56.484C246.054 56.3757 246.231 56.2259 246.357 56.0346C246.487 55.8433 246.552 55.6178 246.552 55.3579C246.552 55.1089 246.496 54.8924 246.384 54.7083C246.272 54.5206 246.115 54.3763 245.913 54.2752C245.711 54.1706 245.473 54.1182 245.198 54.1182C244.935 54.1182 244.69 54.1651 244.462 54.259C244.235 54.3528 244.049 54.4882 243.905 54.665C243.764 54.8382 243.69 55.0494 243.683 55.2984H242.508C242.519 54.8617 242.645 54.4791 242.887 54.1507C243.132 53.8187 243.457 53.5606 243.861 53.3766C244.269 53.1889 244.72 53.0951 245.215 53.0951C245.731 53.0951 246.176 53.1961 246.552 53.3982C246.931 53.5967 247.223 53.8638 247.429 54.1994C247.635 54.5315 247.737 54.8942 247.737 55.2876C247.737 55.7459 247.611 56.1321 247.358 56.4461C247.106 56.7564 246.768 56.9676 246.346 57.0794V57.139C246.88 57.222 247.293 57.4349 247.586 57.7778C247.882 58.1206 248.03 58.5465 248.03 59.0554C248.03 59.4993 247.905 59.8963 247.656 60.2464C247.411 60.5964 247.073 60.8725 246.644 61.0746C246.218 61.2767 245.731 61.3778 245.182 61.3778ZM251.716 61.3778C251.222 61.3778 250.778 61.284 250.385 61.0963C249.995 60.905 249.683 60.6434 249.448 60.3113C249.213 59.9757 249.089 59.5949 249.075 59.1691H250.255C250.284 59.5119 250.437 59.7952 250.715 60.019C250.993 60.2428 251.327 60.3546 251.716 60.3546C252.027 60.3546 252.301 60.2825 252.539 60.1381C252.777 59.9937 252.965 59.797 253.102 59.548C253.239 59.2954 253.308 59.0067 253.308 58.6819C253.308 58.357 253.238 58.0665 253.097 57.8103C252.956 57.5504 252.761 57.3465 252.512 57.1985C252.267 57.0506 251.983 56.9766 251.662 56.9766C251.417 56.9766 251.171 57.0199 250.926 57.1065C250.681 57.1895 250.482 57.2978 250.33 57.4313L249.21 57.2689L249.665 53.2033H254.098V54.2482H250.682L250.428 56.5056H250.471C250.626 56.3504 250.834 56.2241 251.094 56.1267C251.357 56.0256 251.641 55.9751 251.944 55.9751C252.435 55.9751 252.871 56.0924 253.254 56.327C253.64 56.5579 253.943 56.8755 254.163 57.2797C254.383 57.6803 254.493 58.1405 254.493 58.6602C254.493 59.1835 254.374 59.6509 254.136 60.0623C253.898 60.4701 253.57 60.7913 253.151 61.0259C252.736 61.2605 252.258 61.3778 251.716 61.3778ZM259.642 59.7537V59.3315C259.642 59.0247 259.705 58.745 259.831 58.4924C259.958 58.2397 260.143 58.0376 260.389 57.8861C260.634 57.7309 260.932 57.6533 261.282 57.6533C261.639 57.6533 261.939 57.7291 262.181 57.8806C262.423 58.0322 262.605 58.2361 262.727 58.4924C262.85 58.745 262.912 59.0247 262.912 59.3315V59.7537C262.912 60.0605 262.848 60.342 262.722 60.5983C262.599 60.8509 262.417 61.053 262.175 61.2046C261.934 61.3561 261.636 61.4319 261.282 61.4319C260.928 61.4319 260.629 61.3561 260.383 61.2046C260.138 61.053 259.952 60.8509 259.826 60.5983C259.703 60.342 259.642 60.0605 259.642 59.7537ZM260.557 59.3315V59.7537C260.557 59.9811 260.611 60.1868 260.719 60.3709C260.827 60.5549 261.015 60.647 261.282 60.647C261.546 60.647 261.73 60.5549 261.834 60.3709C261.939 60.1868 261.991 59.9811 261.991 59.7537V59.3315C261.991 59.1041 261.941 58.9002 261.84 58.7197C261.739 58.5357 261.553 58.4437 261.282 58.4437C261.019 58.4437 260.831 58.5357 260.719 58.7197C260.611 58.9002 260.557 59.1041 260.557 59.3315ZM255.587 55.1414V54.7191C255.587 54.4124 255.65 54.1327 255.776 53.88C255.906 53.6238 256.092 53.4199 256.334 53.2683C256.58 53.1167 256.875 53.0409 257.222 53.0409C257.579 53.0409 257.879 53.1167 258.121 53.2683C258.366 53.4199 258.55 53.6238 258.673 53.88C258.795 54.1327 258.855 54.4124 258.851 54.7191V55.1414C258.855 55.4445 258.794 55.7242 258.667 55.9805C258.541 56.2331 258.357 56.437 258.115 56.5922C257.873 56.7438 257.576 56.8196 257.222 56.8196C256.868 56.8196 256.569 56.7438 256.323 56.5922C256.081 56.437 255.897 56.2331 255.771 55.9805C255.648 55.7242 255.587 55.4445 255.587 55.1414ZM256.502 54.7191V55.1414C256.502 55.3688 256.556 55.5745 256.664 55.7585C256.773 55.9426 256.958 56.0328 257.222 56.0292C257.489 56.0328 257.675 55.9426 257.78 55.7585C257.884 55.5745 257.936 55.3688 257.936 55.1414V54.7191C257.936 54.4918 257.886 54.286 257.785 54.102C257.684 53.9179 257.496 53.8277 257.222 53.8313C256.962 53.8277 256.776 53.9179 256.664 54.102C256.556 54.286 256.502 54.4918 256.502 54.7191ZM255.961 61.2695L261.504 53.2033H262.446L256.903 61.2695H255.961Z" fill="#43D18C"/>
<path d="M308.376 61.3778C307.882 61.3778 307.438 61.284 307.044 61.0963C306.655 60.905 306.342 60.6434 306.108 60.3113C305.873 59.9757 305.749 59.5949 305.734 59.1691H306.914C306.943 59.5119 307.097 59.7952 307.375 60.019C307.652 60.2428 307.986 60.3546 308.376 60.3546C308.686 60.3546 308.961 60.2825 309.199 60.1381C309.437 59.9937 309.625 59.797 309.762 59.548C309.899 59.2954 309.968 59.0067 309.968 58.6819C309.968 58.357 309.897 58.0665 309.756 57.8103C309.616 57.5504 309.421 57.3465 309.172 57.1985C308.926 57.0506 308.643 56.9766 308.322 56.9766C308.076 56.9766 307.831 57.0199 307.586 57.1065C307.34 57.1895 307.142 57.2978 306.99 57.4313L305.87 57.2689L306.324 53.2033H310.758V54.2482H307.342L307.088 56.5056H307.131C307.286 56.3504 307.494 56.2241 307.753 56.1267C308.017 56.0256 308.3 55.9751 308.603 55.9751C309.094 55.9751 309.531 56.0924 309.913 56.327C310.3 56.5579 310.603 56.8755 310.823 57.2797C311.043 57.6803 311.153 58.1405 311.153 58.6602C311.153 59.1835 311.034 59.6509 310.796 60.0623C310.558 60.4701 310.229 60.7913 309.811 61.0259C309.396 61.2605 308.917 61.3778 308.376 61.3778ZM316.301 59.7537V59.3315C316.301 59.0247 316.365 58.745 316.491 58.4924C316.617 58.2397 316.803 58.0376 317.049 57.8861C317.294 57.7309 317.592 57.6533 317.942 57.6533C318.299 57.6533 318.599 57.7291 318.84 57.8806C319.082 58.0322 319.264 58.2361 319.387 58.4924C319.51 58.745 319.571 59.0247 319.571 59.3315V59.7537C319.571 60.0605 319.508 60.342 319.382 60.5983C319.259 60.8509 319.077 61.053 318.835 61.2046C318.593 61.3561 318.295 61.4319 317.942 61.4319C317.588 61.4319 317.289 61.3561 317.043 61.2046C316.798 61.053 316.612 60.8509 316.486 60.5983C316.363 60.342 316.301 60.0605 316.301 59.7537ZM317.216 59.3315V59.7537C317.216 59.9811 317.27 60.1868 317.379 60.3709C317.487 60.5549 317.675 60.647 317.942 60.647C318.205 60.647 318.389 60.5549 318.494 60.3709C318.599 60.1868 318.651 59.9811 318.651 59.7537V59.3315C318.651 59.1041 318.6 58.9002 318.499 58.7197C318.398 58.5357 318.212 58.4437 317.942 58.4437C317.678 58.4437 317.491 58.5357 317.379 58.7197C317.27 58.9002 317.216 59.1041 317.216 59.3315ZM312.247 55.1414V54.7191C312.247 54.4124 312.31 54.1327 312.436 53.88C312.566 53.6238 312.752 53.4199 312.994 53.2683C313.239 53.1167 313.535 53.0409 313.882 53.0409C314.239 53.0409 314.538 53.1167 314.78 53.2683C315.026 53.4199 315.21 53.6238 315.332 53.88C315.455 54.1327 315.515 54.4124 315.511 54.7191V55.1414C315.515 55.4445 315.453 55.7242 315.327 55.9805C315.201 56.2331 315.017 56.437 314.775 56.5922C314.533 56.7438 314.235 56.8196 313.882 56.8196C313.528 56.8196 313.228 56.7438 312.983 56.5922C312.741 56.437 312.557 56.2331 312.431 55.9805C312.308 55.7242 312.247 55.4445 312.247 55.1414ZM313.162 54.7191V55.1414C313.162 55.3688 313.216 55.5745 313.324 55.7585C313.432 55.9426 313.618 56.0328 313.882 56.0292C314.149 56.0328 314.335 55.9426 314.439 55.7585C314.544 55.5745 314.596 55.3688 314.596 55.1414V54.7191C314.596 54.4918 314.546 54.286 314.445 54.102C314.344 53.9179 314.156 53.8277 313.882 53.8313C313.622 53.8277 313.436 53.9179 313.324 54.102C313.216 54.286 313.162 54.4918 313.162 54.7191ZM312.62 61.2695L318.164 53.2033H319.106L313.562 61.2695H312.62Z" fill="#43D18C"/>
<defs>
<filter id="filter0_d_803_1214" x="180" y="9.44138e-05" width="144.783" height="134.313" filterUnits="userSpaceOnUse" color-interpolation-filters="sRGB">
<feFlood flood-opacity="0" result="BackgroundImageFix"/>
<feColorMatrix in="SourceAlpha" type="matrix" values="0 0 0 0 0 0 0 0 0 0 0 0 0 0 0 0 0 0 127 0" result="hardAlpha"/>
<feOffset dy="9.78261"/>
<feGaussianBlur stdDeviation="13.0435"/>
<feComposite in2="hardAlpha" operator="out"/>
<feColorMatrix type="matrix" values="0 0 0 0 0.262745 0 0 0 0 0.819608 0 0 0 0 0.54902 0 0 0 0.25 0"/>
<feBlend mode="normal" in2="BackgroundImageFix" result="effect1_dropShadow_803_1214"/>
<feBlend mode="normal" in="SourceGraphic" in2="effect1_dropShadow_803_1214" result="shape"/>
</filter>
<filter id="filter1_d_803_1214" x="271.957" y="9.44138e-05" width="80.8692" height="134.313" filterUnits="userSpaceOnUse" color-interpolation-filters="sRGB">
<feFlood flood-opacity="0" result="BackgroundImageFix"/>
<feColorMatrix in="SourceAlpha" type="matrix" values="0 0 0 0 0 0 0 0 0 0 0 0 0 0 0 0 0 0 127 0" result="hardAlpha"/>
<feOffset dy="9.78261"/>
<feGaussianBlur stdDeviation="13.0435"/>
<feComposite in2="hardAlpha" operator="out"/>
<feColorMatrix type="matrix" values="0 0 0 0 0.262745 0 0 0 0 0.819608 0 0 0 0 0.54902 0 0 0 0.25 0"/>
<feBlend mode="normal" in2="BackgroundImageFix" result="effect1_dropShadow_803_1214"/>
<feBlend mode="normal" in="SourceGraphic" in2="effect1_dropShadow_803_1214" result="shape"/>
</filter>
<filter id="filter2_d_803_1214" x="59.6738" y="0.326144" width="172.826" height="133.661" filterUnits="userSpaceOnUse" color-interpolation-filters="sRGB">
<feFlood flood-opacity="0" result="BackgroundImageFix"/>
<feColorMatrix in="SourceAlpha" type="matrix" values="0 0 0 0 0 0 0 0 0 0 0 0 0 0 0 0 0 0 127 0" result="hardAlpha"/>
<feOffset dy="9.78261"/>
<feGaussianBlur stdDeviation="13.0435"/>
<feComposite in2="hardAlpha" operator="out"/>
<feColorMatrix type="matrix" values="0 0 0 0 0.262745 0 0 0 0 0.819608 0 0 0 0 0.54902 0 0 0 0.25 0"/>
<feBlend mode="normal" in2="BackgroundImageFix" result="effect1_dropShadow_803_1214"/>
<feBlend mode="normal" in="SourceGraphic" in2="effect1_dropShadow_803_1214" result="shape"/>
</filter>
<filter id="filter3_d_803_1214" x="-4.3869e-05" y="0.000216484" width="112.174" height="134.313" filterUnits="userSpaceOnUse" color-interpolation-filters="sRGB">
<feFlood flood-opacity="0" result="BackgroundImageFix"/>
<feColorMatrix in="SourceAlpha" type="matrix" values="0 0 0 0 0 0 0 0 0 0 0 0 0 0 0 0 0 0 127 0" result="hardAlpha"/>
<feOffset dy="9.78261"/>
<feGaussianBlur stdDeviation="13.0435"/>
<feComposite in2="hardAlpha" operator="out"/>
<feColorMatrix type="matrix" values="0 0 0 0 0.262745 0 0 0 0 0.819608 0 0 0 0 0.54902 0 0 0 0.25 0"/>
<feBlend mode="normal" in2="BackgroundImageFix" result="effect1_dropShadow_803_1214"/>
<feBlend mode="normal" in="SourceGraphic" in2="effect1_dropShadow_803_1214" result="shape"/>
</filter>
</defs>
</svg>
