<svg width="541" height="206" viewBox="0 0 541 206" fill="none" xmlns="http://www.w3.org/2000/svg">
<path d="M370.617 166.92C370.557 166.383 370.307 165.966 369.867 165.67C369.428 165.371 368.875 165.222 368.208 165.222C367.731 165.222 367.318 165.297 366.969 165.449C366.621 165.597 366.35 165.801 366.157 166.062C365.968 166.32 365.873 166.614 365.873 166.943C365.873 167.22 365.937 167.458 366.066 167.659C366.199 167.86 366.371 168.028 366.583 168.165C366.799 168.297 367.03 168.409 367.276 168.5C367.522 168.587 367.759 168.659 367.987 168.716L369.123 169.011C369.494 169.102 369.875 169.225 370.265 169.381C370.655 169.536 371.017 169.741 371.35 169.994C371.683 170.248 371.952 170.562 372.157 170.938C372.365 171.312 372.469 171.761 372.469 172.284C372.469 172.943 372.299 173.528 371.958 174.04C371.621 174.551 371.13 174.955 370.487 175.25C369.846 175.545 369.072 175.693 368.163 175.693C367.291 175.693 366.538 175.555 365.901 175.278C365.265 175.002 364.767 174.61 364.407 174.102C364.047 173.591 363.848 172.985 363.81 172.284H365.572C365.606 172.705 365.742 173.055 365.981 173.335C366.223 173.612 366.532 173.818 366.907 173.955C367.286 174.087 367.701 174.153 368.151 174.153C368.647 174.153 369.089 174.076 369.475 173.92C369.865 173.761 370.172 173.542 370.396 173.261C370.619 172.977 370.731 172.646 370.731 172.267C370.731 171.922 370.632 171.64 370.435 171.42C370.242 171.201 369.979 171.019 369.646 170.875C369.316 170.731 368.943 170.604 368.526 170.494L367.151 170.119C366.219 169.866 365.481 169.492 364.935 169C364.394 168.508 364.123 167.856 364.123 167.045C364.123 166.375 364.305 165.79 364.668 165.29C365.032 164.79 365.524 164.402 366.146 164.125C366.767 163.845 367.468 163.705 368.248 163.705C369.036 163.705 369.731 163.843 370.333 164.119C370.939 164.396 371.416 164.777 371.765 165.261C372.113 165.742 372.295 166.295 372.31 166.92H370.617ZM378.192 175.676C377.333 175.676 376.592 175.492 375.971 175.125C375.353 174.754 374.876 174.233 374.539 173.562C374.206 172.888 374.039 172.098 374.039 171.193C374.039 170.299 374.206 169.511 374.539 168.83C374.876 168.148 375.346 167.616 375.948 167.233C376.554 166.85 377.263 166.659 378.073 166.659C378.566 166.659 379.043 166.741 379.505 166.903C379.967 167.066 380.382 167.322 380.749 167.67C381.117 168.019 381.406 168.472 381.619 169.028C381.831 169.581 381.937 170.254 381.937 171.045V171.648H374.999V170.375H380.272C380.272 169.928 380.181 169.532 379.999 169.188C379.817 168.839 379.562 168.564 379.232 168.364C378.906 168.163 378.524 168.062 378.085 168.062C377.607 168.062 377.191 168.18 376.835 168.415C376.482 168.646 376.21 168.949 376.016 169.324C375.827 169.695 375.732 170.098 375.732 170.534V171.528C375.732 172.112 375.835 172.608 376.039 173.017C376.247 173.426 376.537 173.739 376.908 173.955C377.28 174.167 377.713 174.273 378.21 174.273C378.531 174.273 378.825 174.227 379.09 174.136C379.355 174.042 379.585 173.902 379.778 173.716C379.971 173.53 380.119 173.301 380.221 173.028L381.829 173.318C381.7 173.792 381.469 174.206 381.136 174.562C380.806 174.915 380.391 175.189 379.891 175.386C379.395 175.58 378.829 175.676 378.192 175.676ZM385.521 170.318V175.5H383.822V166.773H385.452V168.193H385.56C385.761 167.731 386.076 167.36 386.504 167.08C386.935 166.799 387.479 166.659 388.134 166.659C388.729 166.659 389.25 166.784 389.697 167.034C390.144 167.28 390.49 167.648 390.737 168.136C390.983 168.625 391.106 169.229 391.106 169.949V175.5H389.407V170.153C389.407 169.521 389.242 169.027 388.913 168.67C388.583 168.311 388.13 168.131 387.555 168.131C387.161 168.131 386.81 168.216 386.504 168.386C386.201 168.557 385.96 168.807 385.782 169.136C385.608 169.462 385.521 169.856 385.521 170.318ZM393.384 175.5V166.773H395.083V175.5H393.384ZM394.242 165.426C393.947 165.426 393.693 165.328 393.481 165.131C393.272 164.93 393.168 164.691 393.168 164.415C393.168 164.134 393.272 163.896 393.481 163.699C393.693 163.498 393.947 163.398 394.242 163.398C394.538 163.398 394.79 163.498 394.998 163.699C395.21 163.896 395.316 164.134 395.316 164.415C395.316 164.691 395.21 164.93 394.998 165.131C394.79 165.328 394.538 165.426 394.242 165.426ZM401.045 175.676C400.227 175.676 399.513 175.489 398.903 175.114C398.293 174.739 397.819 174.214 397.482 173.54C397.145 172.866 396.977 172.078 396.977 171.176C396.977 170.271 397.145 169.479 397.482 168.801C397.819 168.123 398.293 167.597 398.903 167.222C399.513 166.847 400.227 166.659 401.045 166.659C401.863 166.659 402.577 166.847 403.187 167.222C403.797 167.597 404.27 168.123 404.607 168.801C404.944 169.479 405.113 170.271 405.113 171.176C405.113 172.078 404.944 172.866 404.607 173.54C404.27 174.214 403.797 174.739 403.187 175.114C402.577 175.489 401.863 175.676 401.045 175.676ZM401.05 174.25C401.581 174.25 402.02 174.11 402.369 173.83C402.717 173.549 402.975 173.176 403.141 172.71C403.312 172.244 403.397 171.731 403.397 171.17C403.397 170.614 403.312 170.102 403.141 169.636C402.975 169.167 402.717 168.79 402.369 168.506C402.02 168.222 401.581 168.08 401.05 168.08C400.516 168.08 400.073 168.222 399.721 168.506C399.372 168.79 399.113 169.167 398.942 169.636C398.776 170.102 398.692 170.614 398.692 171.17C398.692 171.731 398.776 172.244 398.942 172.71C399.113 173.176 399.372 173.549 399.721 173.83C400.073 174.11 400.516 174.25 401.05 174.25ZM407.009 175.5V166.773H408.651V168.159H408.742C408.901 167.689 409.182 167.32 409.583 167.051C409.988 166.778 410.447 166.642 410.958 166.642C411.064 166.642 411.189 166.646 411.333 166.653C411.481 166.661 411.596 166.67 411.68 166.682V168.307C411.612 168.288 411.49 168.267 411.316 168.244C411.142 168.218 410.968 168.205 410.793 168.205C410.392 168.205 410.034 168.29 409.719 168.46C409.409 168.627 409.163 168.86 408.981 169.159C408.799 169.455 408.708 169.792 408.708 170.17V175.5H407.009Z" fill="#43D18C"/>
<path d="M462.005 175.5V163.864H463.761V173.989H469.033V175.5H462.005ZM474.661 175.676C473.801 175.676 473.061 175.492 472.44 175.125C471.822 174.754 471.345 174.233 471.008 173.562C470.674 172.888 470.508 172.098 470.508 171.193C470.508 170.299 470.674 169.511 471.008 168.83C471.345 168.148 471.815 167.616 472.417 167.233C473.023 166.85 473.731 166.659 474.542 166.659C475.034 166.659 475.512 166.741 475.974 166.903C476.436 167.066 476.851 167.322 477.218 167.67C477.585 168.019 477.875 168.472 478.087 169.028C478.299 169.581 478.406 170.254 478.406 171.045V171.648H471.468V170.375H476.741C476.741 169.928 476.65 169.532 476.468 169.188C476.286 168.839 476.031 168.564 475.701 168.364C475.375 168.163 474.993 168.062 474.553 168.062C474.076 168.062 473.659 168.18 473.303 168.415C472.951 168.646 472.678 168.949 472.485 169.324C472.296 169.695 472.201 170.098 472.201 170.534V171.528C472.201 172.112 472.303 172.608 472.508 173.017C472.716 173.426 473.006 173.739 473.377 173.955C473.748 174.167 474.182 174.273 474.678 174.273C475 174.273 475.294 174.227 475.559 174.136C475.824 174.042 476.053 173.902 476.246 173.716C476.44 173.53 476.587 173.301 476.69 173.028L478.298 173.318C478.169 173.792 477.938 174.206 477.604 174.562C477.275 174.915 476.86 175.189 476.36 175.386C475.864 175.58 475.298 175.676 474.661 175.676ZM482.83 175.693C482.277 175.693 481.777 175.591 481.33 175.386C480.883 175.178 480.529 174.877 480.268 174.483C480.01 174.089 479.881 173.606 479.881 173.034C479.881 172.542 479.976 172.136 480.165 171.818C480.355 171.5 480.611 171.248 480.933 171.062C481.254 170.877 481.614 170.737 482.012 170.642C482.41 170.547 482.815 170.475 483.228 170.426C483.751 170.366 484.175 170.316 484.501 170.278C484.826 170.237 485.063 170.17 485.211 170.08C485.359 169.989 485.433 169.841 485.433 169.636V169.597C485.433 169.1 485.292 168.716 485.012 168.443C484.736 168.17 484.323 168.034 483.773 168.034C483.201 168.034 482.751 168.161 482.421 168.415C482.095 168.665 481.87 168.943 481.745 169.25L480.148 168.886C480.338 168.356 480.614 167.928 480.978 167.602C481.345 167.273 481.768 167.034 482.245 166.886C482.722 166.735 483.224 166.659 483.751 166.659C484.099 166.659 484.469 166.701 484.859 166.784C485.253 166.864 485.62 167.011 485.961 167.227C486.306 167.443 486.588 167.752 486.808 168.153C487.027 168.551 487.137 169.068 487.137 169.705V175.5H485.478V174.307H485.41C485.3 174.527 485.135 174.742 484.915 174.955C484.696 175.167 484.414 175.343 484.069 175.483C483.724 175.623 483.311 175.693 482.83 175.693ZM483.2 174.33C483.669 174.33 484.071 174.237 484.404 174.051C484.741 173.866 484.997 173.623 485.171 173.324C485.349 173.021 485.438 172.697 485.438 172.352V171.227C485.378 171.288 485.26 171.345 485.086 171.398C484.915 171.447 484.72 171.491 484.501 171.528C484.281 171.562 484.067 171.595 483.859 171.625C483.65 171.652 483.476 171.674 483.336 171.693C483.006 171.735 482.705 171.805 482.433 171.903C482.164 172.002 481.948 172.144 481.785 172.33C481.626 172.511 481.546 172.754 481.546 173.057C481.546 173.477 481.701 173.795 482.012 174.011C482.323 174.223 482.719 174.33 483.2 174.33ZM492.667 175.67C491.962 175.67 491.334 175.491 490.781 175.131C490.231 174.767 489.799 174.25 489.485 173.58C489.174 172.905 489.019 172.097 489.019 171.153C489.019 170.21 489.176 169.403 489.491 168.733C489.809 168.062 490.245 167.549 490.798 167.193C491.351 166.837 491.978 166.659 492.678 166.659C493.22 166.659 493.656 166.75 493.985 166.932C494.318 167.11 494.576 167.318 494.758 167.557C494.943 167.795 495.087 168.006 495.19 168.188H495.292V163.864H496.991V175.5H495.332V174.142H495.19C495.087 174.328 494.94 174.54 494.746 174.778C494.557 175.017 494.296 175.225 493.962 175.403C493.629 175.581 493.197 175.67 492.667 175.67ZM493.042 174.222C493.531 174.222 493.943 174.093 494.281 173.835C494.621 173.574 494.879 173.212 495.053 172.75C495.231 172.288 495.32 171.75 495.32 171.136C495.32 170.53 495.233 170 495.059 169.545C494.885 169.091 494.629 168.737 494.292 168.483C493.955 168.229 493.538 168.102 493.042 168.102C492.531 168.102 492.104 168.235 491.763 168.5C491.423 168.765 491.165 169.127 490.991 169.585C490.82 170.044 490.735 170.561 490.735 171.136C490.735 171.72 490.822 172.244 490.996 172.71C491.171 173.176 491.428 173.545 491.769 173.818C492.114 174.087 492.538 174.222 493.042 174.222Z" fill="#43D18C"/>
<path d="M199.903 163.864H202.034L205.739 172.909H205.875L209.58 163.864H211.71V175.5H210.04V167.08H209.932L206.5 175.483H205.114L201.682 167.074H201.574V175.5H199.903V163.864ZM214.126 175.5V166.773H215.825V175.5H214.126ZM214.984 165.426C214.689 165.426 214.435 165.328 214.223 165.131C214.015 164.93 213.911 164.691 213.911 164.415C213.911 164.134 214.015 163.896 214.223 163.699C214.435 163.498 214.689 163.398 214.984 163.398C215.28 163.398 215.532 163.498 215.74 163.699C215.952 163.896 216.058 164.134 216.058 164.415C216.058 164.691 215.952 164.93 215.74 165.131C215.532 165.328 215.28 165.426 214.984 165.426ZM221.378 175.67C220.673 175.67 220.045 175.491 219.491 175.131C218.942 174.767 218.51 174.25 218.196 173.58C217.885 172.905 217.73 172.097 217.73 171.153C217.73 170.21 217.887 169.403 218.202 168.733C218.52 168.062 218.955 167.549 219.509 167.193C220.062 166.837 220.688 166.659 221.389 166.659C221.931 166.659 222.366 166.75 222.696 166.932C223.029 167.11 223.287 167.318 223.469 167.557C223.654 167.795 223.798 168.006 223.901 168.188H224.003V163.864H225.702V175.5H224.043V174.142H223.901C223.798 174.328 223.651 174.54 223.457 174.778C223.268 175.017 223.007 175.225 222.673 175.403C222.34 175.581 221.908 175.67 221.378 175.67ZM221.753 174.222C222.241 174.222 222.654 174.093 222.991 173.835C223.332 173.574 223.59 173.212 223.764 172.75C223.942 172.288 224.031 171.75 224.031 171.136C224.031 170.53 223.944 170 223.77 169.545C223.596 169.091 223.34 168.737 223.003 168.483C222.666 168.229 222.249 168.102 221.753 168.102C221.241 168.102 220.815 168.235 220.474 168.5C220.134 168.765 219.876 169.127 219.702 169.585C219.531 170.044 219.446 170.561 219.446 171.136C219.446 171.72 219.533 172.244 219.707 172.71C219.882 173.176 220.139 173.545 220.48 173.818C220.825 174.087 221.249 174.222 221.753 174.222ZM231.393 175.67C230.689 175.67 230.06 175.491 229.507 175.131C228.958 174.767 228.526 174.25 228.212 173.58C227.901 172.905 227.746 172.097 227.746 171.153C227.746 170.21 227.903 169.403 228.217 168.733C228.536 168.062 228.971 167.549 229.524 167.193C230.077 166.837 230.704 166.659 231.405 166.659C231.946 166.659 232.382 166.75 232.712 166.932C233.045 167.11 233.303 167.318 233.484 167.557C233.67 167.795 233.814 168.006 233.916 168.188H234.018V163.864H235.717V175.5H234.058V174.142H233.916C233.814 174.328 233.666 174.54 233.473 174.778C233.284 175.017 233.022 175.225 232.689 175.403C232.356 175.581 231.924 175.67 231.393 175.67ZM231.768 174.222C232.257 174.222 232.67 174.093 233.007 173.835C233.348 173.574 233.606 173.212 233.78 172.75C233.958 172.288 234.047 171.75 234.047 171.136C234.047 170.53 233.96 170 233.786 169.545C233.611 169.091 233.356 168.737 233.018 168.483C232.681 168.229 232.265 168.102 231.768 168.102C231.257 168.102 230.831 168.235 230.49 168.5C230.149 168.765 229.892 169.127 229.717 169.585C229.547 170.044 229.462 170.561 229.462 171.136C229.462 171.72 229.549 172.244 229.723 172.71C229.897 173.176 230.155 173.545 230.496 173.818C230.84 174.087 231.265 174.222 231.768 174.222ZM239.841 163.864V175.5H238.142V163.864H239.841ZM245.888 175.676C245.028 175.676 244.287 175.492 243.666 175.125C243.049 174.754 242.571 174.233 242.234 173.562C241.901 172.888 241.734 172.098 241.734 171.193C241.734 170.299 241.901 169.511 242.234 168.83C242.571 168.148 243.041 167.616 243.643 167.233C244.25 166.85 244.958 166.659 245.768 166.659C246.261 166.659 246.738 166.741 247.2 166.903C247.662 167.066 248.077 167.322 248.445 167.67C248.812 168.019 249.102 168.472 249.314 169.028C249.526 169.581 249.632 170.254 249.632 171.045V171.648H242.695V170.375H247.967C247.967 169.928 247.876 169.532 247.695 169.188C247.513 168.839 247.257 168.564 246.928 168.364C246.602 168.163 246.219 168.062 245.78 168.062C245.303 168.062 244.886 168.18 244.53 168.415C244.178 168.646 243.905 168.949 243.712 169.324C243.522 169.695 243.428 170.098 243.428 170.534V171.528C243.428 172.112 243.53 172.608 243.734 173.017C243.943 173.426 244.232 173.739 244.604 173.955C244.975 174.167 245.409 174.273 245.905 174.273C246.227 174.273 246.52 174.227 246.786 174.136C247.051 174.042 247.28 173.902 247.473 173.716C247.666 173.53 247.814 173.301 247.916 173.028L249.524 173.318C249.395 173.792 249.164 174.206 248.831 174.562C248.501 174.915 248.087 175.189 247.587 175.386C247.09 175.58 246.524 175.676 245.888 175.676Z" fill="#43D18C"/>
<path d="M68.4652 163.864H70.2152V172.114C70.2152 172.86 70.0675 173.498 69.772 174.028C69.4804 174.559 69.0694 174.964 68.5391 175.244C68.0088 175.521 67.3875 175.659 66.6754 175.659C66.0201 175.659 65.4311 175.54 64.9084 175.301C64.3894 175.062 63.9785 174.716 63.6754 174.261C63.3762 173.803 63.2266 173.246 63.2266 172.591H64.9709C64.9709 172.913 65.0447 173.191 65.1925 173.426C65.344 173.661 65.5504 173.845 65.8118 173.977C66.0769 174.106 66.38 174.17 66.7209 174.17C67.0921 174.17 67.4065 174.093 67.6641 173.938C67.9254 173.778 68.1243 173.545 68.2607 173.239C68.397 172.932 68.4652 172.557 68.4652 172.114V163.864ZM78.1626 171.881V166.773H79.8672V175.5H78.1967V173.989H78.1058C77.9051 174.455 77.5831 174.843 77.1399 175.153C76.7005 175.46 76.1532 175.614 75.4979 175.614C74.9373 175.614 74.4411 175.491 74.0092 175.244C73.5812 174.994 73.2441 174.625 72.9979 174.136C72.7554 173.648 72.6342 173.044 72.6342 172.324V166.773H74.3331V172.119C74.3331 172.714 74.4979 173.187 74.8274 173.54C75.157 173.892 75.585 174.068 76.1115 174.068C76.4297 174.068 76.746 173.989 77.0604 173.83C77.3786 173.67 77.6418 173.43 77.8501 173.108C78.0623 172.786 78.1664 172.377 78.1626 171.881ZM83.8487 170.318V175.5H82.1499V166.773H83.7805V168.193H83.8885C84.0893 167.731 84.4036 167.36 84.8317 167.08C85.2635 166.799 85.8071 166.659 86.4624 166.659C87.0571 166.659 87.5779 166.784 88.0249 167.034C88.4718 167.28 88.8184 167.648 89.0646 168.136C89.3108 168.625 89.4339 169.229 89.4339 169.949V175.5H87.7351V170.153C87.7351 169.521 87.5703 169.027 87.2408 168.67C86.9112 168.311 86.4586 168.131 85.8828 168.131C85.4889 168.131 85.1385 168.216 84.8317 168.386C84.5286 168.557 84.2881 168.807 84.1101 169.136C83.9358 169.462 83.8487 169.856 83.8487 170.318ZM91.7124 175.5V166.773H93.4112V175.5H91.7124ZM92.5703 165.426C92.2749 165.426 92.0211 165.328 91.8089 165.131C91.6006 164.93 91.4964 164.691 91.4964 164.415C91.4964 164.134 91.6006 163.896 91.8089 163.699C92.0211 163.498 92.2749 163.398 92.5703 163.398C92.8658 163.398 93.1177 163.498 93.326 163.699C93.5381 163.896 93.6442 164.134 93.6442 164.415C93.6442 164.691 93.5381 164.93 93.326 165.131C93.1177 165.328 92.8658 165.426 92.5703 165.426ZM99.3729 175.676C98.5547 175.676 97.8407 175.489 97.2308 175.114C96.621 174.739 96.1475 174.214 95.8104 173.54C95.4732 172.866 95.3047 172.078 95.3047 171.176C95.3047 170.271 95.4732 169.479 95.8104 168.801C96.1475 168.123 96.621 167.597 97.2308 167.222C97.8407 166.847 98.5547 166.659 99.3729 166.659C100.191 166.659 100.905 166.847 101.515 167.222C102.125 167.597 102.598 168.123 102.935 168.801C103.272 169.479 103.441 170.271 103.441 171.176C103.441 172.078 103.272 172.866 102.935 173.54C102.598 174.214 102.125 174.739 101.515 175.114C100.905 175.489 100.191 175.676 99.3729 175.676ZM99.3786 174.25C99.9089 174.25 100.348 174.11 100.697 173.83C101.045 173.549 101.303 173.176 101.469 172.71C101.64 172.244 101.725 171.731 101.725 171.17C101.725 170.614 101.64 170.102 101.469 169.636C101.303 169.167 101.045 168.79 100.697 168.506C100.348 168.222 99.9089 168.08 99.3786 168.08C98.8445 168.08 98.4013 168.222 98.049 168.506C97.7005 168.79 97.4411 169.167 97.2706 169.636C97.1039 170.102 97.0206 170.614 97.0206 171.17C97.0206 171.731 97.1039 172.244 97.2706 172.71C97.4411 173.176 97.7005 173.549 98.049 173.83C98.4013 174.11 98.8445 174.25 99.3786 174.25ZM105.337 175.5V166.773H106.979V168.159H107.07C107.229 167.689 107.51 167.32 107.911 167.051C108.317 166.778 108.775 166.642 109.286 166.642C109.392 166.642 109.517 166.646 109.661 166.653C109.809 166.661 109.924 166.67 110.008 166.682V168.307C109.94 168.288 109.818 168.267 109.644 168.244C109.47 168.218 109.296 168.205 109.121 168.205C108.72 168.205 108.362 168.29 108.048 168.46C107.737 168.627 107.491 168.86 107.309 169.159C107.127 169.455 107.036 169.792 107.036 170.17V175.5H105.337Z" fill="#43D18C"/>
<g filter="url(#filter0_d_379_211)">
<rect x="316.5" y="25.5" width="141" height="125" rx="10" fill="#1D2723"/>
<rect x="316.5" y="25.5" width="141" height="125" rx="10" stroke="#43D18C"/>
</g>
<g filter="url(#filter1_d_379_211)">
<rect x="457.5" y="25.5" width="43" height="125" rx="10" fill="#1D2723"/>
<rect x="457.5" y="25.5" width="43" height="125" rx="10" stroke="#43D18C"/>
</g>
<g filter="url(#filter2_d_379_211)">
<rect x="131.5" y="25.5" width="185" height="125" rx="10" fill="#43D18C"/>
</g>
<g filter="url(#filter3_d_379_211)">
<rect x="40.5" y="25.5" width="91" height="125" rx="10" fill="#1D2723"/>
<rect x="40.5" y="25.5" width="91" height="125" rx="10" stroke="#43D18C"/>
</g>
<path d="M76.5786 82.1318V94.5H74.7358V84.0078H74.6528L71.7144 85.9419V84.1489L74.7856 82.1318H76.5786ZM82.4888 94.666C81.7306 94.666 81.05 94.5221 80.4468 94.2344C79.8491 93.9411 79.3704 93.5399 79.0107 93.0308C78.651 92.5161 78.4601 91.9323 78.438 91.2793H80.2476C80.2918 91.805 80.527 92.2394 80.9531 92.5825C81.3792 92.9256 81.8911 93.0972 82.4888 93.0972C82.9647 93.0972 83.3853 92.9865 83.7505 92.7651C84.1157 92.5438 84.4035 92.2422 84.6138 91.8604C84.8241 91.473 84.9292 91.0303 84.9292 90.5322C84.9292 90.0342 84.8213 89.5887 84.6055 89.1958C84.3896 88.7974 84.0908 88.4847 83.709 88.2578C83.3327 88.0309 82.8983 87.9175 82.4058 87.9175C82.0295 87.9175 81.6532 87.9839 81.2769 88.1167C80.9006 88.244 80.5962 88.41 80.3638 88.6147L78.6455 88.3657L79.3428 82.1318H86.1411V83.7339H80.9033L80.5132 87.1953H80.5796C80.8175 86.9574 81.1357 86.7637 81.5342 86.6143C81.9382 86.4593 82.3726 86.3818 82.8374 86.3818C83.59 86.3818 84.2596 86.5617 84.8462 86.9214C85.4383 87.2756 85.9032 87.7625 86.2407 88.3823C86.5783 88.9966 86.7471 89.7021 86.7471 90.499C86.7471 91.3014 86.5645 92.0181 86.1992 92.6489C85.834 93.2743 85.3304 93.7668 84.6885 94.1265C84.0521 94.4862 83.3188 94.666 82.4888 94.666ZM94.6411 92.1758V91.5283C94.6411 91.0579 94.738 90.6291 94.9316 90.2417C95.1253 89.8543 95.4103 89.5444 95.7866 89.312C96.1629 89.0741 96.6195 88.9551 97.1562 88.9551C97.7041 88.9551 98.1634 89.0713 98.5342 89.3037C98.9049 89.5361 99.1844 89.8488 99.3726 90.2417C99.5607 90.6291 99.6548 91.0579 99.6548 91.5283V92.1758C99.6548 92.6462 99.5579 93.0778 99.3643 93.4707C99.1761 93.8581 98.8966 94.168 98.5259 94.4004C98.1551 94.6328 97.6986 94.749 97.1562 94.749C96.6139 94.749 96.1546 94.6328 95.7783 94.4004C95.402 94.168 95.117 93.8581 94.9233 93.4707C94.7352 93.0778 94.6411 92.6462 94.6411 92.1758ZM96.0439 91.5283V92.1758C96.0439 92.5244 96.127 92.8398 96.293 93.1221C96.459 93.4043 96.7467 93.5454 97.1562 93.5454C97.5602 93.5454 97.8424 93.4043 98.0029 93.1221C98.1634 92.8398 98.2437 92.5244 98.2437 92.1758V91.5283C98.2437 91.1797 98.1662 90.867 98.0112 90.5903C97.8563 90.3081 97.5713 90.167 97.1562 90.167C96.7523 90.167 96.4645 90.3081 96.293 90.5903C96.127 90.867 96.0439 91.1797 96.0439 91.5283ZM88.4238 85.1035V84.4561C88.4238 83.9857 88.5207 83.5568 88.7144 83.1694C88.9136 82.7765 89.1986 82.4639 89.5693 82.2314C89.9456 81.999 90.3994 81.8828 90.9307 81.8828C91.4785 81.8828 91.9378 81.999 92.3086 82.2314C92.6849 82.4639 92.9671 82.7765 93.1553 83.1694C93.3434 83.5568 93.4347 83.9857 93.4292 84.4561V85.1035C93.4347 85.5684 93.3407 85.9972 93.147 86.3901C92.9533 86.7775 92.6711 87.0902 92.3003 87.3281C91.9295 87.5605 91.473 87.6768 90.9307 87.6768C90.3883 87.6768 89.929 87.5605 89.5527 87.3281C89.182 87.0902 88.8997 86.7775 88.7061 86.3901C88.5179 85.9972 88.4238 85.5684 88.4238 85.1035ZM89.8267 84.4561V85.1035C89.8267 85.4521 89.9097 85.7676 90.0757 86.0498C90.2417 86.332 90.5267 86.4704 90.9307 86.4648C91.3402 86.4704 91.6252 86.332 91.7856 86.0498C91.9461 85.7676 92.0264 85.4521 92.0264 85.1035V84.4561C92.0264 84.1074 91.9489 83.792 91.7939 83.5098C91.639 83.2275 91.3512 83.0892 90.9307 83.0947C90.5322 83.0892 90.2472 83.2275 90.0757 83.5098C89.9097 83.792 89.8267 84.1074 89.8267 84.4561ZM88.9966 94.5L97.4966 82.1318H98.9409L90.4409 94.5H88.9966Z" fill="#43D18C"/>
<path d="M208.313 92.0845V90.582L213.651 82.1318H214.838V84.3564H214.074L210.256 90.3994V90.499H217.585V92.0845H208.313ZM214.157 94.5V91.6279L214.174 90.939V82.1318H215.95V94.5H214.157ZM223.039 94.666C222.281 94.666 221.6 94.5221 220.997 94.2344C220.399 93.9411 219.921 93.5399 219.561 93.0308C219.201 92.5161 219.01 91.9323 218.988 91.2793H220.798C220.842 91.805 221.077 92.2394 221.503 92.5825C221.93 92.9256 222.441 93.0972 223.039 93.0972C223.515 93.0972 223.936 92.9865 224.301 92.7651C224.666 92.5438 224.954 92.2422 225.164 91.8604C225.374 91.473 225.479 91.0303 225.479 90.5322C225.479 90.0342 225.372 89.5887 225.156 89.1958C224.94 88.7974 224.641 88.4847 224.259 88.2578C223.883 88.0309 223.449 87.9175 222.956 87.9175C222.58 87.9175 222.203 87.9839 221.827 88.1167C221.451 88.244 221.146 88.41 220.914 88.6147L219.196 88.3657L219.893 82.1318H226.691V83.7339H221.454L221.063 87.1953H221.13C221.368 86.9574 221.686 86.7637 222.084 86.6143C222.488 86.4593 222.923 86.3818 223.388 86.3818C224.14 86.3818 224.81 86.5617 225.396 86.9214C225.989 87.2756 226.453 87.7625 226.791 88.3823C227.129 88.9966 227.297 89.7021 227.297 90.499C227.297 91.3014 227.115 92.0181 226.75 92.6489C226.384 93.2743 225.881 93.7668 225.239 94.1265C224.602 94.4862 223.869 94.666 223.039 94.666ZM235.191 92.1758V91.5283C235.191 91.0579 235.288 90.6291 235.482 90.2417C235.676 89.8543 235.961 89.5444 236.337 89.312C236.713 89.0741 237.17 88.9551 237.707 88.9551C238.254 88.9551 238.714 89.0713 239.084 89.3037C239.455 89.5361 239.735 89.8488 239.923 90.2417C240.111 90.6291 240.205 91.0579 240.205 91.5283V92.1758C240.205 92.6462 240.108 93.0778 239.915 93.4707C239.726 93.8581 239.447 94.168 239.076 94.4004C238.705 94.6328 238.249 94.749 237.707 94.749C237.164 94.749 236.705 94.6328 236.329 94.4004C235.952 94.168 235.667 93.8581 235.474 93.4707C235.285 93.0778 235.191 92.6462 235.191 92.1758ZM236.594 91.5283V92.1758C236.594 92.5244 236.677 92.8398 236.843 93.1221C237.009 93.4043 237.297 93.5454 237.707 93.5454C238.111 93.5454 238.393 93.4043 238.553 93.1221C238.714 92.8398 238.794 92.5244 238.794 92.1758V91.5283C238.794 91.1797 238.716 90.867 238.562 90.5903C238.407 90.3081 238.122 90.167 237.707 90.167C237.303 90.167 237.015 90.3081 236.843 90.5903C236.677 90.867 236.594 91.1797 236.594 91.5283ZM228.974 85.1035V84.4561C228.974 83.9857 229.071 83.5568 229.265 83.1694C229.464 82.7765 229.749 82.4639 230.12 82.2314C230.496 81.999 230.95 81.8828 231.481 81.8828C232.029 81.8828 232.488 81.999 232.859 82.2314C233.235 82.4639 233.517 82.7765 233.706 83.1694C233.894 83.5568 233.985 83.9857 233.979 84.4561V85.1035C233.985 85.5684 233.891 85.9972 233.697 86.3901C233.504 86.7775 233.221 87.0902 232.851 87.3281C232.48 87.5605 232.023 87.6768 231.481 87.6768C230.939 87.6768 230.479 87.5605 230.103 87.3281C229.732 87.0902 229.45 86.7775 229.256 86.3901C229.068 85.9972 228.974 85.5684 228.974 85.1035ZM230.377 84.4561V85.1035C230.377 85.4521 230.46 85.7676 230.626 86.0498C230.792 86.332 231.077 86.4704 231.481 86.4648C231.89 86.4704 232.175 86.332 232.336 86.0498C232.496 85.7676 232.577 85.4521 232.577 85.1035V84.4561C232.577 84.1074 232.499 83.792 232.344 83.5098C232.189 83.2275 231.902 83.0892 231.481 83.0947C231.083 83.0892 230.798 83.2275 230.626 83.5098C230.46 83.792 230.377 84.1074 230.377 84.4561ZM229.547 94.5L238.047 82.1318H239.491L230.991 94.5H229.547Z" fill="#141615"/>
<path d="M375.945 94.666C375.11 94.666 374.368 94.5249 373.721 94.2427C373.073 93.9549 372.561 93.5565 372.185 93.0474C371.809 92.5382 371.61 91.9489 371.587 91.2793H373.463C373.491 91.6445 373.616 91.96 373.837 92.2256C374.058 92.4912 374.349 92.6987 374.708 92.8481C375.074 92.992 375.48 93.064 375.929 93.064C376.416 93.064 376.847 92.9782 377.224 92.8066C377.6 92.6351 377.893 92.3999 378.104 92.1011C378.319 91.7967 378.427 91.4453 378.427 91.0469C378.427 90.6318 378.322 90.2666 378.112 89.9512C377.902 89.6302 377.594 89.3812 377.19 89.2041C376.786 89.027 376.299 88.9385 375.729 88.9385H374.675V87.4111H375.729C376.183 87.4111 376.584 87.3281 376.933 87.1621C377.282 86.9961 377.553 86.7664 377.747 86.4731C377.946 86.1799 378.045 85.834 378.045 85.4355C378.045 85.0537 377.96 84.7217 377.788 84.4395C377.617 84.1517 377.376 83.9303 377.066 83.7754C376.756 83.6149 376.391 83.5347 375.97 83.5347C375.566 83.5347 375.19 83.6066 374.841 83.7505C374.493 83.8944 374.208 84.1019 373.986 84.373C373.771 84.6387 373.657 84.9624 373.646 85.3442H371.845C371.861 84.6746 372.055 84.0881 372.426 83.5845C372.802 83.0754 373.3 82.6797 373.92 82.3975C374.545 82.1097 375.237 81.9658 375.995 81.9658C376.786 81.9658 377.47 82.1208 378.045 82.4307C378.626 82.735 379.075 83.1445 379.39 83.6592C379.706 84.1683 379.863 84.7244 379.863 85.3276C379.863 86.0304 379.67 86.6226 379.282 87.104C378.895 87.5799 378.377 87.9036 377.73 88.0752V88.1665C378.549 88.2938 379.183 88.6203 379.631 89.146C380.085 89.6717 380.312 90.3247 380.312 91.105C380.312 91.7856 380.121 92.3944 379.739 92.9312C379.362 93.4679 378.845 93.8913 378.187 94.2012C377.534 94.5111 376.786 94.666 375.945 94.666ZM385.964 94.666C385.206 94.666 384.526 94.5221 383.922 94.2344C383.325 93.9411 382.846 93.5399 382.486 93.0308C382.127 92.5161 381.936 91.9323 381.914 91.2793H383.723C383.767 91.805 384.003 92.2394 384.429 92.5825C384.855 92.9256 385.367 93.0972 385.964 93.0972C386.44 93.0972 386.861 92.9865 387.226 92.7651C387.591 92.5438 387.879 92.2422 388.089 91.8604C388.3 91.473 388.405 91.0303 388.405 90.5322C388.405 90.0342 388.297 89.5887 388.081 89.1958C387.865 88.7974 387.566 88.4847 387.185 88.2578C386.808 88.0309 386.374 87.9175 385.881 87.9175C385.505 87.9175 385.129 87.9839 384.752 88.1167C384.376 88.244 384.072 88.41 383.839 88.6147L382.121 88.3657L382.818 82.1318H389.617V83.7339H384.379L383.989 87.1953H384.055C384.293 86.9574 384.611 86.7637 385.01 86.6143C385.414 86.4593 385.848 86.3818 386.313 86.3818C387.066 86.3818 387.735 86.5617 388.322 86.9214C388.914 87.2756 389.379 87.7625 389.716 88.3823C390.054 88.9966 390.223 89.7021 390.223 90.499C390.223 91.3014 390.04 92.0181 389.675 92.6489C389.31 93.2743 388.806 93.7668 388.164 94.1265C387.528 94.4862 386.794 94.666 385.964 94.666ZM398.117 92.1758V91.5283C398.117 91.0579 398.214 90.6291 398.407 90.2417C398.601 89.8543 398.886 89.5444 399.262 89.312C399.639 89.0741 400.095 88.9551 400.632 88.9551C401.18 88.9551 401.639 89.0713 402.01 89.3037C402.381 89.5361 402.66 89.8488 402.848 90.2417C403.036 90.6291 403.13 91.0579 403.13 91.5283V92.1758C403.13 92.6462 403.034 93.0778 402.84 93.4707C402.652 93.8581 402.372 94.168 402.001 94.4004C401.631 94.6328 401.174 94.749 400.632 94.749C400.09 94.749 399.63 94.6328 399.254 94.4004C398.878 94.168 398.593 93.8581 398.399 93.4707C398.211 93.0778 398.117 92.6462 398.117 92.1758ZM399.52 91.5283V92.1758C399.52 92.5244 399.603 92.8398 399.769 93.1221C399.935 93.4043 400.222 93.5454 400.632 93.5454C401.036 93.5454 401.318 93.4043 401.479 93.1221C401.639 92.8398 401.719 92.5244 401.719 92.1758V91.5283C401.719 91.1797 401.642 90.867 401.487 90.5903C401.332 90.3081 401.047 90.167 400.632 90.167C400.228 90.167 399.94 90.3081 399.769 90.5903C399.603 90.867 399.52 91.1797 399.52 91.5283ZM391.899 85.1035V84.4561C391.899 83.9857 391.996 83.5568 392.19 83.1694C392.389 82.7765 392.674 82.4639 393.045 82.2314C393.421 81.999 393.875 81.8828 394.406 81.8828C394.954 81.8828 395.413 81.999 395.784 82.2314C396.16 82.4639 396.443 82.7765 396.631 83.1694C396.819 83.5568 396.91 83.9857 396.905 84.4561V85.1035C396.91 85.5684 396.816 85.9972 396.623 86.3901C396.429 86.7775 396.147 87.0902 395.776 87.3281C395.405 87.5605 394.949 87.6768 394.406 87.6768C393.864 87.6768 393.405 87.5605 393.028 87.3281C392.658 87.0902 392.375 86.7775 392.182 86.3901C391.993 85.9972 391.899 85.5684 391.899 85.1035ZM393.302 84.4561V85.1035C393.302 85.4521 393.385 85.7676 393.551 86.0498C393.717 86.332 394.002 86.4704 394.406 86.4648C394.816 86.4704 395.101 86.332 395.261 86.0498C395.422 85.7676 395.502 85.4521 395.502 85.1035V84.4561C395.502 84.1074 395.424 83.792 395.27 83.5098C395.115 83.2275 394.827 83.0892 394.406 83.0947C394.008 83.0892 393.723 83.2275 393.551 83.5098C393.385 83.792 393.302 84.1074 393.302 84.4561ZM392.472 94.5L400.972 82.1318H402.417L393.917 94.5H392.472Z" fill="#43D18C"/>
<path d="M472.843 94.666C472.085 94.666 471.404 94.5221 470.801 94.2344C470.203 93.9411 469.724 93.5399 469.365 93.0308C469.005 92.5161 468.814 91.9323 468.792 91.2793H470.602C470.646 91.805 470.881 92.2394 471.307 92.5825C471.733 92.9256 472.245 93.0972 472.843 93.0972C473.319 93.0972 473.739 92.9865 474.104 92.7651C474.47 92.5438 474.757 92.2422 474.968 91.8604C475.178 91.473 475.283 91.0303 475.283 90.5322C475.283 90.0342 475.175 89.5887 474.959 89.1958C474.744 88.7974 474.445 88.4847 474.063 88.2578C473.687 88.0309 473.252 87.9175 472.76 87.9175C472.383 87.9175 472.007 87.9839 471.631 88.1167C471.255 88.244 470.95 88.41 470.718 88.6147L469 88.3657L469.697 82.1318H476.495V83.7339H471.257L470.867 87.1953H470.934C471.172 86.9574 471.49 86.7637 471.888 86.6143C472.292 86.4593 472.727 86.3818 473.191 86.3818C473.944 86.3818 474.614 86.5617 475.2 86.9214C475.792 87.2756 476.257 87.7625 476.595 88.3823C476.932 88.9966 477.101 89.7021 477.101 90.499C477.101 91.3014 476.918 92.0181 476.553 92.6489C476.188 93.2743 475.684 93.7668 475.042 94.1265C474.406 94.4862 473.673 94.666 472.843 94.666ZM484.995 92.1758V91.5283C484.995 91.0579 485.092 90.6291 485.286 90.2417C485.479 89.8543 485.764 89.5444 486.141 89.312C486.517 89.0741 486.973 88.9551 487.51 88.9551C488.058 88.9551 488.517 89.0713 488.888 89.3037C489.259 89.5361 489.538 89.8488 489.727 90.2417C489.915 90.6291 490.009 91.0579 490.009 91.5283V92.1758C490.009 92.6462 489.912 93.0778 489.718 93.4707C489.53 93.8581 489.251 94.168 488.88 94.4004C488.509 94.6328 488.053 94.749 487.51 94.749C486.968 94.749 486.509 94.6328 486.132 94.4004C485.756 94.168 485.471 93.8581 485.277 93.4707C485.089 93.0778 484.995 92.6462 484.995 92.1758ZM486.398 91.5283V92.1758C486.398 92.5244 486.481 92.8398 486.647 93.1221C486.813 93.4043 487.101 93.5454 487.51 93.5454C487.914 93.5454 488.196 93.4043 488.357 93.1221C488.517 92.8398 488.598 92.5244 488.598 92.1758V91.5283C488.598 91.1797 488.52 90.867 488.365 90.5903C488.21 90.3081 487.925 90.167 487.51 90.167C487.106 90.167 486.819 90.3081 486.647 90.5903C486.481 90.867 486.398 91.1797 486.398 91.5283ZM478.778 85.1035V84.4561C478.778 83.9857 478.875 83.5568 479.068 83.1694C479.268 82.7765 479.553 82.4639 479.923 82.2314C480.3 81.999 480.753 81.8828 481.285 81.8828C481.833 81.8828 482.292 81.999 482.663 82.2314C483.039 82.4639 483.321 82.7765 483.509 83.1694C483.697 83.5568 483.789 83.9857 483.783 84.4561V85.1035C483.789 85.5684 483.695 85.9972 483.501 86.3901C483.307 86.7775 483.025 87.0902 482.654 87.3281C482.284 87.5605 481.827 87.6768 481.285 87.6768C480.742 87.6768 480.283 87.5605 479.907 87.3281C479.536 87.0902 479.254 86.7775 479.06 86.3901C478.872 85.9972 478.778 85.5684 478.778 85.1035ZM480.181 84.4561V85.1035C480.181 85.4521 480.264 85.7676 480.43 86.0498C480.596 86.332 480.881 86.4704 481.285 86.4648C481.694 86.4704 481.979 86.332 482.14 86.0498C482.3 85.7676 482.38 85.4521 482.38 85.1035V84.4561C482.38 84.1074 482.303 83.792 482.148 83.5098C481.993 83.2275 481.705 83.0892 481.285 83.0947C480.886 83.0892 480.601 83.2275 480.43 83.5098C480.264 83.792 480.181 84.1074 480.181 84.4561ZM479.351 94.5L487.851 82.1318H489.295L480.795 94.5H479.351Z" fill="#43D18C"/>
<defs>
<filter id="filter0_d_379_211" x="276" y="0" width="222" height="206" filterUnits="userSpaceOnUse" color-interpolation-filters="sRGB">
<feFlood flood-opacity="0" result="BackgroundImageFix"/>
<feColorMatrix in="SourceAlpha" type="matrix" values="0 0 0 0 0 0 0 0 0 0 0 0 0 0 0 0 0 0 127 0" result="hardAlpha"/>
<feOffset dy="15"/>
<feGaussianBlur stdDeviation="20"/>
<feComposite in2="hardAlpha" operator="out"/>
<feColorMatrix type="matrix" values="0 0 0 0 0.262745 0 0 0 0 0.819608 0 0 0 0 0.54902 0 0 0 0.25 0"/>
<feBlend mode="normal" in2="BackgroundImageFix" result="effect1_dropShadow_379_211"/>
<feBlend mode="normal" in="SourceGraphic" in2="effect1_dropShadow_379_211" result="shape"/>
</filter>
<filter id="filter1_d_379_211" x="417" y="0" width="124" height="206" filterUnits="userSpaceOnUse" color-interpolation-filters="sRGB">
<feFlood flood-opacity="0" result="BackgroundImageFix"/>
<feColorMatrix in="SourceAlpha" type="matrix" values="0 0 0 0 0 0 0 0 0 0 0 0 0 0 0 0 0 0 127 0" result="hardAlpha"/>
<feOffset dy="15"/>
<feGaussianBlur stdDeviation="20"/>
<feComposite in2="hardAlpha" operator="out"/>
<feColorMatrix type="matrix" values="0 0 0 0 0.262745 0 0 0 0 0.819608 0 0 0 0 0.54902 0 0 0 0.25 0"/>
<feBlend mode="normal" in2="BackgroundImageFix" result="effect1_dropShadow_379_211"/>
<feBlend mode="normal" in="SourceGraphic" in2="effect1_dropShadow_379_211" result="shape"/>
</filter>
<filter id="filter2_d_379_211" x="91.5" y="0.5" width="265" height="205" filterUnits="userSpaceOnUse" color-interpolation-filters="sRGB">
<feFlood flood-opacity="0" result="BackgroundImageFix"/>
<feColorMatrix in="SourceAlpha" type="matrix" values="0 0 0 0 0 0 0 0 0 0 0 0 0 0 0 0 0 0 127 0" result="hardAlpha"/>
<feOffset dy="15"/>
<feGaussianBlur stdDeviation="20"/>
<feComposite in2="hardAlpha" operator="out"/>
<feColorMatrix type="matrix" values="0 0 0 0 0.262745 0 0 0 0 0.819608 0 0 0 0 0.54902 0 0 0 0.25 0"/>
<feBlend mode="normal" in2="BackgroundImageFix" result="effect1_dropShadow_379_211"/>
<feBlend mode="normal" in="SourceGraphic" in2="effect1_dropShadow_379_211" result="shape"/>
</filter>
<filter id="filter3_d_379_211" x="0" y="0" width="172" height="206" filterUnits="userSpaceOnUse" color-interpolation-filters="sRGB">
<feFlood flood-opacity="0" result="BackgroundImageFix"/>
<feColorMatrix in="SourceAlpha" type="matrix" values="0 0 0 0 0 0 0 0 0 0 0 0 0 0 0 0 0 0 127 0" result="hardAlpha"/>
<feOffset dy="15"/>
<feGaussianBlur stdDeviation="20"/>
<feComposite in2="hardAlpha" operator="out"/>
<feColorMatrix type="matrix" values="0 0 0 0 0.262745 0 0 0 0 0.819608 0 0 0 0 0.54902 0 0 0 0.25 0"/>
<feBlend mode="normal" in2="BackgroundImageFix" result="effect1_dropShadow_379_211"/>
<feBlend mode="normal" in="SourceGraphic" in2="effect1_dropShadow_379_211" result="shape"/>
</filter>
</defs>
</svg>
