<svg width="100%" height="100%" viewBox="0 0 354 177" fill="none" xmlns="http://www.w3.org/2000/svg">
<g filter="url(#filter0_d_803_1215)">
<rect x="59.7344" y="16.9248" width="233.629" height="138.682" rx="9.95575" fill="#1D2723"/>
<rect x="59.7344" y="16.9248" width="233.629" height="138.682" rx="9.95575" stroke="#43D18C" stroke-width="0.663717"/>
</g>
<g clip-path="url(#clip0_803_1215)">
<g filter="url(#filter1_d_803_1215)">
<path d="M149.918 125.872C159.723 125.872 167.672 117.925 167.672 108.122C167.672 98.3188 159.723 90.3718 149.918 90.3718C140.112 90.3718 132.163 98.3188 132.163 108.122C132.163 117.925 140.112 125.872 149.918 125.872Z" fill="#43D18C" fill-opacity="0.05" shape-rendering="crispEdges"/>
<path d="M149.918 125.872C159.723 125.872 167.672 117.925 167.672 108.122C167.672 98.3188 159.723 90.3718 149.918 90.3718C140.112 90.3718 132.163 98.3188 132.163 108.122C132.163 117.925 140.112 125.872 149.918 125.872Z" stroke="#43D18C" stroke-width="1.32743" stroke-linecap="round" stroke-linejoin="round" shape-rendering="crispEdges"/>
</g>
<path d="M149.918 68.1843C159.723 68.1843 167.672 60.2374 167.672 50.4343C167.672 40.6313 159.723 32.6843 149.918 32.6843C140.112 32.6843 132.163 40.6313 132.163 50.4343C132.163 60.2374 140.112 68.1843 149.918 68.1843Z" fill="#43D18C"/>
<path d="M203.18 125.872C212.986 125.872 220.935 117.925 220.935 108.122C220.935 98.3188 212.986 90.3718 203.18 90.3718C193.375 90.3718 185.426 98.3188 185.426 108.122C185.426 117.925 193.375 125.872 203.18 125.872Z" fill="#43D18C"/>
<path d="M123.285 139.184C126.386 135.051 130.407 131.696 135.029 129.385C139.652 127.075 144.749 125.872 149.917 125.872C155.085 125.872 160.182 127.075 164.804 129.385C169.427 131.696 173.448 135.051 176.549 139.184C179.649 135.051 183.67 131.696 188.293 129.385C192.915 127.075 198.012 125.872 203.18 125.872C208.348 125.872 213.445 127.075 218.068 129.385C222.69 131.696 226.711 135.051 229.812 139.184" stroke="#43D18C" stroke-width="1.32743" stroke-linecap="round" stroke-linejoin="round"/>
<g filter="url(#filter2_d_803_1215)">
<path d="M203.18 68.1843C212.986 68.1843 220.935 60.2374 220.935 50.4343C220.935 40.6313 212.986 32.6843 203.18 32.6843C193.375 32.6843 185.426 40.6313 185.426 50.4343C185.426 60.2374 193.375 68.1843 203.18 68.1843Z" fill="#43D18C" fill-opacity="0.05" shape-rendering="crispEdges"/>
<path d="M203.18 68.1843C212.986 68.1843 220.935 60.2374 220.935 50.4343C220.935 40.6313 212.986 32.6843 203.18 32.6843C193.375 32.6843 185.426 40.6313 185.426 50.4343C185.426 60.2374 193.375 68.1843 203.18 68.1843Z" stroke="#43D18C" stroke-width="1.32743" stroke-linecap="round" stroke-linejoin="round" shape-rendering="crispEdges"/>
</g>
<path d="M123.285 81.4968C126.386 77.3634 130.407 74.0086 135.029 71.6979C139.652 69.3873 144.749 68.1843 149.917 68.1843C155.085 68.1843 160.182 69.3873 164.804 71.6979C169.427 74.0086 173.448 77.3634 176.549 81.4968C179.649 77.3634 183.67 74.0086 188.293 71.6979C192.915 69.3873 198.012 68.1843 203.18 68.1843C208.348 68.1843 213.445 69.3873 218.068 71.6979C222.69 74.0086 226.711 77.3634 229.812 81.4968" stroke="#43D18C" stroke-width="1.32743" stroke-linecap="round" stroke-linejoin="round"/>
</g>
<g filter="url(#filter3_d_803_1215)">
<g clip-path="url(#clip1_803_1215)">
<rect x="26.5488" y="30.8635" width="66.3717" height="66.3717" rx="9.95575" fill="#1D2723"/>
<path d="M82.5504 43.3081H36.9198C35.7743 43.3081 34.8457 44.2367 34.8457 45.3822V82.7163C34.8457 83.8618 35.7743 84.7904 36.9198 84.7904H82.5504C83.6959 84.7904 84.6245 83.8618 84.6245 82.7163V45.3822C84.6245 44.2367 83.6959 43.3081 82.5504 43.3081Z" stroke="#43D18C" stroke-width="0.663717" stroke-linecap="round" stroke-linejoin="round"/>
<path d="M68.0312 43.3081V84.7904" stroke="#43D18C" stroke-width="0.663717" stroke-linecap="round" stroke-linejoin="round"/>
<path d="M68.0312 64.0493H84.6242" stroke="#43D18C" stroke-width="0.663717" stroke-linecap="round" stroke-linejoin="round"/>
<path d="M76.328 56.7897C78.0462 56.7897 79.4391 55.3968 79.4391 53.6786C79.4391 51.9603 78.0462 50.5674 76.328 50.5674C74.6097 50.5674 73.2168 51.9603 73.2168 53.6786C73.2168 55.3968 74.6097 56.7897 76.328 56.7897Z" fill="#43D18C"/>
<path d="M76.328 77.5309C78.0462 77.5309 79.4391 76.138 79.4391 74.4198C79.4391 72.7015 78.0462 71.3086 76.328 71.3086C74.6097 71.3086 73.2168 72.7015 73.2168 74.4198C73.2168 76.138 74.6097 77.5309 76.328 77.5309Z" fill="#43D18C"/>
<path d="M51.4382 68.1974C54.8747 68.1974 57.6605 65.4115 57.6605 61.975C57.6605 58.5385 54.8747 55.7527 51.4382 55.7527C48.0017 55.7527 45.2158 58.5385 45.2158 61.975C45.2158 65.4115 48.0017 68.1974 51.4382 68.1974Z" stroke="#43D18C" stroke-width="0.663717" stroke-linecap="round" stroke-linejoin="round"/>
<path d="M43.1416 74.4199C44.062 70.842 47.5724 68.1975 51.4381 68.1975C55.3037 68.1975 58.8167 70.8394 59.7345 74.4199" stroke="#43D18C" stroke-width="0.663717" stroke-linecap="round" stroke-linejoin="round"/>
</g>
<rect x="26.8807" y="31.1954" width="65.708" height="65.708" rx="9.62389" stroke="#43D18C" stroke-width="0.663717"/>
</g>
<g filter="url(#filter4_d_803_1215)">
<g clip-path="url(#clip2_803_1215)">
<rect x="260.178" y="68.0315" width="66.3717" height="66.3717" rx="9.95575" fill="#1D2723"/>
<path d="M314.105 78.4021H272.623C271.477 78.4021 270.549 79.3307 270.549 80.4762V121.959C270.549 123.104 271.477 124.033 272.623 124.033H314.105C315.251 124.033 316.179 123.104 316.179 121.959V80.4762C316.179 79.3307 315.251 78.4021 314.105 78.4021Z" stroke="#43D18C" stroke-width="0.663717" stroke-linecap="round" stroke-linejoin="round"/>
<path d="M305.809 74.2539V82.5504" stroke="#43D18C" stroke-width="0.663717" stroke-linecap="round" stroke-linejoin="round"/>
<path d="M280.919 74.2539V82.5504" stroke="#43D18C" stroke-width="0.663717" stroke-linecap="round" stroke-linejoin="round"/>
<path d="M270.549 90.8469H316.179" stroke="#43D18C" stroke-width="0.663717" stroke-linecap="round" stroke-linejoin="round"/>
<path d="M270.798 80.6422C270.798 79.1759 271.986 77.9873 273.453 77.9873H313.276C314.742 77.9873 315.931 79.1759 315.931 80.6422V91.2616H270.798V80.6422Z" fill="#43D18C"/>
</g>
<rect x="260.51" y="68.3634" width="65.708" height="65.708" rx="9.62389" stroke="#43D18C" stroke-width="0.663717"/>
</g>
<defs>
<filter id="filter0_d_803_1215" x="32.8537" y="9.72748e-05" width="287.39" height="192.443" filterUnits="userSpaceOnUse" color-interpolation-filters="sRGB">
<feFlood flood-opacity="0" result="BackgroundImageFix"/>
<feColorMatrix in="SourceAlpha" type="matrix" values="0 0 0 0 0 0 0 0 0 0 0 0 0 0 0 0 0 0 127 0" result="hardAlpha"/>
<feOffset dy="9.95575"/>
<feGaussianBlur stdDeviation="13.2743"/>
<feComposite in2="hardAlpha" operator="out"/>
<feColorMatrix type="matrix" values="0 0 0 0 0.264364 0 0 0 0 0.818269 0 0 0 0 0.550548 0 0 0 0.25 0"/>
<feBlend mode="normal" in2="BackgroundImageFix" result="effect1_dropShadow_803_1215"/>
<feBlend mode="normal" in="SourceGraphic" in2="effect1_dropShadow_803_1215" result="shape"/>
</filter>
<filter id="filter1_d_803_1215" x="104.95" y="73.1151" width="89.9343" height="89.925" filterUnits="userSpaceOnUse" color-interpolation-filters="sRGB">
<feFlood flood-opacity="0" result="BackgroundImageFix"/>
<feColorMatrix in="SourceAlpha" type="matrix" values="0 0 0 0 0 0 0 0 0 0 0 0 0 0 0 0 0 0 127 0" result="hardAlpha"/>
<feOffset dy="9.95575"/>
<feGaussianBlur stdDeviation="13.2743"/>
<feComposite in2="hardAlpha" operator="out"/>
<feColorMatrix type="matrix" values="0 0 0 0 0.262745 0 0 0 0 0.819608 0 0 0 0 0.54902 0 0 0 0.25 0"/>
<feBlend mode="normal" in2="BackgroundImageFix" result="effect1_dropShadow_803_1215"/>
<feBlend mode="normal" in="SourceGraphic" in2="effect1_dropShadow_803_1215" result="shape"/>
</filter>
<filter id="filter2_d_803_1215" x="158.213" y="15.4276" width="89.9343" height="89.925" filterUnits="userSpaceOnUse" color-interpolation-filters="sRGB">
<feFlood flood-opacity="0" result="BackgroundImageFix"/>
<feColorMatrix in="SourceAlpha" type="matrix" values="0 0 0 0 0 0 0 0 0 0 0 0 0 0 0 0 0 0 127 0" result="hardAlpha"/>
<feOffset dy="9.95575"/>
<feGaussianBlur stdDeviation="13.2743"/>
<feComposite in2="hardAlpha" operator="out"/>
<feColorMatrix type="matrix" values="0 0 0 0 0.262745 0 0 0 0 0.819608 0 0 0 0 0.54902 0 0 0 0.25 0"/>
<feBlend mode="normal" in2="BackgroundImageFix" result="effect1_dropShadow_803_1215"/>
<feBlend mode="normal" in="SourceGraphic" in2="effect1_dropShadow_803_1215" result="shape"/>
</filter>
<filter id="filter3_d_803_1215" x="0.000156403" y="14.2706" width="119.469" height="119.469" filterUnits="userSpaceOnUse" color-interpolation-filters="sRGB">
<feFlood flood-opacity="0" result="BackgroundImageFix"/>
<feColorMatrix in="SourceAlpha" type="matrix" values="0 0 0 0 0 0 0 0 0 0 0 0 0 0 0 0 0 0 127 0" result="hardAlpha"/>
<feOffset dy="9.95575"/>
<feGaussianBlur stdDeviation="13.2743"/>
<feComposite in2="hardAlpha" operator="out"/>
<feColorMatrix type="matrix" values="0 0 0 0 0.262745 0 0 0 0 0.819608 0 0 0 0 0.54902 0 0 0 0.25 0"/>
<feBlend mode="normal" in2="BackgroundImageFix" result="effect1_dropShadow_803_1215"/>
<feBlend mode="normal" in="SourceGraphic" in2="effect1_dropShadow_803_1215" result="shape"/>
</filter>
<filter id="filter4_d_803_1215" x="233.629" y="51.4386" width="119.469" height="119.469" filterUnits="userSpaceOnUse" color-interpolation-filters="sRGB">
<feFlood flood-opacity="0" result="BackgroundImageFix"/>
<feColorMatrix in="SourceAlpha" type="matrix" values="0 0 0 0 0 0 0 0 0 0 0 0 0 0 0 0 0 0 127 0" result="hardAlpha"/>
<feOffset dy="9.95575"/>
<feGaussianBlur stdDeviation="13.2743"/>
<feComposite in2="hardAlpha" operator="out"/>
<feColorMatrix type="matrix" values="0 0 0 0 0.262745 0 0 0 0 0.819608 0 0 0 0 0.54902 0 0 0 0.25 0"/>
<feBlend mode="normal" in2="BackgroundImageFix" result="effect1_dropShadow_803_1215"/>
<feBlend mode="normal" in="SourceGraphic" in2="effect1_dropShadow_803_1215" result="shape"/>
</filter>
<clipPath id="clip0_803_1215">
<rect width="142.036" height="142" fill="white" transform="translate(105.531 14.9343)"/>
</clipPath>
<clipPath id="clip1_803_1215">
<rect x="26.5488" y="30.8635" width="66.3717" height="66.3717" rx="9.95575" fill="white"/>
</clipPath>
<clipPath id="clip2_803_1215">
<rect x="260.178" y="68.0315" width="66.3717" height="66.3717" rx="9.95575" fill="white"/>
</clipPath>
</defs>
</svg>
