<svg width="532" height="290" viewBox="0 0 532 290" fill="none" xmlns="http://www.w3.org/2000/svg">
<g filter="url(#filter0_d_383_53)">
<rect x="90" y="25.5" width="352" height="209" rx="15" fill="#1D2723"/>
<rect x="90" y="25.5" width="352" height="209" rx="15" stroke="#43D18C"/>
</g>
<g clip-path="url(#clip0_383_53)">
<g filter="url(#filter1_d_383_53)">
<path d="M225.875 189.688C240.649 189.688 252.625 177.711 252.625 162.938C252.625 148.164 240.649 136.188 225.875 136.188C211.101 136.188 199.125 148.164 199.125 162.938C199.125 177.711 211.101 189.688 225.875 189.688Z" fill="#43D18C" fill-opacity="0.05" shape-rendering="crispEdges"/>
<path d="M225.875 189.688C240.649 189.688 252.625 177.711 252.625 162.938C252.625 148.164 240.649 136.188 225.875 136.188C211.101 136.188 199.125 148.164 199.125 162.938C199.125 177.711 211.101 189.688 225.875 189.688Z" stroke="#43D18C" stroke-width="2" stroke-linecap="round" stroke-linejoin="round" shape-rendering="crispEdges"/>
</g>
<path d="M225.875 102.75C240.649 102.75 252.625 90.7736 252.625 76C252.625 61.2264 240.649 49.25 225.875 49.25C211.101 49.25 199.125 61.2264 199.125 76C199.125 90.7736 211.101 102.75 225.875 102.75Z" fill="#43D18C"/>
<path d="M306.125 189.688C320.899 189.688 332.875 177.711 332.875 162.938C332.875 148.164 320.899 136.188 306.125 136.188C291.351 136.188 279.375 148.164 279.375 162.938C279.375 177.711 291.351 189.688 306.125 189.688Z" fill="#43D18C"/>
<path d="M185.75 209.75C190.422 203.521 196.48 198.465 203.444 194.983C210.409 191.5 218.088 189.688 225.875 189.688C233.662 189.688 241.341 191.5 248.306 194.983C255.27 198.465 261.328 203.521 266 209.75C270.672 203.521 276.73 198.465 283.694 194.983C290.659 191.5 298.338 189.688 306.125 189.688C313.912 189.688 321.591 191.5 328.556 194.983C335.52 198.465 341.578 203.521 346.25 209.75" stroke="#43D18C" stroke-width="2" stroke-linecap="round" stroke-linejoin="round"/>
<g filter="url(#filter2_d_383_53)">
<path d="M306.125 102.75C320.899 102.75 332.875 90.7736 332.875 76C332.875 61.2264 320.899 49.25 306.125 49.25C291.351 49.25 279.375 61.2264 279.375 76C279.375 90.7736 291.351 102.75 306.125 102.75Z" fill="#43D18C" fill-opacity="0.05" shape-rendering="crispEdges"/>
<path d="M306.125 102.75C320.899 102.75 332.875 90.7736 332.875 76C332.875 61.2264 320.899 49.25 306.125 49.25C291.351 49.25 279.375 61.2264 279.375 76C279.375 90.7736 291.351 102.75 306.125 102.75Z" stroke="#43D18C" stroke-width="2" stroke-linecap="round" stroke-linejoin="round" shape-rendering="crispEdges"/>
</g>
<path d="M185.75 122.812C190.422 116.583 196.48 111.527 203.444 108.045C210.409 104.563 218.088 102.75 225.875 102.75C233.662 102.75 241.341 104.563 248.306 108.045C255.27 111.527 261.328 116.583 266 122.812C270.672 116.583 276.73 111.527 283.694 108.045C290.659 104.563 298.338 102.75 306.125 102.75C313.912 102.75 321.591 104.563 328.556 108.045C335.52 111.527 341.578 116.583 346.25 122.812" stroke="#43D18C" stroke-width="2" stroke-linecap="round" stroke-linejoin="round"/>
</g>
<g filter="url(#filter3_d_383_53)">
<g clip-path="url(#clip1_383_53)">
<rect x="40" y="46.5" width="100" height="100" rx="15" fill="#1D2723"/>
<path d="M124.375 65.25H55.625C53.8991 65.25 52.5 66.6491 52.5 68.375V124.625C52.5 126.351 53.8991 127.75 55.625 127.75H124.375C126.101 127.75 127.5 126.351 127.5 124.625V68.375C127.5 66.6491 126.101 65.25 124.375 65.25Z" stroke="#43D18C" stroke-linecap="round" stroke-linejoin="round"/>
<path d="M102.5 65.25V127.75" stroke="#43D18C" stroke-linecap="round" stroke-linejoin="round"/>
<path d="M102.5 96.5H127.5" stroke="#43D18C" stroke-linecap="round" stroke-linejoin="round"/>
<path d="M115 85.5625C117.589 85.5625 119.688 83.4638 119.688 80.875C119.688 78.2862 117.589 76.1875 115 76.1875C112.411 76.1875 110.312 78.2862 110.312 80.875C110.312 83.4638 112.411 85.5625 115 85.5625Z" fill="#43D18C"/>
<path d="M115 116.812C117.589 116.812 119.688 114.714 119.688 112.125C119.688 109.536 117.589 107.438 115 107.438C112.411 107.438 110.312 109.536 110.312 112.125C110.312 114.714 112.411 116.812 115 116.812Z" fill="#43D18C"/>
<path d="M77.5 102.75C82.6777 102.75 86.875 98.5527 86.875 93.375C86.875 88.1973 82.6777 84 77.5 84C72.3223 84 68.125 88.1973 68.125 93.375C68.125 98.5527 72.3223 102.75 77.5 102.75Z" stroke="#43D18C" stroke-linecap="round" stroke-linejoin="round"/>
<path d="M65 112.125C66.3867 106.734 71.6758 102.75 77.5 102.75C83.3242 102.75 88.6172 106.73 90 112.125" stroke="#43D18C" stroke-linecap="round" stroke-linejoin="round"/>
</g>
<rect x="40.5" y="47" width="99" height="99" rx="14.5" stroke="#43D18C"/>
</g>
<g filter="url(#filter4_d_383_53)">
<g clip-path="url(#clip2_383_53)">
<rect x="392" y="102.5" width="100" height="100" rx="15" fill="#1D2723"/>
<path d="M473.25 118.125H410.75C409.024 118.125 407.625 119.524 407.625 121.25V183.75C407.625 185.476 409.024 186.875 410.75 186.875H473.25C474.976 186.875 476.375 185.476 476.375 183.75V121.25C476.375 119.524 474.976 118.125 473.25 118.125Z" stroke="#43D18C" stroke-linecap="round" stroke-linejoin="round"/>
<path d="M460.75 111.875V124.375" stroke="#43D18C" stroke-linecap="round" stroke-linejoin="round"/>
<path d="M423.25 111.875V124.375" stroke="#43D18C" stroke-linecap="round" stroke-linejoin="round"/>
<path d="M407.625 136.875H476.375" stroke="#43D18C" stroke-linecap="round" stroke-linejoin="round"/>
<path d="M408 121.5C408 119.291 409.791 117.5 412 117.5H472C474.209 117.5 476 119.291 476 121.5V137.5H408V121.5Z" fill="#43D18C"/>
</g>
<rect x="392.5" y="103" width="99" height="99" rx="14.5" stroke="#43D18C"/>
</g>
<defs>
<filter id="filter0_d_383_53" x="49.5" y="0" width="433" height="290" filterUnits="userSpaceOnUse" color-interpolation-filters="sRGB">
<feFlood flood-opacity="0" result="BackgroundImageFix"/>
<feColorMatrix in="SourceAlpha" type="matrix" values="0 0 0 0 0 0 0 0 0 0 0 0 0 0 0 0 0 0 127 0" result="hardAlpha"/>
<feOffset dy="15"/>
<feGaussianBlur stdDeviation="20"/>
<feComposite in2="hardAlpha" operator="out"/>
<feColorMatrix type="matrix" values="0 0 0 0 0.264364 0 0 0 0 0.818269 0 0 0 0 0.550548 0 0 0 0.25 0"/>
<feBlend mode="normal" in2="BackgroundImageFix" result="effect1_dropShadow_383_53"/>
<feBlend mode="normal" in="SourceGraphic" in2="effect1_dropShadow_383_53" result="shape"/>
</filter>
<filter id="filter1_d_383_53" x="158.125" y="110.188" width="135.5" height="135.5" filterUnits="userSpaceOnUse" color-interpolation-filters="sRGB">
<feFlood flood-opacity="0" result="BackgroundImageFix"/>
<feColorMatrix in="SourceAlpha" type="matrix" values="0 0 0 0 0 0 0 0 0 0 0 0 0 0 0 0 0 0 127 0" result="hardAlpha"/>
<feOffset dy="15"/>
<feGaussianBlur stdDeviation="20"/>
<feComposite in2="hardAlpha" operator="out"/>
<feColorMatrix type="matrix" values="0 0 0 0 0.262745 0 0 0 0 0.819608 0 0 0 0 0.54902 0 0 0 0.25 0"/>
<feBlend mode="normal" in2="BackgroundImageFix" result="effect1_dropShadow_383_53"/>
<feBlend mode="normal" in="SourceGraphic" in2="effect1_dropShadow_383_53" result="shape"/>
</filter>
<filter id="filter2_d_383_53" x="238.375" y="23.25" width="135.5" height="135.5" filterUnits="userSpaceOnUse" color-interpolation-filters="sRGB">
<feFlood flood-opacity="0" result="BackgroundImageFix"/>
<feColorMatrix in="SourceAlpha" type="matrix" values="0 0 0 0 0 0 0 0 0 0 0 0 0 0 0 0 0 0 127 0" result="hardAlpha"/>
<feOffset dy="15"/>
<feGaussianBlur stdDeviation="20"/>
<feComposite in2="hardAlpha" operator="out"/>
<feColorMatrix type="matrix" values="0 0 0 0 0.262745 0 0 0 0 0.819608 0 0 0 0 0.54902 0 0 0 0.25 0"/>
<feBlend mode="normal" in2="BackgroundImageFix" result="effect1_dropShadow_383_53"/>
<feBlend mode="normal" in="SourceGraphic" in2="effect1_dropShadow_383_53" result="shape"/>
</filter>
<filter id="filter3_d_383_53" x="0" y="21.5" width="180" height="180" filterUnits="userSpaceOnUse" color-interpolation-filters="sRGB">
<feFlood flood-opacity="0" result="BackgroundImageFix"/>
<feColorMatrix in="SourceAlpha" type="matrix" values="0 0 0 0 0 0 0 0 0 0 0 0 0 0 0 0 0 0 127 0" result="hardAlpha"/>
<feOffset dy="15"/>
<feGaussianBlur stdDeviation="20"/>
<feComposite in2="hardAlpha" operator="out"/>
<feColorMatrix type="matrix" values="0 0 0 0 0.262745 0 0 0 0 0.819608 0 0 0 0 0.54902 0 0 0 0.25 0"/>
<feBlend mode="normal" in2="BackgroundImageFix" result="effect1_dropShadow_383_53"/>
<feBlend mode="normal" in="SourceGraphic" in2="effect1_dropShadow_383_53" result="shape"/>
</filter>
<filter id="filter4_d_383_53" x="352" y="77.5" width="180" height="180" filterUnits="userSpaceOnUse" color-interpolation-filters="sRGB">
<feFlood flood-opacity="0" result="BackgroundImageFix"/>
<feColorMatrix in="SourceAlpha" type="matrix" values="0 0 0 0 0 0 0 0 0 0 0 0 0 0 0 0 0 0 127 0" result="hardAlpha"/>
<feOffset dy="15"/>
<feGaussianBlur stdDeviation="20"/>
<feComposite in2="hardAlpha" operator="out"/>
<feColorMatrix type="matrix" values="0 0 0 0 0.262745 0 0 0 0 0.819608 0 0 0 0 0.54902 0 0 0 0.25 0"/>
<feBlend mode="normal" in2="BackgroundImageFix" result="effect1_dropShadow_383_53"/>
<feBlend mode="normal" in="SourceGraphic" in2="effect1_dropShadow_383_53" result="shape"/>
</filter>
<clipPath id="clip0_383_53">
<rect width="214" height="214" fill="white" transform="translate(159 22.5)"/>
</clipPath>
<clipPath id="clip1_383_53">
<rect x="40" y="46.5" width="100" height="100" rx="15" fill="white"/>
</clipPath>
<clipPath id="clip2_383_53">
<rect x="392" y="102.5" width="100" height="100" rx="15" fill="white"/>
</clipPath>
</defs>
</svg>
