<svg width="552" height="296" viewBox="0 0 552 296" fill="none" xmlns="http://www.w3.org/2000/svg">
<g filter="url(#filter0_d_374_101)">
<rect x="112" y="41.5" width="127" height="40" rx="20" fill="#43D18C"/>
<path d="M133.895 68.5V53.9545H142.915V55.8438H136.089V60.2756H142.268V62.1577H136.089V68.5H133.895ZM145.306 68.5V57.5909H147.359V59.3239H147.473C147.672 58.7367 148.022 58.2751 148.524 57.9389C149.03 57.598 149.603 57.4276 150.243 57.4276C150.375 57.4276 150.531 57.4323 150.711 57.4418C150.896 57.4512 151.04 57.4631 151.145 57.4773V59.5085C151.059 59.4848 150.908 59.4588 150.69 59.4304C150.472 59.3973 150.254 59.3807 150.037 59.3807C149.535 59.3807 149.087 59.4872 148.694 59.7003C148.306 59.9086 147.998 60.1998 147.771 60.5739C147.544 60.9432 147.43 61.3646 147.43 61.8381V68.5H145.306ZM157.187 68.7202C156.164 68.7202 155.272 68.4858 154.509 68.017C153.747 67.5483 153.155 66.8925 152.734 66.0497C152.312 65.2069 152.102 64.2221 152.102 63.0952C152.102 61.9635 152.312 60.974 152.734 60.1264C153.155 59.2789 153.747 58.6207 154.509 58.152C155.272 57.6832 156.164 57.4489 157.187 57.4489C158.21 57.4489 159.102 57.6832 159.864 58.152C160.627 58.6207 161.219 59.2789 161.64 60.1264C162.061 60.974 162.272 61.9635 162.272 63.0952C162.272 64.2221 162.061 65.2069 161.64 66.0497C161.219 66.8925 160.627 67.5483 159.864 68.017C159.102 68.4858 158.21 68.7202 157.187 68.7202ZM157.194 66.9375C157.857 66.9375 158.406 66.7623 158.842 66.4119C159.277 66.0616 159.599 65.5952 159.808 65.0128C160.021 64.4304 160.127 63.7888 160.127 63.0881C160.127 62.392 160.021 61.7528 159.808 61.1705C159.599 60.5833 159.277 60.1122 158.842 59.7571C158.406 59.402 157.857 59.2244 157.194 59.2244C156.526 59.2244 155.972 59.402 155.532 59.7571C155.096 60.1122 154.772 60.5833 154.559 61.1705C154.351 61.7528 154.246 62.392 154.246 63.0881C154.246 63.7888 154.351 64.4304 154.559 65.0128C154.772 65.5952 155.096 66.0616 155.532 66.4119C155.972 66.7623 156.526 66.9375 157.194 66.9375ZM166.766 62.0227V68.5H164.642V57.5909H166.681V59.3665H166.816C167.067 58.7888 167.46 58.3248 167.995 57.9744C168.534 57.6241 169.214 57.4489 170.033 57.4489C170.776 57.4489 171.427 57.6051 171.986 57.9176C172.545 58.2254 172.978 58.6847 173.286 59.2955C173.594 59.9062 173.748 60.6615 173.748 61.5611V68.5H171.624V61.8168C171.624 61.026 171.418 60.4081 171.006 59.9631C170.594 59.5133 170.028 59.2884 169.309 59.2884C168.816 59.2884 168.378 59.3949 167.995 59.608C167.616 59.821 167.315 60.1335 167.093 60.5455C166.875 60.9527 166.766 61.4451 166.766 62.0227ZM181.688 57.5909V59.2955H175.729V57.5909H181.688ZM177.327 54.9773H179.451V65.2969C179.451 65.7088 179.512 66.0189 179.635 66.2273C179.758 66.4309 179.917 66.5705 180.111 66.6463C180.31 66.7173 180.525 66.7528 180.757 66.7528C180.928 66.7528 181.077 66.741 181.205 66.7173C181.333 66.6937 181.432 66.6747 181.503 66.6605L181.887 68.4148C181.764 68.4621 181.588 68.5095 181.361 68.5568C181.134 68.6089 180.85 68.6373 180.509 68.642C179.95 68.6515 179.429 68.5521 178.946 68.3438C178.463 68.1354 178.073 67.8134 177.775 67.3778C177.476 66.9422 177.327 66.3954 177.327 65.7372V54.9773ZM188.621 68.7202C187.547 68.7202 186.621 68.4905 185.844 68.0312C185.073 67.5672 184.476 66.9162 184.055 66.0781C183.638 65.2353 183.43 64.2481 183.43 63.1165C183.43 61.9991 183.638 61.0142 184.055 60.1619C184.476 59.3097 185.063 58.6444 185.816 58.1662C186.574 57.688 187.459 57.4489 188.472 57.4489C189.088 57.4489 189.684 57.5507 190.262 57.7543C190.84 57.9579 191.358 58.2775 191.817 58.7131C192.277 59.1487 192.639 59.7145 192.904 60.4105C193.169 61.1018 193.302 61.9422 193.302 62.9318V63.6847H184.63V62.0938H191.221C191.221 61.535 191.107 61.0402 190.88 60.6094C190.653 60.1738 190.333 59.8305 189.921 59.5795C189.514 59.3286 189.036 59.2031 188.487 59.2031C187.89 59.2031 187.369 59.3499 186.924 59.6435C186.484 59.9323 186.143 60.3111 185.901 60.7798C185.665 61.2438 185.546 61.7481 185.546 62.2926V63.5355C185.546 64.2647 185.674 64.8849 185.93 65.3963C186.19 65.9077 186.552 66.2983 187.016 66.5682C187.48 66.8333 188.022 66.9659 188.643 66.9659C189.045 66.9659 189.412 66.9091 189.744 66.7955C190.075 66.6771 190.362 66.5019 190.603 66.2699C190.844 66.0379 191.029 65.7514 191.157 65.4105L193.167 65.7727C193.006 66.3646 192.717 66.883 192.3 67.3281C191.888 67.7685 191.37 68.1117 190.745 68.358C190.125 68.5994 189.417 68.7202 188.621 68.7202ZM197.782 62.0227V68.5H195.658V57.5909H197.696V59.3665H197.831C198.082 58.7888 198.475 58.3248 199.01 57.9744C199.55 57.6241 200.23 57.4489 201.049 57.4489C201.792 57.4489 202.443 57.6051 203.002 57.9176C203.56 58.2254 203.994 58.6847 204.301 59.2955C204.609 59.9062 204.763 60.6615 204.763 61.5611V68.5H202.64V61.8168C202.64 61.026 202.434 60.4081 202.022 59.9631C201.61 59.5133 201.044 59.2884 200.324 59.2884C199.832 59.2884 199.394 59.3949 199.01 59.608C198.632 59.821 198.331 60.1335 198.108 60.5455C197.891 60.9527 197.782 61.4451 197.782 62.0227ZM211.695 68.7131C210.814 68.7131 210.028 68.4882 209.337 68.0384C208.65 67.5838 208.111 66.9375 207.718 66.0994C207.329 65.2566 207.135 64.2457 207.135 63.0668C207.135 61.8878 207.332 60.8793 207.725 60.0412C208.123 59.2031 208.667 58.5616 209.358 58.1165C210.05 57.6714 210.833 57.4489 211.709 57.4489C212.386 57.4489 212.931 57.5625 213.343 57.7898C213.759 58.0123 214.081 58.2727 214.309 58.571C214.541 58.8693 214.721 59.1321 214.848 59.3594H214.976V53.9545H217.1V68.5H215.026V66.8026H214.848C214.721 67.0346 214.536 67.2997 214.294 67.598C214.058 67.8963 213.731 68.1567 213.314 68.3793C212.898 68.6018 212.358 68.7131 211.695 68.7131ZM212.164 66.902C212.775 66.902 213.291 66.741 213.712 66.419C214.138 66.0923 214.46 65.6402 214.678 65.0625C214.9 64.4848 215.012 63.8125 215.012 63.0455C215.012 62.2879 214.903 61.625 214.685 61.0568C214.467 60.4886 214.148 60.0459 213.726 59.7287C213.305 59.4115 212.784 59.2528 212.164 59.2528C211.525 59.2528 210.992 59.4186 210.566 59.75C210.14 60.0814 209.818 60.5336 209.6 61.1065C209.387 61.6795 209.28 62.3258 209.28 63.0455C209.28 63.7746 209.389 64.4304 209.607 65.0128C209.825 65.5952 210.147 66.0568 210.573 66.3977C211.004 66.7339 211.534 66.902 212.164 66.902Z" fill="#141615"/>
</g>
<g filter="url(#filter1_d_374_101)">
<rect x="239" y="41.5" width="97" height="40" rx="20" fill="#43D18C"/>
<path d="M266.357 68.6953C265.107 68.6953 263.988 68.3958 262.998 67.7969C262.008 67.1979 261.23 66.3418 260.664 65.2285C260.098 64.1087 259.814 62.7773 259.814 61.2344C259.814 59.6784 260.098 58.3438 260.664 57.2305C261.237 56.1107 262.015 55.2513 262.998 54.6523C263.988 54.0534 265.107 53.7539 266.357 53.7539C267.126 53.7539 267.845 53.8646 268.516 54.0859C269.193 54.3073 269.798 54.6296 270.332 55.0527C270.866 55.4759 271.305 55.9935 271.65 56.6055C272.002 57.2174 272.236 57.9108 272.354 58.6855H270.146C270.062 58.2103 269.902 57.7936 269.668 57.4355C269.44 57.071 269.157 56.765 268.818 56.5176C268.486 56.2637 268.112 56.0749 267.695 55.9512C267.285 55.821 266.849 55.7559 266.387 55.7559C265.553 55.7559 264.801 55.9674 264.131 56.3906C263.467 56.8073 262.943 57.4258 262.559 58.2461C262.181 59.0599 261.992 60.056 261.992 61.2344C261.992 62.4193 262.184 63.4186 262.568 64.2324C262.952 65.0397 263.477 65.6517 264.141 66.0684C264.805 66.485 265.55 66.6934 266.377 66.6934C266.839 66.6934 267.275 66.6315 267.686 66.5078C268.096 66.3841 268.47 66.1986 268.809 65.9512C269.147 65.7038 269.43 65.4043 269.658 65.0527C269.893 64.6947 270.055 64.2812 270.146 63.8125H272.354C272.243 64.5352 272.018 65.196 271.68 65.7949C271.341 66.3874 270.908 66.9017 270.381 67.3379C269.854 67.7676 269.251 68.1029 268.574 68.3438C267.897 68.5781 267.158 68.6953 266.357 68.6953ZM273.994 68.5V57.582H282.881V68.5H280.801V59.418H276.045V68.5H273.994ZM289.492 68.7246C288.47 68.7246 287.575 68.4902 286.807 68.0215C286.045 67.5527 285.452 66.8952 285.029 66.0488C284.613 65.2025 284.404 64.2194 284.404 63.0996C284.404 61.9668 284.613 60.9772 285.029 60.1309C285.452 59.278 286.045 58.6172 286.807 58.1484C287.575 57.6797 288.47 57.4453 289.492 57.4453C290.521 57.4453 291.416 57.6797 292.178 58.1484C292.939 58.6172 293.532 59.278 293.955 60.1309C294.378 60.9772 294.59 61.9668 294.59 63.0996C294.59 64.2194 294.378 65.2025 293.955 66.0488C293.532 66.8952 292.939 67.5527 292.178 68.0215C291.416 68.4902 290.521 68.7246 289.492 68.7246ZM289.492 66.9375C290.163 66.9375 290.716 66.7617 291.152 66.4102C291.589 66.0586 291.911 65.5931 292.119 65.0137C292.334 64.4277 292.441 63.7897 292.441 63.0996C292.441 62.3965 292.334 61.752 292.119 61.166C291.911 60.5801 291.589 60.1113 291.152 59.7598C290.716 59.4082 290.163 59.2324 289.492 59.2324C288.828 59.2324 288.278 59.4082 287.842 59.7598C287.412 60.1113 287.09 60.5801 286.875 61.166C286.66 61.752 286.553 62.3965 286.553 63.0996C286.553 63.7897 286.66 64.4277 286.875 65.0137C287.09 65.5931 287.412 66.0586 287.842 66.4102C288.278 66.7617 288.828 66.9375 289.492 66.9375ZM296.123 72.582V57.582H298.174V59.3594H298.35C298.48 59.1315 298.659 58.8678 298.887 58.5684C299.121 58.2689 299.447 58.0085 299.863 57.7871C300.28 57.5592 300.824 57.4453 301.494 57.4453C302.373 57.4453 303.154 57.6667 303.838 58.1094C304.528 58.5521 305.072 59.1934 305.469 60.0332C305.866 60.873 306.064 61.8854 306.064 63.0703C306.064 64.2422 305.869 65.2513 305.479 66.0977C305.088 66.9375 304.548 67.5853 303.857 68.041C303.174 68.4902 302.389 68.7148 301.504 68.7148C300.846 68.7148 300.306 68.6042 299.883 68.3828C299.466 68.1549 299.137 67.8913 298.896 67.5918C298.662 67.2923 298.48 67.0286 298.35 66.8008H298.232V72.582H296.123ZM301.045 66.9082C301.676 66.9082 302.204 66.7389 302.627 66.4004C303.05 66.0618 303.369 65.6029 303.584 65.0234C303.805 64.4375 303.916 63.7799 303.916 63.0508C303.916 62.3281 303.809 61.6803 303.594 61.1074C303.379 60.5345 303.06 60.082 302.637 59.75C302.214 59.418 301.683 59.252 301.045 59.252C300.426 59.252 299.906 59.4115 299.482 59.7305C299.059 60.043 298.737 60.4857 298.516 61.0586C298.301 61.625 298.193 62.2891 298.193 63.0508C298.193 63.8125 298.304 64.4831 298.525 65.0625C298.747 65.6419 299.069 66.0944 299.492 66.4199C299.922 66.7454 300.439 66.9082 301.045 66.9082ZM306.289 59.418V57.582H315.479V59.418H311.934V68.5H309.854V59.418H306.289Z" fill="#141615"/>
</g>
<g filter="url(#filter2_d_374_101)">
<rect x="336" y="41.5" width="104" height="40" rx="20" fill="#1D2723"/>
<rect x="336" y="41.5" width="104" height="40" rx="20" stroke="#43D18C"/>
<path d="M358.493 68.5H356.646L361.987 53.9545H363.805L369.146 68.5H367.3L362.953 56.2557H362.839L358.493 68.5ZM359.175 62.8182H366.618V64.3807H359.175V62.8182ZM378.486 62.2784V63.8409H372.463V62.2784H378.486ZM372.861 57.5909V68.5H371.184V57.5909H372.861ZM379.764 57.5909V68.5H378.088V57.5909H379.764ZM384.501 66.0284L389.757 57.5909H391.689V68.5H390.013V60.0625L384.785 68.5H382.825V57.5909H384.501V66.0284ZM400.725 66.2273L404.531 57.5909H406.122L401.406 68.5H400.043L395.412 57.5909H396.975L400.725 66.2273ZM396.435 57.5909V68.5H394.759V57.5909H396.435ZM405.014 68.5V57.5909H406.691V68.5H405.014ZM414.333 68.7273C413.281 68.7273 412.375 68.4953 411.612 68.0312C410.855 67.5625 410.27 66.9091 409.858 66.071C409.451 65.2282 409.247 64.2481 409.247 63.1307C409.247 62.0133 409.451 61.0284 409.858 60.1761C410.27 59.3191 410.843 58.6515 411.577 58.1733C412.316 57.6903 413.177 57.4489 414.162 57.4489C414.73 57.4489 415.291 57.5436 415.845 57.733C416.399 57.9223 416.904 58.2301 417.358 58.6562C417.813 59.0777 418.175 59.6364 418.445 60.3324C418.715 61.0284 418.85 61.8854 418.85 62.9034V63.6136H410.441V62.1648H417.145C417.145 61.5492 417.022 61 416.776 60.517C416.534 60.0341 416.189 59.6529 415.739 59.3736C415.294 59.0942 414.768 58.9545 414.162 58.9545C413.494 58.9545 412.917 59.1203 412.429 59.4517C411.946 59.7784 411.575 60.2045 411.314 60.7301C411.054 61.2557 410.923 61.8191 410.923 62.4205V63.3864C410.923 64.2102 411.066 64.9086 411.35 65.4815C411.638 66.0497 412.039 66.483 412.55 66.7812C413.061 67.0748 413.655 67.2216 414.333 67.2216C414.773 67.2216 415.171 67.16 415.526 67.0369C415.886 66.9091 416.196 66.7197 416.456 66.4688C416.717 66.2131 416.918 65.8958 417.06 65.517L418.679 65.9716C418.509 66.5208 418.222 67.0038 417.82 67.4205C417.417 67.8324 416.92 68.1544 416.328 68.3864C415.736 68.6136 415.071 68.7273 414.333 68.7273Z" fill="#43D18C"/>
</g>
<g filter="url(#filter3_d_374_101)">
<rect x="81.5" y="81.5" width="160" height="40" rx="20" fill="#1D2723"/>
<rect x="81.5" y="81.5" width="160" height="40" rx="20" stroke="#43D18C"/>
<path d="M103.418 93.9545H105.151V105.403H105.293L113.247 93.9545H114.952V108.5H113.19V97.0795H113.048L105.122 108.5H103.418V93.9545ZM125.55 102.278V103.841H119.527V102.278H125.55ZM119.925 97.5909V108.5H118.249V97.5909H119.925ZM126.828 97.5909V108.5H125.152V97.5909H126.828ZM129.89 108.5V97.5909H134.35C135.524 97.5909 136.457 97.8561 137.148 98.3864C137.839 98.9167 138.185 99.6174 138.185 100.489C138.185 101.152 137.989 101.665 137.596 102.03C137.203 102.39 136.698 102.634 136.083 102.761C136.485 102.818 136.876 102.96 137.255 103.188C137.638 103.415 137.955 103.727 138.206 104.125C138.457 104.518 138.583 105.001 138.583 105.574C138.583 106.133 138.441 106.632 138.157 107.072C137.873 107.513 137.465 107.861 136.935 108.116C136.405 108.372 135.77 108.5 135.032 108.5H129.89ZM131.48 106.966H135.032C135.609 106.966 136.061 106.829 136.388 106.554C136.715 106.279 136.878 105.905 136.878 105.432C136.878 104.868 136.715 104.426 136.388 104.104C136.061 103.777 135.609 103.614 135.032 103.614H131.48V106.966ZM131.48 102.165H134.35C134.8 102.165 135.185 102.103 135.507 101.98C135.829 101.852 136.076 101.672 136.246 101.44C136.421 101.204 136.509 100.924 136.509 100.602C136.509 100.143 136.317 99.7831 135.934 99.5227C135.55 99.2576 135.022 99.125 134.35 99.125H131.48V102.165ZM145.694 108.727C144.643 108.727 143.736 108.495 142.974 108.031C142.216 107.562 141.631 106.909 141.219 106.071C140.812 105.228 140.609 104.248 140.609 103.131C140.609 102.013 140.812 101.028 141.219 100.176C141.631 99.3191 142.204 98.6515 142.938 98.1733C143.677 97.6903 144.539 97.4489 145.523 97.4489C146.092 97.4489 146.653 97.5436 147.207 97.733C147.761 97.9223 148.265 98.2301 148.719 98.6562C149.174 99.0777 149.536 99.6364 149.806 100.332C150.076 101.028 150.211 101.885 150.211 102.903V103.614H141.802V102.165H148.506C148.506 101.549 148.383 101 148.137 100.517C147.896 100.034 147.55 99.6529 147.1 99.3736C146.655 99.0942 146.129 98.9545 145.523 98.9545C144.856 98.9545 144.278 99.1203 143.79 99.4517C143.308 99.7784 142.936 100.205 142.675 100.73C142.415 101.256 142.285 101.819 142.285 102.42V103.386C142.285 104.21 142.427 104.909 142.711 105.482C143 106.05 143.4 106.483 143.911 106.781C144.423 107.075 145.017 107.222 145.694 107.222C146.134 107.222 146.532 107.16 146.887 107.037C147.247 106.909 147.557 106.72 147.817 106.469C148.078 106.213 148.279 105.896 148.421 105.517L150.04 105.972C149.87 106.521 149.584 107.004 149.181 107.42C148.779 107.832 148.281 108.154 147.69 108.386C147.098 108.614 146.433 108.727 145.694 108.727ZM157.192 108.727C156.17 108.727 155.289 108.486 154.55 108.003C153.812 107.52 153.244 106.855 152.846 106.007C152.448 105.16 152.249 104.191 152.249 103.102C152.249 101.994 152.453 101.017 152.86 100.169C153.272 99.3168 153.845 98.6515 154.579 98.1733C155.317 97.6903 156.179 97.4489 157.164 97.4489C157.931 97.4489 158.622 97.5909 159.238 97.875C159.853 98.1591 160.358 98.5568 160.751 99.0682C161.144 99.5795 161.388 100.176 161.482 100.858H159.806C159.678 100.361 159.394 99.9205 158.954 99.5369C158.518 99.1487 157.931 98.9545 157.192 98.9545C156.539 98.9545 155.966 99.125 155.474 99.4659C154.986 99.8021 154.605 100.278 154.33 100.893C154.06 101.504 153.925 102.222 153.925 103.045C153.925 103.888 154.058 104.622 154.323 105.247C154.593 105.872 154.972 106.357 155.46 106.703C155.952 107.049 156.53 107.222 157.192 107.222C157.628 107.222 158.023 107.146 158.379 106.994C158.734 106.843 159.034 106.625 159.281 106.341C159.527 106.057 159.702 105.716 159.806 105.318H161.482C161.388 105.962 161.153 106.542 160.779 107.058C160.41 107.57 159.92 107.977 159.309 108.28C158.703 108.578 157.997 108.727 157.192 108.727ZM163.073 99.1534V97.5909H171.937V99.1534H168.357V108.5H166.681V99.1534H163.073ZM176.058 106.028L181.314 97.5909H183.245V108.5H181.569V100.062L176.342 108.5H174.382V97.5909H176.058V106.028ZM194.895 97.5909V106.938H196.429V112.023H194.753V108.5H186.315V97.5909H187.991V106.938H193.219V97.5909H194.895ZM200.687 106.028L205.942 97.5909H207.874V108.5H206.198V100.062L200.971 108.5H199.011V97.5909H200.687V106.028ZM212.62 106.028L217.876 97.5909H219.808V108.5H218.132V100.062L212.904 108.5H210.944V97.5909H212.62V106.028Z" fill="#43D18C"/>
</g>
<g filter="url(#filter4_d_374_101)">
<rect x="241.5" y="81.5" width="71" height="40" rx="20" fill="#1D2723"/>
<rect x="241.5" y="81.5" width="71" height="40" rx="20" stroke="#43D18C"/>
<path d="M263.703 93.9545H265.436V105.403H265.578L273.532 93.9545H275.237V108.5H273.475V97.0795H273.333L265.407 108.5H263.703V93.9545ZM278.761 93.9545H280.494V105.403H280.636L288.591 93.9545H290.295V108.5H288.534V97.0795H288.392L280.466 108.5H278.761V93.9545Z" fill="#43D18C"/>
</g>
<g filter="url(#filter5_d_374_101)">
<rect x="312.5" y="81.5" width="158" height="40" rx="20" fill="#43D18C"/>
<path d="M335.173 108.699V106.767H336.046C336.411 106.767 336.712 106.705 336.948 106.582C337.19 106.459 337.386 106.294 337.538 106.085C337.694 105.872 337.824 105.64 337.928 105.389L338.134 104.871L333.021 93.9545H335.35L339.164 102.364L342.559 93.9545H344.86L339.832 105.979C339.619 106.462 339.373 106.909 339.093 107.321C338.819 107.733 338.452 108.067 337.992 108.322C337.533 108.573 336.925 108.699 336.167 108.699H335.173ZM345.965 108.5V97.5909H354.864V108.5H352.783V99.4233H348.031V108.5H345.965ZM357.703 112.591V97.5909H359.777V99.3594H359.954C360.077 99.1321 360.255 98.8693 360.487 98.571C360.719 98.2727 361.041 98.0123 361.453 97.7898C361.865 97.5625 362.409 97.4489 363.086 97.4489C363.967 97.4489 364.753 97.6714 365.444 98.1165C366.136 98.5616 366.678 99.2031 367.071 100.041C367.469 100.879 367.667 101.888 367.667 103.067C367.667 104.246 367.471 105.257 367.078 106.099C366.685 106.937 366.145 107.584 365.459 108.038C364.772 108.488 363.988 108.713 363.108 108.713C362.445 108.713 361.903 108.602 361.481 108.379C361.065 108.157 360.738 107.896 360.501 107.598C360.265 107.3 360.082 107.035 359.954 106.803H359.827V112.591H357.703ZM359.784 103.045C359.784 103.812 359.895 104.485 360.118 105.062C360.34 105.64 360.662 106.092 361.084 106.419C361.505 106.741 362.021 106.902 362.632 106.902C363.266 106.902 363.797 106.734 364.223 106.398C364.649 106.057 364.971 105.595 365.189 105.013C365.411 104.43 365.523 103.775 365.523 103.045C365.523 102.326 365.414 101.679 365.196 101.107C364.983 100.534 364.661 100.081 364.23 99.75C363.804 99.4186 363.271 99.2528 362.632 99.2528C362.016 99.2528 361.496 99.4115 361.069 99.7287C360.648 100.046 360.328 100.489 360.111 101.057C359.893 101.625 359.784 102.288 359.784 103.045ZM373.221 108.741C372.53 108.741 371.905 108.614 371.346 108.358C370.788 108.098 370.345 107.721 370.018 107.229C369.696 106.736 369.535 106.133 369.535 105.418C369.535 104.802 369.654 104.295 369.89 103.898C370.127 103.5 370.447 103.185 370.849 102.953C371.252 102.721 371.702 102.546 372.199 102.428C372.696 102.309 373.202 102.219 373.719 102.158C374.372 102.082 374.902 102.02 375.309 101.973C375.717 101.921 376.013 101.838 376.197 101.724C376.382 101.611 376.474 101.426 376.474 101.17V101.121C376.474 100.5 376.299 100.02 375.949 99.679C375.603 99.3381 375.087 99.1676 374.4 99.1676C373.685 99.1676 373.122 99.3262 372.71 99.6435C372.303 99.956 372.021 100.304 371.865 100.688L369.869 100.233C370.106 99.5701 370.452 99.035 370.906 98.6278C371.365 98.2159 371.893 97.9176 372.49 97.733C373.086 97.5436 373.714 97.4489 374.372 97.4489C374.808 97.4489 375.269 97.5009 375.757 97.6051C376.249 97.7045 376.709 97.8892 377.135 98.1591C377.566 98.429 377.918 98.8149 378.193 99.3168C378.468 99.8139 378.605 100.46 378.605 101.256V108.5H376.531V107.009H376.446C376.309 107.283 376.103 107.553 375.828 107.818C375.553 108.083 375.201 108.304 374.77 108.479C374.339 108.654 373.823 108.741 373.221 108.741ZM373.683 107.037C374.27 107.037 374.772 106.921 375.189 106.689C375.61 106.457 375.93 106.154 376.148 105.78C376.37 105.401 376.481 104.996 376.481 104.565V103.159C376.406 103.235 376.259 103.306 376.041 103.372C375.828 103.434 375.584 103.488 375.309 103.536C375.035 103.578 374.767 103.618 374.507 103.656C374.247 103.689 374.029 103.718 373.854 103.741C373.442 103.794 373.065 103.881 372.724 104.004C372.388 104.127 372.118 104.305 371.915 104.537C371.716 104.764 371.616 105.067 371.616 105.446C371.616 105.972 371.81 106.369 372.199 106.639C372.587 106.904 373.082 107.037 373.683 107.037ZM381.433 108.5V97.5909H385.958C387.189 97.5909 388.164 97.8537 388.884 98.3793C389.603 98.9001 389.963 99.608 389.963 100.503C389.963 101.142 389.76 101.649 389.352 102.023C388.945 102.397 388.405 102.648 387.733 102.776C388.221 102.832 388.668 102.979 389.075 103.216C389.483 103.448 389.809 103.76 390.056 104.153C390.307 104.546 390.432 105.015 390.432 105.56C390.432 106.137 390.283 106.649 389.985 107.094C389.686 107.534 389.253 107.88 388.685 108.131C388.121 108.377 387.442 108.5 386.646 108.5H381.433ZM383.429 106.724H386.646C387.172 106.724 387.584 106.599 387.882 106.348C388.181 106.097 388.33 105.756 388.33 105.325C388.33 104.819 388.181 104.421 387.882 104.132C387.584 103.839 387.172 103.692 386.646 103.692H383.429V106.724ZM383.429 102.136H385.979C386.377 102.136 386.718 102.08 387.002 101.966C387.29 101.852 387.511 101.691 387.662 101.483C387.818 101.27 387.896 101.019 387.896 100.73C387.896 100.309 387.724 99.9796 387.378 99.7429C387.032 99.5062 386.559 99.3878 385.958 99.3878H383.429V102.136ZM391.902 108.5L391.895 106.661H392.286C392.589 106.661 392.842 106.597 393.046 106.469C393.254 106.336 393.424 106.114 393.557 105.801C393.69 105.489 393.791 105.058 393.862 104.509C393.933 103.955 393.985 103.259 394.019 102.42L394.21 97.5909H401.824V108.5H399.743V99.4233H396.178L396.007 103.131C395.965 104.03 395.872 104.816 395.73 105.489C395.593 106.161 395.392 106.722 395.127 107.172C394.861 107.617 394.521 107.951 394.104 108.173C393.687 108.391 393.181 108.5 392.584 108.5H391.902ZM409.358 108.72C408.283 108.72 407.357 108.491 406.581 108.031C405.809 107.567 405.212 106.916 404.791 106.078C404.374 105.235 404.166 104.248 404.166 103.116C404.166 101.999 404.374 101.014 404.791 100.162C405.212 99.3097 405.8 98.6444 406.552 98.1662C407.31 97.688 408.195 97.4489 409.209 97.4489C409.824 97.4489 410.421 97.5507 410.998 97.7543C411.576 97.9579 412.095 98.2775 412.554 98.7131C413.013 99.1487 413.375 99.7145 413.64 100.411C413.906 101.102 414.038 101.942 414.038 102.932V103.685H405.366V102.094H411.957C411.957 101.535 411.844 101.04 411.616 100.609C411.389 100.174 411.069 99.8305 410.657 99.5795C410.25 99.3286 409.772 99.2031 409.223 99.2031C408.626 99.2031 408.105 99.3499 407.66 99.6435C407.22 99.9323 406.879 100.311 406.638 100.78C406.401 101.244 406.282 101.748 406.282 102.293V103.536C406.282 104.265 406.41 104.885 406.666 105.396C406.926 105.908 407.289 106.298 407.753 106.568C408.217 106.833 408.759 106.966 409.379 106.966C409.782 106.966 410.148 106.909 410.48 106.795C410.811 106.677 411.098 106.502 411.339 106.27C411.581 106.038 411.765 105.751 411.893 105.411L413.903 105.773C413.742 106.365 413.453 106.883 413.037 107.328C412.625 107.768 412.106 108.112 411.481 108.358C410.861 108.599 410.153 108.72 409.358 108.72ZM423.788 102.129V103.969H417.879V102.129H423.788ZM418.475 97.5909V108.5H416.394V97.5909H418.475ZM425.272 97.5909V108.5H423.198V97.5909H425.272ZM430.194 105.524L435.002 97.5909H437.289V108.5H435.208V100.56L430.421 108.5H428.113V97.5909H430.194V105.524ZM444.846 108.72C443.771 108.72 442.846 108.491 442.069 108.031C441.297 107.567 440.701 106.916 440.279 106.078C439.863 105.235 439.654 104.248 439.654 103.116C439.654 101.999 439.863 101.014 440.279 100.162C440.701 99.3097 441.288 98.6444 442.041 98.1662C442.798 97.688 443.684 97.4489 444.697 97.4489C445.312 97.4489 445.909 97.5507 446.487 97.7543C447.064 97.9579 447.583 98.2775 448.042 98.7131C448.501 99.1487 448.864 99.7145 449.129 100.411C449.394 101.102 449.526 101.942 449.526 102.932V103.685H440.855V102.094H447.445C447.445 101.535 447.332 101.04 447.105 100.609C446.877 100.174 446.558 99.8305 446.146 99.5795C445.739 99.3286 445.26 99.2031 444.711 99.2031C444.115 99.2031 443.594 99.3499 443.149 99.6435C442.708 99.9323 442.367 100.311 442.126 100.78C441.889 101.244 441.771 101.748 441.771 102.293V103.536C441.771 104.265 441.899 104.885 442.154 105.396C442.415 105.908 442.777 106.298 443.241 106.568C443.705 106.833 444.247 106.966 444.867 106.966C445.27 106.966 445.637 106.909 445.968 106.795C446.3 106.677 446.586 106.502 446.828 106.27C447.069 106.038 447.254 105.751 447.382 105.411L449.392 105.773C449.231 106.365 448.942 106.883 448.525 107.328C448.113 107.768 447.595 108.112 446.97 108.358C446.349 108.599 445.642 108.72 444.846 108.72Z" fill="#141615"/>
</g>
<g filter="url(#filter6_d_374_101)">
<rect x="40.5" y="121.5" width="107" height="40" rx="20" fill="#1D2723"/>
<rect x="40.5" y="121.5" width="107" height="40" rx="20" stroke="#43D18C"/>
<path d="M72.3549 138.5C72.1987 138.022 71.9927 137.593 71.737 137.214C71.4861 136.831 71.1854 136.504 70.8351 136.234C70.4894 135.964 70.0964 135.759 69.6561 135.616C69.2157 135.474 68.7328 135.403 68.2072 135.403C67.3455 135.403 66.5618 135.626 65.8564 136.071C65.1509 136.516 64.5898 137.172 64.1731 138.038C63.7565 138.905 63.5481 139.968 63.5481 141.227C63.5481 142.487 63.7588 143.55 64.1802 144.416C64.6016 145.283 65.1722 145.938 65.8919 146.384C66.6116 146.829 67.4212 147.051 68.3208 147.051C69.1542 147.051 69.8881 146.874 70.5225 146.518C71.1618 146.159 71.6589 145.652 72.014 144.999C72.3739 144.34 72.5538 143.566 72.5538 142.676L73.0936 142.79H68.7186V141.227H74.2583V142.79C74.2583 143.988 74.0027 145.029 73.4913 145.915C72.9847 146.8 72.2839 147.487 71.389 147.974C70.4989 148.457 69.4761 148.699 68.3208 148.699C67.033 148.699 65.9013 148.396 64.926 147.79C63.9553 147.184 63.1977 146.322 62.6532 145.205C62.1135 144.087 61.8436 142.761 61.8436 141.227C61.8436 140.077 61.9975 139.042 62.3052 138.124C62.6177 137.2 63.0581 136.414 63.6262 135.766C64.1944 135.117 64.8668 134.62 65.6433 134.274C66.4198 133.929 67.2744 133.756 68.2072 133.756C68.9743 133.756 69.6892 133.872 70.3521 134.104C71.0197 134.331 71.6139 134.655 72.1348 135.077C72.6603 135.493 73.0983 135.993 73.4487 136.575C73.7991 137.153 74.0405 137.795 74.1731 138.5H72.3549ZM81.4796 148.727C80.4947 148.727 79.6306 148.493 78.8873 148.024C78.1486 147.555 77.571 146.9 77.1543 146.057C76.7424 145.214 76.5364 144.229 76.5364 143.102C76.5364 141.966 76.7424 140.974 77.1543 140.126C77.571 139.279 78.1486 138.621 78.8873 138.152C79.6306 137.683 80.4947 137.449 81.4796 137.449C82.4644 137.449 83.3262 137.683 84.0648 138.152C84.8082 138.621 85.3858 139.279 85.7978 140.126C86.2144 140.974 86.4228 141.966 86.4228 143.102C86.4228 144.229 86.2144 145.214 85.7978 146.057C85.3858 146.9 84.8082 147.555 84.0648 148.024C83.3262 148.493 82.4644 148.727 81.4796 148.727ZM81.4796 147.222C82.2277 147.222 82.8432 147.03 83.3262 146.646C83.8091 146.263 84.1666 145.759 84.3986 145.134C84.6306 144.509 84.7466 143.831 84.7466 143.102C84.7466 142.373 84.6306 141.694 84.3986 141.064C84.1666 140.434 83.8091 139.925 83.3262 139.537C82.8432 139.149 82.2277 138.955 81.4796 138.955C80.7315 138.955 80.1159 139.149 79.633 139.537C79.15 139.925 78.7926 140.434 78.5605 141.064C78.3285 141.694 78.2125 142.373 78.2125 143.102C78.2125 143.831 78.3285 144.509 78.5605 145.134C78.7926 145.759 79.15 146.263 79.633 146.646C80.1159 147.03 80.7315 147.222 81.4796 147.222ZM90.6575 133.955V148.5H88.9814V133.955H90.6575ZM96.9377 148.756C96.2464 148.756 95.619 148.625 95.0556 148.365C94.4921 148.1 94.0447 147.719 93.7132 147.222C93.3818 146.72 93.2161 146.114 93.2161 145.403C93.2161 144.778 93.3392 144.272 93.5854 143.884C93.8316 143.491 94.1607 143.183 94.5726 142.96C94.9846 142.738 95.4391 142.572 95.9363 142.463C96.4382 142.349 96.9424 142.259 97.449 142.193C98.1119 142.108 98.6493 142.044 99.0613 142.001C99.4779 141.954 99.781 141.876 99.9703 141.767C100.164 141.658 100.262 141.469 100.262 141.199V141.142C100.262 140.441 100.07 139.897 99.6863 139.509C99.3075 139.12 98.7322 138.926 97.9604 138.926C97.1602 138.926 96.5328 139.101 96.0783 139.452C95.6238 139.802 95.3042 140.176 95.1195 140.574L93.5286 140.006C93.8127 139.343 94.1915 138.827 94.665 138.457C95.1432 138.083 95.664 137.823 96.2275 137.676C96.7956 137.525 97.3543 137.449 97.9036 137.449C98.254 137.449 98.6564 137.491 99.111 137.577C99.5703 137.657 100.013 137.825 100.439 138.081C100.87 138.337 101.227 138.723 101.512 139.239C101.796 139.755 101.938 140.446 101.938 141.312V148.5H100.262V147.023H100.176C100.063 147.259 99.8733 147.513 99.6081 147.783C99.343 148.053 98.9902 148.282 98.5499 148.472C98.1096 148.661 97.5721 148.756 96.9377 148.756ZM97.1934 147.25C97.8562 147.25 98.415 147.12 98.8695 146.859C99.3288 146.599 99.6744 146.263 99.9064 145.851C100.143 145.439 100.262 145.006 100.262 144.551V143.017C100.191 143.102 100.034 143.18 99.7928 143.251C99.556 143.318 99.2814 143.377 98.9689 143.429C98.6612 143.476 98.3605 143.519 98.0669 143.557C97.7781 143.59 97.5437 143.618 97.3638 143.642C96.9282 143.699 96.521 143.791 96.1422 143.919C95.7682 144.042 95.4651 144.229 95.2331 144.48C95.0059 144.726 94.8922 145.062 94.8922 145.489C94.8922 146.071 95.1077 146.511 95.5385 146.81C95.9741 147.103 96.5257 147.25 97.1934 147.25ZM106.673 141.938V148.5H104.997V137.591H106.616V139.295H106.758C107.014 138.741 107.402 138.296 107.923 137.96C108.444 137.619 109.116 137.449 109.94 137.449C110.679 137.449 111.325 137.6 111.879 137.903C112.433 138.202 112.864 138.656 113.172 139.267C113.479 139.873 113.633 140.64 113.633 141.568V148.5H111.957V141.682C111.957 140.825 111.735 140.157 111.29 139.679C110.845 139.196 110.234 138.955 109.457 138.955C108.922 138.955 108.444 139.071 108.023 139.303C107.606 139.535 107.277 139.873 107.035 140.318C106.794 140.763 106.673 141.303 106.673 141.938ZM121.1 152.818C120.29 152.818 119.594 152.714 119.012 152.506C118.429 152.302 117.944 152.032 117.556 151.696C117.172 151.365 116.867 151.009 116.639 150.631L117.975 149.693C118.126 149.892 118.318 150.119 118.55 150.375C118.782 150.635 119.099 150.86 119.502 151.05C119.909 151.244 120.441 151.341 121.1 151.341C121.98 151.341 122.707 151.128 123.28 150.702C123.853 150.276 124.139 149.608 124.139 148.699V146.483H123.997C123.874 146.682 123.699 146.928 123.472 147.222C123.249 147.51 122.927 147.768 122.506 147.996C122.089 148.218 121.526 148.33 120.816 148.33C119.935 148.33 119.144 148.121 118.443 147.705C117.747 147.288 117.196 146.682 116.789 145.886C116.386 145.091 116.185 144.125 116.185 142.989C116.185 141.871 116.381 140.898 116.774 140.07C117.167 139.236 117.714 138.592 118.415 138.138C119.116 137.679 119.925 137.449 120.844 137.449C121.554 137.449 122.118 137.567 122.534 137.804C122.956 138.036 123.278 138.301 123.5 138.599C123.727 138.893 123.903 139.134 124.026 139.324H124.196V137.591H125.816V148.812C125.816 149.75 125.602 150.512 125.176 151.099C124.755 151.691 124.187 152.125 123.472 152.399C122.762 152.679 121.971 152.818 121.1 152.818ZM121.043 146.824C121.715 146.824 122.283 146.67 122.747 146.362C123.211 146.054 123.564 145.612 123.806 145.034C124.047 144.456 124.168 143.765 124.168 142.96C124.168 142.174 124.049 141.481 123.813 140.879C123.576 140.278 123.226 139.807 122.762 139.466C122.298 139.125 121.725 138.955 121.043 138.955C120.333 138.955 119.741 139.134 119.267 139.494C118.798 139.854 118.446 140.337 118.209 140.943C117.977 141.549 117.861 142.222 117.861 142.96C117.861 143.718 117.979 144.388 118.216 144.97C118.458 145.548 118.813 146.002 119.281 146.334C119.755 146.661 120.342 146.824 121.043 146.824Z" fill="#43D18C"/>
</g>
<g filter="url(#filter7_d_374_101)">
<rect x="147.5" y="121.5" width="92" height="40" rx="20" fill="#43D18C"/>
<path d="M169.121 133.955H171.295V144.636H171.43L178.83 133.955H180.862V148.5H178.667V137.832H178.532L171.146 148.5H169.121V133.955ZM190.867 137.591V139.423H185.988V148.5H183.892V137.591H190.867ZM193.111 152.591V137.591H195.185V139.359H195.363C195.486 139.132 195.663 138.869 195.895 138.571C196.127 138.273 196.449 138.012 196.861 137.79C197.273 137.562 197.818 137.449 198.495 137.449C199.375 137.449 200.161 137.671 200.853 138.116C201.544 138.562 202.086 139.203 202.479 140.041C202.877 140.879 203.076 141.888 203.076 143.067C203.076 144.246 202.879 145.257 202.486 146.099C202.093 146.937 201.553 147.584 200.867 148.038C200.18 148.488 199.397 148.713 198.516 148.713C197.853 148.713 197.311 148.602 196.89 148.379C196.473 148.157 196.146 147.896 195.909 147.598C195.673 147.3 195.49 147.035 195.363 146.803H195.235V152.591H193.111ZM195.192 143.045C195.192 143.812 195.303 144.485 195.526 145.062C195.748 145.64 196.07 146.092 196.492 146.419C196.913 146.741 197.429 146.902 198.04 146.902C198.675 146.902 199.205 146.734 199.631 146.398C200.057 146.057 200.379 145.595 200.597 145.013C200.819 144.43 200.931 143.775 200.931 143.045C200.931 142.326 200.822 141.679 200.604 141.107C200.391 140.534 200.069 140.081 199.638 139.75C199.212 139.419 198.679 139.253 198.04 139.253C197.425 139.253 196.904 139.411 196.478 139.729C196.056 140.046 195.737 140.489 195.519 141.057C195.301 141.625 195.192 142.288 195.192 143.045ZM207.053 141.341H210.221C211.556 141.341 212.583 141.672 213.303 142.335C214.023 142.998 214.382 143.853 214.382 144.899C214.382 145.581 214.221 146.194 213.9 146.739C213.578 147.283 213.106 147.714 212.486 148.031C211.866 148.344 211.111 148.5 210.221 148.5H205.455V137.591H207.536V146.668H210.221C210.831 146.668 211.333 146.509 211.726 146.192C212.119 145.87 212.316 145.46 212.316 144.963C212.316 144.437 212.119 144.009 211.726 143.678C211.333 143.341 210.831 143.173 210.221 143.173H207.053V141.341ZM215.931 148.5V137.591H218.054V148.5H215.931Z" fill="#141615"/>
</g>
<g filter="url(#filter8_d_374_101)">
<rect x="239.5" y="121.5" width="115" height="40" rx="20" fill="#1D2723"/>
<rect x="239.5" y="121.5" width="115" height="40" rx="20" stroke="#43D18C"/>
<path d="M265.906 148.5H261.418V133.955H266.105C267.516 133.955 268.723 134.246 269.727 134.828C270.731 135.406 271.5 136.237 272.036 137.321C272.571 138.401 272.838 139.693 272.838 141.199C272.838 142.714 272.568 144.018 272.028 145.112C271.489 146.201 270.703 147.039 269.67 147.626C268.638 148.209 267.384 148.5 265.906 148.5ZM263.179 146.938H265.793C266.995 146.938 267.992 146.705 268.783 146.241C269.573 145.777 270.163 145.117 270.551 144.26C270.939 143.403 271.134 142.383 271.134 141.199C271.134 140.025 270.942 139.014 270.558 138.166C270.175 137.314 269.602 136.661 268.839 136.206C268.077 135.747 267.128 135.517 265.991 135.517H263.179V146.938ZM280.139 148.727C279.088 148.727 278.181 148.495 277.419 148.031C276.661 147.562 276.077 146.909 275.665 146.071C275.258 145.228 275.054 144.248 275.054 143.131C275.054 142.013 275.258 141.028 275.665 140.176C276.077 139.319 276.65 138.652 277.384 138.173C278.122 137.69 278.984 137.449 279.969 137.449C280.537 137.449 281.098 137.544 281.652 137.733C282.206 137.922 282.71 138.23 283.165 138.656C283.619 139.078 283.982 139.636 284.251 140.332C284.521 141.028 284.656 141.885 284.656 142.903V143.614H276.247V142.165H282.952C282.952 141.549 282.829 141 282.582 140.517C282.341 140.034 281.995 139.653 281.545 139.374C281.1 139.094 280.575 138.955 279.969 138.955C279.301 138.955 278.723 139.12 278.236 139.452C277.753 139.778 277.381 140.205 277.121 140.73C276.86 141.256 276.73 141.819 276.73 142.42V143.386C276.73 144.21 276.872 144.909 277.156 145.482C277.445 146.05 277.845 146.483 278.357 146.781C278.868 147.075 279.462 147.222 280.139 147.222C280.58 147.222 280.977 147.16 281.332 147.037C281.692 146.909 282.002 146.72 282.263 146.469C282.523 146.213 282.724 145.896 282.866 145.517L284.486 145.972C284.315 146.521 284.029 147.004 283.626 147.42C283.224 147.832 282.727 148.154 282.135 148.386C281.543 148.614 280.878 148.727 280.139 148.727ZM295.794 137.591L291.76 148.5H290.056L286.022 137.591H287.84L290.851 146.284H290.965L293.976 137.591H295.794ZM310.507 141.227C310.507 142.761 310.23 144.087 309.676 145.205C309.122 146.322 308.362 147.184 307.396 147.79C306.43 148.396 305.327 148.699 304.086 148.699C302.846 148.699 301.743 148.396 300.777 147.79C299.811 147.184 299.051 146.322 298.497 145.205C297.943 144.087 297.666 142.761 297.666 141.227C297.666 139.693 297.943 138.367 298.497 137.25C299.051 136.133 299.811 135.271 300.777 134.665C301.743 134.059 302.846 133.756 304.086 133.756C305.327 133.756 306.43 134.059 307.396 134.665C308.362 135.271 309.122 136.133 309.676 137.25C310.23 138.367 310.507 139.693 310.507 141.227ZM308.802 141.227C308.802 139.968 308.592 138.905 308.17 138.038C307.753 137.172 307.188 136.516 306.473 136.071C305.762 135.626 304.967 135.403 304.086 135.403C303.206 135.403 302.408 135.626 301.693 136.071C300.983 136.516 300.417 137.172 299.995 138.038C299.579 138.905 299.37 139.968 299.37 141.227C299.37 142.487 299.579 143.55 299.995 144.416C300.417 145.283 300.983 145.938 301.693 146.384C302.408 146.829 303.206 147.051 304.086 147.051C304.967 147.051 305.762 146.829 306.473 146.384C307.188 145.938 307.753 145.283 308.17 144.416C308.592 143.55 308.802 142.487 308.802 141.227ZM313.241 152.591V137.591H314.86V139.324H315.059C315.182 139.134 315.353 138.893 315.571 138.599C315.793 138.301 316.11 138.036 316.522 137.804C316.939 137.567 317.502 137.449 318.213 137.449C319.131 137.449 319.941 137.679 320.642 138.138C321.342 138.597 321.889 139.248 322.282 140.091C322.675 140.934 322.872 141.928 322.872 143.074C322.872 144.229 322.675 145.231 322.282 146.078C321.889 146.921 321.345 147.574 320.649 148.038C319.953 148.498 319.15 148.727 318.241 148.727C317.54 148.727 316.979 148.611 316.558 148.379C316.136 148.143 315.812 147.875 315.585 147.577C315.358 147.274 315.182 147.023 315.059 146.824H314.917V152.591H313.241ZM314.889 143.045C314.889 143.869 315.01 144.596 315.251 145.226C315.493 145.851 315.845 146.341 316.309 146.696C316.773 147.046 317.342 147.222 318.014 147.222C318.715 147.222 319.299 147.037 319.768 146.668C320.242 146.294 320.597 145.792 320.833 145.162C321.075 144.527 321.196 143.822 321.196 143.045C321.196 142.278 321.077 141.587 320.841 140.972C320.609 140.351 320.256 139.861 319.782 139.501C319.314 139.137 318.724 138.955 318.014 138.955C317.332 138.955 316.759 139.127 316.295 139.473C315.831 139.814 315.481 140.292 315.244 140.908C315.007 141.518 314.889 142.231 314.889 143.045ZM333.156 140.034L331.65 140.46C331.556 140.209 331.416 139.965 331.231 139.729C331.051 139.487 330.805 139.288 330.493 139.132C330.18 138.976 329.78 138.898 329.292 138.898C328.625 138.898 328.068 139.052 327.623 139.359C327.183 139.662 326.963 140.048 326.963 140.517C326.963 140.934 327.114 141.263 327.417 141.504C327.72 141.746 328.194 141.947 328.838 142.108L330.457 142.506C331.432 142.742 332.159 143.105 332.637 143.592C333.116 144.075 333.355 144.698 333.355 145.46C333.355 146.085 333.175 146.644 332.815 147.136C332.46 147.629 331.963 148.017 331.324 148.301C330.684 148.585 329.941 148.727 329.093 148.727C327.981 148.727 327.06 148.486 326.331 148.003C325.601 147.52 325.14 146.814 324.946 145.886L326.537 145.489C326.688 146.076 326.975 146.516 327.396 146.81C327.822 147.103 328.378 147.25 329.065 147.25C329.846 147.25 330.467 147.084 330.926 146.753C331.39 146.417 331.622 146.014 331.622 145.545C331.622 145.167 331.489 144.849 331.224 144.594C330.959 144.333 330.552 144.139 330.002 144.011L328.184 143.585C327.185 143.348 326.451 142.982 325.983 142.484C325.519 141.982 325.287 141.355 325.287 140.602C325.287 139.987 325.459 139.442 325.805 138.969C326.155 138.495 326.631 138.124 327.233 137.854C327.839 137.584 328.525 137.449 329.292 137.449C330.372 137.449 331.219 137.686 331.835 138.159C332.455 138.633 332.895 139.258 333.156 140.034Z" fill="#43D18C"/>
</g>
<g filter="url(#filter9_d_374_101)">
<rect x="354.5" y="121.5" width="157" height="40" rx="20" fill="#43D18C"/>
<path d="M377.585 148.5H375.255L380.489 133.955H383.025L388.259 148.5H385.93L381.817 136.597H381.704L377.585 148.5ZM377.975 142.804H385.532V144.651H377.975V142.804ZM397.583 142.129V143.969H391.674V142.129H397.583ZM392.27 137.591V148.5H390.189V137.591H392.27ZM399.067 137.591V148.5H396.993V137.591H399.067ZM408.882 137.591V139.423H404.003V148.5H401.908V137.591H408.882ZM409.369 148.5L409.362 146.661H409.752C410.056 146.661 410.309 146.597 410.512 146.469C410.721 146.336 410.891 146.114 411.024 145.801C411.156 145.489 411.258 145.058 411.329 144.509C411.4 143.955 411.452 143.259 411.485 142.42L411.677 137.591H419.291V148.5H417.21V139.423H413.645L413.474 143.131C413.431 144.03 413.339 144.816 413.197 145.489C413.06 146.161 412.859 146.722 412.593 147.172C412.328 147.617 411.987 147.951 411.571 148.173C411.154 148.391 410.647 148.5 410.051 148.5H409.369ZM424.204 145.524L429.012 137.591H431.299V148.5H429.218V140.56L424.431 148.5H422.123V137.591H424.204V145.524ZM436.235 145.524L441.043 137.591H443.33V148.5H441.249V140.56L436.462 148.5H434.154V137.591H436.235V145.524ZM440.134 133.898H441.881C441.881 134.698 441.597 135.349 441.029 135.851C440.466 136.348 439.703 136.597 438.742 136.597C437.786 136.597 437.026 136.348 436.462 135.851C435.899 135.349 435.617 134.698 435.617 133.898H437.357C437.357 134.253 437.461 134.568 437.67 134.842C437.878 135.112 438.236 135.247 438.742 135.247C439.239 135.247 439.594 135.112 439.808 134.842C440.025 134.572 440.134 134.258 440.134 133.898ZM450.781 148.72C449.725 148.72 448.816 148.481 448.053 148.003C447.296 147.52 446.713 146.855 446.306 146.007C445.899 145.16 445.695 144.189 445.695 143.095C445.695 141.987 445.904 141.009 446.32 140.162C446.737 139.31 447.324 138.644 448.082 138.166C448.839 137.688 449.732 137.449 450.759 137.449C451.588 137.449 452.326 137.603 452.975 137.911C453.624 138.214 454.147 138.64 454.545 139.189C454.947 139.738 455.186 140.38 455.262 141.114H453.195C453.082 140.602 452.821 140.162 452.414 139.793C452.012 139.423 451.472 139.239 450.795 139.239C450.203 139.239 449.684 139.395 449.239 139.707C448.799 140.015 448.456 140.455 448.21 141.028C447.963 141.597 447.84 142.269 447.84 143.045C447.84 143.841 447.961 144.527 448.202 145.105C448.444 145.683 448.785 146.13 449.225 146.447C449.67 146.765 450.193 146.923 450.795 146.923C451.197 146.923 451.562 146.85 451.888 146.703C452.22 146.552 452.497 146.336 452.719 146.057C452.947 145.777 453.105 145.441 453.195 145.048H455.262C455.186 145.754 454.957 146.384 454.573 146.938C454.19 147.491 453.676 147.927 453.032 148.244C452.393 148.562 451.642 148.72 450.781 148.72ZM457.533 148.5V137.591H459.657V142.165H460.679L464.28 137.591H466.908L462.682 142.896L466.958 148.5H464.323L461.034 144.139H459.657V148.5H457.533ZM470.688 145.524L475.496 137.591H477.783V148.5H475.702V140.56L470.915 148.5H468.607V137.591H470.688V145.524ZM482.719 145.524L487.528 137.591H489.815V148.5H487.734V140.56L482.947 148.5H480.638V137.591H482.719V145.524ZM486.619 133.898H488.366C488.366 134.698 488.082 135.349 487.513 135.851C486.95 136.348 486.188 136.597 485.227 136.597C484.27 136.597 483.51 136.348 482.947 135.851C482.383 135.349 482.102 134.698 482.102 133.898H483.842C483.842 134.253 483.946 134.568 484.154 134.842C484.362 135.112 484.72 135.247 485.227 135.247C485.724 135.247 486.079 135.112 486.292 134.842C486.51 134.572 486.619 134.258 486.619 133.898Z" fill="#141615"/>
</g>
<g filter="url(#filter10_d_374_101)">
<rect x="66" y="161.5" width="119" height="40" rx="20" fill="#1D2723"/>
<rect x="66" y="161.5" width="119" height="40" rx="20" stroke="#43D18C"/>
<path d="M87.4229 175.517V173.955H98.332V175.517H93.7582V188.5H91.9968V175.517H87.4229ZM103.815 188.727C102.764 188.727 101.857 188.495 101.095 188.031C100.337 187.562 99.7525 186.909 99.3406 186.071C98.9334 185.228 98.7298 184.248 98.7298 183.131C98.7298 182.013 98.9334 181.028 99.3406 180.176C99.7525 179.319 100.325 178.652 101.059 178.173C101.798 177.69 102.66 177.449 103.645 177.449C104.213 177.449 104.774 177.544 105.328 177.733C105.882 177.922 106.386 178.23 106.841 178.656C107.295 179.078 107.657 179.636 107.927 180.332C108.197 181.028 108.332 181.885 108.332 182.903V183.614H99.9229V182.165H106.627C106.627 181.549 106.504 181 106.258 180.517C106.017 180.034 105.671 179.653 105.221 179.374C104.776 179.094 104.251 178.955 103.645 178.955C102.977 178.955 102.399 179.12 101.912 179.452C101.429 179.778 101.057 180.205 100.797 180.73C100.536 181.256 100.406 181.819 100.406 182.42V183.386C100.406 184.21 100.548 184.909 100.832 185.482C101.121 186.05 101.521 186.483 102.032 186.781C102.544 187.075 103.138 187.222 103.815 187.222C104.255 187.222 104.653 187.16 105.008 187.037C105.368 186.909 105.678 186.72 105.939 186.469C106.199 186.213 106.4 185.896 106.542 185.517L108.162 185.972C107.991 186.521 107.705 187.004 107.302 187.42C106.9 187.832 106.403 188.154 105.811 188.386C105.219 188.614 104.554 188.727 103.815 188.727ZM111.839 177.591L114.452 182.051L117.066 177.591H118.998L115.475 183.045L118.998 188.5H117.066L114.452 184.267L111.839 188.5H109.907L113.373 183.045L109.907 177.591H111.839ZM122.611 188.614C122.261 188.614 121.96 188.488 121.709 188.237C121.458 187.986 121.333 187.686 121.333 187.335C121.333 186.985 121.458 186.684 121.709 186.433C121.96 186.182 122.261 186.057 122.611 186.057C122.962 186.057 123.262 186.182 123.513 186.433C123.764 186.684 123.89 186.985 123.89 187.335C123.89 187.567 123.83 187.78 123.712 187.974C123.598 188.169 123.444 188.325 123.25 188.443C123.061 188.557 122.848 188.614 122.611 188.614ZM131.556 188.5V186.938H131.954C132.281 186.938 132.553 186.874 132.771 186.746C132.989 186.613 133.164 186.384 133.297 186.057C133.434 185.725 133.538 185.266 133.609 184.679C133.685 184.087 133.739 183.334 133.772 182.42L133.971 177.591H141.244V188.5H139.568V179.153H135.562L135.392 183.045C135.354 183.94 135.273 184.729 135.15 185.411C135.032 186.088 134.85 186.656 134.603 187.115C134.362 187.574 134.04 187.92 133.637 188.152C133.235 188.384 132.731 188.5 132.125 188.5H131.556ZM145.995 186.028L151.251 177.591H153.183V188.5H151.507V180.062L146.279 188.5H144.319V177.591H145.995V186.028ZM154.768 179.153V177.591H163.632V179.153H160.053V188.5H158.376V179.153H154.768Z" fill="#43D18C"/>
</g>
<g filter="url(#filter11_d_374_101)">
<rect x="185" y="161.5" width="122" height="40" rx="20" fill="#1D2723"/>
<rect x="185" y="161.5" width="122" height="40" rx="20" stroke="#43D18C"/>
<path d="M206.941 188.5V173.955H212.026C213.04 173.955 213.875 174.13 214.533 174.48C215.192 174.826 215.682 175.292 216.004 175.879C216.326 176.462 216.487 177.108 216.487 177.818C216.487 178.443 216.375 178.959 216.153 179.366C215.935 179.774 215.646 180.096 215.286 180.332C214.931 180.569 214.545 180.744 214.129 180.858V181C214.574 181.028 215.021 181.185 215.471 181.469C215.921 181.753 216.297 182.16 216.6 182.69C216.903 183.221 217.055 183.869 217.055 184.636C217.055 185.366 216.889 186.021 216.558 186.604C216.226 187.186 215.703 187.648 214.988 187.989C214.273 188.33 213.343 188.5 212.197 188.5H206.941ZM208.702 186.938H212.197C213.347 186.938 214.164 186.715 214.647 186.27C215.135 185.82 215.379 185.276 215.379 184.636C215.379 184.144 215.253 183.689 215.002 183.273C214.751 182.851 214.394 182.515 213.93 182.264C213.466 182.009 212.916 181.881 212.282 181.881H208.702V186.938ZM208.702 180.347H211.969C212.5 180.347 212.978 180.242 213.404 180.034C213.835 179.826 214.176 179.532 214.427 179.153C214.683 178.775 214.81 178.33 214.81 177.818C214.81 177.179 214.588 176.637 214.143 176.192C213.698 175.742 212.992 175.517 212.026 175.517H208.702V180.347ZM222.932 188.756C222.241 188.756 221.613 188.625 221.05 188.365C220.486 188.1 220.039 187.719 219.707 187.222C219.376 186.72 219.21 186.114 219.21 185.403C219.21 184.778 219.333 184.272 219.58 183.884C219.826 183.491 220.155 183.183 220.567 182.96C220.979 182.738 221.433 182.572 221.93 182.463C222.432 182.349 222.937 182.259 223.443 182.193C224.106 182.108 224.643 182.044 225.055 182.001C225.472 181.954 225.775 181.876 225.964 181.767C226.159 181.658 226.256 181.469 226.256 181.199V181.142C226.256 180.441 226.064 179.897 225.68 179.509C225.302 179.12 224.726 178.926 223.955 178.926C223.154 178.926 222.527 179.101 222.072 179.452C221.618 179.802 221.298 180.176 221.114 180.574L219.523 180.006C219.807 179.343 220.186 178.827 220.659 178.457C221.137 178.083 221.658 177.823 222.222 177.676C222.79 177.525 223.348 177.449 223.898 177.449C224.248 177.449 224.651 177.491 225.105 177.577C225.564 177.657 226.007 177.825 226.433 178.081C226.864 178.337 227.222 178.723 227.506 179.239C227.79 179.755 227.932 180.446 227.932 181.312V188.5H226.256V187.023H226.17C226.057 187.259 225.867 187.513 225.602 187.783C225.337 188.053 224.984 188.282 224.544 188.472C224.104 188.661 223.566 188.756 222.932 188.756ZM223.188 187.25C223.85 187.25 224.409 187.12 224.864 186.859C225.323 186.599 225.669 186.263 225.901 185.851C226.137 185.439 226.256 185.006 226.256 184.551V183.017C226.185 183.102 226.028 183.18 225.787 183.251C225.55 183.318 225.276 183.377 224.963 183.429C224.655 183.476 224.355 183.519 224.061 183.557C223.772 183.59 223.538 183.618 223.358 183.642C222.922 183.699 222.515 183.791 222.136 183.919C221.762 184.042 221.459 184.229 221.227 184.48C221 184.726 220.886 185.062 220.886 185.489C220.886 186.071 221.102 186.511 221.533 186.81C221.968 187.103 222.52 187.25 223.188 187.25ZM235.423 188.727C234.4 188.727 233.52 188.486 232.781 188.003C232.042 187.52 231.474 186.855 231.076 186.007C230.679 185.16 230.48 184.191 230.48 183.102C230.48 181.994 230.683 181.017 231.091 180.169C231.502 179.317 232.075 178.652 232.809 178.173C233.548 177.69 234.41 177.449 235.395 177.449C236.162 177.449 236.853 177.591 237.468 177.875C238.084 178.159 238.588 178.557 238.981 179.068C239.374 179.58 239.618 180.176 239.713 180.858H238.037C237.909 180.361 237.625 179.92 237.184 179.537C236.749 179.149 236.162 178.955 235.423 178.955C234.77 178.955 234.197 179.125 233.704 179.466C233.217 179.802 232.835 180.278 232.561 180.893C232.291 181.504 232.156 182.222 232.156 183.045C232.156 183.888 232.288 184.622 232.554 185.247C232.824 185.872 233.202 186.357 233.69 186.703C234.182 187.049 234.76 187.222 235.423 187.222C235.859 187.222 236.254 187.146 236.609 186.994C236.964 186.843 237.265 186.625 237.511 186.341C237.757 186.057 237.932 185.716 238.037 185.318H239.713C239.618 185.962 239.384 186.542 239.01 187.058C238.64 187.57 238.15 187.977 237.539 188.28C236.933 188.578 236.228 188.727 235.423 188.727ZM243.725 184.523L243.697 182.449H244.038L248.811 177.591H250.885L245.799 182.733H245.657L243.725 184.523ZM242.163 188.5V173.955H243.839V188.5H242.163ZM249.095 188.5L244.833 183.102L246.027 181.938L251.225 188.5H249.095ZM257.167 188.727C256.115 188.727 255.209 188.495 254.446 188.031C253.689 187.562 253.104 186.909 252.692 186.071C252.285 185.228 252.081 184.248 252.081 183.131C252.081 182.013 252.285 181.028 252.692 180.176C253.104 179.319 253.677 178.652 254.411 178.173C255.15 177.69 256.011 177.449 256.996 177.449C257.564 177.449 258.125 177.544 258.679 177.733C259.233 177.922 259.738 178.23 260.192 178.656C260.647 179.078 261.009 179.636 261.279 180.332C261.549 181.028 261.684 181.885 261.684 182.903V183.614H253.275V182.165H259.979C259.979 181.549 259.856 181 259.61 180.517C259.368 180.034 259.023 179.653 258.573 179.374C258.128 179.094 257.602 178.955 256.996 178.955C256.328 178.955 255.751 179.12 255.263 179.452C254.78 179.778 254.408 180.205 254.148 180.73C253.888 181.256 253.757 181.819 253.757 182.42V183.386C253.757 184.21 253.9 184.909 254.184 185.482C254.472 186.05 254.873 186.483 255.384 186.781C255.895 187.075 256.489 187.222 257.167 187.222C257.607 187.222 258.005 187.16 258.36 187.037C258.72 186.909 259.03 186.72 259.29 186.469C259.551 186.213 259.752 185.896 259.894 185.517L261.513 185.972C261.343 186.521 261.056 187.004 260.654 187.42C260.251 187.832 259.754 188.154 259.162 188.386C258.57 188.614 257.905 188.727 257.167 188.727ZM265.909 181.938V188.5H264.233V177.591H265.853V179.295H265.995C266.25 178.741 266.639 178.296 267.159 177.96C267.68 177.619 268.353 177.449 269.176 177.449C269.915 177.449 270.561 177.6 271.115 177.903C271.669 178.202 272.1 178.656 272.408 179.267C272.716 179.873 272.87 180.64 272.87 181.568V188.5H271.194V181.682C271.194 180.825 270.971 180.157 270.526 179.679C270.081 179.196 269.47 178.955 268.694 178.955C268.158 178.955 267.68 179.071 267.259 179.303C266.842 179.535 266.513 179.873 266.272 180.318C266.03 180.763 265.909 181.303 265.909 181.938ZM280.052 188.727C279.143 188.727 278.34 188.498 277.644 188.038C276.948 187.574 276.404 186.921 276.011 186.078C275.618 185.231 275.421 184.229 275.421 183.074C275.421 181.928 275.618 180.934 276.011 180.091C276.404 179.248 276.951 178.597 277.651 178.138C278.352 177.679 279.162 177.449 280.08 177.449C280.79 177.449 281.352 177.567 281.763 177.804C282.18 178.036 282.497 178.301 282.715 178.599C282.938 178.893 283.111 179.134 283.234 179.324H283.376V173.955H285.052V188.5H283.433V186.824H283.234C283.111 187.023 282.935 187.274 282.708 187.577C282.481 187.875 282.156 188.143 281.735 188.379C281.314 188.611 280.753 188.727 280.052 188.727ZM280.279 187.222C280.951 187.222 281.52 187.046 281.984 186.696C282.448 186.341 282.8 185.851 283.042 185.226C283.283 184.596 283.404 183.869 283.404 183.045C283.404 182.231 283.286 181.518 283.049 180.908C282.812 180.292 282.462 179.814 281.998 179.473C281.534 179.127 280.961 178.955 280.279 178.955C279.569 178.955 278.977 179.137 278.504 179.501C278.035 179.861 277.682 180.351 277.445 180.972C277.213 181.587 277.097 182.278 277.097 183.045C277.097 183.822 277.216 184.527 277.452 185.162C277.694 185.792 278.049 186.294 278.518 186.668C278.991 187.037 279.578 187.222 280.279 187.222Z" fill="#43D18C"/>
</g>
<g filter="url(#filter12_d_374_101)">
<rect x="307" y="161.5" width="98" height="40" rx="20" fill="#1D2723"/>
<rect x="307" y="161.5" width="98" height="40" rx="20" stroke="#43D18C"/>
<path d="M337.504 188.5L332.504 181.824H330.714V188.5H328.953V173.955H330.714V180.261H331.481L337.305 173.955H339.407L333.527 180.347L339.606 188.5H337.504ZM348.956 182.278V183.841H342.934V182.278H348.956ZM343.331 177.591V188.5H341.655V177.591H343.331ZM350.235 177.591V188.5H348.559V177.591H350.235ZM354.972 186.028L360.228 177.591H362.159V188.5H360.483V180.062L355.256 188.5H353.296V177.591H354.972V186.028ZM371.962 177.591V179.153H366.906V188.5H365.229V177.591H371.962ZM376.085 186.028L381.341 177.591H383.273V188.5H381.597V180.062L376.369 188.5H374.409V177.591H376.085V186.028Z" fill="#43D18C"/>
</g>
<g filter="url(#filter13_d_374_101)">
<rect x="405" y="161.5" width="81" height="40" rx="20" fill="#1D2723"/>
<rect x="405" y="161.5" width="81" height="40" rx="20" stroke="#43D18C"/>
<path d="M427.164 188.5V173.955H432.078C433.22 173.955 434.152 174.161 434.877 174.572C435.606 174.98 436.146 175.531 436.496 176.227C436.846 176.923 437.022 177.7 437.022 178.557C437.022 179.414 436.846 180.193 436.496 180.893C436.15 181.594 435.615 182.153 434.891 182.57C434.167 182.982 433.239 183.188 432.107 183.188H428.584V181.625H432.05C432.831 181.625 433.459 181.49 433.932 181.22C434.406 180.95 434.749 180.586 434.962 180.126C435.18 179.662 435.289 179.139 435.289 178.557C435.289 177.974 435.18 177.454 434.962 176.994C434.749 176.535 434.403 176.175 433.925 175.915C433.447 175.65 432.812 175.517 432.022 175.517H428.925V188.5H427.164ZM439.859 188.5V173.955H441.62V180.432H449.376V173.955H451.137V188.5H449.376V181.994H441.62V188.5H439.859ZM454.664 188.5V173.955H459.578C460.72 173.955 461.652 174.161 462.377 174.572C463.106 174.98 463.646 175.531 463.996 176.227C464.346 176.923 464.522 177.7 464.522 178.557C464.522 179.414 464.346 180.193 463.996 180.893C463.65 181.594 463.115 182.153 462.391 182.57C461.667 182.982 460.739 183.188 459.607 183.188H456.084V181.625H459.55C460.331 181.625 460.959 181.49 461.432 181.22C461.906 180.95 462.249 180.586 462.462 180.126C462.68 179.662 462.789 179.139 462.789 178.557C462.789 177.974 462.68 177.454 462.462 176.994C462.249 176.535 461.903 176.175 461.425 175.915C460.947 175.65 460.312 175.517 459.522 175.517H456.425V188.5H454.664Z" fill="#43D18C"/>
</g>
<g filter="url(#filter14_d_374_101)">
<rect x="57" y="201.5" width="113" height="40" rx="20" fill="#43D18C"/>
<path d="M84.6426 228.695C83.3926 228.695 82.2728 228.396 81.2832 227.797C80.2936 227.198 79.5156 226.342 78.9492 225.229C78.3828 224.109 78.0996 222.777 78.0996 221.234C78.0996 219.678 78.3828 218.344 78.9492 217.23C79.5221 216.111 80.3001 215.251 81.2832 214.652C82.2728 214.053 83.3926 213.754 84.6426 213.754C85.4108 213.754 86.1302 213.865 86.8008 214.086C87.4779 214.307 88.0833 214.63 88.6172 215.053C89.151 215.476 89.5905 215.993 89.9355 216.605C90.2871 217.217 90.5215 217.911 90.6387 218.686H88.4316C88.347 218.21 88.1875 217.794 87.9531 217.436C87.7253 217.071 87.4421 216.765 87.1035 216.518C86.7715 216.264 86.3971 216.075 85.9805 215.951C85.5703 215.821 85.1341 215.756 84.6719 215.756C83.8385 215.756 83.0866 215.967 82.416 216.391C81.752 216.807 81.2279 217.426 80.8438 218.246C80.4661 219.06 80.2773 220.056 80.2773 221.234C80.2773 222.419 80.4694 223.419 80.8535 224.232C81.2376 225.04 81.7617 225.652 82.4258 226.068C83.0898 226.485 83.8353 226.693 84.6621 226.693C85.1243 226.693 85.5605 226.632 85.9707 226.508C86.3809 226.384 86.7552 226.199 87.0938 225.951C87.4323 225.704 87.7155 225.404 87.9434 225.053C88.1777 224.695 88.3405 224.281 88.4316 223.812H90.6387C90.528 224.535 90.3034 225.196 89.9648 225.795C89.6263 226.387 89.1934 226.902 88.666 227.338C88.1387 227.768 87.5365 228.103 86.8594 228.344C86.1823 228.578 85.4434 228.695 84.6426 228.695ZM96.8594 228.725C95.8372 228.725 94.9421 228.49 94.1738 228.021C93.4121 227.553 92.8197 226.895 92.3965 226.049C91.9798 225.202 91.7715 224.219 91.7715 223.1C91.7715 221.967 91.9798 220.977 92.3965 220.131C92.8197 219.278 93.4121 218.617 94.1738 218.148C94.9421 217.68 95.8372 217.445 96.8594 217.445C97.888 217.445 98.7832 217.68 99.5449 218.148C100.307 218.617 100.899 219.278 101.322 220.131C101.745 220.977 101.957 221.967 101.957 223.1C101.957 224.219 101.745 225.202 101.322 226.049C100.899 226.895 100.307 227.553 99.5449 228.021C98.7832 228.49 97.888 228.725 96.8594 228.725ZM96.8594 226.938C97.5299 226.938 98.0833 226.762 98.5195 226.41C98.9557 226.059 99.278 225.593 99.4863 225.014C99.7012 224.428 99.8086 223.79 99.8086 223.1C99.8086 222.396 99.7012 221.752 99.4863 221.166C99.278 220.58 98.9557 220.111 98.5195 219.76C98.0833 219.408 97.5299 219.232 96.8594 219.232C96.1953 219.232 95.6452 219.408 95.209 219.76C94.7793 220.111 94.457 220.58 94.2422 221.166C94.0273 221.752 93.9199 222.396 93.9199 223.1C93.9199 223.79 94.0273 224.428 94.2422 225.014C94.457 225.593 94.7793 226.059 95.209 226.41C95.6452 226.762 96.1953 226.938 96.8594 226.938ZM111.889 213.529L112.768 214.867C112.449 215.167 112.081 215.378 111.664 215.502C111.247 215.626 110.769 215.704 110.229 215.736C109.688 215.769 109.07 215.798 108.373 215.824C107.585 215.844 106.938 216.013 106.43 216.332C105.928 216.645 105.541 217.107 105.268 217.719C104.994 218.331 104.818 219.102 104.74 220.033H104.877C105.222 219.356 105.71 218.852 106.342 218.52C106.98 218.181 107.696 218.012 108.49 218.012C109.369 218.012 110.15 218.214 110.834 218.617C111.518 219.014 112.058 219.6 112.455 220.375C112.852 221.15 113.048 222.094 113.041 223.207C113.048 224.34 112.846 225.32 112.436 226.146C112.025 226.973 111.443 227.608 110.688 228.051C109.939 228.493 109.057 228.718 108.041 228.725C106.511 228.718 105.287 228.197 104.369 227.162C103.451 226.12 102.989 224.597 102.982 222.592V221.527C102.989 219.027 103.438 217.149 104.33 215.893C105.222 214.636 106.553 213.988 108.324 213.949C108.897 213.936 109.408 213.933 109.857 213.939C110.307 213.946 110.701 213.926 111.039 213.881C111.378 213.829 111.661 213.712 111.889 213.529ZM108.041 226.947C108.64 226.941 109.151 226.788 109.574 226.488C109.997 226.189 110.326 225.762 110.561 225.209C110.795 224.656 110.909 224.001 110.902 223.246C110.909 222.51 110.795 221.885 110.561 221.371C110.326 220.85 109.994 220.453 109.564 220.18C109.135 219.906 108.617 219.77 108.012 219.77C107.569 219.77 107.172 219.848 106.82 220.004C106.469 220.16 106.169 220.388 105.922 220.688C105.674 220.98 105.482 221.342 105.346 221.771C105.215 222.201 105.144 222.693 105.131 223.246C105.131 224.366 105.388 225.261 105.902 225.932C106.423 226.602 107.136 226.941 108.041 226.947ZM119.281 228.725C118.214 228.725 117.289 228.493 116.508 228.031C115.727 227.569 115.124 226.918 114.701 226.078C114.285 225.232 114.076 224.245 114.076 223.119C114.076 221.999 114.281 221.013 114.691 220.16C115.108 219.307 115.691 218.643 116.439 218.168C117.195 217.686 118.08 217.445 119.096 217.445C119.714 217.445 120.313 217.546 120.893 217.748C121.472 217.95 121.993 218.269 122.455 218.705C122.917 219.141 123.282 219.708 123.549 220.404C123.822 221.101 123.959 221.941 123.959 222.924V223.686H115.277V222.094H122.865L121.879 222.621C121.879 221.951 121.775 221.358 121.566 220.844C121.358 220.329 121.046 219.929 120.629 219.643C120.219 219.35 119.708 219.203 119.096 219.203C118.484 219.203 117.96 219.35 117.523 219.643C117.094 219.936 116.765 220.323 116.537 220.805C116.309 221.286 116.195 221.814 116.195 222.387V223.471C116.195 224.219 116.326 224.854 116.586 225.375C116.846 225.896 117.208 226.293 117.67 226.566C118.139 226.84 118.682 226.977 119.301 226.977C119.704 226.977 120.069 226.918 120.395 226.801C120.727 226.684 121.013 226.508 121.254 226.273C121.495 226.039 121.677 225.749 121.801 225.404L123.812 225.785C123.65 226.371 123.363 226.885 122.953 227.328C122.543 227.771 122.025 228.116 121.4 228.363C120.782 228.604 120.076 228.725 119.281 228.725ZM130.023 228.725C128.975 228.725 128.07 228.484 127.309 228.002C126.547 227.52 125.961 226.856 125.551 226.01C125.141 225.163 124.936 224.193 124.936 223.1C124.936 221.986 125.144 221.007 125.561 220.16C125.984 219.307 126.573 218.643 127.328 218.168C128.09 217.686 128.982 217.445 130.004 217.445C130.837 217.445 131.576 217.598 132.221 217.904C132.872 218.204 133.396 218.63 133.793 219.184C134.197 219.737 134.434 220.382 134.506 221.117H132.436C132.364 220.772 132.224 220.456 132.016 220.17C131.814 219.883 131.547 219.656 131.215 219.486C130.883 219.317 130.489 219.232 130.033 219.232C129.441 219.232 128.923 219.389 128.48 219.701C128.044 220.007 127.702 220.447 127.455 221.02C127.208 221.592 127.084 222.27 127.084 223.051C127.084 223.839 127.204 224.525 127.445 225.111C127.686 225.697 128.028 226.15 128.471 226.469C128.92 226.781 129.441 226.938 130.033 226.938C130.645 226.938 131.166 226.768 131.596 226.43C132.032 226.091 132.312 225.629 132.436 225.043H134.506C134.434 225.753 134.206 226.384 133.822 226.938C133.438 227.491 132.924 227.927 132.279 228.246C131.635 228.565 130.883 228.725 130.023 228.725ZM137.602 221.352H140.775C142.104 221.345 143.126 221.674 143.842 222.338C144.564 223.002 144.929 223.858 144.936 224.906C144.936 225.59 144.773 226.202 144.447 226.742C144.122 227.283 143.65 227.712 143.031 228.031C142.413 228.344 141.661 228.5 140.775 228.5H136.01V217.582H138.07V226.664H140.775C141.381 226.664 141.879 226.508 142.27 226.195C142.66 225.876 142.859 225.466 142.865 224.965C142.859 224.438 142.66 224.008 142.27 223.676C141.879 223.344 141.381 223.181 140.775 223.188H137.602V221.352ZM146.488 228.5V217.582H148.598V228.5H146.488Z" fill="#141615"/>
</g>
<g filter="url(#filter15_d_374_101)">
<rect x="170" y="201.5" width="145" height="40" rx="20" fill="#1D2723"/>
<rect x="170" y="201.5" width="145" height="40" rx="20" stroke="#43D18C"/>
<path d="M200.645 228.5L195.645 221.824H193.855V228.5H192.093V213.955H193.855V220.261H194.622L200.446 213.955H202.548L196.667 220.347L202.747 228.5H200.645ZM205.075 232.591C204.79 232.591 204.537 232.567 204.315 232.52C204.092 232.477 203.938 232.435 203.853 232.392L204.279 230.915C204.686 231.019 205.046 231.057 205.359 231.028C205.671 231 205.948 230.86 206.19 230.609C206.436 230.363 206.661 229.963 206.864 229.409L207.177 228.557L203.143 217.591H204.961L207.972 226.284H208.086L211.097 217.591H212.915L208.285 230.091C208.076 230.654 207.818 231.121 207.511 231.49C207.203 231.864 206.845 232.141 206.438 232.321C206.036 232.501 205.581 232.591 205.075 232.591ZM213.244 228.5V226.938H213.642C213.968 226.938 214.241 226.874 214.458 226.746C214.676 226.613 214.851 226.384 214.984 226.057C215.121 225.725 215.225 225.266 215.297 224.679C215.372 224.087 215.427 223.334 215.46 222.42L215.659 217.591H222.931V228.5H221.255V219.153H217.25L217.079 223.045C217.041 223.94 216.961 224.729 216.838 225.411C216.719 226.088 216.537 226.656 216.291 227.115C216.049 227.574 215.727 227.92 215.325 228.152C214.922 228.384 214.418 228.5 213.812 228.5H213.244ZM227.683 226.028L232.939 217.591H234.87V228.5H233.194V220.062L227.967 228.5H226.007V217.591H227.683V226.028ZM245.241 222.278V223.841H239.219V222.278H245.241ZM239.616 217.591V228.5H237.94V217.591H239.616ZM246.52 217.591V228.5H244.844V217.591H246.52ZM252.791 228.756C252.1 228.756 251.473 228.625 250.909 228.365C250.346 228.1 249.898 227.719 249.567 227.222C249.235 226.72 249.07 226.114 249.07 225.403C249.07 224.778 249.193 224.272 249.439 223.884C249.685 223.491 250.014 223.183 250.426 222.96C250.838 222.738 251.293 222.572 251.79 222.463C252.292 222.349 252.796 222.259 253.303 222.193C253.965 222.108 254.503 222.044 254.915 222.001C255.331 221.954 255.634 221.876 255.824 221.767C256.018 221.658 256.115 221.469 256.115 221.199V221.142C256.115 220.441 255.923 219.897 255.54 219.509C255.161 219.12 254.586 218.926 253.814 218.926C253.014 218.926 252.386 219.101 251.932 219.452C251.477 219.802 251.158 220.176 250.973 220.574L249.382 220.006C249.666 219.343 250.045 218.827 250.518 218.457C250.997 218.083 251.518 217.823 252.081 217.676C252.649 217.525 253.208 217.449 253.757 217.449C254.107 217.449 254.51 217.491 254.964 217.577C255.424 217.657 255.866 217.825 256.293 218.081C256.723 218.337 257.081 218.723 257.365 219.239C257.649 219.755 257.791 220.446 257.791 221.312V228.5H256.115V227.023H256.03C255.916 227.259 255.727 227.513 255.462 227.783C255.196 228.053 254.844 228.282 254.403 228.472C253.963 228.661 253.426 228.756 252.791 228.756ZM253.047 227.25C253.71 227.25 254.268 227.12 254.723 226.859C255.182 226.599 255.528 226.263 255.76 225.851C255.997 225.439 256.115 225.006 256.115 224.551V223.017C256.044 223.102 255.888 223.18 255.646 223.251C255.41 223.318 255.135 223.377 254.822 223.429C254.515 223.476 254.214 223.519 253.92 223.557C253.632 223.59 253.397 223.618 253.217 223.642C252.782 223.699 252.375 223.791 251.996 223.919C251.622 224.042 251.319 224.229 251.087 224.48C250.859 224.726 250.746 225.062 250.746 225.489C250.746 226.071 250.961 226.511 251.392 226.81C251.828 227.103 252.379 227.25 253.047 227.25ZM260.85 232.591V217.591H262.47V219.324H262.669C262.792 219.134 262.962 218.893 263.18 218.599C263.403 218.301 263.72 218.036 264.132 217.804C264.548 217.567 265.112 217.449 265.822 217.449C266.741 217.449 267.55 217.679 268.251 218.138C268.952 218.597 269.499 219.248 269.892 220.091C270.285 220.934 270.481 221.928 270.481 223.074C270.481 224.229 270.285 225.231 269.892 226.078C269.499 226.921 268.954 227.574 268.258 228.038C267.562 228.498 266.76 228.727 265.85 228.727C265.15 228.727 264.589 228.611 264.167 228.379C263.746 228.143 263.422 227.875 263.194 227.577C262.967 227.274 262.792 227.023 262.669 226.824H262.527V232.591H260.85ZM262.498 223.045C262.498 223.869 262.619 224.596 262.86 225.226C263.102 225.851 263.455 226.341 263.919 226.696C264.383 227.046 264.951 227.222 265.623 227.222C266.324 227.222 266.909 227.037 267.377 226.668C267.851 226.294 268.206 225.792 268.443 225.162C268.684 224.527 268.805 223.822 268.805 223.045C268.805 222.278 268.687 221.587 268.45 220.972C268.218 220.351 267.865 219.861 267.392 219.501C266.923 219.137 266.333 218.955 265.623 218.955C264.941 218.955 264.368 219.127 263.904 219.473C263.44 219.814 263.09 220.292 262.853 220.908C262.617 221.518 262.498 222.231 262.498 223.045ZM274.714 226.028L279.97 217.591H281.902V228.5H280.225V220.062L274.998 228.5H273.038V217.591H274.714V226.028ZM291.534 228.5V219.125H288.636C287.983 219.125 287.469 219.277 287.095 219.58C286.721 219.883 286.534 220.299 286.534 220.83C286.534 221.35 286.702 221.76 287.038 222.058C287.379 222.357 287.846 222.506 288.438 222.506H291.96V224.068H288.438C287.699 224.068 287.062 223.938 286.527 223.678C285.992 223.417 285.58 223.045 285.291 222.562C285.002 222.075 284.858 221.497 284.858 220.83C284.858 220.157 285.009 219.58 285.312 219.097C285.616 218.614 286.049 218.242 286.612 217.982C287.18 217.721 287.855 217.591 288.636 217.591H293.125V228.5H291.534ZM284.261 228.5L287.358 223.074H289.176L286.08 228.5H284.261Z" fill="#43D18C"/>
</g>
<g filter="url(#filter16_d_374_101)">
<rect x="315" y="201.5" width="119" height="40" rx="20" fill="#1D2723"/>
<rect x="315" y="201.5" width="119" height="40" rx="20" stroke="#43D18C"/>
<path d="M335.974 215.517V213.955H346.883V215.517H342.309V228.5H340.548V215.517H335.974ZM352.366 228.727C351.315 228.727 350.408 228.495 349.646 228.031C348.888 227.562 348.303 226.909 347.891 226.071C347.484 225.228 347.281 224.248 347.281 223.131C347.281 222.013 347.484 221.028 347.891 220.176C348.303 219.319 348.876 218.652 349.61 218.173C350.349 217.69 351.21 217.449 352.195 217.449C352.763 217.449 353.325 217.544 353.879 217.733C354.433 217.922 354.937 218.23 355.391 218.656C355.846 219.078 356.208 219.636 356.478 220.332C356.748 221.028 356.883 221.885 356.883 222.903V223.614H348.474V222.165H355.178C355.178 221.549 355.055 221 354.809 220.517C354.567 220.034 354.222 219.653 353.772 219.374C353.327 219.094 352.801 218.955 352.195 218.955C351.528 218.955 350.95 219.12 350.462 219.452C349.979 219.778 349.608 220.205 349.347 220.73C349.087 221.256 348.957 221.819 348.957 222.42V223.386C348.957 224.21 349.099 224.909 349.383 225.482C349.672 226.05 350.072 226.483 350.583 226.781C351.094 227.075 351.689 227.222 352.366 227.222C352.806 227.222 353.204 227.16 353.559 227.037C353.919 226.909 354.229 226.72 354.489 226.469C354.75 226.213 354.951 225.896 355.093 225.517L356.712 225.972C356.542 226.521 356.255 227.004 355.853 227.42C355.451 227.832 354.953 228.154 354.362 228.386C353.77 228.614 353.104 228.727 352.366 228.727ZM360.39 217.591L363.003 222.051L365.617 217.591H367.549L364.026 223.045L367.549 228.5H365.617L363.003 224.267L360.39 228.5H358.458L361.924 223.045L358.458 217.591H360.39ZM377.241 222.278V223.841H371.219V222.278H377.241ZM371.616 217.591V228.5H369.94V217.591H371.616ZM378.52 217.591V228.5H376.844V217.591H378.52ZM383.257 226.028L388.513 217.591H390.445V228.5H388.768V220.062L383.541 228.5H381.581V217.591H383.257V226.028ZM393.515 228.5V217.591H395.191V222.335H396.299L400.219 217.591H402.378L397.975 222.847L402.435 228.5H400.276L396.696 223.898H395.191V228.5H393.515ZM407.467 228.756C406.776 228.756 406.148 228.625 405.585 228.365C405.021 228.1 404.574 227.719 404.243 227.222C403.911 226.72 403.745 226.114 403.745 225.403C403.745 224.778 403.868 224.272 404.115 223.884C404.361 223.491 404.69 223.183 405.102 222.96C405.514 222.738 405.968 222.572 406.466 222.463C406.967 222.349 407.472 222.259 407.978 222.193C408.641 222.108 409.179 222.044 409.591 222.001C410.007 221.954 410.31 221.876 410.5 221.767C410.694 221.658 410.791 221.469 410.791 221.199V221.142C410.791 220.441 410.599 219.897 410.216 219.509C409.837 219.12 409.261 218.926 408.49 218.926C407.69 218.926 407.062 219.101 406.608 219.452C406.153 219.802 405.833 220.176 405.649 220.574L404.058 220.006C404.342 219.343 404.721 218.827 405.194 218.457C405.672 218.083 406.193 217.823 406.757 217.676C407.325 217.525 407.884 217.449 408.433 217.449C408.783 217.449 409.186 217.491 409.64 217.577C410.1 217.657 410.542 217.825 410.968 218.081C411.399 218.337 411.757 218.723 412.041 219.239C412.325 219.755 412.467 220.446 412.467 221.312V228.5H410.791V227.023H410.706C410.592 227.259 410.403 227.513 410.137 227.783C409.872 228.053 409.52 228.282 409.079 228.472C408.639 228.661 408.101 228.756 407.467 228.756ZM407.723 227.25C408.386 227.25 408.944 227.12 409.399 226.859C409.858 226.599 410.204 226.263 410.436 225.851C410.672 225.439 410.791 225.006 410.791 224.551V223.017C410.72 223.102 410.564 223.18 410.322 223.251C410.085 223.318 409.811 223.377 409.498 223.429C409.19 223.476 408.89 223.519 408.596 223.557C408.307 223.59 408.073 223.618 407.893 223.642C407.458 223.699 407.05 223.791 406.672 223.919C406.297 224.042 405.994 224.229 405.762 224.48C405.535 224.726 405.422 225.062 405.422 225.489C405.422 226.071 405.637 226.511 406.068 226.81C406.503 227.103 407.055 227.25 407.723 227.25Z" fill="#43D18C"/>
</g>
<g filter="url(#filter17_d_374_101)">
<rect x="434" y="203" width="61" height="37" rx="18.5" fill="#43D18C" fill-opacity="0.03"/>
<path d="M457.697 230.162C457.231 230.162 456.83 229.997 456.495 229.668C456.16 229.332 455.992 228.929 455.992 228.457C455.992 227.991 456.16 227.594 456.495 227.264C456.83 226.929 457.231 226.761 457.697 226.761C458.163 226.761 458.563 226.929 458.898 227.264C459.234 227.594 459.401 227.991 459.401 228.457C459.401 228.77 459.322 229.057 459.163 229.318C459.009 229.574 458.805 229.778 458.549 229.932C458.293 230.085 458.009 230.162 457.697 230.162ZM464.494 230.162C464.028 230.162 463.627 229.997 463.292 229.668C462.957 229.332 462.789 228.929 462.789 228.457C462.789 227.991 462.957 227.594 463.292 227.264C463.627 226.929 464.028 226.761 464.494 226.761C464.96 226.761 465.36 226.929 465.695 227.264C466.031 227.594 466.198 227.991 466.198 228.457C466.198 228.77 466.119 229.057 465.96 229.318C465.806 229.574 465.602 229.778 465.346 229.932C465.09 230.085 464.806 230.162 464.494 230.162ZM471.29 230.162C470.825 230.162 470.424 229.997 470.089 229.668C469.754 229.332 469.586 228.929 469.586 228.457C469.586 227.991 469.754 227.594 470.089 227.264C470.424 226.929 470.825 226.761 471.29 226.761C471.756 226.761 472.157 226.929 472.492 227.264C472.827 227.594 472.995 227.991 472.995 228.457C472.995 228.77 472.915 229.057 472.756 229.318C472.603 229.574 472.398 229.778 472.143 229.932C471.887 230.085 471.603 230.162 471.29 230.162Z" fill="#43D18C"/>
</g>
<defs>
<filter id="filter0_d_374_101" x="72" y="15.5" width="207" height="120" filterUnits="userSpaceOnUse" color-interpolation-filters="sRGB">
<feFlood flood-opacity="0" result="BackgroundImageFix"/>
<feColorMatrix in="SourceAlpha" type="matrix" values="0 0 0 0 0 0 0 0 0 0 0 0 0 0 0 0 0 0 127 0" result="hardAlpha"/>
<feOffset dy="14"/>
<feGaussianBlur stdDeviation="20"/>
<feColorMatrix type="matrix" values="0 0 0 0 0.264364 0 0 0 0 0.818269 0 0 0 0 0.550548 0 0 0 0.1 0"/>
<feBlend mode="normal" in2="BackgroundImageFix" result="effect1_dropShadow_374_101"/>
<feBlend mode="normal" in="SourceGraphic" in2="effect1_dropShadow_374_101" result="shape"/>
</filter>
<filter id="filter1_d_374_101" x="199" y="15.5" width="177" height="120" filterUnits="userSpaceOnUse" color-interpolation-filters="sRGB">
<feFlood flood-opacity="0" result="BackgroundImageFix"/>
<feColorMatrix in="SourceAlpha" type="matrix" values="0 0 0 0 0 0 0 0 0 0 0 0 0 0 0 0 0 0 127 0" result="hardAlpha"/>
<feOffset dy="14"/>
<feGaussianBlur stdDeviation="20"/>
<feColorMatrix type="matrix" values="0 0 0 0 0.264364 0 0 0 0 0.818269 0 0 0 0 0.550548 0 0 0 0.1 0"/>
<feBlend mode="normal" in2="BackgroundImageFix" result="effect1_dropShadow_374_101"/>
<feBlend mode="normal" in="SourceGraphic" in2="effect1_dropShadow_374_101" result="shape"/>
</filter>
<filter id="filter2_d_374_101" x="295.5" y="15" width="185" height="121" filterUnits="userSpaceOnUse" color-interpolation-filters="sRGB">
<feFlood flood-opacity="0" result="BackgroundImageFix"/>
<feColorMatrix in="SourceAlpha" type="matrix" values="0 0 0 0 0 0 0 0 0 0 0 0 0 0 0 0 0 0 127 0" result="hardAlpha"/>
<feOffset dy="14"/>
<feGaussianBlur stdDeviation="20"/>
<feColorMatrix type="matrix" values="0 0 0 0 0.264364 0 0 0 0 0.818269 0 0 0 0 0.550548 0 0 0 0.1 0"/>
<feBlend mode="normal" in2="BackgroundImageFix" result="effect1_dropShadow_374_101"/>
<feBlend mode="normal" in="SourceGraphic" in2="effect1_dropShadow_374_101" result="shape"/>
</filter>
<filter id="filter3_d_374_101" x="41" y="55" width="241" height="121" filterUnits="userSpaceOnUse" color-interpolation-filters="sRGB">
<feFlood flood-opacity="0" result="BackgroundImageFix"/>
<feColorMatrix in="SourceAlpha" type="matrix" values="0 0 0 0 0 0 0 0 0 0 0 0 0 0 0 0 0 0 127 0" result="hardAlpha"/>
<feOffset dy="14"/>
<feGaussianBlur stdDeviation="20"/>
<feColorMatrix type="matrix" values="0 0 0 0 0.264364 0 0 0 0 0.818269 0 0 0 0 0.550548 0 0 0 0.1 0"/>
<feBlend mode="normal" in2="BackgroundImageFix" result="effect1_dropShadow_374_101"/>
<feBlend mode="normal" in="SourceGraphic" in2="effect1_dropShadow_374_101" result="shape"/>
</filter>
<filter id="filter4_d_374_101" x="201" y="55" width="152" height="121" filterUnits="userSpaceOnUse" color-interpolation-filters="sRGB">
<feFlood flood-opacity="0" result="BackgroundImageFix"/>
<feColorMatrix in="SourceAlpha" type="matrix" values="0 0 0 0 0 0 0 0 0 0 0 0 0 0 0 0 0 0 127 0" result="hardAlpha"/>
<feOffset dy="14"/>
<feGaussianBlur stdDeviation="20"/>
<feColorMatrix type="matrix" values="0 0 0 0 0.264364 0 0 0 0 0.818269 0 0 0 0 0.550548 0 0 0 0.1 0"/>
<feBlend mode="normal" in2="BackgroundImageFix" result="effect1_dropShadow_374_101"/>
<feBlend mode="normal" in="SourceGraphic" in2="effect1_dropShadow_374_101" result="shape"/>
</filter>
<filter id="filter5_d_374_101" x="272.5" y="55.5" width="238" height="120" filterUnits="userSpaceOnUse" color-interpolation-filters="sRGB">
<feFlood flood-opacity="0" result="BackgroundImageFix"/>
<feColorMatrix in="SourceAlpha" type="matrix" values="0 0 0 0 0 0 0 0 0 0 0 0 0 0 0 0 0 0 127 0" result="hardAlpha"/>
<feOffset dy="14"/>
<feGaussianBlur stdDeviation="20"/>
<feColorMatrix type="matrix" values="0 0 0 0 0.264364 0 0 0 0 0.818269 0 0 0 0 0.550548 0 0 0 0.1 0"/>
<feBlend mode="normal" in2="BackgroundImageFix" result="effect1_dropShadow_374_101"/>
<feBlend mode="normal" in="SourceGraphic" in2="effect1_dropShadow_374_101" result="shape"/>
</filter>
<filter id="filter6_d_374_101" x="0" y="95" width="188" height="121" filterUnits="userSpaceOnUse" color-interpolation-filters="sRGB">
<feFlood flood-opacity="0" result="BackgroundImageFix"/>
<feColorMatrix in="SourceAlpha" type="matrix" values="0 0 0 0 0 0 0 0 0 0 0 0 0 0 0 0 0 0 127 0" result="hardAlpha"/>
<feOffset dy="14"/>
<feGaussianBlur stdDeviation="20"/>
<feColorMatrix type="matrix" values="0 0 0 0 0.264364 0 0 0 0 0.818269 0 0 0 0 0.550548 0 0 0 0.1 0"/>
<feBlend mode="normal" in2="BackgroundImageFix" result="effect1_dropShadow_374_101"/>
<feBlend mode="normal" in="SourceGraphic" in2="effect1_dropShadow_374_101" result="shape"/>
</filter>
<filter id="filter7_d_374_101" x="107.5" y="95.5" width="172" height="120" filterUnits="userSpaceOnUse" color-interpolation-filters="sRGB">
<feFlood flood-opacity="0" result="BackgroundImageFix"/>
<feColorMatrix in="SourceAlpha" type="matrix" values="0 0 0 0 0 0 0 0 0 0 0 0 0 0 0 0 0 0 127 0" result="hardAlpha"/>
<feOffset dy="14"/>
<feGaussianBlur stdDeviation="20"/>
<feColorMatrix type="matrix" values="0 0 0 0 0.264364 0 0 0 0 0.818269 0 0 0 0 0.550548 0 0 0 0.1 0"/>
<feBlend mode="normal" in2="BackgroundImageFix" result="effect1_dropShadow_374_101"/>
<feBlend mode="normal" in="SourceGraphic" in2="effect1_dropShadow_374_101" result="shape"/>
</filter>
<filter id="filter8_d_374_101" x="199" y="95" width="196" height="121" filterUnits="userSpaceOnUse" color-interpolation-filters="sRGB">
<feFlood flood-opacity="0" result="BackgroundImageFix"/>
<feColorMatrix in="SourceAlpha" type="matrix" values="0 0 0 0 0 0 0 0 0 0 0 0 0 0 0 0 0 0 127 0" result="hardAlpha"/>
<feOffset dy="14"/>
<feGaussianBlur stdDeviation="20"/>
<feColorMatrix type="matrix" values="0 0 0 0 0.264364 0 0 0 0 0.818269 0 0 0 0 0.550548 0 0 0 0.1 0"/>
<feBlend mode="normal" in2="BackgroundImageFix" result="effect1_dropShadow_374_101"/>
<feBlend mode="normal" in="SourceGraphic" in2="effect1_dropShadow_374_101" result="shape"/>
</filter>
<filter id="filter9_d_374_101" x="314.5" y="95.5" width="237" height="120" filterUnits="userSpaceOnUse" color-interpolation-filters="sRGB">
<feFlood flood-opacity="0" result="BackgroundImageFix"/>
<feColorMatrix in="SourceAlpha" type="matrix" values="0 0 0 0 0 0 0 0 0 0 0 0 0 0 0 0 0 0 127 0" result="hardAlpha"/>
<feOffset dy="14"/>
<feGaussianBlur stdDeviation="20"/>
<feColorMatrix type="matrix" values="0 0 0 0 0.264364 0 0 0 0 0.818269 0 0 0 0 0.550548 0 0 0 0.1 0"/>
<feBlend mode="normal" in2="BackgroundImageFix" result="effect1_dropShadow_374_101"/>
<feBlend mode="normal" in="SourceGraphic" in2="effect1_dropShadow_374_101" result="shape"/>
</filter>
<filter id="filter10_d_374_101" x="25.5" y="135" width="200" height="121" filterUnits="userSpaceOnUse" color-interpolation-filters="sRGB">
<feFlood flood-opacity="0" result="BackgroundImageFix"/>
<feColorMatrix in="SourceAlpha" type="matrix" values="0 0 0 0 0 0 0 0 0 0 0 0 0 0 0 0 0 0 127 0" result="hardAlpha"/>
<feOffset dy="14"/>
<feGaussianBlur stdDeviation="20"/>
<feColorMatrix type="matrix" values="0 0 0 0 0.264364 0 0 0 0 0.818269 0 0 0 0 0.550548 0 0 0 0.1 0"/>
<feBlend mode="normal" in2="BackgroundImageFix" result="effect1_dropShadow_374_101"/>
<feBlend mode="normal" in="SourceGraphic" in2="effect1_dropShadow_374_101" result="shape"/>
</filter>
<filter id="filter11_d_374_101" x="144.5" y="135" width="203" height="121" filterUnits="userSpaceOnUse" color-interpolation-filters="sRGB">
<feFlood flood-opacity="0" result="BackgroundImageFix"/>
<feColorMatrix in="SourceAlpha" type="matrix" values="0 0 0 0 0 0 0 0 0 0 0 0 0 0 0 0 0 0 127 0" result="hardAlpha"/>
<feOffset dy="14"/>
<feGaussianBlur stdDeviation="20"/>
<feColorMatrix type="matrix" values="0 0 0 0 0.264364 0 0 0 0 0.818269 0 0 0 0 0.550548 0 0 0 0.1 0"/>
<feBlend mode="normal" in2="BackgroundImageFix" result="effect1_dropShadow_374_101"/>
<feBlend mode="normal" in="SourceGraphic" in2="effect1_dropShadow_374_101" result="shape"/>
</filter>
<filter id="filter12_d_374_101" x="266.5" y="135" width="179" height="121" filterUnits="userSpaceOnUse" color-interpolation-filters="sRGB">
<feFlood flood-opacity="0" result="BackgroundImageFix"/>
<feColorMatrix in="SourceAlpha" type="matrix" values="0 0 0 0 0 0 0 0 0 0 0 0 0 0 0 0 0 0 127 0" result="hardAlpha"/>
<feOffset dy="14"/>
<feGaussianBlur stdDeviation="20"/>
<feColorMatrix type="matrix" values="0 0 0 0 0.264364 0 0 0 0 0.818269 0 0 0 0 0.550548 0 0 0 0.1 0"/>
<feBlend mode="normal" in2="BackgroundImageFix" result="effect1_dropShadow_374_101"/>
<feBlend mode="normal" in="SourceGraphic" in2="effect1_dropShadow_374_101" result="shape"/>
</filter>
<filter id="filter13_d_374_101" x="364.5" y="135" width="162" height="121" filterUnits="userSpaceOnUse" color-interpolation-filters="sRGB">
<feFlood flood-opacity="0" result="BackgroundImageFix"/>
<feColorMatrix in="SourceAlpha" type="matrix" values="0 0 0 0 0 0 0 0 0 0 0 0 0 0 0 0 0 0 127 0" result="hardAlpha"/>
<feOffset dy="14"/>
<feGaussianBlur stdDeviation="20"/>
<feColorMatrix type="matrix" values="0 0 0 0 0.264364 0 0 0 0 0.818269 0 0 0 0 0.550548 0 0 0 0.1 0"/>
<feBlend mode="normal" in2="BackgroundImageFix" result="effect1_dropShadow_374_101"/>
<feBlend mode="normal" in="SourceGraphic" in2="effect1_dropShadow_374_101" result="shape"/>
</filter>
<filter id="filter14_d_374_101" x="17" y="175.5" width="193" height="120" filterUnits="userSpaceOnUse" color-interpolation-filters="sRGB">
<feFlood flood-opacity="0" result="BackgroundImageFix"/>
<feColorMatrix in="SourceAlpha" type="matrix" values="0 0 0 0 0 0 0 0 0 0 0 0 0 0 0 0 0 0 127 0" result="hardAlpha"/>
<feOffset dy="14"/>
<feGaussianBlur stdDeviation="20"/>
<feColorMatrix type="matrix" values="0 0 0 0 0.264364 0 0 0 0 0.818269 0 0 0 0 0.550548 0 0 0 0.1 0"/>
<feBlend mode="normal" in2="BackgroundImageFix" result="effect1_dropShadow_374_101"/>
<feBlend mode="normal" in="SourceGraphic" in2="effect1_dropShadow_374_101" result="shape"/>
</filter>
<filter id="filter15_d_374_101" x="129.5" y="175" width="226" height="121" filterUnits="userSpaceOnUse" color-interpolation-filters="sRGB">
<feFlood flood-opacity="0" result="BackgroundImageFix"/>
<feColorMatrix in="SourceAlpha" type="matrix" values="0 0 0 0 0 0 0 0 0 0 0 0 0 0 0 0 0 0 127 0" result="hardAlpha"/>
<feOffset dy="14"/>
<feGaussianBlur stdDeviation="20"/>
<feColorMatrix type="matrix" values="0 0 0 0 0.264364 0 0 0 0 0.818269 0 0 0 0 0.550548 0 0 0 0.1 0"/>
<feBlend mode="normal" in2="BackgroundImageFix" result="effect1_dropShadow_374_101"/>
<feBlend mode="normal" in="SourceGraphic" in2="effect1_dropShadow_374_101" result="shape"/>
</filter>
<filter id="filter16_d_374_101" x="274.5" y="175" width="200" height="121" filterUnits="userSpaceOnUse" color-interpolation-filters="sRGB">
<feFlood flood-opacity="0" result="BackgroundImageFix"/>
<feColorMatrix in="SourceAlpha" type="matrix" values="0 0 0 0 0 0 0 0 0 0 0 0 0 0 0 0 0 0 127 0" result="hardAlpha"/>
<feOffset dy="14"/>
<feGaussianBlur stdDeviation="20"/>
<feColorMatrix type="matrix" values="0 0 0 0 0.264364 0 0 0 0 0.818269 0 0 0 0 0.550548 0 0 0 0.1 0"/>
<feBlend mode="normal" in2="BackgroundImageFix" result="effect1_dropShadow_374_101"/>
<feBlend mode="normal" in="SourceGraphic" in2="effect1_dropShadow_374_101" result="shape"/>
</filter>
<filter id="filter17_d_374_101" x="394" y="177" width="141" height="117" filterUnits="userSpaceOnUse" color-interpolation-filters="sRGB">
<feFlood flood-opacity="0" result="BackgroundImageFix"/>
<feColorMatrix in="SourceAlpha" type="matrix" values="0 0 0 0 0 0 0 0 0 0 0 0 0 0 0 0 0 0 127 0" result="hardAlpha"/>
<feOffset dy="14"/>
<feGaussianBlur stdDeviation="20"/>
<feColorMatrix type="matrix" values="0 0 0 0 0.264364 0 0 0 0 0.818269 0 0 0 0 0.550548 0 0 0 0.1 0"/>
<feBlend mode="normal" in2="BackgroundImageFix" result="effect1_dropShadow_374_101"/>
<feBlend mode="normal" in="SourceGraphic" in2="effect1_dropShadow_374_101" result="shape"/>
</filter>
</defs>
</svg>
