<svg width="100%" height="100%" viewBox="0 0 346 176" fill="none" xmlns="http://www.w3.org/2000/svg">
<g filter="url(#filter0_d_803_1216)">
<rect x="70.249" y="16.5352" width="78.9587" height="24.9835" rx="12.4917" fill="#43D18C"/>
<path d="M83.7683 33.5269V24.451H89.3964V25.6298H85.1377V28.3951H88.9931V29.5695H85.1377V33.5269H83.7683ZM90.8887 33.5269V26.7199H92.1695V27.8012H92.2404C92.3645 27.4349 92.5831 27.1469 92.8963 26.9371C93.2124 26.7244 93.5699 26.618 93.9687 26.618C94.0514 26.618 94.1489 26.621 94.2612 26.6269C94.3764 26.6328 94.4665 26.6402 94.5315 26.649V27.9165C94.4783 27.9017 94.3838 27.8854 94.2479 27.8677C94.112 27.847 93.9761 27.8367 93.8402 27.8367C93.527 27.8367 93.2478 27.9032 93.0026 28.0361C92.7604 28.1661 92.5683 28.3478 92.4265 28.5812C92.2847 28.8117 92.2138 29.0746 92.2138 29.37V33.5269H90.8887ZM98.3017 33.6642C97.6635 33.6642 97.1066 33.518 96.631 33.2255C96.1553 32.933 95.786 32.5238 95.5231 31.998C95.2601 31.4721 95.1287 30.8576 95.1287 30.1544C95.1287 29.4483 95.2601 28.8309 95.5231 28.302C95.786 27.7732 96.1553 27.3625 96.631 27.07C97.1066 26.7776 97.6635 26.6313 98.3017 26.6313C98.9398 26.6313 99.4967 26.7776 99.9724 27.07C100.448 27.3625 100.817 27.7732 101.08 28.302C101.343 28.8309 101.475 29.4483 101.475 30.1544C101.475 30.8576 101.343 31.4721 101.08 31.998C100.817 32.5238 100.448 32.933 99.9724 33.2255C99.4967 33.518 98.9398 33.6642 98.3017 33.6642ZM98.3061 32.5519C98.7197 32.5519 99.0624 32.4426 99.3342 32.224C99.606 32.0053 99.8069 31.7143 99.9369 31.3509C100.07 30.9876 100.136 30.5872 100.136 30.15C100.136 29.7157 100.07 29.3169 99.9369 28.9535C99.8069 28.5871 99.606 28.2932 99.3342 28.0716C99.0624 27.85 98.7197 27.7392 98.3061 27.7392C97.8895 27.7392 97.5439 27.85 97.2691 28.0716C96.9973 28.2932 96.7949 28.5871 96.662 28.9535C96.532 29.3169 96.467 29.7157 96.467 30.15C96.467 30.5872 96.532 30.9876 96.662 31.3509C96.7949 31.7143 96.9973 32.0053 97.2691 32.224C97.5439 32.4426 97.8895 32.5519 98.3061 32.5519ZM104.279 29.4853V33.5269H102.954V26.7199H104.226V27.8278H104.31C104.466 27.4674 104.712 27.1779 105.045 26.9592C105.382 26.7406 105.806 26.6313 106.317 26.6313C106.781 26.6313 107.187 26.7288 107.536 26.9238C107.885 27.1158 108.155 27.4024 108.347 27.7835C108.539 28.1646 108.635 28.6359 108.635 29.1972V33.5269H107.31V29.3567C107.31 28.8634 107.181 28.4778 106.924 28.2001C106.667 27.9194 106.314 27.7791 105.865 27.7791C105.558 27.7791 105.285 27.8456 105.045 27.9785C104.809 28.1115 104.621 28.3065 104.483 28.5635C104.347 28.8176 104.279 29.1248 104.279 29.4853ZM113.59 26.7199V27.7835H109.871V26.7199H113.59ZM110.869 25.0891H112.194V31.5282C112.194 31.7852 112.232 31.9788 112.309 32.1087C112.386 32.2358 112.485 32.3229 112.606 32.3702C112.73 32.4145 112.864 32.4367 113.009 32.4367C113.115 32.4367 113.208 32.4293 113.288 32.4145C113.368 32.3998 113.43 32.3879 113.474 32.3791L113.714 33.4737C113.637 33.5032 113.527 33.5328 113.386 33.5623C113.244 33.5948 113.067 33.6125 112.854 33.6155C112.505 33.6214 112.18 33.5594 111.879 33.4294C111.578 33.2994 111.334 33.0985 111.148 32.8267C110.962 32.5549 110.869 32.2136 110.869 31.803V25.0891ZM117.916 33.6642C117.245 33.6642 116.668 33.5209 116.183 33.2344C115.702 32.9448 115.329 32.5386 115.066 32.0157C114.806 31.4898 114.676 30.8738 114.676 30.1677C114.676 29.4705 114.806 28.856 115.066 28.3242C115.329 27.7924 115.696 27.3773 116.165 27.0789C116.638 26.7805 117.191 26.6313 117.823 26.6313C118.207 26.6313 118.579 26.6948 118.94 26.8219C119.3 26.9489 119.624 27.1483 119.91 27.4201C120.197 27.6919 120.423 28.045 120.588 28.4793C120.754 28.9106 120.836 29.435 120.836 30.0525V30.5222H115.425V29.5296H119.538C119.538 29.1809 119.467 28.8722 119.325 28.6034C119.183 28.3316 118.984 28.1174 118.727 27.9608C118.473 27.8042 118.174 27.7259 117.832 27.7259C117.459 27.7259 117.134 27.8175 116.857 28.0007C116.582 28.1809 116.369 28.4172 116.219 28.7097C116.071 28.9993 115.997 29.3139 115.997 29.6537V30.4292C115.997 30.8842 116.077 31.2712 116.236 31.5903C116.399 31.9093 116.625 32.1531 116.914 32.3215C117.204 32.4869 117.542 32.5696 117.929 32.5696C118.18 32.5696 118.409 32.5342 118.616 32.4633C118.823 32.3894 119.002 32.2801 119.152 32.1353C119.303 31.9906 119.418 31.8118 119.498 31.5991L120.752 31.8251C120.652 32.1944 120.471 32.5179 120.211 32.7956C119.954 33.0704 119.631 33.2846 119.241 33.4382C118.854 33.5889 118.412 33.6642 117.916 33.6642ZM123.632 29.4853V33.5269H122.306V26.7199H123.578V27.8278H123.663C123.819 27.4674 124.064 27.1779 124.398 26.9592C124.735 26.7406 125.159 26.6313 125.67 26.6313C126.134 26.6313 126.54 26.7288 126.889 26.9238C127.237 27.1158 127.508 27.4024 127.7 27.7835C127.892 28.1646 127.988 28.6359 127.988 29.1972V33.5269H126.663V29.3567C126.663 28.8634 126.534 28.4778 126.277 28.2001C126.02 27.9194 125.667 27.7791 125.218 27.7791C124.911 27.7791 124.637 27.8456 124.398 27.9785C124.162 28.1115 123.974 28.3065 123.835 28.5635C123.699 28.8176 123.632 29.1248 123.632 29.4853ZM132.313 33.6598C131.763 33.6598 131.273 33.5195 130.842 33.2388C130.413 32.9552 130.077 32.5519 129.831 32.029C129.589 31.5031 129.468 30.8723 129.468 30.1367C129.468 29.4011 129.591 28.7718 129.836 28.2488C130.084 27.7259 130.424 27.3256 130.855 27.0479C131.286 26.7702 131.775 26.6313 132.322 26.6313C132.744 26.6313 133.084 26.7022 133.341 26.844C133.601 26.9829 133.802 27.1454 133.944 27.3315C134.089 27.5176 134.201 27.6816 134.281 27.8234H134.36V24.451H135.685V33.5269H134.391V32.4677H134.281C134.201 32.6125 134.086 32.7779 133.935 32.964C133.787 33.1502 133.583 33.3127 133.323 33.4515C133.063 33.5904 132.727 33.6598 132.313 33.6598ZM132.605 32.5297C132.987 32.5297 133.309 32.4293 133.572 32.2284C133.837 32.0245 134.038 31.7424 134.174 31.382C134.313 31.0215 134.383 30.602 134.383 30.1234C134.383 29.6507 134.315 29.2371 134.179 28.8826C134.043 28.528 133.843 28.2518 133.58 28.0539C133.317 27.8559 132.992 27.7569 132.605 27.7569C132.207 27.7569 131.874 27.8603 131.608 28.0671C131.342 28.274 131.142 28.5561 131.006 28.9136C130.873 29.2711 130.806 29.6743 130.806 30.1234C130.806 30.5784 130.874 30.9876 131.01 31.3509C131.146 31.7143 131.347 32.0024 131.613 32.2151C131.882 32.4249 132.213 32.5297 132.605 32.5297Z" fill="#141615"/>
</g>
<g filter="url(#filter1_d_803_1216)">
<rect x="149.208" y="16.5352" width="60.9587" height="24.9835" rx="12.4917" fill="#43D18C"/>
<path d="M166.495 33.6488C165.715 33.6488 165.017 33.462 164.399 33.0883C163.782 32.7145 163.296 32.1803 162.943 31.4857C162.589 30.787 162.413 29.9562 162.413 28.9935C162.413 28.0226 162.589 27.1898 162.943 26.4952C163.3 25.7964 163.786 25.2602 164.399 24.8865C165.017 24.5128 165.715 24.3259 166.495 24.3259C166.975 24.3259 167.423 24.395 167.842 24.5331C168.264 24.6712 168.642 24.8723 168.975 25.1363C169.308 25.4004 169.583 25.7233 169.798 26.1052C170.017 26.487 170.163 26.9197 170.237 27.4031H168.859C168.807 27.1065 168.707 26.8466 168.561 26.6231C168.419 26.3956 168.242 26.2047 168.031 26.0503C167.824 25.8919 167.59 25.7741 167.33 25.6969C167.074 25.6157 166.802 25.5751 166.514 25.5751C165.994 25.5751 165.524 25.7071 165.106 25.9711C164.692 26.2311 164.365 26.617 164.125 27.1289C163.889 27.6367 163.771 28.2582 163.771 28.9935C163.771 29.7328 163.891 30.3564 164.131 30.8641C164.371 31.3679 164.698 31.7497 165.112 32.0097C165.526 32.2697 165.992 32.3997 166.507 32.3997C166.796 32.3997 167.068 32.3611 167.324 32.2839C167.58 32.2067 167.813 32.091 168.025 31.9366C168.236 31.7822 168.413 31.5954 168.555 31.376C168.701 31.1526 168.803 30.8946 168.859 30.6021H170.237C170.168 31.053 170.027 31.4654 169.816 31.8391C169.605 32.2088 169.335 32.5297 169.006 32.8019C168.677 33.07 168.301 33.2792 167.878 33.4295C167.456 33.5757 166.995 33.6488 166.495 33.6488ZM171.26 33.527V26.7145H176.805V33.527H175.507V27.8601H172.54V33.527H171.26ZM180.931 33.6671C180.293 33.6671 179.734 33.5209 179.255 33.2284C178.78 32.9359 178.41 32.5256 178.146 31.9975C177.886 31.4694 177.756 30.856 177.756 30.1573C177.756 29.4505 177.886 28.833 178.146 28.3049C178.41 27.7728 178.78 27.3604 179.255 27.0679C179.734 26.7755 180.293 26.6292 180.931 26.6292C181.572 26.6292 182.131 26.7755 182.606 27.0679C183.082 27.3604 183.451 27.7728 183.715 28.3049C183.979 28.833 184.111 29.4505 184.111 30.1573C184.111 30.856 183.979 31.4694 183.715 31.9975C183.451 32.5256 183.082 32.9359 182.606 33.2284C182.131 33.5209 181.572 33.6671 180.931 33.6671ZM180.931 32.552C181.349 32.552 181.694 32.4423 181.966 32.223C182.239 32.0036 182.44 31.7132 182.57 31.3516C182.704 30.986 182.771 30.5879 182.771 30.1573C182.771 29.7186 182.704 29.3164 182.57 28.9508C182.44 28.5852 182.239 28.2927 181.966 28.0734C181.694 27.854 181.349 27.7443 180.931 27.7443C180.516 27.7443 180.173 27.854 179.901 28.0734C179.633 28.2927 179.432 28.5852 179.298 28.9508C179.163 29.3164 179.096 29.7186 179.096 30.1573C179.096 30.5879 179.163 30.986 179.298 31.3516C179.432 31.7132 179.633 32.0036 179.901 32.223C180.173 32.4423 180.516 32.552 180.931 32.552ZM185.068 36.074V26.7145H186.348V27.8235H186.457C186.539 27.6813 186.65 27.5168 186.792 27.33C186.939 27.1431 187.142 26.9806 187.402 26.8425C187.662 26.7003 188.001 26.6292 188.419 26.6292C188.968 26.6292 189.455 26.7673 189.882 27.0436C190.312 27.3198 190.652 27.7199 190.899 28.244C191.147 28.768 191.271 29.3997 191.271 30.139C191.271 30.8702 191.149 31.4999 190.905 32.028C190.662 32.552 190.325 32.9562 189.894 33.2406C189.467 33.5209 188.978 33.661 188.425 33.661C188.015 33.661 187.678 33.592 187.414 33.4539C187.154 33.3117 186.949 33.1472 186.799 32.9603C186.652 32.7734 186.539 32.6089 186.457 32.4667H186.384V36.074H185.068ZM188.139 32.5337C188.533 32.5337 188.862 32.4281 189.126 32.2169C189.39 32.0057 189.589 31.7193 189.723 31.3577C189.861 30.9921 189.931 30.5818 189.931 30.1268C189.931 29.6759 189.864 29.2717 189.729 28.9143C189.595 28.5568 189.396 28.2744 189.132 28.0673C188.868 27.8601 188.537 27.7565 188.139 27.7565C187.753 27.7565 187.428 27.856 187.164 28.0551C186.9 28.2501 186.699 28.5263 186.561 28.8838C186.427 29.2372 186.36 29.6516 186.36 30.1268C186.36 30.6021 186.429 31.0205 186.567 31.3821C186.705 31.7436 186.906 32.026 187.17 32.2291C187.438 32.4322 187.761 32.5337 188.139 32.5337ZM191.411 27.8601V26.7145H197.145V27.8601H194.933V33.527H193.635V27.8601H191.411Z" fill="#141615"/>
</g>
<g filter="url(#filter2_d_803_1216)">
<rect x="210.167" y="16.5352" width="64.9587" height="24.9835" rx="12.4917" fill="#1D2723"/>
<rect x="210.167" y="16.5352" width="64.9587" height="24.9835" rx="12.4917" stroke="#43D18C" stroke-width="0.623967"/>
<path d="M224.235 33.5269H223.083L226.415 24.451H227.55L230.882 33.5269H229.73L227.018 25.8868H226.947L224.235 33.5269ZM224.66 29.9816H229.305V30.9565H224.66V29.9816ZM236.71 29.6448V30.6197H232.952V29.6448H236.71ZM233.2 26.7199V33.5269H232.154V26.7199H233.2ZM237.508 26.7199V33.5269H236.462V26.7199H237.508ZM240.463 31.9847L243.743 26.7199H244.948V33.5269H243.902V28.2621L240.641 33.5269H239.418V26.7199H240.463V31.9847ZM250.586 32.1087L252.962 26.7199H253.954L251.012 33.5269H250.161L247.271 26.7199H248.246L250.586 32.1087ZM247.91 26.7199V33.5269H246.864V26.7199H247.91ZM253.263 33.5269V26.7199H254.309V33.5269H253.263ZM259.077 33.6687C258.421 33.6687 257.855 33.5239 257.38 33.2344C256.907 32.9419 256.542 32.5342 256.285 32.0113C256.031 31.4854 255.904 30.8738 255.904 30.1766C255.904 29.4793 256.031 28.8648 256.285 28.333C256.542 27.7983 256.9 27.3817 257.358 27.0833C257.819 26.782 258.356 26.6313 258.971 26.6313C259.325 26.6313 259.675 26.6904 260.021 26.8086C260.367 26.9268 260.681 27.1188 260.965 27.3847C261.249 27.6476 261.475 27.9962 261.643 28.4305C261.811 28.8648 261.896 29.3996 261.896 30.0348V30.4779H256.649V29.5739H260.832C260.832 29.1898 260.755 28.8471 260.602 28.5458C260.451 28.2444 260.235 28.0066 259.955 27.8323C259.677 27.658 259.349 27.5708 258.971 27.5708C258.554 27.5708 258.194 27.6742 257.889 27.881C257.588 28.0849 257.356 28.3508 257.194 28.6787C257.031 29.0066 256.95 29.3582 256.95 29.7334V30.3361C256.95 30.8502 257.039 31.286 257.216 31.6434C257.396 31.998 257.646 32.2683 257.965 32.4544C258.284 32.6376 258.655 32.7292 259.077 32.7292C259.352 32.7292 259.6 32.6908 259.822 32.6139C260.046 32.5342 260.24 32.416 260.402 32.2594C260.565 32.0999 260.69 31.9019 260.779 31.6656L261.789 31.9492C261.683 32.2919 261.504 32.5933 261.253 32.8533C261.002 33.1103 260.692 33.3112 260.322 33.456C259.953 33.5978 259.538 33.6687 259.077 33.6687Z" fill="#43D18C"/>
</g>
<g filter="url(#filter3_d_803_1216)">
<rect x="51.249" y="41.5187" width="99.9587" height="24.9835" rx="12.4917" fill="#1D2723"/>
<rect x="51.249" y="41.5187" width="99.9587" height="24.9835" rx="12.4917" stroke="#43D18C" stroke-width="0.623967"/>
<path d="M64.987 49.4345H66.0683V56.5782H66.157L71.1203 49.4345H72.1839V58.5104H71.0849V51.3844H70.9963L66.0506 58.5104H64.987V49.4345ZM78.7969 54.6283V55.6033H75.039V54.6283H78.7969ZM75.2871 51.7035V58.5104H74.2413V51.7035H75.2871ZM79.5946 51.7035V58.5104H78.5488V51.7035H79.5946ZM81.5046 58.5104V51.7035H84.2877C85.0204 51.7035 85.6024 51.8689 86.0337 52.1998C86.4651 52.5307 86.6807 52.9679 86.6807 53.5115C86.6807 53.9252 86.5581 54.2457 86.3129 54.4732C86.0677 54.6977 85.7531 54.8499 85.369 54.9297C85.6201 54.9651 85.8638 55.0537 86.1002 55.1956C86.3395 55.3374 86.5374 55.5324 86.694 55.7805C86.8506 56.0257 86.9289 56.3271 86.9289 56.6846C86.9289 57.0332 86.8403 57.3449 86.663 57.6196C86.4857 57.8944 86.2317 58.1115 85.9008 58.2711C85.5699 58.4306 85.174 58.5104 84.7131 58.5104H81.5046ZM82.4973 57.5532H84.7131C85.0735 57.5532 85.3557 57.4675 85.5595 57.2961C85.7634 57.1248 85.8653 56.8914 85.8653 56.5959C85.8653 56.2444 85.7634 55.9681 85.5595 55.7672C85.3557 55.5634 85.0735 55.4614 84.7131 55.4614H82.4973V57.5532ZM82.4973 54.5574H84.2877C84.5683 54.5574 84.8091 54.519 85.01 54.4422C85.2109 54.3624 85.3646 54.2501 85.4709 54.1054C85.5802 53.9577 85.6349 53.7834 85.6349 53.5825C85.6349 53.2959 85.5152 53.0713 85.2759 52.9089C85.0366 52.7434 84.7072 52.6607 84.2877 52.6607H82.4973V54.5574ZM91.366 58.6522C90.7102 58.6522 90.1444 58.5074 89.6687 58.2179C89.196 57.9254 88.8312 57.5177 88.5741 56.9948C88.32 56.4689 88.193 55.8573 88.193 55.1601C88.193 54.4629 88.32 53.8484 88.5741 53.3166C88.8312 52.7818 89.1886 52.3652 89.6466 52.0669C90.1075 51.7655 90.6452 51.6148 91.2597 51.6148C91.6142 51.6148 91.9643 51.6739 92.31 51.7921C92.6556 51.9103 92.9703 52.1023 93.2539 52.3682C93.5375 52.6311 93.7635 52.9798 93.9319 53.4141C94.1003 53.8484 94.1845 54.3831 94.1845 55.0183V55.4614H88.9375V54.5574H93.1209C93.1209 54.1733 93.0441 53.8306 92.8905 53.5293C92.7398 53.2279 92.5241 52.9901 92.2435 52.8158C91.9658 52.6415 91.6378 52.5543 91.2597 52.5543C90.8431 52.5543 90.4827 52.6577 90.1784 52.8645C89.877 53.0684 89.6451 53.3343 89.4826 53.6622C89.3201 53.9902 89.2389 54.3417 89.2389 54.7169V55.3196C89.2389 55.8337 89.3275 56.2695 89.5048 56.627C89.685 56.9815 89.9346 57.2518 90.2537 57.4379C90.5728 57.6211 90.9435 57.7127 91.366 57.7127C91.6408 57.7127 91.889 57.6743 92.1105 57.5975C92.3351 57.5177 92.5286 57.3995 92.6911 57.2429C92.8536 57.0834 92.9791 56.8855 93.0678 56.6491L94.0782 56.9327C93.9718 57.2754 93.7931 57.5768 93.5419 57.8368C93.2908 58.0938 92.9806 58.2947 92.6113 58.4395C92.242 58.5813 91.8269 58.6522 91.366 58.6522ZM98.5408 58.6522C97.9026 58.6522 97.3531 58.5015 96.8922 58.2002C96.4313 57.8988 96.0768 57.4837 95.8286 56.9549C95.5805 56.4261 95.4564 55.8219 95.4564 55.1424C95.4564 54.451 95.5834 53.841 95.8375 53.3121C96.0945 52.7803 96.452 52.3652 96.9099 52.0669C97.3708 51.7655 97.9085 51.6148 98.523 51.6148C99.0016 51.6148 99.433 51.7035 99.8171 51.8807C100.201 52.058 100.516 52.3062 100.761 52.6252C101.006 52.9443 101.158 53.3166 101.217 53.742H100.172C100.092 53.4318 99.9146 53.157 99.6398 52.9177C99.368 52.6755 99.0016 52.5543 98.5408 52.5543C98.1331 52.5543 97.7756 52.6607 97.4683 52.8734C97.164 53.0832 96.9262 53.3801 96.7548 53.7642C96.5864 54.1453 96.5022 54.5929 96.5022 55.1069C96.5022 55.6328 96.585 56.0907 96.7504 56.4807C96.9188 56.8707 97.1552 57.1735 97.4595 57.3892C97.7667 57.6049 98.1271 57.7127 98.5408 57.7127C98.8126 57.7127 99.0593 57.6654 99.2808 57.5709C99.5024 57.4763 99.69 57.3404 99.8436 57.1632C99.9973 56.9859 100.107 56.7732 100.172 56.525H101.217C101.158 56.9268 101.012 57.2887 100.779 57.6108C100.548 57.9298 100.242 58.1839 99.8614 58.373C99.4832 58.5591 99.043 58.6522 98.5408 58.6522ZM102.21 52.6784V51.7035H107.741V52.6784H105.507V58.5104H104.461V52.6784H102.21ZM110.312 56.9682L113.592 51.7035H114.797V58.5104H113.751V53.2457L110.489 58.5104H109.266V51.7035H110.312V56.9682ZM122.066 51.7035V57.5354H123.023V60.7084H121.977V58.5104H116.712V51.7035H117.758V57.5354H121.02V51.7035H122.066ZM125.68 56.9682L128.959 51.7035H130.165V58.5104H129.119V53.2457L125.857 58.5104H124.634V51.7035H125.68V56.9682ZM133.126 56.9682L136.405 51.7035H137.611V58.5104H136.565V53.2457L133.303 58.5104H132.08V51.7035H133.126V56.9682Z" fill="#43D18C"/>
</g>
<g filter="url(#filter4_d_803_1216)">
<rect x="151.208" y="41.5187" width="43.9587" height="24.9835" rx="12.4917" fill="#1D2723"/>
<rect x="151.208" y="41.5187" width="43.9587" height="24.9835" rx="12.4917" stroke="#43D18C" stroke-width="0.623967"/>
<path d="M164.89 49.4345H165.972V56.5782H166.06L171.024 49.4345H172.087V58.5104H170.988V51.3844H170.9L165.954 58.5104H164.89V49.4345ZM174.287 49.4345H175.368V56.5782H175.456L180.42 49.4345H181.483V58.5104H180.384V51.3844H180.296L175.35 58.5104H174.287V49.4345Z" fill="#43D18C"/>
</g>
<g filter="url(#filter5_d_803_1216)">
<rect x="195.167" y="41.5187" width="98.9587" height="24.9835" rx="12.4917" fill="#43D18C"/>
<path d="M209.5 58.6345V57.4291H210.045C210.273 57.4291 210.46 57.3907 210.608 57.3138C210.759 57.237 210.881 57.1336 210.976 57.0036C211.073 56.8707 211.155 56.7259 211.22 56.5693L211.348 56.2458L208.157 49.4345H209.611L211.991 54.6815L214.109 49.4345H215.545L212.407 56.9372C212.274 57.2385 212.121 57.5177 211.946 57.7747C211.775 58.0318 211.546 58.24 211.259 58.3996C210.973 58.5562 210.593 58.6345 210.121 58.6345H209.5ZM216.234 58.5104V51.7035H221.787V58.5104H220.488V52.8468H217.524V58.5104H216.234ZM223.558 61.063V51.7035H224.852V52.8069H224.963C225.04 52.6651 225.151 52.5011 225.295 52.315C225.44 52.1289 225.641 51.9664 225.898 51.8275C226.155 51.6857 226.495 51.6148 226.917 51.6148C227.467 51.6148 227.957 51.7537 228.389 52.0314C228.82 52.3091 229.158 52.7094 229.404 53.2324C229.652 53.7553 229.776 54.3846 229.776 55.1202C229.776 55.8559 229.653 56.4866 229.408 57.0125C229.163 57.5354 228.826 57.9387 228.398 58.2223C227.969 58.503 227.48 58.6433 226.931 58.6433C226.517 58.6433 226.179 58.5739 225.916 58.435C225.656 58.2962 225.452 58.1337 225.304 57.9476C225.157 57.7614 225.043 57.596 224.963 57.4512H224.883V61.063H223.558ZM224.857 55.1069C224.857 55.5855 224.926 56.0051 225.065 56.3655C225.204 56.7259 225.405 57.0081 225.668 57.2119C225.931 57.4128 226.253 57.5133 226.634 57.5133C227.03 57.5133 227.361 57.4084 227.626 57.1986C227.892 56.9859 228.093 56.6979 228.229 56.3345C228.368 55.9711 228.437 55.5619 228.437 55.1069C228.437 54.6579 228.369 54.2546 228.234 53.8971C228.101 53.5396 227.9 53.2575 227.631 53.0507C227.365 52.8439 227.033 52.7405 226.634 52.7405C226.25 52.7405 225.925 52.8394 225.659 53.0374C225.396 53.2353 225.196 53.5115 225.061 53.8661C224.925 54.2206 224.857 54.6342 224.857 55.1069ZM233.241 58.661C232.81 58.661 232.42 58.5813 232.071 58.4217C231.723 58.2593 231.446 58.0244 231.243 57.7171C231.042 57.4099 230.941 57.0332 230.941 56.5871C230.941 56.203 231.015 55.8869 231.163 55.6387C231.311 55.3905 231.51 55.1941 231.761 55.0493C232.012 54.9045 232.293 54.7952 232.603 54.7214C232.913 54.6475 233.229 54.5914 233.551 54.553C233.959 54.5057 234.29 54.4673 234.544 54.4378C234.798 54.4053 234.983 54.3536 235.098 54.2826C235.213 54.2117 235.271 54.0965 235.271 53.937V53.906C235.271 53.5189 235.162 53.2191 234.943 53.0063C234.727 52.7936 234.405 52.6873 233.977 52.6873C233.531 52.6873 233.179 52.7862 232.922 52.9842C232.668 53.1792 232.492 53.3963 232.395 53.6356L231.15 53.352C231.297 52.9384 231.513 52.6046 231.797 52.3505C232.083 52.0934 232.413 51.9073 232.785 51.7921C233.157 51.6739 233.549 51.6148 233.959 51.6148C234.231 51.6148 234.519 51.6473 234.823 51.7123C235.131 51.7744 235.417 51.8896 235.683 52.058C235.952 52.2264 236.172 52.4672 236.343 52.7803C236.515 53.0905 236.6 53.4938 236.6 53.9902V58.5104H235.306V57.5797H235.253C235.168 57.7511 235.039 57.9195 234.868 58.0849C234.696 58.2504 234.476 58.3878 234.207 58.4971C233.938 58.6064 233.616 58.661 233.241 58.661ZM233.529 57.5975C233.896 57.5975 234.209 57.5251 234.469 57.3803C234.732 57.2356 234.931 57.0465 235.067 56.8131C235.206 56.5767 235.275 56.3241 235.275 56.0553V55.1778C235.228 55.2251 235.136 55.2694 235.001 55.3108C234.868 55.3492 234.715 55.3832 234.544 55.4127C234.373 55.4393 234.206 55.4644 234.043 55.488C233.881 55.5087 233.745 55.5264 233.636 55.5412C233.379 55.5737 233.144 55.6284 232.931 55.7052C232.721 55.782 232.553 55.8928 232.426 56.0376C232.302 56.1794 232.24 56.3684 232.24 56.6048C232.24 56.9327 232.361 57.1809 232.603 57.3493C232.845 57.5147 233.154 57.5975 233.529 57.5975ZM238.365 58.5104V51.7035H241.188C241.956 51.7035 242.565 51.8674 243.014 52.1954C243.463 52.5204 243.688 52.962 243.688 53.5204C243.688 53.9193 243.561 54.2354 243.306 54.4688C243.052 54.7022 242.716 54.8588 242.296 54.9385C242.6 54.974 242.88 55.0656 243.134 55.2133C243.388 55.358 243.592 55.553 243.745 55.7982C243.902 56.0435 243.98 56.3359 243.98 56.6757C243.98 57.0361 243.887 57.3552 243.701 57.6329C243.515 57.9077 243.244 58.1234 242.89 58.2799C242.538 58.4336 242.114 58.5104 241.618 58.5104H238.365ZM239.611 57.4025H241.618C241.946 57.4025 242.203 57.3242 242.389 57.1676C242.575 57.011 242.668 56.7983 242.668 56.5295C242.668 56.2133 242.575 55.9652 242.389 55.785C242.203 55.6018 241.946 55.5102 241.618 55.5102H239.611V57.4025ZM239.611 54.5397H241.201C241.45 54.5397 241.662 54.5042 241.84 54.4333C242.02 54.3624 242.157 54.262 242.252 54.132C242.349 53.999 242.398 53.8424 242.398 53.6622C242.398 53.3993 242.29 53.194 242.075 53.0462C241.859 52.8985 241.563 52.8247 241.188 52.8247H239.611V54.5397ZM244.897 58.5104L244.893 57.3626H245.137C245.326 57.3626 245.484 57.3227 245.611 57.2429C245.741 57.1602 245.847 57.0214 245.93 56.8264C246.013 56.6314 246.076 56.3625 246.121 56.0198C246.165 55.6742 246.197 55.2399 246.218 54.7169L246.338 51.7035H251.088V58.5104H249.79V52.8468H247.565L247.459 55.1601C247.432 55.7214 247.375 56.2119 247.286 56.6314C247.2 57.0509 247.075 57.401 246.909 57.6817C246.744 57.9594 246.531 58.1677 246.271 58.3065C246.011 58.4424 245.695 58.5104 245.323 58.5104H244.897ZM255.789 58.6478C255.119 58.6478 254.541 58.5045 254.056 58.2179C253.575 57.9284 253.203 57.5221 252.94 56.9992C252.68 56.4733 252.55 55.8573 252.55 55.1512C252.55 54.454 252.68 53.8395 252.94 53.3077C253.203 52.7759 253.569 52.3608 254.039 52.0624C254.511 51.764 255.064 51.6148 255.696 51.6148C256.08 51.6148 256.452 51.6784 256.813 51.8054C257.173 51.9324 257.497 52.1319 257.783 52.4037C258.07 52.6755 258.296 53.0285 258.461 53.4628C258.627 53.8941 258.71 54.4185 258.71 55.036V55.5058H253.299V54.5131H257.411C257.411 54.1645 257.34 53.8557 257.198 53.5869C257.057 53.3151 256.857 53.1009 256.6 52.9443C256.346 52.7877 256.048 52.7094 255.705 52.7094C255.333 52.7094 255.008 52.801 254.73 52.9842C254.455 53.1644 254.243 53.4008 254.092 53.6932C253.944 53.9828 253.87 54.2974 253.87 54.6372V55.4127C253.87 55.8677 253.95 56.2547 254.11 56.5738C254.272 56.8928 254.498 57.1366 254.788 57.305C255.077 57.4704 255.415 57.5532 255.802 57.5532C256.054 57.5532 256.283 57.5177 256.489 57.4468C256.696 57.3729 256.875 57.2636 257.026 57.1189C257.176 56.9741 257.291 56.7954 257.371 56.5826L258.625 56.8086C258.525 57.1779 258.345 57.5015 258.085 57.7792C257.828 58.0539 257.504 58.2681 257.114 58.4217C256.727 58.5724 256.285 58.6478 255.789 58.6478ZM264.793 54.5352V55.683H261.106V54.5352H264.793ZM261.478 51.7035V58.5104H260.18V51.7035H261.478ZM265.719 51.7035V58.5104H264.425V51.7035H265.719ZM268.79 56.6535L271.79 51.7035H273.217V58.5104H271.919V53.5559L268.932 58.5104H267.492V51.7035H268.79V56.6535ZM277.933 58.6478C277.262 58.6478 276.684 58.5045 276.2 58.2179C275.718 57.9284 275.346 57.5221 275.083 56.9992C274.823 56.4733 274.693 55.8573 274.693 55.1512C274.693 54.454 274.823 53.8395 275.083 53.3077C275.346 52.7759 275.712 52.3608 276.182 52.0624C276.655 51.764 277.207 51.6148 277.84 51.6148C278.224 51.6148 278.596 51.6784 278.956 51.8054C279.317 51.9324 279.64 52.1319 279.927 52.4037C280.213 52.6755 280.439 53.0285 280.605 53.4628C280.77 53.8941 280.853 54.4185 280.853 55.036V55.5058H275.442V54.5131H279.555C279.555 54.1645 279.484 53.8557 279.342 53.5869C279.2 53.3151 279.001 53.1009 278.744 52.9443C278.49 52.7877 278.191 52.7094 277.848 52.7094C277.476 52.7094 277.151 52.801 276.874 52.9842C276.599 53.1644 276.386 53.4008 276.235 53.6932C276.088 53.9828 276.014 54.2974 276.014 54.6372V55.4127C276.014 55.8677 276.094 56.2547 276.253 56.5738C276.416 56.8928 276.642 57.1366 276.931 57.305C277.221 57.4704 277.559 57.5532 277.946 57.5532C278.197 57.5532 278.426 57.5177 278.633 57.4468C278.84 57.3729 279.018 57.2636 279.169 57.1189C279.32 56.9741 279.435 56.7954 279.515 56.5826L280.769 56.8086C280.668 57.1779 280.488 57.5015 280.228 57.7792C279.971 58.0539 279.648 58.2681 279.258 58.4217C278.871 58.5724 278.429 58.6478 277.933 58.6478Z" fill="#141615"/>
</g>
<g filter="url(#filter6_d_803_1216)">
<rect x="25.2705" y="66.5022" width="66.9587" height="24.9835" rx="12.4917" fill="#1D2723"/>
<rect x="25.2705" y="66.5022" width="66.9587" height="24.9835" rx="12.4917" stroke="#43D18C" stroke-width="0.623967"/>
<path d="M45.2442 77.2543C45.1467 76.956 45.0182 76.6886 44.8586 76.4522C44.7021 76.2129 44.5145 76.0091 44.2958 75.8407C44.0802 75.6723 43.835 75.5438 43.5602 75.4551C43.2854 75.3665 42.9841 75.3222 42.6562 75.3222C42.1185 75.3222 41.6295 75.461 41.1893 75.7387C40.7491 76.0165 40.399 76.4256 40.139 76.9663C39.879 77.5069 39.749 78.1702 39.749 78.9561C39.749 79.7419 39.8805 80.4052 40.1434 80.9459C40.4064 81.4865 40.7624 81.8957 41.2115 82.1734C41.6605 82.4511 42.1657 82.59 42.7271 82.59C43.247 82.59 43.705 82.4792 44.1008 82.2576C44.4997 82.0331 44.8099 81.717 45.0315 81.3092C45.256 80.8986 45.3683 80.4155 45.3683 79.8601L45.7051 79.931H42.9752V78.9561H46.4319V79.931C46.4319 80.6785 46.2723 81.3285 45.9532 81.8809C45.6371 82.4334 45.1999 82.8618 44.6415 83.1661C44.0861 83.4674 43.4479 83.6181 42.7271 83.6181C41.9235 83.6181 41.2174 83.429 40.6088 83.0509C40.0031 82.6727 39.5304 82.135 39.1907 81.4378C38.8539 80.7405 38.6855 79.9133 38.6855 78.9561C38.6855 78.2382 38.7815 77.5926 38.9735 77.0195C39.1685 76.4434 39.4433 75.9529 39.7978 75.5482C40.1523 75.1434 40.5718 74.8332 41.0563 74.6176C41.5409 74.4019 42.0741 74.2941 42.6562 74.2941C43.1348 74.2941 43.5809 74.3664 43.9945 74.5112C44.4111 74.653 44.7818 74.8554 45.1068 75.1183C45.4348 75.3783 45.708 75.69 45.9267 76.0534C46.1453 76.4138 46.296 76.8141 46.3787 77.2543H45.2442ZM50.9377 83.6358C50.3232 83.6358 49.784 83.4896 49.3201 83.1971C48.8593 82.9046 48.4988 82.4954 48.2388 81.9696C47.9818 81.4437 47.8533 80.8292 47.8533 80.126C47.8533 79.417 47.9818 78.798 48.2388 78.2692C48.4988 77.7403 48.8593 77.3297 49.3201 77.0372C49.784 76.7447 50.3232 76.5985 50.9377 76.5985C51.5522 76.5985 52.0899 76.7447 52.5508 77.0372C53.0146 77.3297 53.375 77.7403 53.6321 78.2692C53.8921 78.798 54.0221 79.417 54.0221 80.126C54.0221 80.8292 53.8921 81.4437 53.6321 81.9696C53.375 82.4954 53.0146 82.9046 52.5508 83.1971C52.0899 83.4896 51.5522 83.6358 50.9377 83.6358ZM50.9377 82.6963C51.4045 82.6963 51.7885 82.5767 52.0899 82.3374C52.3912 82.0981 52.6143 81.7834 52.7591 81.3934C52.9038 81.0035 52.9762 80.581 52.9762 80.126C52.9762 79.671 52.9038 79.2471 52.7591 78.8542C52.6143 78.4612 52.3912 78.1436 52.0899 77.9014C51.7885 77.6591 51.4045 77.538 50.9377 77.538C50.4709 77.538 50.0868 77.6591 49.7855 77.9014C49.4841 78.1436 49.2611 78.4612 49.1163 78.8542C48.9715 79.2471 48.8991 79.671 48.8991 80.126C48.8991 80.581 48.9715 81.0035 49.1163 81.3934C49.2611 81.7834 49.4841 82.0981 49.7855 82.3374C50.0868 82.5767 50.4709 82.6963 50.9377 82.6963ZM56.6644 74.4181V83.494H55.6185V74.4181H56.6644ZM60.583 83.6536C60.1517 83.6536 59.7602 83.5723 59.4086 83.4098C59.0571 83.2444 58.7779 83.0065 58.5711 82.6963C58.3643 82.3832 58.2609 82.005 58.2609 81.5618C58.2609 81.1719 58.3377 80.8557 58.4913 80.6135C58.6449 80.3683 58.8503 80.1762 59.1073 80.0374C59.3643 79.8985 59.6479 79.7951 59.9582 79.7272C60.2713 79.6563 60.586 79.6001 60.9021 79.5588C61.3157 79.5056 61.651 79.4657 61.9081 79.4391C62.168 79.4096 62.3571 79.3608 62.4753 79.2929C62.5964 79.2249 62.657 79.1068 62.657 78.9384V78.9029C62.657 78.4656 62.5373 78.1259 62.298 77.8836C62.0617 77.6414 61.7027 77.5202 61.2212 77.5202C60.7219 77.5202 60.3304 77.6296 60.0468 77.8482C59.7632 78.0668 59.5637 78.3002 59.4485 78.5484L58.4559 78.1938C58.6331 77.7802 58.8695 77.4582 59.1649 77.2278C59.4633 76.9944 59.7883 76.8319 60.1399 76.7403C60.4944 76.6457 60.843 76.5985 61.1857 76.5985C61.4043 76.5985 61.6555 76.6251 61.9391 76.6782C62.2257 76.7285 62.5019 76.8333 62.7678 76.9929C63.0366 77.1524 63.2597 77.3932 63.437 77.7152C63.6142 78.0373 63.7028 78.4686 63.7028 79.0093V83.494H62.657V82.5722H62.6038C62.5329 82.72 62.4147 82.878 62.2493 83.0464C62.0838 83.2148 61.8637 83.3581 61.589 83.4763C61.3142 83.5945 60.9789 83.6536 60.583 83.6536ZM60.7425 82.7141C61.1562 82.7141 61.5048 82.6328 61.7884 82.4703C62.075 82.3078 62.2906 82.0981 62.4354 81.841C62.5831 81.584 62.657 81.3137 62.657 81.0301V80.0728C62.6127 80.126 62.5152 80.1748 62.3645 80.2191C62.2168 80.2604 62.0454 80.2974 61.8504 80.3299C61.6584 80.3594 61.4708 80.386 61.2876 80.4096C61.1074 80.4303 60.9612 80.448 60.8489 80.4628C60.5771 80.4983 60.323 80.5559 60.0867 80.6356C59.8533 80.7125 59.6642 80.8292 59.5194 80.9857C59.3776 81.1394 59.3067 81.3491 59.3067 81.615C59.3067 81.9784 59.4411 82.2532 59.71 82.4393C59.9818 82.6225 60.326 82.7141 60.7425 82.7141ZM66.6576 79.3992V83.494H65.6118V76.6871H66.6222V77.7507H66.7108C66.8703 77.405 67.1126 77.1273 67.4376 76.9175C67.7625 76.7048 68.1821 76.5985 68.6961 76.5985C69.157 76.5985 69.5603 76.693 69.906 76.8821C70.2516 77.0682 70.5205 77.3518 70.7125 77.733C70.9045 78.1111 71.0006 78.5897 71.0006 79.1688V83.494H69.9547V79.2397C69.9547 78.705 69.8158 78.2884 69.5381 77.99C69.2604 77.6886 68.8793 77.538 68.3948 77.538C68.0609 77.538 67.7625 77.6104 67.4996 77.7551C67.2396 77.8999 67.0343 78.1111 66.8836 78.3888C66.7329 78.6665 66.6576 79.0033 66.6576 79.3992ZM75.6593 86.1884C75.1541 86.1884 74.7198 86.1234 74.3564 85.9934C73.993 85.8664 73.6902 85.698 73.4479 85.4882C73.2086 85.2814 73.018 85.0598 72.8762 84.8235L73.7094 84.2385C73.8039 84.3626 73.9236 84.5044 74.0683 84.664C74.2131 84.8264 74.411 84.9668 74.6622 85.085C74.9162 85.2061 75.2486 85.2667 75.6593 85.2667C76.2088 85.2667 76.6623 85.1337 77.0198 84.8678C77.3772 84.6019 77.556 84.1853 77.556 83.6181V82.2354H77.4673C77.3905 82.3595 77.2812 82.5132 77.1394 82.6963C77.0006 82.8766 76.7997 83.0376 76.5367 83.1794C76.2767 83.3182 75.9252 83.3877 75.482 83.3877C74.9325 83.3877 74.4391 83.2577 74.0019 82.9977C73.5676 82.7377 73.2234 82.3595 72.9693 81.8632C72.7182 81.3669 72.5926 80.7642 72.5926 80.0551C72.5926 79.3579 72.7152 78.7507 72.9604 78.2337C73.2056 77.7138 73.5469 77.312 73.9841 77.0283C74.4214 76.7418 74.9266 76.5985 75.4997 76.5985C75.9429 76.5985 76.2945 76.6723 76.5544 76.8201C76.8174 76.9648 77.0183 77.1303 77.1571 77.3164C77.2989 77.4996 77.4083 77.6502 77.4851 77.7684H77.5914V76.6871H78.6018V83.689C78.6018 84.274 78.4689 84.7496 78.203 85.116C77.9401 85.4853 77.5855 85.7556 77.1394 85.927C76.6963 86.1013 76.2029 86.1884 75.6593 86.1884ZM75.6238 82.4482C76.0433 82.4482 76.3979 82.3521 76.6874 82.1601C76.9769 81.9681 77.197 81.6918 77.3477 81.3314C77.4984 80.971 77.5737 80.5396 77.5737 80.0374C77.5737 79.547 77.4998 79.1141 77.3521 78.7389C77.2044 78.3637 76.9858 78.0698 76.6963 77.857C76.4067 77.6443 76.0492 77.538 75.6238 77.538C75.1807 77.538 74.8114 77.6502 74.5159 77.8748C74.2234 78.0993 74.0033 78.4007 73.8556 78.7788C73.7108 79.157 73.6385 79.5765 73.6385 80.0374C73.6385 80.5101 73.7123 80.9281 73.86 81.2915C74.0107 81.652 74.2323 81.9356 74.5248 82.1424C74.8202 82.3462 75.1866 82.4482 75.6238 82.4482Z" fill="#43D18C"/>
</g>
<g filter="url(#filter7_d_803_1216)">
<rect x="92.2285" y="66.5022" width="57.9587" height="24.9835" rx="12.4917" fill="#43D18C"/>
<path d="M105.997 74.4181H107.353V81.0832H107.437L112.055 74.4181H113.322V83.494H111.953V76.8378H111.868L107.26 83.494H105.997V74.4181ZM119.565 76.6871V77.8305H116.52V83.494H115.213V76.6871H119.565ZM120.965 86.0466V76.6871H122.259V77.7906H122.37C122.447 77.6488 122.558 77.4848 122.703 77.2987C122.847 77.1125 123.048 76.95 123.305 76.8112C123.562 76.6694 123.902 76.5985 124.325 76.5985C124.874 76.5985 125.364 76.7373 125.796 77.015C126.227 77.2928 126.565 77.6931 126.811 78.216C127.059 78.7389 127.183 79.3682 127.183 80.1039C127.183 80.8395 127.06 81.4703 126.815 81.9961C126.57 82.5191 126.233 82.9223 125.805 83.206C125.376 83.4866 124.887 83.627 124.338 83.627C123.924 83.627 123.586 83.5575 123.323 83.4187C123.063 83.2798 122.859 83.1173 122.711 82.9312C122.564 82.7451 122.45 82.5796 122.37 82.4349H122.29V86.0466H120.965ZM122.264 80.0906C122.264 80.5692 122.333 80.9887 122.472 81.3491C122.611 81.7096 122.812 81.9917 123.075 82.1956C123.338 82.3965 123.66 82.4969 124.041 82.4969C124.437 82.4969 124.768 82.392 125.034 82.1823C125.299 81.9696 125.5 81.6815 125.636 81.3181C125.775 80.9547 125.845 80.5455 125.845 80.0906C125.845 79.6415 125.777 79.2382 125.641 78.8807C125.508 78.5233 125.307 78.2411 125.038 78.0343C124.772 77.8275 124.44 77.7241 124.041 77.7241C123.657 77.7241 123.332 77.8231 123.066 78.021C122.803 78.219 122.604 78.4952 122.468 78.8497C122.332 79.2042 122.264 79.6179 122.264 80.0906ZM129.665 79.027H131.641C132.474 79.027 133.115 79.2338 133.564 79.6474C134.013 80.061 134.238 80.5943 134.238 81.2472C134.238 81.6726 134.138 82.0552 133.937 82.395C133.736 82.7347 133.442 83.0036 133.055 83.2015C132.668 83.3965 132.196 83.494 131.641 83.494H128.667V76.6871H129.966V82.3507H131.641C132.022 82.3507 132.335 82.2517 132.581 82.0538C132.826 81.8529 132.948 81.5973 132.948 81.2871C132.948 80.9592 132.826 80.6918 132.581 80.485C132.335 80.2752 132.022 80.1703 131.641 80.1703H129.665V79.027ZM135.204 83.494V76.6871H136.529V83.494H135.204Z" fill="#141615"/>
</g>
<g filter="url(#filter8_d_803_1216)">
<rect x="150.188" y="66.5022" width="71.9587" height="24.9835" rx="12.4917" fill="#1D2723"/>
<rect x="150.188" y="66.5022" width="71.9587" height="24.9835" rx="12.4917" stroke="#43D18C" stroke-width="0.623967"/>
<path d="M166.766 83.4939H163.965V74.418H166.89C167.77 74.418 168.523 74.5997 169.15 74.9631C169.776 75.3235 170.256 75.842 170.59 76.5186C170.924 77.1922 171.091 77.9987 171.091 78.9382C171.091 79.8836 170.922 80.6976 170.586 81.38C170.249 82.0595 169.758 82.5825 169.114 82.9488C168.47 83.3122 167.687 83.4939 166.766 83.4939ZM165.064 82.5189H166.695C167.445 82.5189 168.067 82.3742 168.56 82.0847C169.054 81.7951 169.422 81.383 169.664 80.8482C169.906 80.3135 170.027 79.6768 170.027 78.9382C170.027 78.2055 169.908 77.5748 169.668 77.0459C169.429 76.5142 169.071 76.1064 168.596 75.8228C168.12 75.5362 167.528 75.393 166.819 75.393H165.064V82.5189ZM175.646 83.6357C174.991 83.6357 174.425 83.4909 173.949 83.2014C173.476 82.9089 173.112 82.5012 172.855 81.9783C172.6 81.4524 172.473 80.8409 172.473 80.1436C172.473 79.4464 172.6 78.8319 172.855 78.3001C173.112 77.7653 173.469 77.3488 173.927 77.0504C174.388 76.749 174.926 76.5984 175.54 76.5984C175.895 76.5984 176.245 76.6574 176.59 76.7756C176.936 76.8938 177.251 77.0858 177.534 77.3517C177.818 77.6147 178.044 77.9633 178.212 78.3976C178.381 78.8319 178.465 79.3666 178.465 80.0018V80.445H173.218V79.5409H177.401C177.401 79.1569 177.325 78.8141 177.171 78.5128C177.02 78.2114 176.805 77.9736 176.524 77.7993C176.246 77.625 175.918 77.5378 175.54 77.5378C175.123 77.5378 174.763 77.6413 174.459 77.8481C174.157 78.0519 173.925 78.3178 173.763 78.6457C173.6 78.9737 173.519 79.3253 173.519 79.7005V80.3032C173.519 80.8172 173.608 81.253 173.785 81.6105C173.965 81.965 174.215 82.2353 174.534 82.4215C174.853 82.6046 175.224 82.6962 175.646 82.6962C175.921 82.6962 176.169 82.6578 176.391 82.581C176.615 82.5012 176.809 82.383 176.971 82.2265C177.134 82.0669 177.26 81.869 177.348 81.6326L178.359 81.9163C178.252 82.259 178.073 82.5603 177.822 82.8203C177.571 83.0773 177.261 83.2782 176.892 83.423C176.522 83.5648 176.107 83.6357 175.646 83.6357ZM185.415 76.687L182.898 83.4939H181.834L179.317 76.687H180.451L182.33 82.1112H182.401L184.28 76.687H185.415ZM194.595 78.956C194.595 79.9132 194.422 80.7404 194.076 81.4376C193.731 82.1349 193.256 82.6726 192.654 83.0507C192.051 83.4289 191.363 83.618 190.589 83.618C189.815 83.618 189.126 83.4289 188.523 83.0507C187.921 82.6726 187.447 82.1349 187.101 81.4376C186.755 80.7404 186.582 79.9132 186.582 78.956C186.582 77.9987 186.755 77.1715 187.101 76.4743C187.447 75.777 187.921 75.2393 188.523 74.8612C189.126 74.483 189.815 74.2939 190.589 74.2939C191.363 74.2939 192.051 74.483 192.654 74.8612C193.256 75.2393 193.731 75.777 194.076 76.4743C194.422 77.1715 194.595 77.9987 194.595 78.956ZM193.531 78.956C193.531 78.1701 193.4 77.5068 193.137 76.9662C192.877 76.4255 192.524 76.0163 192.078 75.7386C191.634 75.4609 191.138 75.3221 190.589 75.3221C190.039 75.3221 189.541 75.4609 189.095 75.7386C188.652 76.0163 188.299 76.4255 188.036 76.9662C187.776 77.5068 187.646 78.1701 187.646 78.956C187.646 79.7418 187.776 80.4051 188.036 80.9457C188.299 81.4864 188.652 81.8956 189.095 82.1733C189.541 82.451 190.039 82.5899 190.589 82.5899C191.138 82.5899 191.634 82.451 192.078 82.1733C192.524 81.8956 192.877 81.4864 193.137 80.9457C193.4 80.4051 193.531 79.7418 193.531 78.956ZM196.301 86.0465V76.687H197.311V77.7683H197.435C197.512 77.6501 197.619 77.4994 197.754 77.3163C197.893 77.1301 198.091 76.9647 198.348 76.8199C198.608 76.6722 198.96 76.5984 199.403 76.5984C199.976 76.5984 200.481 76.7416 200.919 77.0282C201.356 77.3148 201.697 77.721 201.942 78.2469C202.188 78.7728 202.31 79.3932 202.31 80.1082C202.31 80.829 202.188 81.4539 201.942 81.9827C201.697 82.5086 201.357 82.9163 200.923 83.2058C200.489 83.4924 199.988 83.6357 199.421 83.6357C198.984 83.6357 198.633 83.5633 198.37 83.4186C198.108 83.2708 197.905 83.1039 197.763 82.9178C197.622 82.7287 197.512 82.5721 197.435 82.448H197.347V86.0465H196.301ZM197.329 80.0904C197.329 80.6045 197.404 81.058 197.555 81.4509C197.706 81.8409 197.926 82.1467 198.215 82.3683C198.505 82.5869 198.859 82.6962 199.279 82.6962C199.716 82.6962 200.081 82.581 200.374 82.3505C200.669 82.1172 200.891 81.804 201.038 81.4111C201.189 81.0152 201.264 80.575 201.264 80.0904C201.264 79.6118 201.19 79.1805 201.043 78.7964C200.898 78.4094 200.678 78.1036 200.382 77.8791C200.09 77.6516 199.722 77.5378 199.279 77.5378C198.854 77.5378 198.496 77.6457 198.206 77.8614C197.917 78.0741 197.698 78.3725 197.551 78.7565C197.403 79.1376 197.329 79.5823 197.329 80.0904ZM208.727 78.2114L207.788 78.4773C207.728 78.3208 207.641 78.1686 207.526 78.0209C207.414 77.8702 207.26 77.7461 207.065 77.6486C206.87 77.5511 206.621 77.5024 206.316 77.5024C205.9 77.5024 205.553 77.5984 205.275 77.7904C205 77.9795 204.863 78.2203 204.863 78.5128C204.863 78.7728 204.957 78.9781 205.146 79.1288C205.335 79.2795 205.631 79.405 206.033 79.5055L207.043 79.7536C207.652 79.9014 208.105 80.1274 208.404 80.4317C208.702 80.733 208.851 81.1215 208.851 81.5972C208.851 81.9872 208.739 82.3358 208.514 82.643C208.293 82.9503 207.983 83.1925 207.584 83.3698C207.185 83.5471 206.721 83.6357 206.192 83.6357C205.498 83.6357 204.923 83.485 204.468 83.1837C204.013 82.8823 203.725 82.4421 203.604 81.8631L204.597 81.6149C204.691 81.9812 204.87 82.256 205.133 82.4392C205.399 82.6224 205.746 82.7139 206.174 82.7139C206.662 82.7139 207.049 82.6105 207.336 82.4037C207.625 82.194 207.77 81.9428 207.77 81.6504C207.77 81.414 207.687 81.2161 207.522 81.0565C207.356 80.894 207.102 80.7729 206.759 80.6931L205.625 80.4272C205.002 80.2795 204.544 80.0506 204.251 79.7403C203.962 79.4272 203.817 79.0357 203.817 78.566C203.817 78.1819 203.925 77.8422 204.14 77.5467C204.359 77.2513 204.656 77.0194 205.031 76.851C205.409 76.6826 205.838 76.5984 206.316 76.5984C206.99 76.5984 207.519 76.7461 207.903 77.0415C208.29 77.3369 208.565 77.7269 208.727 78.2114Z" fill="#43D18C"/>
</g>
<g filter="url(#filter9_d_803_1216)">
<rect x="222.146" y="66.5022" width="97.9587" height="24.9835" rx="12.4917" fill="#43D18C"/>
<path d="M236.549 83.494H235.095L238.361 74.4181H239.943L243.209 83.494H241.756L239.19 76.0667H239.119L236.549 83.494ZM236.792 79.9399H241.507V81.0921H236.792V79.9399ZM249.027 79.5189V80.6667H245.34V79.5189H249.027ZM245.712 76.6871V83.494H244.414V76.6871H245.712ZM249.953 76.6871V83.494H248.659V76.6871H249.953ZM256.077 76.6871V77.8305H253.033V83.494H251.726V76.6871H256.077ZM256.381 83.494L256.377 82.3462H256.62C256.809 82.3462 256.967 82.3064 257.094 82.2266C257.224 82.1439 257.331 82.005 257.414 81.81C257.496 81.615 257.56 81.3462 257.604 81.0035C257.648 80.6578 257.681 80.2235 257.702 79.7006L257.821 76.6871H262.572V83.494H261.273V77.8305H259.049L258.942 80.1437C258.916 80.7051 258.858 81.1955 258.77 81.615C258.684 82.0346 258.558 82.3846 258.393 82.6653C258.227 82.943 258.015 83.1513 257.755 83.2902C257.495 83.4261 257.179 83.494 256.806 83.494H256.381ZM265.637 81.6372L268.638 76.6871H270.065V83.494H268.766V78.5395L265.779 83.494H264.339V76.6871H265.637V81.6372ZM273.145 81.6372L276.145 76.6871H277.572V83.494H276.273V78.5395L273.286 83.494H271.846V76.6871H273.145V81.6372ZM275.578 74.3827H276.668C276.668 74.882 276.49 75.2882 276.136 75.6014C275.784 75.9116 275.309 76.0667 274.709 76.0667C274.112 76.0667 273.638 75.9116 273.286 75.6014C272.935 75.2882 272.759 74.882 272.759 74.3827H273.845C273.845 74.6043 273.91 74.8007 274.04 74.9721C274.17 75.1405 274.393 75.2247 274.709 75.2247C275.019 75.2247 275.241 75.1405 275.374 74.9721C275.51 74.8037 275.578 74.6072 275.578 74.3827ZM282.22 83.6314C281.562 83.6314 280.994 83.4822 280.519 83.1838C280.046 82.8825 279.683 82.4674 279.429 81.9385C279.174 81.4097 279.047 80.804 279.047 80.1216C279.047 79.4303 279.177 78.8202 279.437 78.2913C279.697 77.7595 280.064 77.3445 280.536 77.0461C281.009 76.7477 281.566 76.5985 282.207 76.5985C282.724 76.5985 283.185 76.6945 283.59 76.8865C283.995 77.0756 284.321 77.3415 284.569 77.6842C284.82 78.0269 284.97 78.4272 285.017 78.8852H283.727C283.656 78.5661 283.494 78.2913 283.24 78.0609C282.989 77.8305 282.652 77.7152 282.229 77.7152C281.86 77.7152 281.537 77.8127 281.259 78.0077C280.984 78.1998 280.77 78.4745 280.616 78.832C280.463 79.1865 280.386 79.606 280.386 80.0906C280.386 80.5869 280.461 81.0153 280.612 81.3757C280.762 81.7362 280.975 82.0153 281.25 82.2133C281.528 82.4112 281.854 82.5102 282.229 82.5102C282.48 82.5102 282.708 82.4644 282.912 82.3728C283.119 82.2783 283.291 82.1439 283.43 81.9696C283.572 81.7952 283.671 81.5855 283.727 81.3403H285.017C284.97 81.7805 284.826 82.1734 284.587 82.5191C284.348 82.8647 284.027 83.1365 283.625 83.3345C283.226 83.5324 282.758 83.6314 282.22 83.6314ZM286.434 83.494V76.6871H287.759V79.541H288.397L290.644 76.6871H292.283L289.647 79.9975L292.314 83.494H290.67L288.619 80.773H287.759V83.494H286.434ZM294.642 81.6372L297.642 76.6871H299.069V83.494H297.771V78.5395L294.784 83.494H293.344V76.6871H294.642V81.6372ZM302.149 81.6372L305.149 76.6871H306.576V83.494H305.278V78.5395L302.291 83.494H300.851V76.6871H302.149V81.6372ZM304.582 74.3827H305.672C305.672 74.882 305.495 75.2882 305.141 75.6014C304.789 75.9116 304.313 76.0667 303.714 76.0667C303.117 76.0667 302.643 75.9116 302.291 75.6014C301.94 75.2882 301.764 74.882 301.764 74.3827H302.849C302.849 74.6043 302.914 74.8007 303.044 74.9721C303.174 75.1405 303.397 75.2247 303.714 75.2247C304.024 75.2247 304.245 75.1405 304.378 74.9721C304.514 74.8037 304.582 74.6072 304.582 74.3827Z" fill="#141615"/>
</g>
<g filter="url(#filter10_d_803_1216)">
<rect x="41.7705" y="91.4856" width="73.9587" height="24.9835" rx="12.4917" fill="#1D2723"/>
<rect x="41.7705" y="91.4856" width="73.9587" height="24.9835" rx="12.4917" stroke="#43D18C" stroke-width="0.623967"/>
<path d="M54.9912 100.376V99.4014H61.7981V100.376H58.9441V108.477H57.8451V100.376H54.9912ZM65.2193 108.619C64.5634 108.619 63.9976 108.474 63.522 108.185C63.0493 107.892 62.6844 107.485 62.4274 106.962C62.1733 106.436 62.0463 105.824 62.0463 105.127C62.0463 104.43 62.1733 103.815 62.4274 103.283C62.6844 102.749 63.0419 102.332 63.4998 102.034C63.9607 101.732 64.4984 101.582 65.1129 101.582C65.4674 101.582 65.8175 101.641 66.1632 101.759C66.5089 101.877 66.8235 102.069 67.1071 102.335C67.3907 102.598 67.6168 102.947 67.7852 103.381C67.9536 103.815 68.0378 104.35 68.0378 104.985V105.428H62.7908V104.524H66.9742C66.9742 104.14 66.8974 103.798 66.7437 103.496C66.5931 103.195 66.3774 102.957 66.0967 102.783C65.819 102.608 65.4911 102.521 65.1129 102.521C64.6963 102.521 64.3359 102.625 64.0316 102.831C63.7303 103.035 63.4983 103.301 63.3358 103.629C63.1734 103.957 63.0921 104.309 63.0921 104.684V105.287C63.0921 105.801 63.1807 106.236 63.358 106.594C63.5382 106.948 63.7879 107.219 64.1069 107.405C64.426 107.588 64.7968 107.68 65.2193 107.68C65.494 107.68 65.7422 107.641 65.9638 107.564C66.1883 107.485 66.3818 107.366 66.5443 107.21C66.7068 107.05 66.8324 106.852 66.921 106.616L67.9314 106.9C67.825 107.242 67.6463 107.544 67.3952 107.804C67.1441 108.061 66.8338 108.262 66.4645 108.406C66.0952 108.548 65.6802 108.619 65.2193 108.619ZM70.2259 101.67L71.8567 104.453L73.4875 101.67H74.6929L72.4948 105.074L74.6929 108.477H73.4875L71.8567 105.836L70.2259 108.477H69.0205L71.1831 105.074L69.0205 101.67H70.2259ZM76.9475 108.548C76.7288 108.548 76.5412 108.47 76.3846 108.313C76.2281 108.157 76.1498 107.969 76.1498 107.751C76.1498 107.532 76.2281 107.344 76.3846 107.188C76.5412 107.031 76.7288 106.953 76.9475 106.953C77.1661 106.953 77.3537 107.031 77.5103 107.188C77.6668 107.344 77.7451 107.532 77.7451 107.751C77.7451 107.895 77.7082 108.028 77.6343 108.149C77.5634 108.27 77.4674 108.368 77.3463 108.442C77.2281 108.513 77.0952 108.548 76.9475 108.548ZM82.529 108.477V107.502H82.7772C82.9811 107.502 83.1509 107.462 83.2868 107.383C83.4227 107.3 83.532 107.157 83.6148 106.953C83.7004 106.746 83.7654 106.459 83.8098 106.093C83.857 105.724 83.891 105.254 83.9117 104.684L84.0358 101.67H88.5737V108.477H87.5279V102.645H85.0284L84.9221 105.074C84.8985 105.632 84.8482 106.124 84.7714 106.55C84.6976 106.972 84.5838 107.327 84.4302 107.613C84.2795 107.9 84.0786 108.115 83.8275 108.26C83.5764 108.405 83.2617 108.477 82.8836 108.477H82.529ZM91.5384 106.935L94.8178 101.67H96.0232V108.477H94.9774V103.213L91.7157 108.477H90.4926V101.67H91.5384V106.935ZM97.0126 102.645V101.67H102.543V102.645H100.31V108.477H99.2638V102.645H97.0126Z" fill="#43D18C"/>
</g>
<g filter="url(#filter11_d_803_1216)">
<rect x="115.729" y="91.4856" width="75.9587" height="24.9835" rx="12.4917" fill="#1D2723"/>
<rect x="115.729" y="91.4856" width="75.9587" height="24.9835" rx="12.4917" stroke="#43D18C" stroke-width="0.623967"/>
<path d="M129.337 108.477V99.4014H132.51C133.142 99.4014 133.663 99.5107 134.074 99.7293C134.485 99.945 134.79 100.236 134.991 100.602C135.192 100.966 135.293 101.369 135.293 101.812C135.293 102.202 135.223 102.524 135.084 102.778C134.948 103.032 134.768 103.233 134.544 103.381C134.322 103.529 134.081 103.638 133.821 103.709V103.798C134.099 103.815 134.378 103.913 134.659 104.09C134.94 104.267 135.174 104.521 135.363 104.852C135.553 105.183 135.647 105.588 135.647 106.067C135.647 106.521 135.544 106.931 135.337 107.294C135.13 107.657 134.804 107.946 134.357 108.158C133.911 108.371 133.331 108.477 132.616 108.477H129.337ZM130.436 107.502H132.616C133.334 107.502 133.843 107.363 134.145 107.086C134.449 106.805 134.601 106.465 134.601 106.067C134.601 105.759 134.523 105.476 134.366 105.216C134.21 104.953 133.987 104.743 133.697 104.586C133.408 104.427 133.065 104.347 132.669 104.347H130.436V107.502ZM130.436 103.39H132.474C132.805 103.39 133.103 103.325 133.369 103.195C133.638 103.065 133.851 102.882 134.007 102.645C134.167 102.409 134.247 102.131 134.247 101.812C134.247 101.413 134.108 101.075 133.83 100.797C133.552 100.517 133.112 100.376 132.51 100.376H130.436V103.39ZM139.314 108.637C138.883 108.637 138.491 108.556 138.14 108.393C137.788 108.228 137.509 107.99 137.302 107.68C137.095 107.366 136.992 106.988 136.992 106.545C136.992 106.155 137.069 105.839 137.223 105.597C137.376 105.352 137.581 105.16 137.839 105.021C138.096 104.882 138.379 104.778 138.689 104.71C139.003 104.64 139.317 104.583 139.633 104.542C140.047 104.489 140.382 104.449 140.639 104.422C140.899 104.393 141.088 104.344 141.207 104.276C141.328 104.208 141.388 104.09 141.388 103.922V103.886C141.388 103.449 141.269 103.109 141.029 102.867C140.793 102.625 140.434 102.504 139.952 102.504C139.453 102.504 139.062 102.613 138.778 102.831C138.494 103.05 138.295 103.283 138.18 103.532L137.187 103.177C137.364 102.764 137.601 102.441 137.896 102.211C138.195 101.978 138.519 101.815 138.871 101.724C139.226 101.629 139.574 101.582 139.917 101.582C140.136 101.582 140.387 101.608 140.67 101.662C140.957 101.712 141.233 101.817 141.499 101.976C141.768 102.136 141.991 102.376 142.168 102.699C142.345 103.021 142.434 103.452 142.434 103.993V108.477H141.388V107.556H141.335C141.264 107.703 141.146 107.861 140.98 108.03C140.815 108.198 140.595 108.341 140.32 108.46C140.045 108.578 139.71 108.637 139.314 108.637ZM139.474 107.697C139.887 107.697 140.236 107.616 140.52 107.454C140.806 107.291 141.022 107.081 141.167 106.824C141.314 106.567 141.388 106.297 141.388 106.013V105.056C141.344 105.109 141.246 105.158 141.096 105.202C140.948 105.244 140.777 105.281 140.582 105.313C140.39 105.343 140.202 105.369 140.019 105.393C139.839 105.414 139.692 105.431 139.58 105.446C139.308 105.482 139.054 105.539 138.818 105.619C138.584 105.696 138.395 105.812 138.251 105.969C138.109 106.123 138.038 106.332 138.038 106.598C138.038 106.962 138.172 107.236 138.441 107.423C138.713 107.606 139.057 107.697 139.474 107.697ZM147.108 108.619C146.47 108.619 145.921 108.468 145.46 108.167C144.999 107.866 144.644 107.451 144.396 106.922C144.148 106.393 144.024 105.789 144.024 105.109C144.024 104.418 144.151 103.808 144.405 103.279C144.662 102.747 145.02 102.332 145.477 102.034C145.938 101.732 146.476 101.582 147.091 101.582C147.569 101.582 148 101.67 148.385 101.848C148.769 102.025 149.083 102.273 149.328 102.592C149.574 102.911 149.726 103.283 149.785 103.709H148.739C148.659 103.399 148.482 103.124 148.207 102.885C147.936 102.642 147.569 102.521 147.108 102.521C146.701 102.521 146.343 102.628 146.036 102.84C145.732 103.05 145.494 103.347 145.322 103.731C145.154 104.112 145.07 104.56 145.07 105.074C145.07 105.6 145.152 106.058 145.318 106.448C145.486 106.838 145.723 107.14 146.027 107.356C146.334 107.572 146.695 107.68 147.108 107.68C147.38 107.68 147.627 107.632 147.848 107.538C148.07 107.443 148.258 107.307 148.411 107.13C148.565 106.953 148.674 106.74 148.739 106.492H149.785C149.726 106.894 149.58 107.256 149.346 107.578C149.116 107.897 148.81 108.151 148.429 108.34C148.051 108.526 147.611 108.619 147.108 108.619ZM152.289 105.996L152.271 104.702H152.484L155.462 101.67H156.756L153.583 104.879H153.494L152.289 105.996ZM151.314 108.477V99.4014H152.36V108.477H151.314ZM155.639 108.477L152.98 105.109L153.725 104.383L156.969 108.477H155.639ZM160.676 108.619C160.02 108.619 159.454 108.474 158.978 108.185C158.506 107.892 158.141 107.485 157.884 106.962C157.63 106.436 157.503 105.824 157.503 105.127C157.503 104.43 157.63 103.815 157.884 103.283C158.141 102.749 158.498 102.332 158.956 102.034C159.417 101.732 159.955 101.582 160.569 101.582C160.924 101.582 161.274 101.641 161.619 101.759C161.965 101.877 162.28 102.069 162.563 102.335C162.847 102.598 163.073 102.947 163.241 103.381C163.41 103.815 163.494 104.35 163.494 104.985V105.428H158.247V104.524H162.43C162.43 104.14 162.354 103.798 162.2 103.496C162.049 103.195 161.834 102.957 161.553 102.783C161.275 102.608 160.947 102.521 160.569 102.521C160.153 102.521 159.792 102.625 159.488 102.831C159.187 103.035 158.955 103.301 158.792 103.629C158.63 103.957 158.548 104.309 158.548 104.684V105.287C158.548 105.801 158.637 106.236 158.814 106.594C158.995 106.948 159.244 107.219 159.563 107.405C159.882 107.588 160.253 107.68 160.676 107.68C160.95 107.68 161.198 107.641 161.42 107.564C161.645 107.485 161.838 107.366 162.001 107.21C162.163 107.05 162.289 106.852 162.377 106.616L163.388 106.9C163.281 107.242 163.103 107.544 162.851 107.804C162.6 108.061 162.29 108.262 161.921 108.406C161.552 108.548 161.136 108.619 160.676 108.619ZM166.131 104.383V108.477H165.085V101.67H166.095V102.734H166.184C166.344 102.388 166.586 102.111 166.911 101.901C167.236 101.688 167.655 101.582 168.169 101.582C168.63 101.582 169.034 101.676 169.379 101.865C169.725 102.051 169.994 102.335 170.186 102.716C170.378 103.094 170.474 103.573 170.474 104.152V108.477H169.428V104.223C169.428 103.688 169.289 103.272 169.011 102.973C168.734 102.672 168.353 102.521 167.868 102.521C167.534 102.521 167.236 102.594 166.973 102.738C166.713 102.883 166.508 103.094 166.357 103.372C166.206 103.65 166.131 103.987 166.131 104.383ZM174.955 108.619C174.388 108.619 173.887 108.476 173.453 108.189C173.019 107.9 172.679 107.492 172.434 106.966C172.188 106.437 172.066 105.812 172.066 105.092C172.066 104.377 172.188 103.756 172.434 103.23C172.679 102.704 173.02 102.298 173.457 102.012C173.895 101.725 174.4 101.582 174.973 101.582C175.416 101.582 175.766 101.656 176.023 101.803C176.283 101.948 176.481 102.114 176.617 102.3C176.756 102.483 176.864 102.634 176.941 102.752H177.029V99.4014H178.075V108.477H177.065V107.431H176.941C176.864 107.556 176.754 107.712 176.613 107.901C176.471 108.087 176.268 108.254 176.006 108.402C175.743 108.547 175.392 108.619 174.955 108.619ZM175.097 107.68C175.517 107.68 175.871 107.57 176.161 107.352C176.45 107.13 176.67 106.824 176.821 106.434C176.972 106.041 177.047 105.588 177.047 105.074C177.047 104.566 176.973 104.121 176.825 103.74C176.678 103.356 176.459 103.057 176.169 102.845C175.88 102.629 175.522 102.521 175.097 102.521C174.654 102.521 174.285 102.635 173.989 102.862C173.697 103.087 173.477 103.393 173.329 103.78C173.184 104.164 173.112 104.595 173.112 105.074C173.112 105.558 173.186 105.999 173.333 106.394C173.484 106.787 173.706 107.101 173.998 107.334C174.293 107.564 174.66 107.68 175.097 107.68Z" fill="#43D18C"/>
</g>
<g filter="url(#filter12_d_803_1216)">
<rect x="191.688" y="91.4856" width="60.9587" height="24.9835" rx="12.4917" fill="#1D2723"/>
<rect x="191.688" y="91.4856" width="60.9587" height="24.9835" rx="12.4917" stroke="#43D18C" stroke-width="0.623967"/>
<path d="M210.626 108.477L207.506 104.312H206.389V108.477H205.29V99.4014H206.389V103.337H206.868L210.502 99.4014H211.814L208.144 103.39L211.938 108.477H210.626ZM217.772 104.595V105.57H214.014V104.595H217.772ZM214.262 101.67V108.477H213.216V101.67H214.262ZM218.57 101.67V108.477H217.524V101.67H218.57ZM221.526 106.935L224.805 101.67H226.01V108.477H224.964V103.213L221.703 108.477H220.48V101.67H221.526V106.935ZM232.127 101.67V102.645H228.972V108.477H227.926V101.67H232.127ZM234.7 106.935L237.979 101.67H239.184V108.477H238.138V103.213L234.877 108.477H233.654V101.67H234.7V106.935Z" fill="#43D18C"/>
</g>
<g filter="url(#filter13_d_803_1216)">
<rect x="252.646" y="91.4856" width="50.9587" height="24.9835" rx="12.4917" fill="#1D2723"/>
<rect x="252.646" y="91.4856" width="50.9587" height="24.9835" rx="12.4917" stroke="#43D18C" stroke-width="0.623967"/>
<path d="M266.685 108.477V99.4014H269.751C270.463 99.4014 271.045 99.5299 271.497 99.787C271.952 100.041 272.289 100.385 272.508 100.82C272.726 101.254 272.836 101.738 272.836 102.273C272.836 102.808 272.726 103.294 272.508 103.731C272.292 104.168 271.958 104.517 271.506 104.777C271.054 105.034 270.475 105.162 269.769 105.162H267.571V104.188H269.734C270.221 104.188 270.613 104.103 270.908 103.935C271.203 103.767 271.418 103.539 271.551 103.252C271.687 102.963 271.754 102.636 271.754 102.273C271.754 101.91 271.687 101.585 271.551 101.298C271.418 101.012 271.202 100.787 270.904 100.625C270.605 100.459 270.209 100.376 269.716 100.376H267.784V108.477H266.685ZM274.606 108.477V99.4014H275.705V103.443H280.545V99.4014H281.644V108.477H280.545V104.418H275.705V108.477H274.606ZM283.844 108.477V99.4014H286.91C287.622 99.4014 288.205 99.5299 288.657 99.787C289.112 100.041 289.448 100.385 289.667 100.82C289.886 101.254 289.995 101.738 289.995 102.273C289.995 102.808 289.886 103.294 289.667 103.731C289.451 104.168 289.117 104.517 288.665 104.777C288.213 105.034 287.634 105.162 286.928 105.162H284.73V104.188H286.893C287.38 104.188 287.772 104.103 288.067 103.935C288.363 103.767 288.577 103.539 288.71 103.252C288.846 102.963 288.914 102.636 288.914 102.273C288.914 101.91 288.846 101.585 288.71 101.298C288.577 101.012 288.361 100.787 288.063 100.625C287.764 100.459 287.368 100.376 286.875 100.376H284.943V108.477H283.844Z" fill="#43D18C"/>
</g>
<g filter="url(#filter14_d_803_1216)">
<rect x="35.2705" y="116.469" width="70.9587" height="24.9835" rx="12.4917" fill="#43D18C"/>
<path d="M52.7439 133.583C51.964 133.583 51.2653 133.396 50.6478 133.022C50.0303 132.648 49.5449 132.114 49.1915 131.42C48.838 130.721 48.6613 129.89 48.6613 128.927C48.6613 127.956 48.838 127.124 49.1915 126.429C49.5489 125.73 50.0344 125.194 50.6478 124.82C51.2653 124.447 51.964 124.26 52.7439 124.26C53.2233 124.26 53.6722 124.329 54.0906 124.467C54.513 124.605 54.8908 124.806 55.2239 125.07C55.5571 125.334 55.8313 125.657 56.0466 126.039C56.2659 126.421 56.4122 126.854 56.4853 127.337H55.1082C55.0554 127.04 54.9558 126.78 54.8096 126.557C54.6674 126.329 54.4907 126.139 54.2795 125.984C54.0723 125.826 53.8387 125.708 53.5787 125.631C53.3228 125.55 53.0506 125.509 52.7622 125.509C52.2422 125.509 51.773 125.641 51.3546 125.905C50.9403 126.165 50.6133 126.551 50.3736 127.063C50.138 127.571 50.0202 128.192 50.0202 128.927C50.0202 129.667 50.14 130.29 50.3797 130.798C50.6193 131.302 50.9464 131.684 51.3607 131.944C51.7751 132.204 52.2402 132.334 52.7561 132.334C53.0445 132.334 53.3167 132.295 53.5726 132.218C53.8286 132.141 54.0621 132.025 54.2734 131.87C54.4846 131.716 54.6613 131.529 54.8035 131.31C54.9497 131.086 55.0513 130.828 55.1082 130.536H56.4853C56.4162 130.987 56.2761 131.399 56.0648 131.773C55.8536 132.143 55.5835 132.464 55.2544 132.736C54.9254 133.004 54.5496 133.213 54.1271 133.363C53.7047 133.51 53.2436 133.583 52.7439 133.583ZM60.3668 133.601C59.729 133.601 59.1705 133.455 58.6911 133.162C58.2158 132.87 57.8462 132.459 57.5821 131.931C57.3221 131.403 57.1921 130.79 57.1921 130.091C57.1921 129.384 57.3221 128.767 57.5821 128.239C57.8462 127.707 58.2158 127.294 58.6911 127.002C59.1705 126.709 59.729 126.563 60.3668 126.563C61.0086 126.563 61.5672 126.709 62.0425 127.002C62.5178 127.294 62.8874 127.707 63.1515 128.239C63.4155 128.767 63.5476 129.384 63.5476 130.091C63.5476 130.79 63.4155 131.403 63.1515 131.931C62.8874 132.459 62.5178 132.87 62.0425 133.162C61.5672 133.455 61.0086 133.601 60.3668 133.601ZM60.3668 132.486C60.7852 132.486 61.1305 132.376 61.4027 132.157C61.6749 131.937 61.8759 131.647 62.0059 131.285C62.14 130.92 62.207 130.522 62.207 130.091C62.207 129.652 62.14 129.25 62.0059 128.885C61.8759 128.519 61.6749 128.227 61.4027 128.007C61.1305 127.788 60.7852 127.678 60.3668 127.678C59.9524 127.678 59.6092 127.788 59.337 128.007C59.0689 128.227 58.8678 128.519 58.7338 128.885C58.5997 129.25 58.5327 129.652 58.5327 130.091C58.5327 130.522 58.5997 130.92 58.7338 131.285C58.8678 131.647 59.0689 131.937 59.337 132.157C59.6092 132.376 59.9524 132.486 60.3668 132.486ZM69.7446 124.12L70.293 124.954C70.0939 125.141 69.8644 125.273 69.6044 125.35C69.3445 125.428 69.0459 125.476 68.7087 125.497C68.3715 125.517 67.9856 125.535 67.551 125.552C67.0594 125.564 66.6552 125.669 66.3384 125.868C66.0256 126.063 65.7839 126.352 65.6132 126.734C65.4426 127.116 65.3329 127.597 65.2842 128.178H65.3695C65.5848 127.755 65.8895 127.441 66.2835 127.233C66.6816 127.022 67.1285 126.916 67.6241 126.916C68.1725 126.916 68.66 127.042 69.0865 127.294C69.513 127.542 69.8502 127.908 70.098 128.391C70.3458 128.874 70.4677 129.464 70.4636 130.158C70.4677 130.865 70.3417 131.476 70.0858 131.992C69.8299 132.508 69.4663 132.904 68.9951 133.181C68.5279 133.457 67.9775 133.597 67.3438 133.601C66.3891 133.597 65.6254 133.272 65.0526 132.626C64.4799 131.976 64.1914 131.025 64.1874 129.774V129.11C64.1914 127.55 64.4717 126.378 65.0283 125.594C65.5848 124.81 66.4155 124.406 67.5205 124.382C67.878 124.373 68.1969 124.371 68.4772 124.376C68.7575 124.38 69.0032 124.367 69.2145 124.339C69.4257 124.306 69.6024 124.233 69.7446 124.12ZM67.3438 132.492C67.7175 132.488 68.0364 132.392 68.3004 132.206C68.5645 132.019 68.7696 131.753 68.9159 131.407C69.0621 131.062 69.1332 130.654 69.1291 130.183C69.1332 129.724 69.0621 129.334 68.9159 129.013C68.7696 128.688 68.5625 128.44 68.2943 128.269C68.0262 128.099 67.7033 128.013 67.3255 128.013C67.0493 128.013 66.8015 128.062 66.5821 128.16C66.3627 128.257 66.1759 128.399 66.0215 128.586C65.8671 128.769 65.7473 128.994 65.662 129.262C65.5807 129.531 65.5361 129.837 65.5279 130.183C65.5279 130.881 65.6884 131.44 66.0093 131.858C66.3343 132.277 66.7791 132.488 67.3438 132.492ZM74.3573 133.601C73.6911 133.601 73.1142 133.457 72.6268 133.168C72.1393 132.88 71.7635 132.474 71.4995 131.95C71.2395 131.422 71.1095 130.806 71.1095 130.103C71.1095 129.405 71.2375 128.789 71.4934 128.257C71.7534 127.725 72.117 127.311 72.5841 127.014C73.0553 126.713 73.6078 126.563 74.2415 126.563C74.6275 126.563 75.0012 126.626 75.3627 126.752C75.7243 126.878 76.0493 127.077 76.3377 127.349C76.6261 127.621 76.8536 127.975 77.0201 128.409C77.1908 128.844 77.2761 129.368 77.2761 129.981V130.457H71.859V129.464H76.5936L75.9782 129.793C75.9782 129.374 75.9132 129.004 75.7832 128.684C75.6532 128.363 75.4582 128.113 75.1982 127.934C74.9423 127.751 74.6234 127.66 74.2415 127.66C73.8597 127.66 73.5327 127.751 73.2605 127.934C72.9924 128.117 72.7872 128.359 72.6451 128.659C72.5029 128.96 72.4318 129.289 72.4318 129.646V130.323C72.4318 130.79 72.513 131.186 72.6755 131.511C72.838 131.836 73.0635 132.084 73.3519 132.254C73.6444 132.425 73.9836 132.51 74.3695 132.51C74.6214 132.51 74.8488 132.474 75.052 132.401C75.2591 132.327 75.4379 132.218 75.5882 132.072C75.7385 131.925 75.8522 131.745 75.9294 131.529L77.1847 131.767C77.0831 132.132 76.9044 132.453 76.6484 132.73C76.3925 133.006 76.0696 133.221 75.6796 133.376C75.2937 133.526 74.8529 133.601 74.3573 133.601ZM81.0601 133.601C80.4061 133.601 79.8414 133.451 79.3661 133.15C78.8908 132.849 78.5252 132.435 78.2693 131.907C78.0134 131.379 77.8854 130.774 77.8854 130.091C77.8854 129.396 78.0154 128.785 78.2754 128.257C78.5394 127.725 78.9071 127.311 79.3783 127.014C79.8536 126.713 80.4101 126.563 81.0479 126.563C81.5679 126.563 82.0289 126.659 82.4311 126.849C82.8373 127.036 83.1643 127.302 83.4121 127.648C83.664 127.993 83.8123 128.395 83.857 128.854H82.5652C82.5205 128.639 82.4331 128.442 82.3031 128.263C82.1772 128.084 82.0107 127.942 81.8035 127.837C81.5963 127.731 81.3505 127.678 81.0662 127.678C80.6965 127.678 80.3736 127.776 80.0973 127.971C79.8251 128.162 79.6119 128.436 79.4575 128.793C79.3031 129.151 79.226 129.573 79.226 130.061C79.226 130.552 79.3011 130.981 79.4514 131.346C79.6017 131.712 79.815 131.994 80.0912 132.193C80.3715 132.388 80.6965 132.486 81.0662 132.486C81.448 132.486 81.773 132.38 82.0411 132.169C82.3133 131.958 82.488 131.669 82.5652 131.304H83.857C83.8123 131.747 83.6701 132.141 83.4304 132.486C83.1907 132.831 82.8698 133.103 82.4677 133.302C82.0655 133.501 81.5963 133.601 81.0601 133.601ZM85.7886 129H87.7689C88.5977 128.996 89.2354 129.202 89.6823 129.616C90.1332 130.03 90.3607 130.564 90.3647 131.218C90.3647 131.645 90.2632 132.027 90.0601 132.364C89.857 132.701 89.5624 132.969 89.1765 133.168C88.7906 133.363 88.3214 133.461 87.7689 133.461H84.7954V126.648H86.0811V132.315H87.7689C88.1467 132.315 88.4575 132.218 88.7012 132.023C88.945 131.824 89.0689 131.568 89.0729 131.255C89.0689 130.926 88.945 130.658 88.7012 130.451C88.4575 130.243 88.1467 130.142 87.7689 130.146H85.7886V129ZM91.3336 133.461V126.648H92.6498V133.461H91.3336Z" fill="#141615"/>
</g>
<g filter="url(#filter15_d_803_1216)">
<rect x="106.229" y="116.469" width="90.9587" height="24.9835" rx="12.4917" fill="#1D2723"/>
<rect x="106.229" y="116.469" width="90.9587" height="24.9835" rx="12.4917" stroke="#43D18C" stroke-width="0.623967"/>
<path d="M125.592 133.461L122.472 129.295H121.355V133.461H120.256V124.385H121.355V128.32H121.834L125.467 124.385H126.779L123.11 128.373L126.903 133.461H125.592ZM128.356 136.014C128.179 136.014 128.02 135.999 127.882 135.969C127.743 135.943 127.647 135.916 127.594 135.889L127.859 134.968C128.114 135.033 128.338 135.056 128.533 135.039C128.728 135.021 128.901 134.934 129.052 134.777C129.205 134.623 129.346 134.374 129.473 134.028L129.668 133.496L127.15 126.654H128.285L130.164 132.078H130.235L132.114 126.654H133.248L130.359 134.454C130.229 134.805 130.068 135.096 129.876 135.327C129.684 135.56 129.461 135.733 129.207 135.845C128.956 135.957 128.672 136.014 128.356 136.014ZM133.453 133.461V132.486H133.701C133.905 132.486 134.075 132.446 134.211 132.366C134.347 132.284 134.456 132.14 134.539 131.936C134.625 131.73 134.69 131.443 134.734 131.077C134.781 130.707 134.815 130.238 134.836 129.668L134.96 126.654H139.498V133.461H138.452V127.629H135.953L135.846 130.057C135.823 130.616 135.772 131.108 135.696 131.533C135.622 131.956 135.508 132.31 135.354 132.597C135.204 132.883 135.003 133.099 134.752 133.244C134.501 133.389 134.186 133.461 133.808 133.461H133.453ZM142.463 131.919L145.742 126.654H146.947V133.461H145.902V128.196L142.64 133.461H141.417V126.654H142.463V131.919ZM153.419 129.579V130.554H149.661V129.579H153.419ZM149.909 126.654V133.461H148.863V126.654H149.909ZM154.216 126.654V133.461H153.17V126.654H154.216ZM158.129 133.62C157.698 133.62 157.307 133.539 156.955 133.377C156.603 133.211 156.324 132.973 156.117 132.663C155.911 132.35 155.807 131.972 155.807 131.529C155.807 131.139 155.884 130.823 156.038 130.58C156.191 130.335 156.397 130.143 156.654 130.004C156.911 129.865 157.194 129.762 157.505 129.694C157.818 129.623 158.132 129.567 158.448 129.526C158.862 129.473 159.197 129.433 159.454 129.406C159.714 129.376 159.903 129.328 160.022 129.26C160.143 129.192 160.203 129.074 160.203 128.905V128.87C160.203 128.433 160.084 128.093 159.844 127.851C159.608 127.608 159.249 127.487 158.768 127.487C158.268 127.487 157.877 127.596 157.593 127.815C157.31 128.034 157.11 128.267 156.995 128.515L156.002 128.161C156.179 127.747 156.416 127.425 156.711 127.195C157.01 126.961 157.335 126.799 157.686 126.707C158.041 126.613 158.389 126.565 158.732 126.565C158.951 126.565 159.202 126.592 159.485 126.645C159.772 126.695 160.048 126.8 160.314 126.96C160.583 127.119 160.806 127.36 160.983 127.682C161.161 128.004 161.249 128.436 161.249 128.976V133.461H160.203V132.539H160.15C160.079 132.687 159.961 132.845 159.796 133.013C159.63 133.182 159.41 133.325 159.135 133.443C158.861 133.561 158.525 133.62 158.129 133.62ZM158.289 132.681C158.703 132.681 159.051 132.6 159.335 132.437C159.621 132.275 159.837 132.065 159.982 131.808C160.129 131.551 160.203 131.281 160.203 130.997V130.04C160.159 130.093 160.062 130.142 159.911 130.186C159.763 130.227 159.592 130.264 159.397 130.297C159.205 130.326 159.017 130.353 158.834 130.377C158.654 130.397 158.508 130.415 158.395 130.43C158.123 130.465 157.869 130.523 157.633 130.603C157.4 130.679 157.211 130.796 157.066 130.953C156.924 131.106 156.853 131.316 156.853 131.582C156.853 131.945 156.988 132.22 157.256 132.406C157.528 132.589 157.872 132.681 158.289 132.681ZM163.158 136.014V126.654H164.169V127.735H164.293C164.369 127.617 164.476 127.466 164.612 127.283C164.751 127.097 164.948 126.932 165.206 126.787C165.465 126.639 165.817 126.565 166.26 126.565C166.833 126.565 167.339 126.709 167.776 126.995C168.213 127.282 168.554 127.688 168.8 128.214C169.045 128.74 169.167 129.36 169.167 130.075C169.167 130.796 169.045 131.421 168.8 131.95C168.554 132.476 168.215 132.883 167.78 133.173C167.346 133.459 166.845 133.603 166.278 133.603C165.841 133.603 165.491 133.53 165.228 133.386C164.965 133.238 164.762 133.071 164.621 132.885C164.479 132.696 164.369 132.539 164.293 132.415H164.204V136.014H163.158ZM164.186 130.057C164.186 130.572 164.262 131.025 164.412 131.418C164.563 131.808 164.783 132.114 165.073 132.335C165.362 132.554 165.717 132.663 166.136 132.663C166.573 132.663 166.938 132.548 167.231 132.318C167.526 132.084 167.748 131.771 167.895 131.378C168.046 130.982 168.121 130.542 168.121 130.057C168.121 129.579 168.048 129.148 167.9 128.763C167.755 128.376 167.535 128.071 167.24 127.846C166.947 127.619 166.579 127.505 166.136 127.505C165.711 127.505 165.353 127.613 165.064 127.828C164.774 128.041 164.556 128.34 164.408 128.724C164.26 129.105 164.186 129.549 164.186 130.057ZM171.809 131.919L175.088 126.654H176.293V133.461H175.247V128.196L171.986 133.461H170.763V126.654H171.809V131.919ZM182.304 133.461V127.611H180.496C180.088 127.611 179.767 127.706 179.534 127.895C179.301 128.084 179.184 128.344 179.184 128.675C179.184 129 179.289 129.255 179.498 129.441C179.711 129.628 180.002 129.721 180.371 129.721H182.57V130.696H180.371C179.911 130.696 179.513 130.614 179.179 130.452C178.846 130.289 178.589 130.057 178.408 129.756C178.228 129.452 178.138 129.091 178.138 128.675C178.138 128.255 178.233 127.895 178.422 127.594C178.611 127.292 178.881 127.06 179.233 126.898C179.587 126.735 180.008 126.654 180.496 126.654H183.296V133.461H182.304ZM177.766 133.461L179.698 130.075H180.832L178.9 133.461H177.766Z" fill="#43D18C"/>
</g>
<g filter="url(#filter16_d_803_1216)">
<rect x="197.188" y="116.469" width="74.9587" height="24.9835" rx="12.4917" fill="#1D2723"/>
<rect x="197.188" y="116.469" width="74.9587" height="24.9835" rx="12.4917" stroke="#43D18C" stroke-width="0.623967"/>
<path d="M210.628 125.36V124.385H217.435V125.36H214.581V133.461H213.482V125.36H210.628ZM220.856 133.603C220.2 133.603 219.634 133.458 219.159 133.168C218.686 132.876 218.321 132.468 218.064 131.945C217.81 131.419 217.683 130.808 217.683 130.111C217.683 129.413 217.81 128.799 218.064 128.267C218.321 127.732 218.679 127.316 219.137 127.017C219.597 126.716 220.135 126.565 220.75 126.565C221.104 126.565 221.454 126.624 221.8 126.743C222.146 126.861 222.46 127.053 222.744 127.319C223.027 127.582 223.253 127.93 223.422 128.364C223.59 128.799 223.674 129.334 223.674 129.969V130.412H218.427V129.508H222.611C222.611 129.124 222.534 128.781 222.38 128.48C222.23 128.178 222.014 127.941 221.733 127.766C221.456 127.592 221.128 127.505 220.75 127.505C220.333 127.505 219.973 127.608 219.668 127.815C219.367 128.019 219.135 128.285 218.973 128.613C218.81 128.941 218.729 129.292 218.729 129.667V130.27C218.729 130.784 218.817 131.22 218.995 131.577C219.175 131.932 219.425 132.202 219.744 132.388C220.063 132.572 220.433 132.663 220.856 132.663C221.131 132.663 221.379 132.625 221.6 132.548C221.825 132.468 222.019 132.35 222.181 132.193C222.343 132.034 222.469 131.836 222.558 131.6L223.568 131.883C223.462 132.226 223.283 132.527 223.032 132.787C222.781 133.044 222.471 133.245 222.101 133.39C221.732 133.532 221.317 133.603 220.856 133.603ZM225.863 126.654L227.493 129.437L229.124 126.654H230.33L228.132 130.057L230.33 133.461H229.124L227.493 130.82L225.863 133.461H224.657L226.82 130.057L224.657 126.654H225.863ZM236.378 129.579V130.554H232.62V129.579H236.378ZM232.868 126.654V133.461H231.822V126.654H232.868ZM237.175 126.654V133.461H236.129V126.654H237.175ZM240.131 131.919L243.411 126.654H244.616V133.461H243.57V128.196L240.308 133.461H239.085V126.654H240.131V131.919ZM246.531 133.461V126.654H247.577V129.614H248.269L250.715 126.654H252.062L249.314 129.933L252.098 133.461H250.75L248.517 130.589H247.577V133.461H246.531ZM255.237 133.62C254.806 133.62 254.414 133.539 254.063 133.377C253.711 133.211 253.432 132.973 253.225 132.663C253.019 132.35 252.915 131.972 252.915 131.529C252.915 131.139 252.992 130.823 253.146 130.58C253.299 130.335 253.505 130.143 253.762 130.004C254.019 129.865 254.302 129.762 254.612 129.694C254.926 129.623 255.24 129.567 255.556 129.526C255.97 129.472 256.305 129.433 256.562 129.406C256.822 129.376 257.011 129.328 257.13 129.26C257.251 129.192 257.311 129.074 257.311 128.905V128.87C257.311 128.432 257.192 128.093 256.952 127.85C256.716 127.608 256.357 127.487 255.875 127.487C255.376 127.487 254.985 127.596 254.701 127.815C254.417 128.034 254.218 128.267 254.103 128.515L253.11 128.161C253.287 127.747 253.524 127.425 253.819 127.195C254.118 126.961 254.443 126.799 254.794 126.707C255.149 126.613 255.497 126.565 255.84 126.565C256.059 126.565 256.31 126.592 256.593 126.645C256.88 126.695 257.156 126.8 257.422 126.96C257.691 127.119 257.914 127.36 258.091 127.682C258.268 128.004 258.357 128.435 258.357 128.976V133.461H257.311V132.539H257.258C257.187 132.687 257.069 132.845 256.904 133.013C256.738 133.182 256.518 133.325 256.243 133.443C255.969 133.561 255.633 133.62 255.237 133.62ZM255.397 132.681C255.81 132.681 256.159 132.6 256.443 132.437C256.729 132.275 256.945 132.065 257.09 131.808C257.237 131.551 257.311 131.28 257.311 130.997V130.04C257.267 130.093 257.169 130.142 257.019 130.186C256.871 130.227 256.7 130.264 256.505 130.297C256.313 130.326 256.125 130.353 255.942 130.376C255.762 130.397 255.615 130.415 255.503 130.43C255.231 130.465 254.977 130.523 254.741 130.602C254.508 130.679 254.318 130.796 254.174 130.953C254.032 131.106 253.961 131.316 253.961 131.582C253.961 131.945 254.095 132.22 254.364 132.406C254.636 132.589 254.98 132.681 255.397 132.681Z" fill="#43D18C"/>
</g>
<g filter="url(#filter17_d_803_1216)">
<rect x="272.146" y="117.417" width="37.9587" height="23.0868" rx="11.5434" fill="#43D18C" fill-opacity="0.03"/>
<path d="M286.881 134.062C286.59 134.062 286.34 133.959 286.131 133.753C285.922 133.544 285.817 133.293 285.817 132.998C285.817 132.708 285.922 132.459 286.131 132.254C286.34 132.045 286.59 131.94 286.881 131.94C287.172 131.94 287.422 132.045 287.631 132.254C287.84 132.459 287.945 132.708 287.945 132.998C287.945 133.193 287.895 133.372 287.796 133.535C287.7 133.695 287.572 133.823 287.413 133.918C287.253 134.014 287.076 134.062 286.881 134.062ZM291.122 134.062C290.831 134.062 290.581 133.959 290.372 133.753C290.163 133.544 290.058 133.293 290.058 132.998C290.058 132.708 290.163 132.459 290.372 132.254C290.581 132.045 290.831 131.94 291.122 131.94C291.413 131.94 291.663 132.045 291.872 132.254C292.081 132.459 292.186 132.708 292.186 132.998C292.186 133.193 292.136 133.372 292.037 133.535C291.941 133.695 291.813 133.823 291.654 133.918C291.494 134.014 291.317 134.062 291.122 134.062ZM295.363 134.062C295.072 134.062 294.822 133.959 294.613 133.753C294.404 133.544 294.299 133.293 294.299 132.998C294.299 132.708 294.404 132.459 294.613 132.254C294.822 132.045 295.072 131.94 295.363 131.94C295.654 131.94 295.904 132.045 296.113 132.254C296.322 132.459 296.427 132.708 296.427 132.998C296.427 133.193 296.377 133.372 296.278 133.535C296.182 133.695 296.054 133.823 295.895 133.918C295.735 134.014 295.558 134.062 295.363 134.062Z" fill="#43D18C"/>
</g>
<defs>
<filter id="filter0_d_803_1216" x="45.2903" y="0.312016" width="128.876" height="74.9009" filterUnits="userSpaceOnUse" color-interpolation-filters="sRGB">
<feFlood flood-opacity="0" result="BackgroundImageFix"/>
<feColorMatrix in="SourceAlpha" type="matrix" values="0 0 0 0 0 0 0 0 0 0 0 0 0 0 0 0 0 0 127 0" result="hardAlpha"/>
<feOffset dy="8.73554"/>
<feGaussianBlur stdDeviation="12.4793"/>
<feColorMatrix type="matrix" values="0 0 0 0 0.264364 0 0 0 0 0.818269 0 0 0 0 0.550548 0 0 0 0.1 0"/>
<feBlend mode="normal" in2="BackgroundImageFix" result="effect1_dropShadow_803_1216"/>
<feBlend mode="normal" in="SourceGraphic" in2="effect1_dropShadow_803_1216" result="shape"/>
</filter>
<filter id="filter1_d_803_1216" x="124.249" y="0.312016" width="110.876" height="74.9009" filterUnits="userSpaceOnUse" color-interpolation-filters="sRGB">
<feFlood flood-opacity="0" result="BackgroundImageFix"/>
<feColorMatrix in="SourceAlpha" type="matrix" values="0 0 0 0 0 0 0 0 0 0 0 0 0 0 0 0 0 0 127 0" result="hardAlpha"/>
<feOffset dy="8.73554"/>
<feGaussianBlur stdDeviation="12.4793"/>
<feColorMatrix type="matrix" values="0 0 0 0 0.264364 0 0 0 0 0.818269 0 0 0 0 0.550548 0 0 0 0.1 0"/>
<feBlend mode="normal" in2="BackgroundImageFix" result="effect1_dropShadow_803_1216"/>
<feBlend mode="normal" in="SourceGraphic" in2="effect1_dropShadow_803_1216" result="shape"/>
</filter>
<filter id="filter2_d_803_1216" x="184.897" y="3.8147e-06" width="115.499" height="75.5248" filterUnits="userSpaceOnUse" color-interpolation-filters="sRGB">
<feFlood flood-opacity="0" result="BackgroundImageFix"/>
<feColorMatrix in="SourceAlpha" type="matrix" values="0 0 0 0 0 0 0 0 0 0 0 0 0 0 0 0 0 0 127 0" result="hardAlpha"/>
<feOffset dy="8.73554"/>
<feGaussianBlur stdDeviation="12.4793"/>
<feColorMatrix type="matrix" values="0 0 0 0 0.264364 0 0 0 0 0.818269 0 0 0 0 0.550548 0 0 0 0.1 0"/>
<feBlend mode="normal" in2="BackgroundImageFix" result="effect1_dropShadow_803_1216"/>
<feBlend mode="normal" in="SourceGraphic" in2="effect1_dropShadow_803_1216" result="shape"/>
</filter>
<filter id="filter3_d_803_1216" x="25.9788" y="24.9835" width="150.499" height="75.5248" filterUnits="userSpaceOnUse" color-interpolation-filters="sRGB">
<feFlood flood-opacity="0" result="BackgroundImageFix"/>
<feColorMatrix in="SourceAlpha" type="matrix" values="0 0 0 0 0 0 0 0 0 0 0 0 0 0 0 0 0 0 127 0" result="hardAlpha"/>
<feOffset dy="8.73554"/>
<feGaussianBlur stdDeviation="12.4793"/>
<feColorMatrix type="matrix" values="0 0 0 0 0.264364 0 0 0 0 0.818269 0 0 0 0 0.550548 0 0 0 0.1 0"/>
<feBlend mode="normal" in2="BackgroundImageFix" result="effect1_dropShadow_803_1216"/>
<feBlend mode="normal" in="SourceGraphic" in2="effect1_dropShadow_803_1216" result="shape"/>
</filter>
<filter id="filter4_d_803_1216" x="125.938" y="24.9835" width="94.4994" height="75.5248" filterUnits="userSpaceOnUse" color-interpolation-filters="sRGB">
<feFlood flood-opacity="0" result="BackgroundImageFix"/>
<feColorMatrix in="SourceAlpha" type="matrix" values="0 0 0 0 0 0 0 0 0 0 0 0 0 0 0 0 0 0 127 0" result="hardAlpha"/>
<feOffset dy="8.73554"/>
<feGaussianBlur stdDeviation="12.4793"/>
<feColorMatrix type="matrix" values="0 0 0 0 0.264364 0 0 0 0 0.818269 0 0 0 0 0.550548 0 0 0 0.1 0"/>
<feBlend mode="normal" in2="BackgroundImageFix" result="effect1_dropShadow_803_1216"/>
<feBlend mode="normal" in="SourceGraphic" in2="effect1_dropShadow_803_1216" result="shape"/>
</filter>
<filter id="filter5_d_803_1216" x="170.208" y="25.2955" width="148.876" height="74.9009" filterUnits="userSpaceOnUse" color-interpolation-filters="sRGB">
<feFlood flood-opacity="0" result="BackgroundImageFix"/>
<feColorMatrix in="SourceAlpha" type="matrix" values="0 0 0 0 0 0 0 0 0 0 0 0 0 0 0 0 0 0 127 0" result="hardAlpha"/>
<feOffset dy="8.73554"/>
<feGaussianBlur stdDeviation="12.4793"/>
<feColorMatrix type="matrix" values="0 0 0 0 0.264364 0 0 0 0 0.818269 0 0 0 0 0.550548 0 0 0 0.1 0"/>
<feBlend mode="normal" in2="BackgroundImageFix" result="effect1_dropShadow_803_1216"/>
<feBlend mode="normal" in="SourceGraphic" in2="effect1_dropShadow_803_1216" result="shape"/>
</filter>
<filter id="filter6_d_803_1216" x="0.000307083" y="49.967" width="117.499" height="75.5248" filterUnits="userSpaceOnUse" color-interpolation-filters="sRGB">
<feFlood flood-opacity="0" result="BackgroundImageFix"/>
<feColorMatrix in="SourceAlpha" type="matrix" values="0 0 0 0 0 0 0 0 0 0 0 0 0 0 0 0 0 0 127 0" result="hardAlpha"/>
<feOffset dy="8.73554"/>
<feGaussianBlur stdDeviation="12.4793"/>
<feColorMatrix type="matrix" values="0 0 0 0 0.264364 0 0 0 0 0.818269 0 0 0 0 0.550548 0 0 0 0.1 0"/>
<feBlend mode="normal" in2="BackgroundImageFix" result="effect1_dropShadow_803_1216"/>
<feBlend mode="normal" in="SourceGraphic" in2="effect1_dropShadow_803_1216" result="shape"/>
</filter>
<filter id="filter7_d_803_1216" x="67.2698" y="50.2791" width="107.876" height="74.9009" filterUnits="userSpaceOnUse" color-interpolation-filters="sRGB">
<feFlood flood-opacity="0" result="BackgroundImageFix"/>
<feColorMatrix in="SourceAlpha" type="matrix" values="0 0 0 0 0 0 0 0 0 0 0 0 0 0 0 0 0 0 127 0" result="hardAlpha"/>
<feOffset dy="8.73554"/>
<feGaussianBlur stdDeviation="12.4793"/>
<feColorMatrix type="matrix" values="0 0 0 0 0.264364 0 0 0 0 0.818269 0 0 0 0 0.550548 0 0 0 0.1 0"/>
<feBlend mode="normal" in2="BackgroundImageFix" result="effect1_dropShadow_803_1216"/>
<feBlend mode="normal" in="SourceGraphic" in2="effect1_dropShadow_803_1216" result="shape"/>
</filter>
<filter id="filter8_d_803_1216" x="124.917" y="49.967" width="122.499" height="75.5248" filterUnits="userSpaceOnUse" color-interpolation-filters="sRGB">
<feFlood flood-opacity="0" result="BackgroundImageFix"/>
<feColorMatrix in="SourceAlpha" type="matrix" values="0 0 0 0 0 0 0 0 0 0 0 0 0 0 0 0 0 0 127 0" result="hardAlpha"/>
<feOffset dy="8.73554"/>
<feGaussianBlur stdDeviation="12.4793"/>
<feColorMatrix type="matrix" values="0 0 0 0 0.264364 0 0 0 0 0.818269 0 0 0 0 0.550548 0 0 0 0.1 0"/>
<feBlend mode="normal" in2="BackgroundImageFix" result="effect1_dropShadow_803_1216"/>
<feBlend mode="normal" in="SourceGraphic" in2="effect1_dropShadow_803_1216" result="shape"/>
</filter>
<filter id="filter9_d_803_1216" x="197.188" y="50.2791" width="147.876" height="74.9009" filterUnits="userSpaceOnUse" color-interpolation-filters="sRGB">
<feFlood flood-opacity="0" result="BackgroundImageFix"/>
<feColorMatrix in="SourceAlpha" type="matrix" values="0 0 0 0 0 0 0 0 0 0 0 0 0 0 0 0 0 0 127 0" result="hardAlpha"/>
<feOffset dy="8.73554"/>
<feGaussianBlur stdDeviation="12.4793"/>
<feColorMatrix type="matrix" values="0 0 0 0 0.264364 0 0 0 0 0.818269 0 0 0 0 0.550548 0 0 0 0.1 0"/>
<feBlend mode="normal" in2="BackgroundImageFix" result="effect1_dropShadow_803_1216"/>
<feBlend mode="normal" in="SourceGraphic" in2="effect1_dropShadow_803_1216" result="shape"/>
</filter>
<filter id="filter10_d_803_1216" x="16.5003" y="74.9504" width="124.499" height="75.5248" filterUnits="userSpaceOnUse" color-interpolation-filters="sRGB">
<feFlood flood-opacity="0" result="BackgroundImageFix"/>
<feColorMatrix in="SourceAlpha" type="matrix" values="0 0 0 0 0 0 0 0 0 0 0 0 0 0 0 0 0 0 127 0" result="hardAlpha"/>
<feOffset dy="8.73554"/>
<feGaussianBlur stdDeviation="12.4793"/>
<feColorMatrix type="matrix" values="0 0 0 0 0.264364 0 0 0 0 0.818269 0 0 0 0 0.550548 0 0 0 0.1 0"/>
<feBlend mode="normal" in2="BackgroundImageFix" result="effect1_dropShadow_803_1216"/>
<feBlend mode="normal" in="SourceGraphic" in2="effect1_dropShadow_803_1216" result="shape"/>
</filter>
<filter id="filter11_d_803_1216" x="90.4583" y="74.9504" width="126.499" height="75.5248" filterUnits="userSpaceOnUse" color-interpolation-filters="sRGB">
<feFlood flood-opacity="0" result="BackgroundImageFix"/>
<feColorMatrix in="SourceAlpha" type="matrix" values="0 0 0 0 0 0 0 0 0 0 0 0 0 0 0 0 0 0 127 0" result="hardAlpha"/>
<feOffset dy="8.73554"/>
<feGaussianBlur stdDeviation="12.4793"/>
<feColorMatrix type="matrix" values="0 0 0 0 0.264364 0 0 0 0 0.818269 0 0 0 0 0.550548 0 0 0 0.1 0"/>
<feBlend mode="normal" in2="BackgroundImageFix" result="effect1_dropShadow_803_1216"/>
<feBlend mode="normal" in="SourceGraphic" in2="effect1_dropShadow_803_1216" result="shape"/>
</filter>
<filter id="filter12_d_803_1216" x="166.417" y="74.9504" width="111.499" height="75.5248" filterUnits="userSpaceOnUse" color-interpolation-filters="sRGB">
<feFlood flood-opacity="0" result="BackgroundImageFix"/>
<feColorMatrix in="SourceAlpha" type="matrix" values="0 0 0 0 0 0 0 0 0 0 0 0 0 0 0 0 0 0 127 0" result="hardAlpha"/>
<feOffset dy="8.73554"/>
<feGaussianBlur stdDeviation="12.4793"/>
<feColorMatrix type="matrix" values="0 0 0 0 0.264364 0 0 0 0 0.818269 0 0 0 0 0.550548 0 0 0 0.1 0"/>
<feBlend mode="normal" in2="BackgroundImageFix" result="effect1_dropShadow_803_1216"/>
<feBlend mode="normal" in="SourceGraphic" in2="effect1_dropShadow_803_1216" result="shape"/>
</filter>
<filter id="filter13_d_803_1216" x="227.376" y="74.9504" width="101.499" height="75.5248" filterUnits="userSpaceOnUse" color-interpolation-filters="sRGB">
<feFlood flood-opacity="0" result="BackgroundImageFix"/>
<feColorMatrix in="SourceAlpha" type="matrix" values="0 0 0 0 0 0 0 0 0 0 0 0 0 0 0 0 0 0 127 0" result="hardAlpha"/>
<feOffset dy="8.73554"/>
<feGaussianBlur stdDeviation="12.4793"/>
<feColorMatrix type="matrix" values="0 0 0 0 0.264364 0 0 0 0 0.818269 0 0 0 0 0.550548 0 0 0 0.1 0"/>
<feBlend mode="normal" in2="BackgroundImageFix" result="effect1_dropShadow_803_1216"/>
<feBlend mode="normal" in="SourceGraphic" in2="effect1_dropShadow_803_1216" result="shape"/>
</filter>
<filter id="filter14_d_803_1216" x="10.3118" y="100.246" width="120.876" height="74.9009" filterUnits="userSpaceOnUse" color-interpolation-filters="sRGB">
<feFlood flood-opacity="0" result="BackgroundImageFix"/>
<feColorMatrix in="SourceAlpha" type="matrix" values="0 0 0 0 0 0 0 0 0 0 0 0 0 0 0 0 0 0 127 0" result="hardAlpha"/>
<feOffset dy="8.73554"/>
<feGaussianBlur stdDeviation="12.4793"/>
<feColorMatrix type="matrix" values="0 0 0 0 0.264364 0 0 0 0 0.818269 0 0 0 0 0.550548 0 0 0 0.1 0"/>
<feBlend mode="normal" in2="BackgroundImageFix" result="effect1_dropShadow_803_1216"/>
<feBlend mode="normal" in="SourceGraphic" in2="effect1_dropShadow_803_1216" result="shape"/>
</filter>
<filter id="filter15_d_803_1216" x="80.9583" y="99.934" width="141.499" height="75.5248" filterUnits="userSpaceOnUse" color-interpolation-filters="sRGB">
<feFlood flood-opacity="0" result="BackgroundImageFix"/>
<feColorMatrix in="SourceAlpha" type="matrix" values="0 0 0 0 0 0 0 0 0 0 0 0 0 0 0 0 0 0 127 0" result="hardAlpha"/>
<feOffset dy="8.73554"/>
<feGaussianBlur stdDeviation="12.4793"/>
<feColorMatrix type="matrix" values="0 0 0 0 0.264364 0 0 0 0 0.818269 0 0 0 0 0.550548 0 0 0 0.1 0"/>
<feBlend mode="normal" in2="BackgroundImageFix" result="effect1_dropShadow_803_1216"/>
<feBlend mode="normal" in="SourceGraphic" in2="effect1_dropShadow_803_1216" result="shape"/>
</filter>
<filter id="filter16_d_803_1216" x="171.917" y="99.934" width="125.499" height="75.5248" filterUnits="userSpaceOnUse" color-interpolation-filters="sRGB">
<feFlood flood-opacity="0" result="BackgroundImageFix"/>
<feColorMatrix in="SourceAlpha" type="matrix" values="0 0 0 0 0 0 0 0 0 0 0 0 0 0 0 0 0 0 127 0" result="hardAlpha"/>
<feOffset dy="8.73554"/>
<feGaussianBlur stdDeviation="12.4793"/>
<feColorMatrix type="matrix" values="0 0 0 0 0.264364 0 0 0 0 0.818269 0 0 0 0 0.550548 0 0 0 0.1 0"/>
<feBlend mode="normal" in2="BackgroundImageFix" result="effect1_dropShadow_803_1216"/>
<feBlend mode="normal" in="SourceGraphic" in2="effect1_dropShadow_803_1216" result="shape"/>
</filter>
<filter id="filter17_d_803_1216" x="247.188" y="101.194" width="87.8763" height="73.0041" filterUnits="userSpaceOnUse" color-interpolation-filters="sRGB">
<feFlood flood-opacity="0" result="BackgroundImageFix"/>
<feColorMatrix in="SourceAlpha" type="matrix" values="0 0 0 0 0 0 0 0 0 0 0 0 0 0 0 0 0 0 127 0" result="hardAlpha"/>
<feOffset dy="8.73554"/>
<feGaussianBlur stdDeviation="12.4793"/>
<feColorMatrix type="matrix" values="0 0 0 0 0.264364 0 0 0 0 0.818269 0 0 0 0 0.550548 0 0 0 0.1 0"/>
<feBlend mode="normal" in2="BackgroundImageFix" result="effect1_dropShadow_803_1216"/>
<feBlend mode="normal" in="SourceGraphic" in2="effect1_dropShadow_803_1216" result="shape"/>
</filter>
</defs>
</svg>
