<svg width="100%" height="100%" viewBox="0 0 364 229" fill="none" xmlns="http://www.w3.org/2000/svg">
<g filter="url(#filter0_d_803_1213)">
<rect x="31.6123" y="20.6844" width="174.559" height="42.0793" rx="11.7082" fill="#43D18C" fill-opacity="0.05"/>
<rect x="31.6123" y="20.6844" width="174.559" height="42.0793" rx="11.7082" stroke="#43D18C" stroke-width="0.780545"/>
<path d="M178.981 51.1084V51.0486C178.988 50.4133 179.055 49.9077 179.181 49.5318C179.307 49.156 179.487 48.8516 179.72 48.6188C179.953 48.3859 180.232 48.1714 180.558 47.9752C180.754 47.8554 180.931 47.7141 181.087 47.5511C181.243 47.3848 181.366 47.1935 181.456 46.9773C181.549 46.7611 181.596 46.5216 181.596 46.2588C181.596 45.9329 181.519 45.6502 181.366 45.4107C181.213 45.1712 181.009 44.9866 180.753 44.8569C180.496 44.7271 180.212 44.6623 179.899 44.6623C179.627 44.6623 179.364 44.7188 179.111 44.8319C178.858 44.945 178.647 45.123 178.477 45.3658C178.308 45.6086 178.21 45.9262 178.183 46.3187H176.926C176.952 45.7533 177.099 45.2693 177.365 44.8668C177.634 44.4644 177.988 44.1567 178.428 43.9438C178.87 43.7309 179.361 43.6245 179.899 43.6245C180.485 43.6245 180.994 43.7409 181.426 43.9738C181.862 44.2066 182.198 44.5259 182.434 44.9317C182.673 45.3375 182.793 45.7998 182.793 46.3187C182.793 46.6846 182.737 47.0156 182.624 47.3116C182.514 47.6076 182.354 47.872 182.145 48.1049C181.938 48.3377 181.689 48.5439 181.396 48.7236C181.103 48.9065 180.869 49.0994 180.693 49.3023C180.516 49.5019 180.388 49.7397 180.309 50.0158C180.229 50.2918 180.185 50.6361 180.179 51.0486V51.1084H178.981ZM179.62 54.0621C179.374 54.0621 179.163 53.9739 178.986 53.7976C178.81 53.6214 178.722 53.4101 178.722 53.164C178.722 52.9179 178.81 52.7067 178.986 52.5304C179.163 52.3541 179.374 52.2659 179.62 52.2659C179.866 52.2659 180.077 52.3541 180.254 52.5304C180.43 52.7067 180.518 52.9179 180.518 53.164C180.518 53.327 180.476 53.4767 180.393 53.613C180.314 53.7494 180.205 53.8592 180.069 53.9423C179.936 54.0222 179.786 54.0621 179.62 54.0621Z" fill="#43D18C"/>
<path d="M169.188 43.7643L171.823 48.0151H171.902L174.537 43.7643H175.994L172.781 48.8733L175.994 53.9823H174.537L171.902 49.8113H171.823L169.188 53.9823H167.731L171.024 48.8733L167.731 43.7643H169.188Z" fill="#43D18C"/>
<path d="M156.59 53.9823V46.3187H159.723C160.548 46.3187 161.203 46.505 161.689 46.8775C162.175 47.2501 162.417 47.7423 162.417 48.3543C162.417 48.82 162.279 49.1809 162.003 49.437C161.727 49.6898 161.373 49.8611 160.94 49.9509C161.223 49.9908 161.498 50.0906 161.764 50.2503C162.033 50.4099 162.256 50.6295 162.432 50.9089C162.609 51.1849 162.697 51.5242 162.697 51.9267C162.697 52.3192 162.597 52.6701 162.397 52.9794C162.198 53.2887 161.912 53.5332 161.539 53.7128C161.167 53.8924 160.721 53.9823 160.202 53.9823H156.59ZM157.707 52.9046H160.202C160.608 52.9046 160.926 52.8081 161.155 52.6152C161.385 52.4223 161.499 52.1595 161.499 51.8269C161.499 51.4311 161.385 51.1201 161.155 50.8939C160.926 50.6644 160.608 50.5496 160.202 50.5496H157.707V52.9046ZM157.707 49.5318H159.723C160.039 49.5318 160.31 49.4886 160.536 49.4021C160.763 49.3123 160.936 49.1859 161.055 49.0229C161.178 48.8566 161.24 48.6604 161.24 48.4342C161.24 48.1115 161.105 47.8587 160.836 47.6758C160.566 47.4895 160.195 47.3964 159.723 47.3964H157.707V49.5318Z" fill="#43D18C"/>
<path d="M145.876 49.0928H148.071C148.97 49.0928 149.656 49.3206 150.132 49.7763C150.608 50.232 150.846 50.8091 150.846 51.5076C150.846 51.9666 150.739 52.384 150.526 52.7599C150.313 53.1324 150.001 53.4301 149.588 53.653C149.176 53.8725 148.67 53.9823 148.071 53.9823H144.858V46.3187H146.036V52.8846H148.071C148.537 52.8846 148.92 52.7615 149.219 52.5154C149.518 52.2693 149.668 51.9533 149.668 51.5674C149.668 51.1616 149.518 50.8307 149.219 50.5746C148.92 50.3185 148.537 50.1904 148.071 50.1904H145.876V49.0928Z" fill="#43D18C"/>
<path d="M136.914 47.4164V46.3187H143.141V47.4164H140.626V53.9823H139.449V47.4164H136.914Z" fill="#43D18C"/>
<path d="M130.752 52.246L134.444 46.3187H135.801V53.9823H134.623V48.055L130.951 53.9823H129.574V46.3187H130.752V52.246Z" fill="#43D18C"/>
<path d="M120.608 53.9823V52.8846H120.888C121.117 52.8846 121.309 52.8397 121.462 52.7499C121.615 52.6568 121.738 52.4954 121.831 52.2659C121.927 52.0331 122 51.7105 122.05 51.298C122.104 50.8823 122.142 50.3534 122.165 49.7114L122.305 46.3187H127.414V53.9823H126.236V47.4164H123.422L123.303 50.1505C123.276 50.7791 123.219 51.3329 123.133 51.8119C123.05 52.2876 122.922 52.6867 122.749 53.0093C122.579 53.332 122.353 53.5748 122.07 53.7378C121.788 53.9008 121.433 53.9823 121.008 53.9823H120.608Z" fill="#43D18C"/>
<path d="M115.625 54.1618C115.14 54.1618 114.699 54.0703 114.303 53.8874C113.907 53.7011 113.593 53.4334 113.36 53.0841C113.127 52.7315 113.011 52.3058 113.011 51.8069C113.011 51.3678 113.097 51.0119 113.27 50.7392C113.443 50.4631 113.674 50.2469 113.964 50.0906C114.253 49.9342 114.572 49.8178 114.922 49.7413C115.274 49.6615 115.628 49.5983 115.984 49.5517C116.45 49.4918 116.828 49.4469 117.117 49.417C117.41 49.3837 117.622 49.3289 117.756 49.2524C117.892 49.1759 117.96 49.0428 117.96 48.8532V48.8133C117.96 48.321 117.825 47.9385 117.556 47.6658C117.29 47.393 116.886 47.2566 116.344 47.2566C115.781 47.2566 115.341 47.3797 115.021 47.6258C114.702 47.872 114.478 48.1348 114.348 48.4142L113.23 48.015C113.43 47.5493 113.696 47.1868 114.029 46.9273C114.364 46.6646 114.73 46.4816 115.126 46.3785C115.525 46.2721 115.918 46.2189 116.304 46.2189C116.55 46.2189 116.833 46.2488 117.152 46.3087C117.474 46.3652 117.785 46.4833 118.085 46.6629C118.388 46.8425 118.639 47.1136 118.838 47.4762C119.038 47.8387 119.138 48.3243 119.138 48.933V53.9822H117.96V52.9444H117.9C117.82 53.1107 117.687 53.2887 117.501 53.4783C117.315 53.6679 117.067 53.8292 116.758 53.9622C116.448 54.0953 116.071 54.1618 115.625 54.1618ZM115.805 53.1041C116.27 53.1041 116.663 53.0126 116.982 52.8297C117.305 52.6467 117.548 52.4106 117.711 52.1212C117.877 51.8318 117.96 51.5275 117.96 51.2081V50.1305C117.91 50.1903 117.8 50.2452 117.631 50.2951C117.464 50.3417 117.272 50.3833 117.052 50.4198C116.836 50.4531 116.625 50.483 116.418 50.5096C116.216 50.5329 116.051 50.5529 115.924 50.5695C115.618 50.6094 115.332 50.6743 115.066 50.7641C114.804 50.8506 114.591 50.982 114.428 51.1583C114.268 51.3312 114.188 51.5674 114.188 51.8667C114.188 52.2759 114.34 52.5852 114.642 52.7947C114.948 53.001 115.336 53.1041 115.805 53.1041Z" fill="#43D18C"/>
<path d="M104.809 56.856V46.3187H105.946V47.536H106.086C106.172 47.403 106.292 47.2334 106.445 47.0271C106.601 46.8176 106.824 46.6313 107.114 46.4683C107.406 46.302 107.802 46.2189 108.301 46.2189C108.946 46.2189 109.515 46.3802 110.007 46.7028C110.5 47.0255 110.884 47.4828 111.16 48.0749C111.436 48.6669 111.574 49.3654 111.574 50.1704C111.574 50.982 111.436 51.6855 111.16 52.2808C110.884 52.8729 110.501 53.3319 110.012 53.6579C109.523 53.9805 108.96 54.1418 108.321 54.1418C107.829 54.1418 107.435 54.0604 107.139 53.8974C106.843 53.7311 106.615 53.5431 106.455 53.3336C106.295 53.1207 106.172 52.9444 106.086 52.8047H105.986V56.856H104.809ZM105.966 50.1504C105.966 50.7292 106.051 51.2397 106.221 51.6821C106.39 52.1212 106.638 52.4654 106.964 52.7149C107.29 52.961 107.689 53.0841 108.161 53.0841C108.654 53.0841 109.064 52.9544 109.394 52.695C109.726 52.4322 109.976 52.0796 110.142 51.6372C110.312 51.1915 110.397 50.6959 110.397 50.1504C110.397 49.6116 110.313 49.126 110.147 48.6936C109.984 48.2578 109.736 47.9136 109.404 47.6608C109.074 47.4047 108.66 47.2766 108.161 47.2766C107.682 47.2766 107.28 47.398 106.954 47.6408C106.628 47.8803 106.382 48.2162 106.216 48.6486C106.049 49.0777 105.966 49.5783 105.966 50.1504Z" fill="#43D18C"/>
<path d="M99.8438 54.1418C99.1054 54.1418 98.4684 53.9789 97.9329 53.6529C97.4007 53.3236 96.9899 52.8646 96.7006 52.2759C96.4145 51.6838 96.2715 50.9953 96.2715 50.2103C96.2715 49.4253 96.4145 48.7335 96.7006 48.1348C96.9899 47.5327 97.3924 47.0637 97.908 46.7278C98.4268 46.3885 99.0322 46.2189 99.7241 46.2189C100.123 46.2189 100.517 46.2854 100.907 46.4184C101.296 46.5515 101.65 46.7677 101.969 47.067C102.289 47.3631 102.543 47.7556 102.733 48.2445C102.922 48.7335 103.017 49.3355 103.017 50.0506V50.5496H97.1097V49.5317H101.82C101.82 49.0993 101.733 48.7135 101.56 48.3742C101.39 48.035 101.148 47.7672 100.832 47.571C100.519 47.3747 100.15 47.2766 99.7241 47.2766C99.2551 47.2766 98.8493 47.393 98.5067 47.6258C98.1674 47.8554 97.9063 48.1547 97.7234 48.5239C97.5404 48.8931 97.449 49.2889 97.449 49.7114V50.3899C97.449 50.9687 97.5487 51.4593 97.7483 51.8617C97.9512 52.2609 98.2323 52.5652 98.5915 52.7748C98.9507 52.981 99.3682 53.0841 99.8438 53.0841C100.153 53.0841 100.433 53.0409 100.682 52.9544C100.935 52.8646 101.153 52.7315 101.336 52.5553C101.519 52.3756 101.66 52.1528 101.76 51.8867L102.897 52.206C102.778 52.5918 102.576 52.9311 102.294 53.2238C102.011 53.5132 101.662 53.7394 101.246 53.9024C100.83 54.062 100.363 54.1418 99.8438 54.1418Z" fill="#43D18C"/>
<path d="M90.1815 56.5967V43.7643H91.359V56.5967H90.1815ZM90.1815 54.142C89.6626 54.142 89.1903 54.0488 88.7646 53.8626C88.3388 53.673 87.9729 53.4052 87.6669 53.0593C87.3609 52.7101 87.1248 52.2926 86.9584 51.807C86.7921 51.3214 86.709 50.7825 86.709 50.1905C86.709 49.5918 86.7921 49.0496 86.9584 48.564C87.1248 48.075 87.3609 47.6559 87.6669 47.3067C87.9729 46.9574 88.3388 46.6897 88.7646 46.5034C89.1903 46.3138 89.6626 46.219 90.1815 46.219H90.5407V54.142H90.1815ZM90.1815 53.0842H90.3811V47.2767H90.1815C89.789 47.2767 89.4481 47.3566 89.1587 47.5162C88.8693 47.6725 88.6299 47.8871 88.4403 48.1598C88.254 48.4293 88.1143 48.7386 88.0212 49.0878C87.9314 49.4371 87.8865 49.8046 87.8865 50.1905C87.8865 50.7027 87.9679 51.1783 88.1309 51.6174C88.2939 52.0565 88.545 52.4107 88.8843 52.6801C89.2236 52.9495 89.656 53.0842 90.1815 53.0842ZM91.359 54.142H90.9998V46.219H91.359C91.8779 46.219 92.3502 46.3138 92.7759 46.5034C93.2017 46.6897 93.5676 46.9574 93.8736 47.3067C94.1796 47.6559 94.4158 48.075 94.5821 48.564C94.7484 49.0496 94.8315 49.5918 94.8315 50.1905C94.8315 50.7825 94.7484 51.3214 94.5821 51.807C94.4158 52.2926 94.1796 52.7101 93.8736 53.0593C93.5676 53.4052 93.2017 53.673 92.7759 53.8626C92.3502 54.0488 91.8779 54.142 91.359 54.142ZM91.359 53.0842C91.7548 53.0842 92.0957 53.0077 92.3818 52.8547C92.6712 52.6984 92.909 52.4855 93.0953 52.2161C93.2848 51.9434 93.4246 51.634 93.5144 51.2881C93.6075 50.9389 93.6541 50.573 93.6541 50.1905C93.6541 49.6782 93.5726 49.2009 93.4096 48.7585C93.2466 48.3162 92.9955 47.9586 92.6562 47.6859C92.3169 47.4131 91.8845 47.2767 91.359 47.2767H91.1594V53.0842H91.359Z" fill="#43D18C"/>
<path d="M82.1036 54.1418C81.3652 54.1418 80.7282 53.9789 80.1927 53.6529C79.6605 53.3236 79.2497 52.8646 78.9603 52.2759C78.6743 51.6838 78.5312 50.9953 78.5312 50.2103C78.5312 49.4253 78.6743 48.7335 78.9603 48.1348C79.2497 47.5327 79.6522 47.0637 80.1677 46.7278C80.6866 46.3885 81.292 46.2189 81.9838 46.2189C82.383 46.2189 82.7771 46.2854 83.1663 46.4184C83.5555 46.5515 83.9097 46.7677 84.229 47.067C84.5483 47.3631 84.8028 47.7556 84.9924 48.2445C85.182 48.7335 85.2768 49.3355 85.2768 50.0506V50.5496H79.3695V49.5317H84.0793C84.0793 49.0993 83.9928 48.7135 83.8199 48.3742C83.6502 48.035 83.4074 47.7672 83.0914 47.571C82.7788 47.3747 82.4096 47.2766 81.9838 47.2766C81.5148 47.2766 81.109 47.393 80.7664 47.6258C80.4272 47.8554 80.1661 48.1547 79.9831 48.5239C79.8002 48.8931 79.7087 49.2889 79.7087 49.7114V50.3899C79.7087 50.9687 79.8085 51.4593 80.0081 51.8617C80.211 52.2609 80.492 52.5652 80.8513 52.7748C81.2105 52.981 81.6279 53.0841 82.1036 53.0841C82.4129 53.0841 82.6923 53.0409 82.9418 52.9544C83.1946 52.8646 83.4124 52.7315 83.5954 52.5553C83.7783 52.3756 83.9197 52.1528 84.0195 51.8867L85.157 52.206C85.0373 52.5918 84.836 52.9311 84.5533 53.2238C84.2706 53.5132 83.9213 53.7394 83.5056 53.9024C83.0898 54.062 82.6225 54.1418 82.1036 54.1418Z" fill="#43D18C"/>
<path d="M70.3291 56.856V46.3187H71.4667V47.536H71.6064C71.6928 47.403 71.8126 47.2334 71.9656 47.0271C72.1219 46.8176 72.3448 46.6313 72.6341 46.4683C72.9269 46.302 73.3227 46.2189 73.8216 46.2189C74.4669 46.2189 75.0357 46.3802 75.5279 46.7028C76.0202 47.0255 76.4044 47.4828 76.6805 48.0749C76.9565 48.6669 77.0946 49.3654 77.0946 50.1704C77.0946 50.982 76.9565 51.6855 76.6805 52.2808C76.4044 52.8729 76.0219 53.3319 75.5329 53.6579C75.044 53.9805 74.4802 54.1418 73.8416 54.1418C73.3493 54.1418 72.9551 54.0604 72.6591 53.8974C72.3631 53.7311 72.1352 53.5431 71.9756 53.3336C71.8159 53.1207 71.6928 52.9444 71.6064 52.8047H71.5066V56.856H70.3291ZM71.4866 50.1504C71.4866 50.7292 71.5714 51.2397 71.7411 51.6821C71.9107 52.1212 72.1585 52.4654 72.4845 52.7149C72.8104 52.961 73.2096 53.0841 73.6819 53.0841C74.1742 53.0841 74.585 52.9544 74.9142 52.695C75.2469 52.4322 75.4963 52.0796 75.6626 51.6372C75.8323 51.1915 75.9171 50.6959 75.9171 50.1504C75.9171 49.6116 75.8339 49.126 75.6676 48.6936C75.5046 48.2578 75.2568 47.9136 74.9242 47.6608C74.5949 47.4047 74.1808 47.2766 73.6819 47.2766C73.2029 47.2766 72.8005 47.398 72.4745 47.6408C72.1485 47.8803 71.9024 48.2162 71.7361 48.6486C71.5698 49.0777 71.4866 49.5783 71.4866 50.1504Z" fill="#43D18C"/>
<path d="M64.6671 54.1618C64.1815 54.1618 63.7408 54.0703 63.345 53.8874C62.9491 53.7011 62.6348 53.4334 62.402 53.0841C62.1692 52.7315 62.0527 52.3058 62.0527 51.8069C62.0527 51.3678 62.1392 51.0119 62.3122 50.7392C62.4851 50.4631 62.7163 50.2469 63.0057 50.0906C63.2951 49.9342 63.6144 49.8178 63.9636 49.7413C64.3162 49.6615 64.6704 49.5983 65.0263 49.5517C65.492 49.4918 65.8695 49.4469 66.1589 49.417C66.4516 49.3837 66.6645 49.3289 66.7975 49.2524C66.9339 49.1759 67.0021 49.0428 67.0021 48.8532V48.8133C67.0021 48.321 66.8674 47.9385 66.598 47.6658C66.3319 47.393 65.9277 47.2566 65.3856 47.2566C64.8234 47.2566 64.3827 47.3797 64.0634 47.6258C63.7441 47.872 63.5196 48.1348 63.3899 48.4142L62.2723 48.015C62.4718 47.5493 62.7379 47.1868 63.0705 46.9273C63.4065 46.6646 63.7724 46.4816 64.1682 46.3785C64.5673 46.2721 64.9598 46.2189 65.3457 46.2189C65.5918 46.2189 65.8745 46.2488 66.1938 46.3087C66.5165 46.3652 66.8275 46.4833 67.1268 46.6629C67.4295 46.8425 67.6806 47.1136 67.8802 47.4762C68.0798 47.8387 68.1796 48.3243 68.1796 48.933V53.9822H67.0021V52.9444H66.9422C66.8624 53.1107 66.7293 53.2887 66.5431 53.4783C66.3568 53.6679 66.109 53.8292 65.7997 53.9622C65.4903 54.0953 65.1128 54.1618 64.6671 54.1618ZM64.8467 53.1041C65.3124 53.1041 65.7049 53.0126 66.0242 52.8297C66.3468 52.6467 66.5896 52.4106 66.7526 52.1212C66.9189 51.8318 67.0021 51.5275 67.0021 51.2081V50.1305C66.9522 50.1903 66.8424 50.2452 66.6728 50.2951C66.5065 50.3417 66.3136 50.3833 66.094 50.4198C65.8778 50.4531 65.6666 50.483 65.4604 50.5096C65.2575 50.5329 65.0929 50.5529 64.9665 50.5695C64.6605 50.6094 64.3744 50.6743 64.1083 50.7641C63.8455 50.8506 63.6327 50.982 63.4697 51.1583C63.31 51.3312 63.2302 51.5674 63.2302 51.8667C63.2302 52.2759 63.3815 52.5852 63.6842 52.7947C63.9902 53.001 64.3777 53.1041 64.8467 53.1041Z" fill="#43D18C"/>
<path d="M54.9902 52.0264H56.2475C56.2741 52.3723 56.4305 52.6351 56.7165 52.8147C57.0059 52.9943 57.3818 53.0841 57.8441 53.0841C58.3164 53.0841 58.7206 52.9877 59.0565 52.7947C59.3924 52.5985 59.5604 52.2825 59.5604 51.8468C59.5604 51.5907 59.4972 51.3678 59.3708 51.1782C59.2444 50.9853 59.0665 50.8356 58.837 50.7292C58.6075 50.6227 58.3364 50.5695 58.0237 50.5695H56.7065V49.5118H58.0237C58.4927 49.5118 58.8386 49.4054 59.0615 49.1925C59.2877 48.9796 59.4008 48.7135 59.4008 48.3942C59.4008 48.0516 59.2793 47.7772 59.0365 47.571C58.7937 47.3614 58.4495 47.2566 58.0038 47.2566C57.5547 47.2566 57.1805 47.3581 56.8812 47.561C56.5818 47.7606 56.4238 48.0183 56.4072 48.3343H55.1698C55.1832 47.9219 55.3095 47.5577 55.549 47.2417C55.7885 46.9224 56.1145 46.6729 56.5269 46.4933C56.9394 46.3103 57.4117 46.2189 57.9439 46.2189C58.4827 46.2189 58.9501 46.3137 59.3459 46.5033C59.745 46.6895 60.0527 46.944 60.2689 47.2666C60.4884 47.5859 60.5982 47.9485 60.5982 48.3543C60.5982 48.7867 60.4768 49.1359 60.234 49.402C59.9912 49.6681 59.6868 49.8577 59.3209 49.9708V50.0506C59.6103 50.0706 59.8614 50.1637 60.0743 50.33C60.2905 50.493 60.4585 50.7076 60.5782 50.9737C60.698 51.2364 60.7578 51.5275 60.7578 51.8468C60.7578 52.3124 60.6331 52.7182 60.3836 53.0642C60.1342 53.4068 59.7916 53.6729 59.3559 53.8624C58.9201 54.0487 58.4229 54.1418 57.8641 54.1418C57.3219 54.1418 56.8363 54.0537 56.4072 53.8774C55.9781 53.6978 55.6372 53.45 55.3844 53.134C55.1349 52.8147 55.0035 52.4455 54.9902 52.0264Z" fill="#43D18C"/>
<path d="M121.369 30.2444V29.1467H127.596V30.2444H125.081V36.8103H123.904V30.2444H121.369Z" fill="#43D18C"/>
<path d="M117.118 36.9698C116.38 36.9698 115.743 36.8069 115.207 36.4809C114.675 36.1516 114.264 35.6926 113.975 35.1039C113.689 34.5118 113.546 33.8233 113.546 33.0383C113.546 32.2533 113.689 31.5615 113.975 30.9628C114.264 30.3607 114.667 29.8917 115.182 29.5558C115.701 29.2165 116.307 29.0469 116.998 29.0469C117.398 29.0469 117.792 29.1134 118.181 29.2464C118.57 29.3795 118.924 29.5957 119.244 29.8951C119.563 30.1911 119.817 30.5836 120.007 31.0725C120.197 31.5615 120.291 32.1635 120.291 32.8786V33.3776H114.384V32.3598H119.094C119.094 31.9274 119.007 31.5415 118.835 31.2022C118.665 30.863 118.422 30.5952 118.106 30.399C117.793 30.2027 117.424 30.1046 116.998 30.1046C116.529 30.1046 116.124 30.221 115.781 30.4539C115.442 30.6834 115.181 30.9827 114.998 31.3519C114.815 31.7211 114.723 32.1169 114.723 32.5394V33.2179C114.723 33.7967 114.823 34.2873 115.023 34.6897C115.226 35.0889 115.507 35.3932 115.866 35.6028C116.225 35.809 116.643 35.9121 117.118 35.9121C117.428 35.9121 117.707 35.8689 117.956 35.7824C118.209 35.6926 118.427 35.5595 118.61 35.3833C118.793 35.2036 118.934 34.9808 119.034 34.7147L120.172 35.034C120.052 35.4198 119.851 35.7591 119.568 36.0518C119.285 36.3412 118.936 36.5674 118.52 36.7304C118.104 36.89 117.637 36.9698 117.118 36.9698Z" fill="#43D18C"/>
<path d="M102.12 36.8103L105.233 32.9186L102.16 29.1467H103.557L106.112 32.4197H106.75V29.1467H107.928V32.4197H108.546L111.101 29.1467H112.498L109.444 32.9186L112.538 36.8103H111.121L108.526 33.5173H107.928V36.8103H106.75V33.5173H106.151L103.537 36.8103H102.12Z" fill="#43D18C"/>
<path d="M97.6454 36.9698C96.9535 36.9698 96.3465 36.8052 95.8243 36.4759C95.3054 36.1466 94.8996 35.6859 94.6069 35.0939C94.3175 34.5018 94.1729 33.81 94.1729 33.0183C94.1729 32.2201 94.3175 31.5232 94.6069 30.9278C94.8996 30.3324 95.3054 29.8701 95.8243 29.5408C96.3465 29.2115 96.9535 29.0469 97.6454 29.0469C98.3372 29.0469 98.9426 29.2115 99.4615 29.5408C99.9837 29.8701 100.389 30.3324 100.679 30.9278C100.972 31.5232 101.118 32.2201 101.118 33.0183C101.118 33.81 100.972 34.5018 100.679 35.0939C100.389 35.6859 99.9837 36.1466 99.4615 36.4759C98.9426 36.8052 98.3372 36.9698 97.6454 36.9698ZM97.6454 35.9121C98.1709 35.9121 98.6033 35.7774 98.9426 35.508C99.2819 35.2386 99.533 34.8843 99.696 34.4453C99.859 34.0062 99.9405 33.5306 99.9405 33.0183C99.9405 32.5061 99.859 32.0288 99.696 31.5864C99.533 31.144 99.2819 30.7865 98.9426 30.5137C98.6033 30.241 98.1709 30.1046 97.6454 30.1046C97.1199 30.1046 96.6874 30.241 96.3482 30.5137C96.0089 30.7865 95.7578 31.144 95.5948 31.5864C95.4318 32.0288 95.3503 32.5061 95.3503 33.0183C95.3503 33.5306 95.4318 34.0062 95.5948 34.4453C95.7578 34.8843 96.0089 35.2386 96.3482 35.508C96.6874 35.7774 97.1199 35.9121 97.6454 35.9121Z" fill="#43D18C"/>
<path d="M88.1851 35.2137L90.8594 29.1467H91.977L88.6641 36.8103H87.7062L84.4532 29.1467H85.5508L88.1851 35.2137ZM85.1716 29.1467V36.8103H83.9941V29.1467H85.1716ZM91.1987 36.8103V29.1467H92.3761V36.8103H91.1987Z" fill="#43D18C"/>
<path d="M74.7733 36.9698C74.0815 36.9698 73.4744 36.8052 72.9522 36.4759C72.4333 36.1466 72.0276 35.6859 71.7348 35.0939C71.4455 34.5018 71.3008 33.81 71.3008 33.0183C71.3008 32.2201 71.4455 31.5232 71.7348 30.9278C72.0276 30.3324 72.4333 29.8701 72.9522 29.5408C73.4744 29.2115 74.0815 29.0469 74.7733 29.0469C75.4652 29.0469 76.0705 29.2115 76.5894 29.5408C77.1116 29.8701 77.5174 30.3324 77.8068 30.9278C78.0995 31.5232 78.2459 32.2201 78.2459 33.0183C78.2459 33.81 78.0995 34.5018 77.8068 35.0939C77.5174 35.6859 77.1116 36.1466 76.5894 36.4759C76.0705 36.8052 75.4652 36.9698 74.7733 36.9698ZM74.7733 35.9121C75.2989 35.9121 75.7313 35.7774 76.0705 35.508C76.4098 35.2386 76.6609 34.8843 76.8239 34.4453C76.9869 34.0062 77.0684 33.5306 77.0684 33.0183C77.0684 32.5061 76.9869 32.0288 76.8239 31.5864C76.6609 31.144 76.4098 30.7865 76.0705 30.5137C75.7313 30.241 75.2989 30.1046 74.7733 30.1046C74.2478 30.1046 73.8154 30.241 73.4761 30.5137C73.1368 30.7865 72.8857 31.144 72.7227 31.5864C72.5597 32.0288 72.4783 32.5061 72.4783 33.0183C72.4783 33.5306 72.5597 34.0062 72.7227 34.4453C72.8857 34.8843 73.1368 35.2386 73.4761 35.508C73.8154 35.7774 74.2478 35.9121 74.7733 35.9121Z" fill="#43D18C"/>
<path d="M64.1133 30.2444V29.1467H70.3399V30.2444H67.8253V36.8103H66.6478V30.2444H64.1133Z" fill="#43D18C"/>
<path d="M61.636 36.8103L58.1235 32.1204H56.8662V36.8103H55.6289V26.5923H56.8662V31.0228H57.4051L61.4963 26.5923H62.9731L58.842 31.0826L63.1128 36.8103H61.636Z" fill="#43D18C"/>
</g>
<g filter="url(#filter1_d_803_1213)">
<rect x="181.564" y="82.1448" width="150.048" height="39.565" rx="11.7082" fill="#43D18C" fill-opacity="0.05"/>
<rect x="181.564" y="82.1448" width="150.048" height="39.565" rx="11.7082" stroke="#43D18C" stroke-width="0.780545"/>
<path d="M309.805 115.602V105.384H313.257C314.056 105.384 314.711 105.521 315.223 105.794C315.735 106.063 316.114 106.434 316.361 106.906C316.607 107.378 316.73 107.916 316.73 108.518C316.73 109.12 316.607 109.654 316.361 110.119C316.114 110.585 315.737 110.951 315.228 111.217C314.719 111.48 314.069 111.611 313.277 111.611H310.483V110.493H313.237C313.783 110.493 314.222 110.414 314.554 110.254C314.89 110.094 315.133 109.868 315.283 109.575C315.436 109.279 315.512 108.927 315.512 108.518C315.512 108.109 315.436 107.751 315.283 107.445C315.13 107.139 314.885 106.903 314.549 106.736C314.214 106.567 313.77 106.482 313.217 106.482H311.042V115.602H309.805ZM314.614 111.012L317.129 115.602H315.692L313.217 111.012H314.614Z" fill="#43D18C"/>
<path d="M299.405 115.602V105.384H300.643V109.935H306.091V105.384H307.328V115.602H306.091V111.032H300.643V115.602H299.405Z" fill="#43D18C"/>
<path d="M288.948 114.006L291.622 107.939H292.74L289.427 115.602H288.469L285.216 107.939H286.313L288.948 114.006ZM285.934 107.939V115.602H284.757V107.939H285.934ZM291.961 115.602V107.939H293.139V115.602H291.961Z" fill="#43D18C"/>
<path d="M277.551 113.866L281.243 107.939H282.6V115.602H281.422V109.675L277.75 115.602H276.373V107.939H277.551V113.866Z" fill="#43D18C"/>
<path d="M271.103 115.762C270.412 115.762 269.805 115.597 269.282 115.268C268.763 114.939 268.358 114.478 268.065 113.886C267.776 113.294 267.631 112.602 267.631 111.81C267.631 111.012 267.776 110.315 268.065 109.72C268.358 109.125 268.763 108.662 269.282 108.333C269.805 108.004 270.412 107.839 271.103 107.839C271.795 107.839 272.401 108.004 272.919 108.333C273.442 108.662 273.847 109.125 274.137 109.72C274.43 110.315 274.576 111.012 274.576 111.81C274.576 112.602 274.43 113.294 274.137 113.886C273.847 114.478 273.442 114.939 272.919 115.268C272.401 115.597 271.795 115.762 271.103 115.762ZM271.103 114.704C271.629 114.704 272.061 114.57 272.401 114.3C272.74 114.031 272.991 113.676 273.154 113.237C273.317 112.798 273.398 112.323 273.398 111.81C273.398 111.298 273.317 110.821 273.154 110.379C272.991 109.936 272.74 109.579 272.401 109.306C272.061 109.033 271.629 108.897 271.103 108.897C270.578 108.897 270.145 109.033 269.806 109.306C269.467 109.579 269.216 109.936 269.053 110.379C268.89 110.821 268.808 111.298 268.808 111.81C268.808 112.323 268.89 112.798 269.053 113.237C269.216 113.676 269.467 114.031 269.806 114.3C270.145 114.57 270.578 114.704 271.103 114.704Z" fill="#43D18C"/>
<path d="M260.101 115.602V107.939H263.234C264.059 107.939 264.714 108.125 265.2 108.498C265.685 108.87 265.928 109.362 265.928 109.974C265.928 110.44 265.79 110.801 265.514 111.057C265.238 111.31 264.884 111.481 264.451 111.571C264.734 111.611 265.008 111.711 265.274 111.87C265.544 112.03 265.767 112.25 265.943 112.529C266.119 112.805 266.207 113.144 266.207 113.547C266.207 113.939 266.108 114.29 265.908 114.6C265.709 114.909 265.422 115.153 265.05 115.333C264.677 115.513 264.232 115.602 263.713 115.602H260.101ZM261.218 114.525H263.713C264.119 114.525 264.436 114.428 264.666 114.235C264.895 114.042 265.01 113.78 265.01 113.447C265.01 113.051 264.895 112.74 264.666 112.514C264.436 112.285 264.119 112.17 263.713 112.17H261.218V114.525ZM261.218 111.152H263.234C263.55 111.152 263.821 111.109 264.047 111.022C264.273 110.932 264.446 110.806 264.566 110.643C264.689 110.477 264.751 110.28 264.751 110.054C264.751 109.732 264.616 109.479 264.346 109.296C264.077 109.11 263.706 109.017 263.234 109.017H261.218V111.152Z" fill="#43D18C"/>
<path d="M255.366 115.762C254.648 115.762 254.029 115.592 253.51 115.253C252.991 114.914 252.592 114.446 252.313 113.851C252.033 113.256 251.894 112.575 251.894 111.81C251.894 111.032 252.037 110.345 252.323 109.75C252.612 109.151 253.014 108.684 253.53 108.348C254.049 108.009 254.654 107.839 255.346 107.839C255.885 107.839 256.371 107.939 256.803 108.138C257.235 108.338 257.59 108.617 257.866 108.977C258.142 109.336 258.313 109.755 258.38 110.234H257.202C257.112 109.885 256.913 109.575 256.603 109.306C256.297 109.033 255.885 108.897 255.366 108.897C254.907 108.897 254.505 109.016 254.159 109.256C253.816 109.492 253.548 109.826 253.355 110.259C253.166 110.688 253.071 111.192 253.071 111.771C253.071 112.363 253.164 112.878 253.35 113.317C253.54 113.756 253.806 114.097 254.149 114.34C254.495 114.583 254.9 114.704 255.366 114.704C255.672 114.704 255.95 114.651 256.199 114.545C256.449 114.438 256.66 114.285 256.833 114.086C257.006 113.886 257.129 113.647 257.202 113.367H258.38C258.313 113.819 258.148 114.227 257.886 114.589C257.626 114.949 257.282 115.235 256.853 115.448C256.427 115.657 255.932 115.762 255.366 115.762Z" fill="#43D18C"/>
<path d="M239.336 115.602V114.505H239.615C239.845 114.505 240.036 114.46 240.189 114.37C240.342 114.277 240.465 114.116 240.558 113.886C240.655 113.653 240.728 113.331 240.778 112.918C240.831 112.502 240.869 111.974 240.893 111.332L241.032 107.939H246.141V115.602H244.964V109.036H242.15L242.03 111.771C242.004 112.399 241.947 112.953 241.861 113.432C241.777 113.908 241.649 114.307 241.476 114.629C241.307 114.952 241.081 115.195 240.798 115.358C240.515 115.521 240.161 115.602 239.735 115.602H239.336Z" fill="#43D18C"/>
<path d="M234.353 115.782C233.867 115.782 233.426 115.69 233.031 115.508C232.635 115.321 232.32 115.053 232.088 114.704C231.855 114.352 231.738 113.926 231.738 113.427C231.738 112.988 231.825 112.632 231.998 112.359C232.171 112.083 232.402 111.867 232.691 111.711C232.981 111.554 233.3 111.438 233.649 111.361C234.002 111.282 234.356 111.218 234.712 111.172C235.178 111.112 235.555 111.067 235.844 111.037C236.137 111.004 236.35 110.949 236.483 110.872C236.619 110.796 236.688 110.663 236.688 110.473V110.433C236.688 109.941 236.553 109.559 236.284 109.286C236.017 109.013 235.613 108.877 235.071 108.877C234.509 108.877 234.068 109 233.749 109.246C233.43 109.492 233.205 109.755 233.075 110.034L231.958 109.635C232.157 109.169 232.423 108.807 232.756 108.547C233.092 108.285 233.458 108.102 233.854 107.999C234.253 107.892 234.645 107.839 235.031 107.839C235.277 107.839 235.56 107.869 235.879 107.929C236.202 107.985 236.513 108.103 236.812 108.283C237.115 108.463 237.366 108.734 237.566 109.096C237.765 109.459 237.865 109.944 237.865 110.553V115.602H236.688V114.565H236.628C236.548 114.731 236.415 114.909 236.229 115.098C236.042 115.288 235.795 115.449 235.485 115.582C235.176 115.715 234.798 115.782 234.353 115.782ZM234.532 114.724C234.998 114.724 235.39 114.633 235.71 114.45C236.032 114.267 236.275 114.031 236.438 113.741C236.604 113.452 236.688 113.148 236.688 112.828V111.751C236.638 111.81 236.528 111.865 236.358 111.915C236.192 111.962 235.999 112.003 235.78 112.04C235.563 112.073 235.352 112.103 235.146 112.13C234.943 112.153 234.778 112.173 234.652 112.19C234.346 112.23 234.06 112.294 233.794 112.384C233.531 112.471 233.318 112.602 233.155 112.778C232.996 112.951 232.916 113.187 232.916 113.487C232.916 113.896 233.067 114.205 233.37 114.415C233.676 114.621 234.063 114.724 234.532 114.724Z" fill="#43D18C"/>
<path d="M223.132 115.602V114.505H223.411C223.641 114.505 223.832 114.46 223.985 114.37C224.138 114.277 224.261 114.116 224.354 113.886C224.451 113.653 224.524 113.331 224.574 112.918C224.627 112.502 224.665 111.974 224.688 111.332L224.828 107.939H229.937V115.602H228.76V109.036H225.946L225.826 111.771C225.799 112.399 225.743 112.953 225.656 113.432C225.573 113.908 225.445 114.307 225.272 114.629C225.103 114.952 224.876 115.195 224.594 115.358C224.311 115.521 223.957 115.602 223.531 115.602H223.132Z" fill="#43D18C"/>
<path d="M219.076 115.762C218.358 115.762 217.739 115.592 217.22 115.253C216.701 114.914 216.302 114.446 216.023 113.851C215.743 113.256 215.604 112.575 215.604 111.81C215.604 111.032 215.747 110.345 216.033 109.75C216.322 109.151 216.724 108.684 217.24 108.348C217.759 108.009 218.364 107.839 219.056 107.839C219.595 107.839 220.081 107.939 220.513 108.138C220.945 108.338 221.3 108.617 221.576 108.977C221.852 109.336 222.023 109.755 222.09 110.234H220.912C220.822 109.885 220.623 109.575 220.313 109.306C220.007 109.033 219.595 108.897 219.076 108.897C218.617 108.897 218.215 109.016 217.869 109.256C217.526 109.492 217.258 109.826 217.065 110.259C216.876 110.688 216.781 111.192 216.781 111.771C216.781 112.363 216.874 112.878 217.06 113.317C217.25 113.756 217.516 114.097 217.859 114.34C218.205 114.583 218.61 114.704 219.076 114.704C219.382 114.704 219.66 114.651 219.909 114.545C220.159 114.438 220.37 114.285 220.543 114.086C220.716 113.886 220.839 113.647 220.912 113.367H222.09C222.023 113.819 221.858 114.227 221.596 114.589C221.336 114.949 220.992 115.235 220.563 115.448C220.137 115.657 219.642 115.762 219.076 115.762Z" fill="#43D18C"/>
<path d="M206.443 110.713H208.638C209.536 110.713 210.223 110.941 210.698 111.396C211.174 111.852 211.412 112.429 211.412 113.128C211.412 113.587 211.305 114.004 211.093 114.38C210.88 114.753 210.567 115.05 210.155 115.273C209.742 115.493 209.237 115.602 208.638 115.602H205.425V107.939H206.602V114.505H208.638C209.104 114.505 209.486 114.382 209.785 114.136C210.085 113.889 210.234 113.573 210.234 113.188C210.234 112.782 210.085 112.451 209.785 112.195C209.486 111.939 209.104 111.811 208.638 111.811H206.443V110.713ZM212.629 115.602V107.939H213.807V115.602H212.629Z" fill="#43D18C"/>
<path d="M196.446 115.602V105.384H200.019C200.73 105.384 201.317 105.507 201.78 105.754C202.242 105.996 202.586 106.324 202.813 106.736C203.039 107.146 203.152 107.6 203.152 108.099C203.152 108.538 203.074 108.9 202.917 109.186C202.764 109.472 202.561 109.698 202.309 109.865C202.059 110.031 201.788 110.154 201.495 110.234V110.334C201.808 110.354 202.122 110.463 202.438 110.663C202.754 110.863 203.019 111.149 203.232 111.521C203.445 111.894 203.551 112.349 203.551 112.888C203.551 113.401 203.435 113.861 203.202 114.27C202.969 114.679 202.601 115.004 202.099 115.243C201.597 115.483 200.943 115.602 200.138 115.602H196.446ZM197.684 114.505H200.138C200.947 114.505 201.52 114.348 201.86 114.036C202.202 113.72 202.374 113.337 202.374 112.888C202.374 112.542 202.285 112.223 202.109 111.93C201.933 111.634 201.682 111.398 201.356 111.222C201.03 111.042 200.644 110.952 200.198 110.952H197.684V114.505ZM197.684 109.875H199.979C200.351 109.875 200.687 109.802 200.987 109.655C201.289 109.509 201.529 109.303 201.705 109.037C201.885 108.77 201.974 108.458 201.974 108.099C201.974 107.65 201.818 107.269 201.505 106.956C201.193 106.64 200.697 106.482 200.019 106.482H197.684V109.875Z" fill="#43D18C"/>
<path d="M296.7 88.2124L296.6 95.5566H295.442L295.343 88.2124H296.7ZM296.021 98.5103C295.775 98.5103 295.564 98.4221 295.387 98.2458C295.211 98.0696 295.123 97.8583 295.123 97.6122C295.123 97.3661 295.211 97.1549 295.387 96.9786C295.564 96.8023 295.775 96.7141 296.021 96.7141C296.267 96.7141 296.478 96.8023 296.655 96.9786C296.831 97.1549 296.919 97.3661 296.919 97.6122C296.919 97.7752 296.878 97.9249 296.794 98.0612C296.715 98.1976 296.607 98.3074 296.47 98.3905C296.337 98.4704 296.187 98.5103 296.021 98.5103Z" fill="#43D18C"/>
<path d="M290.179 98.59C289.44 98.59 288.803 98.427 288.268 98.101C287.736 97.7717 287.325 97.3127 287.036 96.724C286.749 96.1319 286.606 95.4434 286.606 94.6584C286.606 93.8734 286.749 93.1816 287.036 92.5829C287.325 91.9808 287.727 91.5118 288.243 91.1759C288.762 90.8366 289.367 90.667 290.059 90.667C290.458 90.667 290.852 90.7335 291.241 90.8666C291.631 90.9996 291.985 91.2158 292.304 91.5152C292.624 91.8112 292.878 92.2037 293.068 92.6926C293.257 93.1816 293.352 93.7836 293.352 94.4988V94.9977H287.445V93.9799H292.155C292.155 93.5475 292.068 93.1616 291.895 92.8224C291.725 92.4831 291.483 92.2153 291.167 92.0191C290.854 91.8228 290.485 91.7247 290.059 91.7247C289.59 91.7247 289.184 91.8411 288.842 92.074C288.502 92.3035 288.241 92.6028 288.058 92.972C287.875 93.3412 287.784 93.7371 287.784 94.1595V94.838C287.784 95.4168 287.884 95.9074 288.083 96.3099C288.286 96.709 288.567 97.0134 288.926 97.2229C289.286 97.4291 289.703 97.5322 290.179 97.5322C290.488 97.5322 290.767 97.489 291.017 97.4025C291.27 97.3127 291.488 97.1797 291.671 97.0034C291.853 96.8238 291.995 96.6009 292.095 96.3348L293.232 96.6541C293.112 97.04 292.911 97.3792 292.628 97.6719C292.346 97.9613 291.997 98.1875 291.581 98.3505C291.165 98.5101 290.698 98.59 290.179 98.59Z" fill="#43D18C"/>
<path d="M280.62 96.8338L283.294 90.7668H284.412L281.099 98.4304H280.141L276.888 90.7668H277.985L280.62 96.8338ZM277.606 90.7668V98.4304H276.429V90.7668H277.606ZM283.633 98.4304V90.7668H284.811V98.4304H283.633Z" fill="#43D18C"/>
<path d="M268.685 94.1196V95.2172H264.634V94.1196H268.685ZM265.632 90.7668V98.4303H264.454V90.7668H265.632ZM271.04 98.59C270.348 98.59 269.741 98.4253 269.219 98.096C268.7 97.7667 268.294 97.3061 268.001 96.714C267.712 96.1219 267.567 95.4301 267.567 94.6385C267.567 93.8402 267.712 93.1433 268.001 92.5479C268.294 91.9526 268.7 91.4902 269.219 91.1609C269.741 90.8316 270.348 90.667 271.04 90.667C271.732 90.667 272.337 90.8316 272.856 91.1609C273.378 91.4902 273.784 91.9526 274.073 92.5479C274.366 93.1433 274.512 93.8402 274.512 94.6385C274.512 95.4301 274.366 96.1219 274.073 96.714C273.784 97.3061 273.378 97.7667 272.856 98.096C272.337 98.4253 271.732 98.59 271.04 98.59ZM271.04 97.5322C271.565 97.5322 271.998 97.3975 272.337 97.1281C272.676 96.8587 272.928 96.5044 273.091 96.0654C273.254 95.6263 273.335 95.1507 273.335 94.6385C273.335 94.1262 273.254 93.6489 273.091 93.2065C272.928 92.7642 272.676 92.4066 272.337 92.1338C271.998 91.8611 271.565 91.7247 271.04 91.7247C270.514 91.7247 270.082 91.8611 269.743 92.1338C269.403 92.4066 269.152 92.7642 268.989 93.2065C268.826 93.6489 268.745 94.1262 268.745 94.6385C268.745 95.1507 268.826 95.6263 268.989 96.0654C269.152 96.5044 269.403 96.8587 269.743 97.1281C270.082 97.3975 270.514 97.5322 271.04 97.5322Z" fill="#43D18C"/>
<path d="M257.591 96.4745H258.848C258.875 96.8204 259.031 97.0832 259.317 97.2628C259.606 97.4424 259.982 97.5322 260.445 97.5322C260.917 97.5322 261.321 97.4358 261.657 97.2429C261.993 97.0466 262.161 96.7306 262.161 96.2949C262.161 96.0388 262.098 95.8159 261.971 95.6263C261.845 95.4334 261.667 95.2837 261.438 95.1773C261.208 95.0709 260.937 95.0176 260.624 95.0176H259.307V93.9599H260.624C261.093 93.9599 261.439 93.8535 261.662 93.6406C261.888 93.4277 262.001 93.1616 262.001 92.8423C262.001 92.4997 261.88 92.2253 261.637 92.0191C261.394 91.8095 261.05 91.7048 260.604 91.7048C260.155 91.7048 259.781 91.8062 259.482 92.0091C259.182 92.2087 259.024 92.4665 259.008 92.7824H257.77C257.784 92.37 257.91 92.0058 258.15 91.6898C258.389 91.3705 258.715 91.121 259.128 90.9414C259.54 90.7585 260.012 90.667 260.544 90.667C261.083 90.667 261.551 90.7618 261.946 90.9514C262.346 91.1376 262.653 91.3921 262.869 91.7147C263.089 92.0341 263.199 92.3966 263.199 92.8024C263.199 93.2348 263.077 93.5841 262.835 93.8502C262.592 94.1162 262.287 94.3058 261.922 94.4189V94.4988C262.211 94.5187 262.462 94.6118 262.675 94.7782C262.891 94.9411 263.059 95.1557 263.179 95.4218C263.299 95.6845 263.358 95.9756 263.358 96.2949C263.358 96.7606 263.234 97.1664 262.984 97.5123C262.735 97.8549 262.392 98.121 261.956 98.3106C261.521 98.4968 261.023 98.59 260.465 98.59C259.922 98.59 259.437 98.5018 259.008 98.3255C258.579 98.1459 258.238 97.8981 257.985 97.5821C257.736 97.2628 257.604 96.8936 257.591 96.4745Z" fill="#43D18C"/>
<path d="M253.107 98.59C252.368 98.59 251.731 98.427 251.196 98.101C250.663 97.7717 250.253 97.3127 249.963 96.724C249.677 96.1319 249.534 95.4434 249.534 94.6584C249.534 93.8734 249.677 93.1816 249.963 92.5829C250.253 91.9808 250.655 91.5118 251.171 91.1759C251.69 90.8366 252.295 90.667 252.987 90.667C253.386 90.667 253.78 90.7335 254.169 90.8666C254.558 90.9996 254.913 91.2158 255.232 91.5152C255.551 91.8112 255.806 92.2037 255.995 92.6926C256.185 93.1816 256.28 93.7836 256.28 94.4988V94.9977H250.372V93.9799H255.082C255.082 93.5475 254.996 93.1616 254.823 92.8224C254.653 92.4831 254.41 92.2153 254.094 92.0191C253.782 91.8228 253.413 91.7247 252.987 91.7247C252.518 91.7247 252.112 91.8411 251.769 92.074C251.43 92.3035 251.169 92.6028 250.986 92.972C250.803 93.3412 250.712 93.7371 250.712 94.1595V94.838C250.712 95.4168 250.811 95.9074 251.011 96.3099C251.214 96.709 251.495 97.0134 251.854 97.2229C252.213 97.4291 252.631 97.5322 253.107 97.5322C253.416 97.5322 253.695 97.489 253.945 97.4025C254.197 97.3127 254.415 97.1797 254.598 97.0034C254.781 96.8238 254.923 96.6009 255.022 96.3348L256.16 96.6541C256.04 97.04 255.839 97.3792 255.556 97.6719C255.274 97.9613 254.924 98.1875 254.508 98.3505C254.093 98.5101 253.625 98.59 253.107 98.59Z" fill="#43D18C"/>
<path d="M241.331 101.304V90.7668H242.469V91.9842H242.608C242.695 91.8511 242.815 91.6815 242.968 91.4753C243.124 91.2657 243.347 91.0794 243.636 90.9165C243.929 90.7501 244.325 90.667 244.824 90.667C245.469 90.667 246.038 90.8283 246.53 91.151C247.022 91.4736 247.406 91.9309 247.682 92.523C247.958 93.1151 248.097 93.8136 248.097 94.6185C248.097 95.4301 247.958 96.1336 247.682 96.729C247.406 97.321 247.024 97.78 246.535 98.106C246.046 98.4286 245.482 98.59 244.844 98.59C244.351 98.59 243.957 98.5085 243.661 98.3455C243.365 98.1792 243.137 97.9913 242.978 97.7817C242.818 97.5688 242.695 97.3925 242.608 97.2528H242.509V101.304H241.331ZM242.489 94.5985C242.489 95.1773 242.573 95.6879 242.743 96.1302C242.913 96.5693 243.16 96.9136 243.486 97.163C243.812 97.4092 244.212 97.5322 244.684 97.5322C245.176 97.5322 245.587 97.4025 245.916 97.1431C246.249 96.8803 246.498 96.5277 246.665 96.0853C246.834 95.6396 246.919 95.144 246.919 94.5985C246.919 94.0597 246.836 93.5741 246.67 93.1417C246.507 92.7059 246.259 92.3617 245.926 92.1089C245.597 91.8528 245.183 91.7247 244.684 91.7247C244.205 91.7247 243.802 91.8461 243.476 92.0889C243.15 92.3284 242.904 92.6644 242.738 93.0968C242.572 93.5258 242.489 94.0264 242.489 94.5985Z" fill="#43D18C"/>
<path d="M230.618 93.5409H232.814C233.712 93.5409 234.399 93.7687 234.874 94.2244C235.35 94.6801 235.588 95.2572 235.588 95.9557C235.588 96.4147 235.481 96.8321 235.268 97.208C235.056 97.5805 234.743 97.8782 234.33 98.1011C233.918 98.3206 233.412 98.4304 232.814 98.4304H229.601V90.7668H230.778V97.3327H232.814C233.279 97.3327 233.662 97.2097 233.961 96.9635C234.261 96.7174 234.41 96.4014 234.41 96.0156C234.41 95.6098 234.261 95.2788 233.961 95.0227C233.662 94.7666 233.279 94.6385 232.814 94.6385H230.618V93.5409Z" fill="#43D18C"/>
<path d="M226.552 94.0598V95.1574H222.321V94.0598H226.552ZM222.6 90.7668V98.4304H221.423V90.7668H222.6ZM227.45 90.7668V98.4304H226.272V90.7668H227.45Z" fill="#43D18C"/>
<path d="M216.153 98.59C215.461 98.59 214.854 98.4253 214.332 98.096C213.813 97.7667 213.407 97.3061 213.115 96.714C212.825 96.1219 212.681 95.4301 212.681 94.6385C212.681 93.8402 212.825 93.1433 213.115 92.5479C213.407 91.9526 213.813 91.4902 214.332 91.1609C214.854 90.8316 215.461 90.667 216.153 90.667C216.845 90.667 217.45 90.8316 217.969 91.1609C218.492 91.4902 218.897 91.9526 219.187 92.5479C219.479 93.1433 219.626 93.8402 219.626 94.6385C219.626 95.4301 219.479 96.1219 219.187 96.714C218.897 97.3061 218.492 97.7667 217.969 98.096C217.45 98.4253 216.845 98.59 216.153 98.59ZM216.153 97.5322C216.679 97.5322 217.111 97.3975 217.45 97.1281C217.79 96.8587 218.041 96.5044 218.204 96.0654C218.367 95.6263 218.448 95.1507 218.448 94.6385C218.448 94.1262 218.367 93.6489 218.204 93.2065C218.041 92.7642 217.79 92.4066 217.45 92.1338C217.111 91.8611 216.679 91.7247 216.153 91.7247C215.628 91.7247 215.195 91.8611 214.856 92.1338C214.517 92.4066 214.266 92.7642 214.103 93.2065C213.94 93.6489 213.858 94.1262 213.858 94.6385C213.858 95.1507 213.94 95.6263 214.103 96.0654C214.266 96.5044 214.517 96.8587 214.856 97.1281C215.195 97.3975 215.628 97.5322 216.153 97.5322Z" fill="#43D18C"/>
<path d="M211.719 90.7668V91.8645H208.167V98.4304H206.989V90.7668H211.719Z" fill="#43D18C"/>
<path d="M205.068 93.3214C205.068 94.399 204.874 95.3304 204.485 96.1153C204.096 96.9003 203.562 97.5057 202.883 97.9314C202.205 98.3572 201.43 98.5701 200.558 98.5701C199.687 98.5701 198.912 98.3572 198.233 97.9314C197.555 97.5057 197.021 96.9003 196.632 96.1153C196.242 95.3304 196.048 94.399 196.048 93.3214C196.048 92.2437 196.242 91.3123 196.632 90.5274C197.021 89.7424 197.555 89.137 198.233 88.7113C198.912 88.2855 199.687 88.0726 200.558 88.0726C201.43 88.0726 202.205 88.2855 202.883 88.7113C203.562 89.137 204.096 89.7424 204.485 90.5274C204.874 91.3123 205.068 92.2437 205.068 93.3214ZM203.871 93.3214C203.871 92.4366 203.723 91.6899 203.427 91.0812C203.134 90.4725 202.737 90.0118 202.235 89.6991C201.736 89.3865 201.177 89.2301 200.558 89.2301C199.939 89.2301 199.379 89.3865 198.877 89.6991C198.378 90.0118 197.98 90.4725 197.684 91.0812C197.392 91.6899 197.245 92.4366 197.245 93.3214C197.245 94.2061 197.392 94.9528 197.684 95.5615C197.98 96.1702 198.378 96.6309 198.877 96.9436C199.379 97.2562 199.939 97.4126 200.558 97.4126C201.177 97.4126 201.736 97.2562 202.235 96.9436C202.737 96.6309 203.134 96.1702 203.427 95.5615C203.723 94.9528 203.871 94.2061 203.871 93.3214Z" fill="#43D18C"/>
</g>
<g filter="url(#filter2_d_803_1213)">
<rect x="136.194" y="143.605" width="175.679" height="42.0793" rx="11.7082" fill="#43D18C" fill-opacity="0.05"/>
<rect x="136.194" y="143.605" width="175.679" height="42.0793" rx="11.7082" stroke="#43D18C" stroke-width="0.780545"/>
<path d="M230.118 170.337V169.239H236.345V170.337H233.83V176.903H232.653V170.337H230.118Z" fill="#43D18C"/>
<path d="M223.495 179.777C223.295 179.777 223.117 179.76 222.961 179.727C222.805 179.697 222.696 179.667 222.637 179.637L222.936 178.599C223.222 178.672 223.475 178.699 223.694 178.679C223.914 178.659 224.108 178.561 224.278 178.385C224.451 178.212 224.609 177.931 224.752 177.541L224.972 176.943L222.138 169.239H223.415L225.53 175.346H225.61L227.726 169.239H229.003L225.75 178.02C225.604 178.416 225.422 178.744 225.206 179.003C224.99 179.266 224.739 179.461 224.453 179.587C224.17 179.713 223.851 179.777 223.495 179.777Z" fill="#43D18C"/>
<path d="M219.963 172.532V173.63H215.732V172.532H219.963ZM216.011 169.239V176.903H214.834V169.239H216.011ZM220.861 169.239V176.903H219.684V169.239H220.861Z" fill="#43D18C"/>
<path d="M211.554 176.903V170.317H209.519C209.06 170.317 208.699 170.423 208.436 170.636C208.173 170.849 208.042 171.142 208.042 171.514C208.042 171.88 208.16 172.168 208.396 172.378C208.636 172.587 208.963 172.692 209.379 172.692H211.854V173.789H209.379C208.86 173.789 208.413 173.698 208.037 173.515C207.661 173.332 207.372 173.071 207.169 172.732C206.966 172.389 206.864 171.983 206.864 171.514C206.864 171.042 206.971 170.636 207.184 170.297C207.397 169.958 207.701 169.697 208.097 169.514C208.496 169.331 208.97 169.239 209.519 169.239H212.672V176.903H211.554ZM206.445 176.903L208.621 173.091H209.898L207.723 176.903H206.445Z" fill="#43D18C"/>
<path d="M197.979 176.903V175.805H198.258C198.487 175.805 198.679 175.76 198.832 175.67C198.985 175.577 199.108 175.416 199.201 175.186C199.297 174.954 199.371 174.631 199.42 174.219C199.474 173.803 199.512 173.274 199.535 172.632L199.675 169.239H204.784V176.903H203.606V170.337H200.792L200.673 173.071C200.646 173.7 200.59 174.253 200.503 174.732C200.42 175.208 200.292 175.607 200.119 175.93C199.949 176.253 199.723 176.495 199.44 176.658C199.158 176.821 198.803 176.903 198.378 176.903H197.979Z" fill="#43D18C"/>
<path d="M197.583 169.239V170.337H194.031V176.903H192.854V169.239H197.583Z" fill="#43D18C"/>
<path d="M182.141 172.013H184.336C185.234 172.013 185.921 172.241 186.397 172.697C186.872 173.153 187.11 173.73 187.11 174.428C187.11 174.887 187.004 175.305 186.791 175.68C186.578 176.053 186.265 176.351 185.853 176.573C185.44 176.793 184.935 176.903 184.336 176.903H181.123V169.239H182.301V175.805H184.336C184.802 175.805 185.184 175.682 185.484 175.436C185.783 175.19 185.933 174.874 185.933 174.488C185.933 174.082 185.783 173.751 185.484 173.495C185.184 173.239 184.802 173.111 184.336 173.111H182.141V172.013Z" fill="#43D18C"/>
<path d="M173.179 170.337V169.239H179.405V170.337H176.891V176.903H175.713V170.337H173.179Z" fill="#43D18C"/>
<path d="M169.048 177.062C168.329 177.062 167.711 176.893 167.192 176.553C166.673 176.214 166.274 175.747 165.994 175.151C165.715 174.556 165.575 173.876 165.575 173.111C165.575 172.333 165.718 171.646 166.004 171.05C166.294 170.452 166.696 169.984 167.212 169.648C167.731 169.309 168.336 169.139 169.028 169.139C169.567 169.139 170.052 169.239 170.485 169.439C170.917 169.638 171.271 169.918 171.547 170.277C171.823 170.636 171.995 171.055 172.061 171.534H170.884C170.794 171.185 170.594 170.876 170.285 170.606C169.979 170.334 169.567 170.197 169.048 170.197C168.589 170.197 168.186 170.317 167.84 170.556C167.498 170.793 167.23 171.127 167.037 171.559C166.847 171.988 166.753 172.492 166.753 173.071C166.753 173.663 166.846 174.179 167.032 174.618C167.222 175.057 167.488 175.398 167.83 175.64C168.176 175.883 168.582 176.005 169.048 176.005C169.354 176.005 169.631 175.951 169.881 175.845C170.13 175.739 170.342 175.586 170.515 175.386C170.688 175.186 170.811 174.947 170.884 174.668H172.061C171.995 175.12 171.83 175.527 171.567 175.89C171.308 176.249 170.964 176.535 170.535 176.748C170.109 176.958 169.613 177.062 169.048 177.062Z" fill="#43D18C"/>
<path d="M159.145 179.777C158.946 179.777 158.768 179.76 158.611 179.727C158.455 179.697 158.347 179.667 158.287 179.637L158.586 178.599C158.872 178.672 159.125 178.699 159.345 178.679C159.564 178.659 159.759 178.561 159.928 178.385C160.101 178.212 160.259 177.931 160.402 177.541L160.622 176.943L157.788 169.239H159.065L161.181 175.346H161.261L163.376 169.239H164.653L161.4 178.02C161.254 178.416 161.073 178.744 160.856 179.003C160.64 179.266 160.389 179.461 160.103 179.587C159.82 179.713 159.501 179.777 159.145 179.777Z" fill="#43D18C"/>
<path d="M150.484 176.903V169.239H156.511V176.903H155.334V170.337H151.662V176.903H150.484Z" fill="#43D18C"/>
<path d="M297.582 158.334L297.503 158.873C297.446 159.252 297.36 159.658 297.243 160.09C297.13 160.522 297.012 160.93 296.889 161.312C296.766 161.695 296.664 161.999 296.585 162.225H295.687C295.73 162.012 295.786 161.731 295.856 161.382C295.926 161.033 295.996 160.642 296.066 160.21C296.139 159.781 296.199 159.342 296.245 158.893L296.305 158.334H297.582Z" fill="#43D18C"/>
<path d="M286.86 159.731V158.633H287.14C287.369 158.633 287.561 158.588 287.714 158.498C287.867 158.405 287.99 158.244 288.083 158.014C288.179 157.782 288.252 157.459 288.302 157.047C288.355 156.631 288.394 156.102 288.417 155.46L288.557 152.067H293.666V159.731H292.488V153.165H289.674L289.555 155.899C289.528 156.528 289.471 157.081 289.385 157.56C289.302 158.036 289.174 158.435 289.001 158.758C288.831 159.081 288.605 159.323 288.322 159.486C288.039 159.649 287.685 159.731 287.259 159.731H286.86Z" fill="#43D18C"/>
<path d="M281.121 162.605C280.921 162.605 280.743 162.588 280.587 162.555C280.431 162.525 280.322 162.495 280.263 162.465L280.562 161.427C280.848 161.5 281.101 161.527 281.32 161.507C281.54 161.487 281.734 161.389 281.904 161.213C282.077 161.04 282.235 160.759 282.378 160.369L282.598 159.771L279.764 152.067H281.041L283.156 158.174H283.236L285.352 152.067H286.629L283.376 160.848C283.23 161.244 283.048 161.572 282.832 161.831C282.616 162.094 282.365 162.289 282.079 162.415C281.796 162.541 281.477 162.605 281.121 162.605Z" fill="#43D18C"/>
<path d="M277.589 155.36V156.458H273.358V155.36H277.589ZM273.637 152.067V159.731H272.46V152.067H273.637ZM278.487 152.067V159.731H277.31V152.067H278.487Z" fill="#43D18C"/>
<path d="M265.255 157.995L268.947 152.067H270.304V159.731H269.126V153.804L265.454 159.731H264.077V152.067H265.255V157.995Z" fill="#43D18C"/>
<path d="M256.53 159.731V152.067H257.708V155.4H258.486L261.24 152.067H262.757L259.664 155.759L262.797 159.731H261.28L258.765 156.498H257.708V159.731H256.53Z" fill="#43D18C"/>
<path d="M250.869 159.91C250.384 159.91 249.943 159.819 249.547 159.636C249.151 159.45 248.837 159.182 248.604 158.833C248.371 158.48 248.255 158.054 248.255 157.555C248.255 157.116 248.341 156.76 248.514 156.488C248.687 156.212 248.918 155.995 249.208 155.839C249.497 155.683 249.817 155.566 250.166 155.49C250.518 155.41 250.873 155.347 251.228 155.3C251.694 155.24 252.072 155.195 252.361 155.166C252.654 155.132 252.867 155.077 253 155.001C253.136 154.924 253.204 154.791 253.204 154.602V154.562C253.204 154.07 253.07 153.687 252.8 153.414C252.534 153.142 252.13 153.005 251.588 153.005C251.026 153.005 250.585 153.128 250.266 153.374C249.946 153.621 249.722 153.883 249.592 154.163L248.474 153.764C248.674 153.298 248.94 152.935 249.273 152.676C249.609 152.413 249.975 152.23 250.37 152.127C250.769 152.021 251.162 151.967 251.548 151.967C251.794 151.967 252.077 151.997 252.396 152.057C252.719 152.114 253.03 152.232 253.329 152.411C253.632 152.591 253.883 152.862 254.082 153.225C254.282 153.587 254.382 154.073 254.382 154.682V159.731H253.204V158.693H253.144C253.065 158.859 252.931 159.037 252.745 159.227C252.559 159.416 252.311 159.578 252.002 159.711C251.692 159.844 251.315 159.91 250.869 159.91ZM251.049 158.853C251.515 158.853 251.907 158.761 252.226 158.578C252.549 158.395 252.792 158.159 252.955 157.87C253.121 157.58 253.204 157.276 253.204 156.957V155.879C253.154 155.939 253.045 155.994 252.875 156.044C252.709 156.09 252.516 156.132 252.296 156.168C252.08 156.202 251.869 156.232 251.663 156.258C251.46 156.281 251.295 156.301 251.169 156.318C250.863 156.358 250.577 156.423 250.31 156.513C250.048 156.599 249.835 156.731 249.672 156.907C249.512 157.08 249.432 157.316 249.432 157.615C249.432 158.024 249.584 158.334 249.886 158.543C250.192 158.749 250.58 158.853 251.049 158.853Z" fill="#43D18C"/>
<path d="M241.191 157.775H242.449C242.475 158.121 242.632 158.384 242.918 158.563C243.207 158.743 243.583 158.833 244.045 158.833C244.518 158.833 244.922 158.736 245.258 158.543C245.594 158.347 245.762 158.031 245.762 157.595C245.762 157.339 245.698 157.116 245.572 156.927C245.446 156.734 245.268 156.584 245.038 156.478C244.809 156.371 244.538 156.318 244.225 156.318H242.908V155.26H244.225C244.694 155.26 245.04 155.154 245.263 154.941C245.489 154.728 245.602 154.462 245.602 154.143C245.602 153.8 245.481 153.526 245.238 153.32C244.995 153.11 244.651 153.005 244.205 153.005C243.756 153.005 243.382 153.107 243.082 153.31C242.783 153.509 242.625 153.767 242.608 154.083H241.371C241.384 153.67 241.511 153.306 241.75 152.99C241.99 152.671 242.316 152.421 242.728 152.242C243.141 152.059 243.613 151.967 244.145 151.967C244.684 151.967 245.151 152.062 245.547 152.252C245.946 152.438 246.254 152.693 246.47 153.015C246.69 153.334 246.799 153.697 246.799 154.103C246.799 154.535 246.678 154.884 246.435 155.151C246.192 155.417 245.888 155.606 245.522 155.719V155.799C245.811 155.819 246.063 155.912 246.275 156.079C246.492 156.242 246.66 156.456 246.779 156.722C246.899 156.985 246.959 157.276 246.959 157.595C246.959 158.061 246.834 158.467 246.585 158.813C246.335 159.155 245.993 159.421 245.557 159.611C245.121 159.797 244.624 159.89 244.065 159.89C243.523 159.89 243.037 159.802 242.608 159.626C242.179 159.446 241.838 159.199 241.586 158.883C241.336 158.563 241.205 158.194 241.191 157.775Z" fill="#43D18C"/>
<path d="M232.756 159.89C232.018 159.89 231.381 159.727 230.845 159.401C230.313 159.072 229.902 158.613 229.613 158.024C229.327 157.432 229.184 156.744 229.184 155.959C229.184 155.174 229.327 154.482 229.613 153.883C229.902 153.281 230.305 152.812 230.82 152.476C231.339 152.137 231.944 151.967 232.636 151.967C233.035 151.967 233.429 152.034 233.819 152.167C234.208 152.3 234.562 152.516 234.881 152.816C235.201 153.112 235.455 153.504 235.645 153.993C235.834 154.482 235.929 155.084 235.929 155.799V156.298H230.022V155.28H234.732C234.732 154.848 234.645 154.462 234.472 154.123C234.303 153.784 234.06 153.516 233.744 153.32C233.431 153.123 233.062 153.025 232.636 153.025C232.167 153.025 231.761 153.142 231.419 153.374C231.08 153.604 230.818 153.903 230.635 154.272C230.453 154.642 230.361 155.037 230.361 155.46V156.138C230.361 156.717 230.461 157.208 230.66 157.61C230.863 158.009 231.144 158.314 231.504 158.523C231.863 158.73 232.28 158.833 232.756 158.833C233.065 158.833 233.345 158.789 233.594 158.703C233.847 158.613 234.065 158.48 234.248 158.304C234.431 158.124 234.572 157.901 234.672 157.635L235.809 157.955C235.69 158.34 235.488 158.68 235.206 158.972C234.923 159.262 234.574 159.488 234.158 159.651C233.742 159.811 233.275 159.89 232.756 159.89Z" fill="#43D18C"/>
<path d="M217.757 159.731L220.87 155.839L217.797 152.067H219.194L221.748 155.34H222.387V152.067H223.564V155.34H224.183L226.738 152.067H228.135L225.081 155.839L228.174 159.731H226.757L224.163 156.438H223.564V159.731H222.387V156.438H221.788L219.174 159.731H217.757Z" fill="#43D18C"/>
<path d="M213.282 159.89C212.59 159.89 211.983 159.726 211.461 159.396C210.942 159.067 210.536 158.606 210.244 158.014C209.954 157.422 209.81 156.731 209.81 155.939C209.81 155.141 209.954 154.444 210.244 153.848C210.536 153.253 210.942 152.791 211.461 152.461C211.983 152.132 212.59 151.967 213.282 151.967C213.974 151.967 214.579 152.132 215.098 152.461C215.62 152.791 216.026 153.253 216.316 153.848C216.608 154.444 216.755 155.141 216.755 155.939C216.755 156.731 216.608 157.422 216.316 158.014C216.026 158.606 215.62 159.067 215.098 159.396C214.579 159.726 213.974 159.89 213.282 159.89ZM213.282 158.833C213.808 158.833 214.24 158.698 214.579 158.429C214.919 158.159 215.17 157.805 215.333 157.366C215.496 156.927 215.577 156.451 215.577 155.939C215.577 155.427 215.496 154.949 215.333 154.507C215.17 154.065 214.919 153.707 214.579 153.434C214.24 153.162 213.808 153.025 213.282 153.025C212.757 153.025 212.324 153.162 211.985 153.434C211.646 153.707 211.394 154.065 211.232 154.507C211.069 154.949 210.987 155.427 210.987 155.939C210.987 156.451 211.069 156.927 211.232 157.366C211.394 157.805 211.646 158.159 211.985 158.429C212.324 158.698 212.757 158.833 213.282 158.833Z" fill="#43D18C"/>
<path d="M202.623 153.165V152.067H208.85V153.165H206.335V159.731H205.158V153.165H202.623Z" fill="#43D18C"/>
<path d="M191.367 155.42V156.518H187.315V155.42H191.367ZM188.313 152.067V159.731H187.136V152.067H188.313ZM193.722 159.89C193.03 159.89 192.423 159.726 191.901 159.396C191.382 159.067 190.976 158.606 190.683 158.014C190.394 157.422 190.249 156.731 190.249 155.939C190.249 155.141 190.394 154.444 190.683 153.848C190.976 153.253 191.382 152.791 191.901 152.461C192.423 152.132 193.03 151.967 193.722 151.967C194.413 151.967 195.019 152.132 195.538 152.461C196.06 152.791 196.466 153.253 196.755 153.848C197.048 154.444 197.194 155.141 197.194 155.939C197.194 156.731 197.048 157.422 196.755 158.014C196.466 158.606 196.06 159.067 195.538 159.396C195.019 159.726 194.413 159.89 193.722 159.89ZM193.722 158.833C194.247 158.833 194.68 158.698 195.019 158.429C195.358 158.159 195.609 157.805 195.772 157.366C195.935 156.927 196.017 156.451 196.017 155.939C196.017 155.427 195.935 154.949 195.772 154.507C195.609 154.065 195.358 153.707 195.019 153.434C194.68 153.162 194.247 153.025 193.722 153.025C193.196 153.025 192.764 153.162 192.424 153.434C192.085 153.707 191.834 154.065 191.671 154.507C191.508 154.949 191.427 155.427 191.427 155.939C191.427 156.451 191.508 156.927 191.671 157.366C191.834 157.805 192.085 158.159 192.424 158.429C192.764 158.698 193.196 158.833 193.722 158.833Z" fill="#43D18C"/>
<path d="M182.425 159.89C181.733 159.89 181.126 159.726 180.604 159.396C180.085 159.067 179.679 158.606 179.386 158.014C179.097 157.422 178.952 156.731 178.952 155.939C178.952 155.141 179.097 154.444 179.386 153.848C179.679 153.253 180.085 152.791 180.604 152.461C181.126 152.132 181.733 151.967 182.425 151.967C183.117 151.967 183.722 152.132 184.241 152.461C184.763 152.791 185.169 153.253 185.458 153.848C185.751 154.444 185.897 155.141 185.897 155.939C185.897 156.731 185.751 157.422 185.458 158.014C185.169 158.606 184.763 159.067 184.241 159.396C183.722 159.726 183.117 159.89 182.425 159.89ZM182.425 158.833C182.95 158.833 183.383 158.698 183.722 158.429C184.061 158.159 184.312 157.805 184.475 157.366C184.638 156.927 184.72 156.451 184.72 155.939C184.72 155.427 184.638 154.949 184.475 154.507C184.312 154.065 184.061 153.707 183.722 153.434C183.383 153.162 182.95 153.025 182.425 153.025C181.899 153.025 181.467 153.162 181.127 153.434C180.788 153.707 180.537 154.065 180.374 154.507C180.211 154.949 180.13 155.427 180.13 155.939C180.13 156.451 180.211 156.927 180.374 157.366C180.537 157.805 180.788 158.159 181.127 158.429C181.467 158.698 181.899 158.833 182.425 158.833Z" fill="#43D18C"/>
<path d="M171.422 159.731V152.067H174.555C175.38 152.067 176.035 152.254 176.521 152.626C177.007 152.999 177.249 153.491 177.249 154.103C177.249 154.569 177.111 154.929 176.835 155.186C176.559 155.438 176.205 155.61 175.773 155.699C176.055 155.739 176.33 155.839 176.596 155.999C176.865 156.158 177.088 156.378 177.264 156.657C177.441 156.933 177.529 157.273 177.529 157.675C177.529 158.068 177.429 158.419 177.229 158.728C177.03 159.037 176.744 159.282 176.371 159.461C175.999 159.641 175.553 159.731 175.034 159.731H171.422ZM172.539 158.653H175.034C175.44 158.653 175.758 158.557 175.987 158.364C176.217 158.171 176.331 157.908 176.331 157.575C176.331 157.18 176.217 156.869 175.987 156.642C175.758 156.413 175.44 156.298 175.034 156.298H172.539V158.653ZM172.539 155.28H174.555C174.871 155.28 175.142 155.237 175.368 155.151C175.595 155.061 175.768 154.934 175.887 154.771C176.01 154.605 176.072 154.409 176.072 154.183C176.072 153.86 175.937 153.607 175.668 153.424C175.398 153.238 175.027 153.145 174.555 153.145H172.539V155.28Z" fill="#43D18C"/>
<path d="M166.687 159.89C165.969 159.89 165.35 159.721 164.831 159.381C164.312 159.042 163.913 158.575 163.634 157.979C163.355 157.384 163.215 156.704 163.215 155.939C163.215 155.161 163.358 154.474 163.644 153.878C163.933 153.28 164.336 152.812 164.851 152.476C165.37 152.137 165.976 151.967 166.667 151.967C167.206 151.967 167.692 152.067 168.124 152.267C168.557 152.466 168.911 152.746 169.187 153.105C169.463 153.464 169.634 153.883 169.701 154.362H168.523C168.434 154.013 168.234 153.704 167.925 153.434C167.619 153.162 167.206 153.025 166.687 153.025C166.228 153.025 165.826 153.145 165.48 153.384C165.137 153.621 164.87 153.955 164.677 154.387C164.487 154.816 164.392 155.32 164.392 155.899C164.392 156.491 164.485 157.007 164.672 157.446C164.861 157.885 165.127 158.226 165.47 158.468C165.816 158.711 166.222 158.833 166.687 158.833C166.993 158.833 167.271 158.779 167.521 158.673C167.77 158.567 167.981 158.414 168.154 158.214C168.327 158.014 168.45 157.775 168.523 157.496H169.701C169.634 157.948 169.47 158.355 169.207 158.718C168.948 159.077 168.603 159.363 168.174 159.576C167.748 159.786 167.253 159.89 166.687 159.89Z" fill="#43D18C"/>
<path d="M150.644 159.731V149.513H154.216C154.928 149.513 155.515 149.636 155.977 149.882C156.439 150.125 156.784 150.452 157.01 150.865C157.236 151.274 157.349 151.728 157.349 152.227C157.349 152.666 157.271 153.029 157.115 153.315C156.962 153.601 156.759 153.827 156.506 153.993C156.256 154.159 155.985 154.283 155.693 154.362V154.462C156.005 154.482 156.32 154.592 156.636 154.791C156.952 154.991 157.216 155.277 157.429 155.65C157.642 156.022 157.748 156.478 157.748 157.017C157.748 157.529 157.632 157.99 157.399 158.399C157.166 158.808 156.799 159.132 156.296 159.372C155.794 159.611 155.141 159.731 154.336 159.731H150.644ZM151.881 158.633H154.336C155.144 158.633 155.718 158.477 156.057 158.164C156.4 157.848 156.571 157.466 156.571 157.017C156.571 156.671 156.483 156.351 156.306 156.059C156.13 155.763 155.879 155.527 155.553 155.35C155.227 155.171 154.841 155.081 154.395 155.081H151.881V158.633ZM151.881 154.003H154.176C154.548 154.003 154.884 153.93 155.184 153.784C155.486 153.637 155.726 153.431 155.902 153.165C156.082 152.899 156.172 152.586 156.172 152.227C156.172 151.778 156.015 151.397 155.703 151.084C155.39 150.768 154.894 150.61 154.216 150.61H151.881V154.003Z" fill="#43D18C"/>
</g>
<path d="M58.3969 86.3601L47.3577 108.426C46.9474 109.246 46.8796 110.195 47.1692 111.064C47.4587 111.934 48.082 112.653 48.9019 113.063L60.8323 119.023L74.9687 90.7725L63.0427 84.8173C62.6363 84.6137 62.1937 84.4921 61.7402 84.4594C61.2867 84.4267 60.8313 84.4837 60.3998 84.6269C59.9684 84.7702 59.5694 84.997 59.2257 85.2944C58.8821 85.5918 58.6004 85.9539 58.3969 86.3601Z" fill="#43D18C"/>
<path d="M136.966 119.023L148.896 113.063C149.716 112.653 150.339 111.934 150.629 111.064C150.918 110.195 150.85 109.246 150.44 108.426L139.401 86.3601C139.197 85.9539 138.916 85.5918 138.572 85.2944C138.228 84.997 137.829 84.7702 137.398 84.6269C136.967 84.4837 136.511 84.4267 136.058 84.4594C135.604 84.4921 135.162 84.6137 134.755 84.8173L122.829 90.7725L136.966 119.023Z" fill="#43D18C"/>
<g filter="url(#filter3_d_803_1213)">
<path d="M60.832 119.023L85.0561 136.309L112.741 143.224L137.397 119.023L123.122 90.7163L99.1147 84.45L74.6743 90.7163L60.832 119.023Z" fill="#43D18C" fill-opacity="0.05" shape-rendering="crispEdges"/>
</g>
<g filter="url(#filter4_d_803_1213)">
<path d="M99.0196 83.6878C99.1162 83.6757 99.2147 83.6818 99.3095 83.7065L123.317 89.9733L123.396 89.9981C123.575 90.0659 123.723 90.1986 123.81 90.371L138.085 118.677C138.235 118.975 138.175 119.337 137.937 119.571L113.28 143.772C113.089 143.959 112.815 144.034 112.555 143.969L84.87 137.054C84.7764 137.031 84.6879 136.99 84.6094 136.934L60.3856 119.648C60.0799 119.43 59.9766 119.023 60.1416 118.685L73.984 90.3792L74.0246 90.3057C74.1288 90.141 74.2926 90.0208 74.4834 89.9718L98.9242 83.7058L99.0196 83.6878ZM75.2096 91.3718L61.8087 118.775L85.3851 135.6L112.509 142.374L136.458 118.868L122.592 91.3711L99.1127 85.2438L75.2096 91.3718Z" fill="#43D18C"/>
</g>
<path d="M123.123 90.5962C123.547 90.5963 123.892 90.9402 123.892 91.3644C123.892 91.7887 123.547 92.1326 123.123 92.1327H106.132L86.6043 111.056C86.3226 111.34 86.1075 111.683 85.975 112.06C85.8414 112.441 85.7953 112.846 85.8399 113.247C85.8845 113.648 86.0185 114.034 86.2326 114.376C86.42 114.675 86.6644 114.935 86.9513 115.139L87.0767 115.223L87.0797 115.225C94.3466 119.864 104.23 119.58 112.196 111.567L112.249 111.518C112.527 111.286 112.934 111.279 113.221 111.509L130.524 125.337C130.856 125.602 130.91 126.086 130.644 126.418C130.379 126.749 129.895 126.803 129.563 126.538L112.793 113.133C104.403 121.182 93.9838 121.454 86.2544 116.521C85.7184 116.182 85.2652 115.728 84.929 115.191C84.5926 114.653 84.381 114.046 84.3109 113.416C84.2409 112.787 84.3141 112.149 84.5242 111.551C84.7343 110.953 85.0765 110.41 85.5252 109.962L85.5335 109.953L105.285 90.813L105.34 90.7635C105.476 90.6554 105.645 90.5962 105.82 90.5962H123.123Z" fill="#43D18C"/>
<path d="M67.1277 140.509C67.3745 140.163 67.8545 140.083 68.2 140.33L79.4742 148.377L97.3809 152.85C97.7927 152.953 98.0433 153.37 97.9404 153.782C97.8374 154.194 97.4197 154.444 97.0077 154.341L78.9606 149.833C78.867 149.81 78.7785 149.769 78.7 149.713L67.3064 141.58C66.9609 141.333 66.8808 140.854 67.1277 140.509Z" fill="#43D18C"/>
<defs>
<filter id="filter0_d_803_1213" x="-0.000102997" y="3.05176e-05" width="237.784" height="105.303" filterUnits="userSpaceOnUse" color-interpolation-filters="sRGB">
<feFlood flood-opacity="0" result="BackgroundImageFix"/>
<feColorMatrix in="SourceAlpha" type="matrix" values="0 0 0 0 0 0 0 0 0 0 0 0 0 0 0 0 0 0 127 0" result="hardAlpha"/>
<feOffset dy="10.9276"/>
<feGaussianBlur stdDeviation="15.6109"/>
<feColorMatrix type="matrix" values="0 0 0 0 0.264364 0 0 0 0 0.818269 0 0 0 0 0.550548 0 0 0 0.1 0"/>
<feBlend mode="normal" in2="BackgroundImageFix" result="effect1_dropShadow_803_1213"/>
<feBlend mode="normal" in="SourceGraphic" in2="effect1_dropShadow_803_1213" result="shape"/>
</filter>
<filter id="filter1_d_803_1213" x="149.952" y="61.4604" width="213.273" height="102.789" filterUnits="userSpaceOnUse" color-interpolation-filters="sRGB">
<feFlood flood-opacity="0" result="BackgroundImageFix"/>
<feColorMatrix in="SourceAlpha" type="matrix" values="0 0 0 0 0 0 0 0 0 0 0 0 0 0 0 0 0 0 127 0" result="hardAlpha"/>
<feOffset dy="10.9276"/>
<feGaussianBlur stdDeviation="15.6109"/>
<feColorMatrix type="matrix" values="0 0 0 0 0.264364 0 0 0 0 0.818269 0 0 0 0 0.550548 0 0 0 0.1 0"/>
<feBlend mode="normal" in2="BackgroundImageFix" result="effect1_dropShadow_803_1213"/>
<feBlend mode="normal" in="SourceGraphic" in2="effect1_dropShadow_803_1213" result="shape"/>
</filter>
<filter id="filter2_d_803_1213" x="104.582" y="122.921" width="238.904" height="105.303" filterUnits="userSpaceOnUse" color-interpolation-filters="sRGB">
<feFlood flood-opacity="0" result="BackgroundImageFix"/>
<feColorMatrix in="SourceAlpha" type="matrix" values="0 0 0 0 0 0 0 0 0 0 0 0 0 0 0 0 0 0 127 0" result="hardAlpha"/>
<feOffset dy="10.9276"/>
<feGaussianBlur stdDeviation="15.6109"/>
<feColorMatrix type="matrix" values="0 0 0 0 0.264364 0 0 0 0 0.818269 0 0 0 0 0.550548 0 0 0 0.1 0"/>
<feBlend mode="normal" in2="BackgroundImageFix" result="effect1_dropShadow_803_1213"/>
<feBlend mode="normal" in="SourceGraphic" in2="effect1_dropShadow_803_1213" result="shape"/>
</filter>
<filter id="filter3_d_803_1213" x="29.6102" y="64.1558" width="139.009" height="121.217" filterUnits="userSpaceOnUse" color-interpolation-filters="sRGB">
<feFlood flood-opacity="0" result="BackgroundImageFix"/>
<feColorMatrix in="SourceAlpha" type="matrix" values="0 0 0 0 0 0 0 0 0 0 0 0 0 0 0 0 0 0 127 0" result="hardAlpha"/>
<feOffset dy="10.9276"/>
<feGaussianBlur stdDeviation="15.6109"/>
<feComposite in2="hardAlpha" operator="out"/>
<feColorMatrix type="matrix" values="0 0 0 0 0.264364 0 0 0 0 0.818269 0 0 0 0 0.550548 0 0 0 0.25 0"/>
<feBlend mode="normal" in2="BackgroundImageFix" result="effect1_dropShadow_803_1213"/>
<feBlend mode="normal" in="SourceGraphic" in2="effect1_dropShadow_803_1213" result="shape"/>
</filter>
<filter id="filter4_d_803_1213" x="28.8417" y="63.3876" width="140.547" height="122.754" filterUnits="userSpaceOnUse" color-interpolation-filters="sRGB">
<feFlood flood-opacity="0" result="BackgroundImageFix"/>
<feColorMatrix in="SourceAlpha" type="matrix" values="0 0 0 0 0 0 0 0 0 0 0 0 0 0 0 0 0 0 127 0" result="hardAlpha"/>
<feOffset dy="10.9276"/>
<feGaussianBlur stdDeviation="15.6109"/>
<feComposite in2="hardAlpha" operator="out"/>
<feColorMatrix type="matrix" values="0 0 0 0 0.264364 0 0 0 0 0.818269 0 0 0 0 0.550548 0 0 0 0.25 0"/>
<feBlend mode="normal" in2="BackgroundImageFix" result="effect1_dropShadow_803_1213"/>
<feBlend mode="normal" in="SourceGraphic" in2="effect1_dropShadow_803_1213" result="shape"/>
</filter>
</defs>
</svg>
