<svg width="473" height="301" viewBox="0 0 473 301" fill="none" xmlns="http://www.w3.org/2000/svg">
<g filter="url(#filter0_d_383_54)">
<rect x="40.5" y="26.5" width="227" height="60" rx="15" fill="#43D18C" fill-opacity="0.05"/>
<rect x="40.5" y="26.5" width="227" height="60" rx="15" stroke="#43D18C"/>
<path d="M69.7812 52.5L65.2812 46.4915H63.6705V52.5H62.0852V39.4091H63.6705V45.0852H64.3608L69.6023 39.4091H71.4943L66.2017 45.1619L71.6733 52.5H69.7812ZM72.9549 44.0881V42.6818H80.9322V44.0881H77.7106V52.5H76.2021V44.0881H72.9549ZM86.6115 52.7045C85.7251 52.7045 84.9474 52.4936 84.2784 52.0717C83.6136 51.6499 83.0938 51.0597 82.7188 50.3011C82.348 49.5426 82.1626 48.6562 82.1626 47.642C82.1626 46.6193 82.348 45.7266 82.7188 44.9638C83.0938 44.201 83.6136 43.6087 84.2784 43.1868C84.9474 42.7649 85.7251 42.554 86.6115 42.554C87.4979 42.554 88.2734 42.7649 88.9382 43.1868C89.6072 43.6087 90.1271 44.201 90.4979 44.9638C90.8729 45.7266 91.0604 46.6193 91.0604 47.642C91.0604 48.6562 90.8729 49.5426 90.4979 50.3011C90.1271 51.0597 89.6072 51.6499 88.9382 52.0717C88.2734 52.4936 87.4979 52.7045 86.6115 52.7045ZM86.6115 51.3494C87.2848 51.3494 87.8388 51.1768 88.2734 50.8317C88.7081 50.4865 89.0298 50.0327 89.2386 49.4702C89.4474 48.9077 89.5518 48.2983 89.5518 47.642C89.5518 46.9858 89.4474 46.3743 89.2386 45.8075C89.0298 45.2408 88.7081 44.7827 88.2734 44.4332C87.8388 44.0838 87.2848 43.9091 86.6115 43.9091C85.9382 43.9091 85.3842 44.0838 84.9496 44.4332C84.5149 44.7827 84.1932 45.2408 83.9844 45.8075C83.7756 46.3743 83.6712 46.9858 83.6712 47.642C83.6712 48.2983 83.7756 48.9077 83.9844 49.4702C84.1932 50.0327 84.5149 50.4865 84.9496 50.8317C85.3842 51.1768 85.9382 51.3494 86.6115 51.3494ZM103.795 50.4545L107.221 42.6818H108.653L104.409 52.5H103.181L99.0137 42.6818H100.42L103.795 50.4545ZM99.9341 42.6818V52.5H98.4256V42.6818H99.9341ZM107.656 52.5V42.6818H109.164V52.5H107.656ZM115.914 52.7045C115.028 52.7045 114.25 52.4936 113.581 52.0717C112.916 51.6499 112.396 51.0597 112.021 50.3011C111.651 49.5426 111.465 48.6562 111.465 47.642C111.465 46.6193 111.651 45.7266 112.021 44.9638C112.396 44.201 112.916 43.6087 113.581 43.1868C114.25 42.7649 115.028 42.554 115.914 42.554C116.801 42.554 117.576 42.7649 118.241 43.1868C118.91 43.6087 119.43 44.201 119.801 44.9638C120.176 45.7266 120.363 46.6193 120.363 47.642C120.363 48.6562 120.176 49.5426 119.801 50.3011C119.43 51.0597 118.91 51.6499 118.241 52.0717C117.576 52.4936 116.801 52.7045 115.914 52.7045ZM115.914 51.3494C116.588 51.3494 117.142 51.1768 117.576 50.8317C118.011 50.4865 118.333 50.0327 118.541 49.4702C118.75 48.9077 118.855 48.2983 118.855 47.642C118.855 46.9858 118.75 46.3743 118.541 45.8075C118.333 45.2408 118.011 44.7827 117.576 44.4332C117.142 44.0838 116.588 43.9091 115.914 43.9091C115.241 43.9091 114.687 44.0838 114.252 44.4332C113.818 44.7827 113.496 45.2408 113.287 45.8075C113.078 46.3743 112.974 46.9858 112.974 47.642C112.974 48.2983 113.078 48.9077 113.287 49.4702C113.496 50.0327 113.818 50.4865 114.252 50.8317C114.687 51.1768 115.241 51.3494 115.914 51.3494ZM121.648 52.5L125.637 47.5142L121.699 42.6818H123.489L126.762 46.875H127.58V42.6818H129.088V46.875H129.881L133.154 42.6818H134.943L131.031 47.5142L134.994 52.5H133.179L129.855 48.2812H129.088V52.5H127.58V48.2812H126.813L123.463 52.5H121.648ZM140.862 52.7045C139.916 52.7045 139.1 52.4957 138.414 52.0781C137.732 51.6562 137.206 51.0682 136.835 50.3139C136.469 49.5554 136.286 48.6733 136.286 47.6676C136.286 46.6619 136.469 45.7756 136.835 45.0085C137.206 44.2372 137.722 43.6364 138.382 43.206C139.047 42.7713 139.823 42.554 140.709 42.554C141.22 42.554 141.725 42.6392 142.224 42.8097C142.722 42.9801 143.176 43.2571 143.585 43.6406C143.994 44.0199 144.32 44.5227 144.563 45.1491C144.806 45.7756 144.928 46.5469 144.928 47.4631V48.1023H137.36V46.7983H143.394C143.394 46.2443 143.283 45.75 143.061 45.3153C142.844 44.8807 142.533 44.5376 142.128 44.2862C141.727 44.0348 141.254 43.9091 140.709 43.9091C140.108 43.9091 139.588 44.0582 139.149 44.3565C138.715 44.6506 138.38 45.0341 138.146 45.5071C137.911 45.9801 137.794 46.4872 137.794 47.0284V47.8977C137.794 48.6392 137.922 49.2678 138.178 49.7834C138.438 50.2947 138.798 50.6847 139.258 50.9531C139.718 51.2173 140.253 51.3494 140.862 51.3494C141.259 51.3494 141.617 51.294 141.936 51.1832C142.26 51.0682 142.539 50.8977 142.774 50.6719C143.008 50.4418 143.189 50.1562 143.317 49.8153L144.774 50.2244C144.621 50.7188 144.363 51.1534 144.001 51.5284C143.639 51.8991 143.191 52.1889 142.659 52.3977C142.126 52.6023 141.527 52.7045 140.862 52.7045ZM146.308 44.0881V42.6818H154.286V44.0881H151.064V52.5H149.556V44.0881H146.308ZM61.267 71.9943H62.8778C62.9119 72.4375 63.1122 72.7741 63.4787 73.0043C63.8494 73.2344 64.331 73.3494 64.9233 73.3494C65.5284 73.3494 66.0462 73.2259 66.4766 72.9787C66.907 72.7273 67.1222 72.3224 67.1222 71.7642C67.1222 71.4361 67.0412 71.1506 66.8793 70.9077C66.7173 70.6605 66.4893 70.4687 66.1953 70.3324C65.9013 70.196 65.554 70.1278 65.1534 70.1278H63.4659V68.7727H65.1534C65.7543 68.7727 66.1974 68.6364 66.483 68.3636C66.7727 68.0909 66.9176 67.75 66.9176 67.3409C66.9176 66.902 66.7621 66.5504 66.451 66.2862C66.1399 66.0178 65.6989 65.8835 65.1278 65.8835C64.5526 65.8835 64.0732 66.0135 63.6896 66.2734C63.3061 66.5291 63.1037 66.8594 63.0824 67.2642H61.4972C61.5142 66.7358 61.6761 66.2692 61.983 65.8643C62.2898 65.4553 62.7074 65.1357 63.2358 64.9055C63.7642 64.6712 64.3693 64.554 65.0511 64.554C65.7415 64.554 66.3402 64.6754 66.8473 64.9183C67.3587 65.157 67.7528 65.483 68.0298 65.8963C68.3111 66.3054 68.4517 66.7699 68.4517 67.2898C68.4517 67.8438 68.2962 68.2912 67.9851 68.6321C67.674 68.973 67.2841 69.2159 66.8153 69.3608V69.4631C67.1861 69.4886 67.5078 69.608 67.7805 69.821C68.0575 70.0298 68.2727 70.3047 68.4261 70.6456C68.5795 70.9822 68.6562 71.3551 68.6562 71.7642C68.6562 72.3608 68.4964 72.8807 68.1768 73.3239C67.8572 73.7628 67.4183 74.1037 66.8601 74.3466C66.3018 74.5852 65.6648 74.7045 64.9489 74.7045C64.2543 74.7045 63.6321 74.5916 63.0824 74.3658C62.5327 74.1357 62.0959 73.8182 61.772 73.4134C61.4524 73.0043 61.2841 72.5312 61.267 71.9943ZM73.6644 74.7301C73.0423 74.7301 72.4776 74.6129 71.9705 74.3786C71.4634 74.1399 71.0607 73.7969 70.7624 73.3494C70.4641 72.8977 70.315 72.3523 70.315 71.7131C70.315 71.1506 70.4258 70.6946 70.6474 70.3452C70.869 69.9915 71.1651 69.7145 71.5359 69.5142C71.9066 69.3139 72.3157 69.1648 72.7631 69.0668C73.2148 68.9645 73.6687 68.8835 74.1246 68.8239C74.7212 68.7472 75.2049 68.6896 75.5756 68.6513C75.9506 68.6087 76.2234 68.5384 76.3938 68.4403C76.5685 68.3423 76.6559 68.1719 76.6559 67.929V67.8778C76.6559 67.2472 76.4833 66.7571 76.1381 66.4077C75.7972 66.0582 75.2795 65.8835 74.5849 65.8835C73.8647 65.8835 73.3001 66.0412 72.891 66.3565C72.4819 66.6719 72.1942 67.0085 72.0281 67.3665L70.5962 66.8551C70.8519 66.2585 71.1928 65.794 71.619 65.4616C72.0494 65.125 72.5181 64.8906 73.0252 64.7585C73.5366 64.6222 74.0394 64.554 74.5337 64.554C74.8491 64.554 75.2113 64.5923 75.6204 64.669C76.0337 64.7415 76.4322 64.8928 76.8157 65.1229C77.2035 65.353 77.5252 65.7003 77.7809 66.1648C78.0366 66.6293 78.1644 67.2514 78.1644 68.0312V74.5H76.6559V73.1705H76.5792C76.4769 73.3835 76.3065 73.6115 76.0678 73.8544C75.8292 74.0973 75.5117 74.304 75.1154 74.4744C74.7191 74.6449 74.2354 74.7301 73.6644 74.7301ZM73.8945 73.375C74.4911 73.375 74.994 73.2578 75.4031 73.0234C75.8164 72.7891 76.1275 72.4865 76.3363 72.1158C76.5494 71.745 76.6559 71.3551 76.6559 70.946V69.5653C76.592 69.642 76.4513 69.7124 76.234 69.7763C76.021 69.8359 75.7738 69.8892 75.4925 69.9361C75.2156 69.9787 74.945 70.017 74.6808 70.0511C74.4208 70.081 74.2099 70.1065 74.0479 70.1278C73.6559 70.179 73.2894 70.2621 72.9485 70.3771C72.6119 70.4879 72.3391 70.6562 72.1303 70.8821C71.9258 71.1037 71.8235 71.4062 71.8235 71.7898C71.8235 72.3139 72.0174 72.7102 72.4052 72.9787C72.7972 73.2429 73.2937 73.375 73.8945 73.375ZM80.9178 78.1818V64.6818H82.3752V66.2415H82.5542C82.665 66.071 82.8184 65.8537 83.0144 65.5895C83.2147 65.321 83.5002 65.0824 83.8709 64.8736C84.2459 64.6605 84.753 64.554 85.3922 64.554C86.2189 64.554 86.9476 64.7607 87.5783 65.174C88.209 65.5874 88.7012 66.1733 89.0549 66.9318C89.4086 67.6903 89.5854 68.5852 89.5854 69.6165C89.5854 70.6562 89.4086 71.5575 89.0549 72.3203C88.7012 73.0788 88.2111 73.6669 87.5847 74.0845C86.9583 74.4979 86.236 74.7045 85.4178 74.7045C84.7871 74.7045 84.2821 74.6001 83.9029 74.3913C83.5236 74.1783 83.2317 73.9375 83.0272 73.669C82.8226 73.3963 82.665 73.1705 82.5542 72.9915H82.4263V78.1818H80.9178ZM82.4007 69.5909C82.4007 70.3324 82.5094 70.9865 82.7267 71.5533C82.9441 72.1158 83.2615 72.5568 83.6792 72.8764C84.0968 73.1918 84.6081 73.3494 85.2132 73.3494C85.8439 73.3494 86.3702 73.1832 86.7921 72.8509C87.2182 72.5142 87.5378 72.0625 87.7509 71.4957C87.9682 70.9247 88.0769 70.2898 88.0769 69.5909C88.0769 68.9006 87.9703 68.2784 87.7573 67.7244C87.5485 67.1662 87.231 66.7251 86.8049 66.4013C86.383 66.0732 85.8525 65.9091 85.2132 65.9091C84.5996 65.9091 84.084 66.0646 83.6664 66.3757C83.2488 66.6825 82.9334 67.1129 82.7203 67.6669C82.5073 68.2166 82.4007 68.858 82.4007 69.5909ZM96.003 74.7045C95.057 74.7045 94.2409 74.4957 93.5549 74.0781C92.873 73.6562 92.3468 73.0682 91.976 72.3139C91.6096 71.5554 91.4263 70.6733 91.4263 69.6676C91.4263 68.6619 91.6096 67.7756 91.976 67.0085C92.3468 66.2372 92.8624 65.6364 93.5229 65.206C94.1877 64.7713 94.9632 64.554 95.8496 64.554C96.361 64.554 96.8659 64.6392 97.3645 64.8097C97.8631 64.9801 98.3169 65.2571 98.726 65.6406C99.1351 66.0199 99.4611 66.5227 99.704 67.1491C99.9469 67.7756 100.068 68.5469 100.068 69.4631V70.1023H92.5002V68.7983H98.5343C98.5343 68.2443 98.4235 67.75 98.2019 67.3153C97.9846 66.8807 97.6735 66.5376 97.2686 66.2862C96.8681 66.0348 96.3951 65.9091 95.8496 65.9091C95.2488 65.9091 94.7289 66.0582 94.29 66.3565C93.8553 66.6506 93.5208 67.0341 93.2864 67.5071C93.052 67.9801 92.9348 68.4872 92.9348 69.0284V69.8977C92.9348 70.6392 93.0627 71.2678 93.3184 71.7834C93.5783 72.2947 93.9384 72.6847 94.3986 72.9531C94.8588 73.2173 95.3936 73.3494 96.003 73.3494C96.3993 73.3494 96.7573 73.294 97.0769 73.1832C97.4007 73.0682 97.6799 72.8977 97.9142 72.6719C98.1486 72.4418 98.3297 72.1562 98.4576 71.8153L99.915 72.2244C99.7615 72.7188 99.5037 73.1534 99.1415 73.5284C98.7793 73.8991 98.3319 74.1889 97.7992 74.3977C97.2665 74.6023 96.6678 74.7045 96.003 74.7045ZM106.352 77.8494V61.4091H107.86V77.8494H106.352ZM106.352 74.7045C105.687 74.7045 105.082 74.5852 104.536 74.3466C103.991 74.1037 103.522 73.7607 103.13 73.3175C102.738 72.87 102.436 72.3352 102.222 71.7131C102.009 71.0909 101.903 70.4006 101.903 69.642C101.903 68.875 102.009 68.1804 102.222 67.5582C102.436 66.9318 102.738 66.3949 103.13 65.9474C103.522 65.5 103.991 65.157 104.536 64.9183C105.082 64.6754 105.687 64.554 106.352 64.554H106.812V74.7045H106.352ZM106.352 73.3494H106.607V65.9091H106.352C105.849 65.9091 105.412 66.0114 105.041 66.2159C104.671 66.4162 104.364 66.6911 104.121 67.0405C103.882 67.3857 103.703 67.782 103.584 68.2294C103.469 68.6768 103.411 69.1477 103.411 69.642C103.411 70.2983 103.516 70.9077 103.725 71.4702C103.933 72.0327 104.255 72.4865 104.69 72.8317C105.124 73.1768 105.678 73.3494 106.352 73.3494ZM107.86 74.7045H107.4V64.554H107.86C108.525 64.554 109.13 64.6754 109.676 64.9183C110.221 65.157 110.69 65.5 111.082 65.9474C111.474 66.3949 111.776 66.9318 111.99 67.5582C112.203 68.1804 112.309 68.875 112.309 69.642C112.309 70.4006 112.203 71.0909 111.99 71.7131C111.776 72.3352 111.474 72.87 111.082 73.3175C110.69 73.7607 110.221 74.1037 109.676 74.3466C109.13 74.5852 108.525 74.7045 107.86 74.7045ZM107.86 73.3494C108.367 73.3494 108.804 73.2514 109.171 73.0554C109.541 72.8551 109.846 72.5824 110.085 72.2372C110.328 71.8878 110.507 71.4915 110.622 71.0483C110.741 70.6009 110.801 70.1321 110.801 69.642C110.801 68.9858 110.696 68.3743 110.487 67.8075C110.279 67.2408 109.957 66.7827 109.522 66.4332C109.088 66.0838 108.534 65.9091 107.86 65.9091H107.605V73.3494H107.86ZM118.732 74.7045C117.786 74.7045 116.969 74.4957 116.283 74.0781C115.602 73.6562 115.075 73.0682 114.705 72.3139C114.338 71.5554 114.155 70.6733 114.155 69.6676C114.155 68.6619 114.338 67.7756 114.705 67.0085C115.075 66.2372 115.591 65.6364 116.251 65.206C116.916 64.7713 117.692 64.554 118.578 64.554C119.089 64.554 119.594 64.6392 120.093 64.8097C120.592 64.9801 121.045 65.2571 121.455 65.6406C121.864 66.0199 122.19 66.5227 122.433 67.1491C122.675 67.7756 122.797 68.5469 122.797 69.4631V70.1023H115.229V68.7983H121.263C121.263 68.2443 121.152 67.75 120.93 67.3153C120.713 66.8807 120.402 66.5376 119.997 66.2862C119.597 66.0348 119.124 65.9091 118.578 65.9091C117.977 65.9091 117.457 66.0582 117.018 66.3565C116.584 66.6506 116.249 67.0341 116.015 67.5071C115.781 67.9801 115.663 68.4872 115.663 69.0284V69.8977C115.663 70.6392 115.791 71.2678 116.047 71.7834C116.307 72.2947 116.667 72.6847 117.127 72.9531C117.587 73.2173 118.122 73.3494 118.732 73.3494C119.128 73.3494 119.486 73.294 119.805 73.1832C120.129 73.0682 120.408 72.8977 120.643 72.6719C120.877 72.4418 121.058 72.1562 121.186 71.8153L122.643 72.2244C122.49 72.7188 122.232 73.1534 121.87 73.5284C121.508 73.8991 121.06 74.1889 120.528 74.3977C119.995 74.6023 119.396 74.7045 118.732 74.7045ZM125.092 78.1818V64.6818H126.549V66.2415H126.728C126.839 66.071 126.992 65.8537 127.188 65.5895C127.388 65.321 127.674 65.0824 128.045 64.8736C128.42 64.6605 128.927 64.554 129.566 64.554C130.393 64.554 131.121 64.7607 131.752 65.174C132.383 65.5874 132.875 66.1733 133.229 66.9318C133.582 67.6903 133.759 68.5852 133.759 69.6165C133.759 70.6562 133.582 71.5575 133.229 72.3203C132.875 73.0788 132.385 73.6669 131.759 74.0845C131.132 74.4979 130.41 74.7045 129.592 74.7045C128.961 74.7045 128.456 74.6001 128.077 74.3913C127.697 74.1783 127.406 73.9375 127.201 73.669C126.996 73.3963 126.839 73.1705 126.728 72.9915H126.6V78.1818H125.092ZM126.575 69.5909C126.575 70.3324 126.683 70.9865 126.901 71.5533C127.118 72.1158 127.435 72.5568 127.853 72.8764C128.271 73.1918 128.782 73.3494 129.387 73.3494C130.018 73.3494 130.544 73.1832 130.966 72.8509C131.392 72.5142 131.712 72.0625 131.925 71.4957C132.142 70.9247 132.251 70.2898 132.251 69.5909C132.251 68.9006 132.144 68.2784 131.931 67.7244C131.722 67.1662 131.405 66.7251 130.979 66.4013C130.557 66.0732 130.026 65.9091 129.387 65.9091C128.773 65.9091 128.258 66.0646 127.84 66.3757C127.423 66.6825 127.107 67.1129 126.894 67.6669C126.681 68.2166 126.575 68.858 126.575 69.5909ZM138.95 74.7301C138.327 74.7301 137.763 74.6129 137.256 74.3786C136.749 74.1399 136.346 73.7969 136.048 73.3494C135.749 72.8977 135.6 72.3523 135.6 71.7131C135.6 71.1506 135.711 70.6946 135.933 70.3452C136.154 69.9915 136.45 69.7145 136.821 69.5142C137.192 69.3139 137.601 69.1648 138.048 69.0668C138.5 68.9645 138.954 68.8835 139.41 68.8239C140.006 68.7472 140.49 68.6896 140.861 68.6513C141.236 68.6087 141.509 68.5384 141.679 68.4403C141.854 68.3423 141.941 68.1719 141.941 67.929V67.8778C141.941 67.2472 141.768 66.7571 141.423 66.4077C141.082 66.0582 140.565 65.8835 139.87 65.8835C139.15 65.8835 138.585 66.0412 138.176 66.3565C137.767 66.6719 137.479 67.0085 137.313 67.3665L135.881 66.8551C136.137 66.2585 136.478 65.794 136.904 65.4616C137.335 65.125 137.803 64.8906 138.31 64.7585C138.822 64.6222 139.325 64.554 139.819 64.554C140.134 64.554 140.496 64.5923 140.906 64.669C141.319 64.7415 141.717 64.8928 142.101 65.1229C142.489 65.353 142.81 65.7003 143.066 66.1648C143.322 66.6293 143.45 67.2514 143.45 68.0312V74.5H141.941V73.1705H141.864C141.762 73.3835 141.592 73.6115 141.353 73.8544C141.114 74.0973 140.797 74.304 140.401 74.4744C140.004 74.6449 139.521 74.7301 138.95 74.7301ZM139.18 73.375C139.776 73.375 140.279 73.2578 140.688 73.0234C141.102 72.7891 141.413 72.4865 141.621 72.1158C141.835 71.745 141.941 71.3551 141.941 70.946V69.5653C141.877 69.642 141.737 69.7124 141.519 69.7763C141.306 69.8359 141.059 69.8892 140.778 69.9361C140.501 69.9787 140.23 70.017 139.966 70.0511C139.706 70.081 139.495 70.1065 139.333 70.1278C138.941 70.179 138.575 70.2621 138.234 70.3771C137.897 70.4879 137.624 70.6562 137.415 70.8821C137.211 71.1037 137.109 71.4062 137.109 71.7898C137.109 72.3139 137.303 72.7102 137.69 72.9787C138.082 73.2429 138.579 73.375 139.18 73.375ZM145.334 74.5V73.0938H145.692C145.986 73.0938 146.231 73.0362 146.427 72.9212C146.623 72.8018 146.78 72.5952 146.9 72.3011C147.023 72.0028 147.117 71.5895 147.181 71.0611C147.249 70.5284 147.298 69.8509 147.328 69.0284L147.507 64.6818H154.052V74.5H152.544V66.0881H148.939L148.785 69.5909C148.751 70.3963 148.679 71.1058 148.568 71.7195C148.461 72.3288 148.297 72.8402 148.076 73.2536C147.858 73.6669 147.569 73.978 147.206 74.1868C146.844 74.3956 146.39 74.5 145.845 74.5H145.334ZM158.329 72.2756L163.059 64.6818H164.797V74.5H163.289V66.9062L158.584 74.5H156.82V64.6818H158.329V72.2756ZM166.224 66.0881V64.6818H174.202V66.0881H170.98V74.5H169.472V66.0881H166.224ZM177.706 68.2358H180.519C181.669 68.2358 182.549 68.5277 183.159 69.1115C183.768 69.6953 184.073 70.4347 184.073 71.3295C184.073 71.9176 183.936 72.4524 183.664 72.9339C183.391 73.4112 182.99 73.7926 182.462 74.0781C181.933 74.3594 181.286 74.5 180.519 74.5H176.402V64.6818H177.911V73.0938H180.519C181.115 73.0938 181.605 72.9361 181.989 72.6207C182.372 72.3054 182.564 71.9006 182.564 71.4062C182.564 70.8864 182.372 70.4624 181.989 70.1342C181.605 69.8061 181.115 69.642 180.519 69.642H177.706V68.2358ZM191.431 74.5V64.6818H195.446C196.502 64.6818 197.342 64.9205 197.964 65.3977C198.586 65.875 198.897 66.5057 198.897 67.2898C198.897 67.8864 198.721 68.3487 198.367 68.6768C198.013 69.0007 197.559 69.2202 197.005 69.3352C197.368 69.3864 197.719 69.5142 198.06 69.7188C198.405 69.9233 198.691 70.2045 198.917 70.5625C199.142 70.9162 199.255 71.3509 199.255 71.8665C199.255 72.3693 199.127 72.8189 198.872 73.2152C198.616 73.6115 198.25 73.9247 197.772 74.1548C197.295 74.3849 196.724 74.5 196.059 74.5H191.431ZM192.863 73.1193H196.059C196.579 73.1193 196.986 72.9957 197.28 72.7486C197.574 72.5014 197.721 72.1648 197.721 71.7386C197.721 71.2315 197.574 70.8331 197.28 70.5433C196.986 70.2493 196.579 70.1023 196.059 70.1023H192.863V73.1193ZM192.863 68.7983H195.446C195.85 68.7983 196.198 68.7429 196.488 68.6321C196.777 68.517 196.999 68.3551 197.152 68.1463C197.31 67.9332 197.389 67.6818 197.389 67.392C197.389 66.9787 197.216 66.6548 196.871 66.4205C196.526 66.1818 196.051 66.0625 195.446 66.0625H192.863V68.7983ZM207.573 61.4091L210.948 66.8551H211.05L214.425 61.4091H216.292L212.175 67.9545L216.292 74.5H214.425L211.05 69.1562H210.948L207.573 74.5H205.706L209.925 67.9545L205.706 61.4091H207.573ZM220.119 70.8182V70.7415C220.127 69.9276 220.213 69.2798 220.375 68.7983C220.537 68.3168 220.767 67.9268 221.065 67.6286C221.363 67.3303 221.721 67.0554 222.139 66.804C222.39 66.6506 222.616 66.4695 222.816 66.2607C223.017 66.0476 223.174 65.8026 223.289 65.5256C223.409 65.2486 223.468 64.9418 223.468 64.6051C223.468 64.1875 223.37 63.8253 223.174 63.5185C222.978 63.2116 222.716 62.9751 222.388 62.8089C222.06 62.6428 221.696 62.5597 221.295 62.5597C220.946 62.5597 220.609 62.6321 220.285 62.777C219.961 62.9219 219.691 63.1499 219.473 63.4609C219.256 63.772 219.13 64.179 219.096 64.6818H217.485C217.52 63.9574 217.707 63.3374 218.048 62.8217C218.393 62.3061 218.847 61.9119 219.409 61.6392C219.976 61.3665 220.605 61.2301 221.295 61.2301C222.045 61.2301 222.697 61.3793 223.251 61.6776C223.809 61.9759 224.24 62.3849 224.542 62.9048C224.849 63.4247 225.002 64.017 225.002 64.6818C225.002 65.1506 224.93 65.5746 224.785 65.9538C224.645 66.3331 224.44 66.6719 224.172 66.9702C223.907 67.2685 223.588 67.5327 223.213 67.7628C222.838 67.9972 222.537 68.2443 222.311 68.5043C222.086 68.7599 221.922 69.0646 221.819 69.4183C221.717 69.772 221.662 70.2131 221.653 70.7415V70.8182H220.119ZM220.937 74.6023C220.622 74.6023 220.351 74.4893 220.125 74.2635C219.9 74.0376 219.787 73.767 219.787 73.4517C219.787 73.1364 219.9 72.8658 220.125 72.6399C220.351 72.4141 220.622 72.3011 220.937 72.3011C221.252 72.3011 221.523 72.4141 221.749 72.6399C221.975 72.8658 222.088 73.1364 222.088 73.4517C222.088 73.6605 222.034 73.8523 221.928 74.027C221.826 74.2017 221.687 74.3423 221.512 74.4489C221.342 74.5511 221.15 74.6023 220.937 74.6023Z" fill="#43D18C"/>
</g>
<g filter="url(#filter1_d_383_54)">
<rect x="235.5" y="106.5" width="197" height="60" rx="15" fill="#43D18C" fill-opacity="0.05"/>
<rect x="235.5" y="106.5" width="197" height="60" rx="15" stroke="#43D18C"/>
<path d="M268.131 125.955C268.131 127.335 267.881 128.528 267.383 129.534C266.884 130.54 266.2 131.315 265.331 131.861C264.462 132.406 263.469 132.679 262.352 132.679C261.236 132.679 260.243 132.406 259.374 131.861C258.504 131.315 257.82 130.54 257.322 129.534C256.823 128.528 256.574 127.335 256.574 125.955C256.574 124.574 256.823 123.381 257.322 122.375C257.82 121.369 258.504 120.594 259.374 120.048C260.243 119.503 261.236 119.23 262.352 119.23C263.469 119.23 264.462 119.503 265.331 120.048C266.2 120.594 266.884 121.369 267.383 122.375C267.881 123.381 268.131 124.574 268.131 125.955ZM266.597 125.955C266.597 124.821 266.407 123.864 266.028 123.085C265.653 122.305 265.143 121.714 264.5 121.314C263.861 120.913 263.145 120.713 262.352 120.713C261.56 120.713 260.842 120.913 260.198 121.314C259.559 121.714 259.05 122.305 258.67 123.085C258.295 123.864 258.108 124.821 258.108 125.955C258.108 127.088 258.295 128.045 258.67 128.825C259.05 129.604 259.559 130.195 260.198 130.595C260.842 130.996 261.56 131.196 262.352 131.196C263.145 131.196 263.861 130.996 264.5 130.595C265.143 130.195 265.653 129.604 266.028 128.825C266.407 128.045 266.597 127.088 266.597 125.955ZM276.651 122.682V124.088H272.1V132.5H270.592V122.682H276.651ZM282.332 132.705C281.446 132.705 280.668 132.494 279.999 132.072C279.334 131.65 278.814 131.06 278.439 130.301C278.069 129.543 277.883 128.656 277.883 127.642C277.883 126.619 278.069 125.727 278.439 124.964C278.814 124.201 279.334 123.609 279.999 123.187C280.668 122.765 281.446 122.554 282.332 122.554C283.219 122.554 283.994 122.765 284.659 123.187C285.328 123.609 285.848 124.201 286.219 124.964C286.594 125.727 286.781 126.619 286.781 127.642C286.781 128.656 286.594 129.543 286.219 130.301C285.848 131.06 285.328 131.65 284.659 132.072C283.994 132.494 283.219 132.705 282.332 132.705ZM282.332 131.349C283.006 131.349 283.559 131.177 283.994 130.832C284.429 130.487 284.751 130.033 284.959 129.47C285.168 128.908 285.273 128.298 285.273 127.642C285.273 126.986 285.168 126.374 284.959 125.808C284.751 125.241 284.429 124.783 283.994 124.433C283.559 124.084 283.006 123.909 282.332 123.909C281.659 123.909 281.105 124.084 280.67 124.433C280.236 124.783 279.914 125.241 279.705 125.808C279.496 126.374 279.392 126.986 279.392 127.642C279.392 128.298 279.496 128.908 279.705 129.47C279.914 130.033 280.236 130.487 280.67 130.832C281.105 131.177 281.659 131.349 282.332 131.349ZM295.655 126.901V128.307H290.234V126.901H295.655ZM290.592 122.682V132.5H289.084V122.682H290.592ZM296.805 122.682V132.5H295.297V122.682H296.805ZM300.864 126.236H303.677C304.827 126.236 305.707 126.528 306.317 127.112C306.926 127.695 307.231 128.435 307.231 129.33C307.231 129.918 307.094 130.452 306.822 130.934C306.549 131.411 306.148 131.793 305.62 132.078C305.092 132.359 304.444 132.5 303.677 132.5H299.56V122.682H301.069V131.094H303.677C304.273 131.094 304.763 130.936 305.147 130.621C305.531 130.305 305.722 129.901 305.722 129.406C305.722 128.886 305.531 128.462 305.147 128.134C304.763 127.806 304.273 127.642 303.677 127.642H300.864V126.236ZM314.59 136.182V122.682H316.047V124.241H316.226C316.337 124.071 316.49 123.854 316.686 123.589C316.887 123.321 317.172 123.082 317.543 122.874C317.918 122.661 318.425 122.554 319.064 122.554C319.891 122.554 320.619 122.761 321.25 123.174C321.881 123.587 322.373 124.173 322.727 124.932C323.08 125.69 323.257 126.585 323.257 127.616C323.257 128.656 323.08 129.558 322.727 130.32C322.373 131.079 321.883 131.667 321.257 132.085C320.63 132.498 319.908 132.705 319.09 132.705C318.459 132.705 317.954 132.6 317.575 132.391C317.195 132.178 316.904 131.937 316.699 131.669C316.494 131.396 316.337 131.17 316.226 130.991H316.098V136.182H314.59ZM316.073 127.591C316.073 128.332 316.181 128.987 316.399 129.553C316.616 130.116 316.933 130.557 317.351 130.876C317.769 131.192 318.28 131.349 318.885 131.349C319.516 131.349 320.042 131.183 320.464 130.851C320.89 130.514 321.21 130.062 321.423 129.496C321.64 128.925 321.749 128.29 321.749 127.591C321.749 126.901 321.642 126.278 321.429 125.724C321.22 125.166 320.903 124.725 320.477 124.401C320.055 124.073 319.524 123.909 318.885 123.909C318.271 123.909 317.756 124.065 317.338 124.376C316.921 124.683 316.605 125.113 316.392 125.667C316.179 126.217 316.073 126.858 316.073 127.591ZM329.675 132.705C328.729 132.705 327.913 132.496 327.227 132.078C326.545 131.656 326.019 131.068 325.648 130.314C325.281 129.555 325.098 128.673 325.098 127.668C325.098 126.662 325.281 125.776 325.648 125.009C326.019 124.237 326.534 123.636 327.195 123.206C327.86 122.771 328.635 122.554 329.521 122.554C330.033 122.554 330.538 122.639 331.036 122.81C331.535 122.98 331.989 123.257 332.398 123.641C332.807 124.02 333.133 124.523 333.376 125.149C333.619 125.776 333.74 126.547 333.74 127.463V128.102H326.172V126.798H332.206C332.206 126.244 332.095 125.75 331.874 125.315C331.656 124.881 331.345 124.538 330.941 124.286C330.54 124.035 330.067 123.909 329.521 123.909C328.921 123.909 328.401 124.058 327.962 124.357C327.527 124.651 327.193 125.034 326.958 125.507C326.724 125.98 326.607 126.487 326.607 127.028V127.898C326.607 128.639 326.735 129.268 326.99 129.783C327.25 130.295 327.61 130.685 328.07 130.953C328.531 131.217 329.066 131.349 329.675 131.349C330.071 131.349 330.429 131.294 330.749 131.183C331.073 131.068 331.352 130.898 331.586 130.672C331.82 130.442 332.002 130.156 332.129 129.815L333.587 130.224C333.433 130.719 333.176 131.153 332.813 131.528C332.451 131.899 332.004 132.189 331.471 132.398C330.938 132.602 330.34 132.705 329.675 132.705ZM335.421 129.994H337.032C337.066 130.437 337.267 130.774 337.633 131.004C338.004 131.234 338.485 131.349 339.078 131.349C339.683 131.349 340.2 131.226 340.631 130.979C341.061 130.727 341.276 130.322 341.276 129.764C341.276 129.436 341.195 129.151 341.034 128.908C340.872 128.661 340.644 128.469 340.35 128.332C340.056 128.196 339.708 128.128 339.308 128.128H337.62V126.773H339.308C339.909 126.773 340.352 126.636 340.637 126.364C340.927 126.091 341.072 125.75 341.072 125.341C341.072 124.902 340.916 124.55 340.605 124.286C340.294 124.018 339.853 123.884 339.282 123.884C338.707 123.884 338.227 124.013 337.844 124.273C337.46 124.529 337.258 124.859 337.237 125.264H335.651C335.669 124.736 335.83 124.269 336.137 123.864C336.444 123.455 336.862 123.136 337.39 122.906C337.919 122.671 338.524 122.554 339.205 122.554C339.896 122.554 340.494 122.675 341.002 122.918C341.513 123.157 341.907 123.483 342.184 123.896C342.465 124.305 342.606 124.77 342.606 125.29C342.606 125.844 342.45 126.291 342.139 126.632C341.828 126.973 341.438 127.216 340.97 127.361V127.463C341.34 127.489 341.662 127.608 341.935 127.821C342.212 128.03 342.427 128.305 342.58 128.646C342.734 128.982 342.811 129.355 342.811 129.764C342.811 130.361 342.651 130.881 342.331 131.324C342.012 131.763 341.573 132.104 341.014 132.347C340.456 132.585 339.819 132.705 339.103 132.705C338.409 132.705 337.786 132.592 337.237 132.366C336.687 132.136 336.25 131.818 335.926 131.413C335.607 131.004 335.438 130.531 335.421 129.994ZM349.634 126.977V128.384H344.444V126.977H349.634ZM345.722 122.682V132.5H344.214V122.682H345.722ZM352.651 132.705C351.765 132.705 350.987 132.494 350.318 132.072C349.653 131.65 349.133 131.06 348.758 130.301C348.388 129.543 348.202 128.656 348.202 127.642C348.202 126.619 348.388 125.727 348.758 124.964C349.133 124.201 349.653 123.609 350.318 123.187C350.987 122.765 351.765 122.554 352.651 122.554C353.537 122.554 354.313 122.765 354.978 123.187C355.647 123.609 356.167 124.201 356.537 124.964C356.912 125.727 357.1 126.619 357.1 127.642C357.1 128.656 356.912 129.543 356.537 130.301C356.167 131.06 355.647 131.65 354.978 132.072C354.313 132.494 353.537 132.705 352.651 132.705ZM352.651 131.349C353.324 131.349 353.878 131.177 354.313 130.832C354.748 130.487 355.069 130.033 355.278 129.47C355.487 128.908 355.591 128.298 355.591 127.642C355.591 126.986 355.487 126.374 355.278 125.808C355.069 125.241 354.748 124.783 354.313 124.433C353.878 124.084 353.324 123.909 352.651 123.909C351.978 123.909 351.424 124.084 350.989 124.433C350.555 124.783 350.233 125.241 350.024 125.808C349.815 126.374 349.711 126.986 349.711 127.642C349.711 128.298 349.815 128.908 350.024 129.47C350.233 130.033 350.555 130.487 350.989 130.832C351.424 131.177 351.978 131.349 352.651 131.349ZM364.924 130.455L368.35 122.682H369.782L365.537 132.5H364.31L360.143 122.682H361.549L364.924 130.455ZM361.063 122.682V132.5H359.555V122.682H361.063ZM368.785 132.5V122.682H370.293V132.5H368.785ZM377.171 132.705C376.225 132.705 375.409 132.496 374.723 132.078C374.041 131.656 373.515 131.068 373.144 130.314C372.778 129.555 372.594 128.673 372.594 127.668C372.594 126.662 372.778 125.776 373.144 125.009C373.515 124.237 374.03 123.636 374.691 123.206C375.356 122.771 376.131 122.554 377.018 122.554C377.529 122.554 378.034 122.639 378.532 122.81C379.031 122.98 379.485 123.257 379.894 123.641C380.303 124.02 380.629 124.523 380.872 125.149C381.115 125.776 381.236 126.547 381.236 127.463V128.102H373.668V126.798H379.702C379.702 126.244 379.591 125.75 379.37 125.315C379.153 124.881 378.841 124.538 378.437 124.286C378.036 124.035 377.563 123.909 377.018 123.909C376.417 123.909 375.897 124.058 375.458 124.357C375.023 124.651 374.689 125.034 374.454 125.507C374.22 125.98 374.103 126.487 374.103 127.028V127.898C374.103 128.639 374.231 129.268 374.486 129.783C374.746 130.295 375.106 130.685 375.567 130.953C376.027 131.217 376.562 131.349 377.171 131.349C377.567 131.349 377.925 131.294 378.245 131.183C378.569 131.068 378.848 130.898 379.082 130.672C379.317 130.442 379.498 130.156 379.626 129.815L381.083 130.224C380.93 130.719 380.672 131.153 380.309 131.528C379.947 131.899 379.5 132.189 378.967 132.398C378.434 132.602 377.836 132.705 377.171 132.705ZM385.525 119.409L385.398 128.818H383.915L383.787 119.409H385.525ZM384.656 132.602C384.341 132.602 384.07 132.489 383.844 132.263C383.618 132.038 383.506 131.767 383.506 131.452C383.506 131.136 383.618 130.866 383.844 130.64C384.07 130.414 384.341 130.301 384.656 130.301C384.971 130.301 385.242 130.414 385.468 130.64C385.694 130.866 385.807 131.136 385.807 131.452C385.807 131.661 385.753 131.852 385.647 132.027C385.545 132.202 385.406 132.342 385.231 132.449C385.061 132.551 384.869 132.602 384.656 132.602ZM257.085 154.5V141.409H261.662C262.574 141.409 263.326 141.567 263.918 141.882C264.511 142.193 264.952 142.613 265.241 143.141C265.531 143.665 265.676 144.247 265.676 144.886C265.676 145.449 265.576 145.913 265.376 146.28C265.18 146.646 264.92 146.936 264.596 147.149C264.276 147.362 263.929 147.52 263.554 147.622V147.75C263.955 147.776 264.357 147.916 264.762 148.172C265.167 148.428 265.506 148.794 265.778 149.271C266.051 149.749 266.188 150.332 266.188 151.023C266.188 151.679 266.038 152.269 265.74 152.793C265.442 153.317 264.971 153.733 264.327 154.04C263.684 154.347 262.847 154.5 261.815 154.5H257.085ZM258.67 153.094H261.815C262.851 153.094 263.586 152.893 264.021 152.493C264.46 152.088 264.679 151.598 264.679 151.023C264.679 150.58 264.566 150.17 264.34 149.795C264.114 149.416 263.793 149.114 263.375 148.888C262.957 148.658 262.463 148.543 261.892 148.543H258.67V153.094ZM258.67 147.162H261.611C262.088 147.162 262.518 147.068 262.902 146.881C263.29 146.693 263.597 146.429 263.822 146.088C264.053 145.747 264.168 145.347 264.168 144.886C264.168 144.311 263.967 143.823 263.567 143.423C263.166 143.018 262.531 142.815 261.662 142.815H258.67V147.162ZM269.892 148.236H272.704C273.855 148.236 274.735 148.528 275.344 149.112C275.953 149.695 276.258 150.435 276.258 151.33C276.258 151.918 276.122 152.452 275.849 152.934C275.576 153.411 275.176 153.793 274.647 154.078C274.119 154.359 273.471 154.5 272.704 154.5H268.588V144.682H270.096V153.094H272.704C273.301 153.094 273.791 152.936 274.174 152.621C274.558 152.305 274.75 151.901 274.75 151.406C274.75 150.886 274.558 150.462 274.174 150.134C273.791 149.806 273.301 149.642 272.704 149.642H269.892V148.236ZM277.818 154.5V144.682H279.326V154.5H277.818ZM286.076 154.705C285.156 154.705 284.363 154.487 283.699 154.053C283.034 153.618 282.522 153.019 282.164 152.256C281.806 151.494 281.627 150.622 281.627 149.642C281.627 148.645 281.811 147.765 282.177 147.002C282.548 146.235 283.064 145.636 283.724 145.206C284.389 144.771 285.164 144.554 286.051 144.554C286.741 144.554 287.363 144.682 287.917 144.938C288.471 145.193 288.925 145.551 289.279 146.011C289.632 146.472 289.852 147.009 289.937 147.622H288.429C288.314 147.175 288.058 146.778 287.662 146.433C287.27 146.084 286.741 145.909 286.076 145.909C285.488 145.909 284.973 146.062 284.529 146.369C284.091 146.672 283.748 147.1 283.5 147.654C283.257 148.204 283.136 148.849 283.136 149.591C283.136 150.349 283.255 151.01 283.494 151.572C283.737 152.135 284.078 152.572 284.517 152.883C284.96 153.194 285.48 153.349 286.076 153.349C286.468 153.349 286.824 153.281 287.144 153.145C287.463 153.009 287.734 152.812 287.956 152.557C288.177 152.301 288.335 151.994 288.429 151.636H289.937C289.852 152.216 289.641 152.738 289.304 153.202C288.972 153.663 288.531 154.029 287.981 154.302C287.436 154.57 286.801 154.705 286.076 154.705ZM291.273 154.5V153.094H291.631C291.925 153.094 292.17 153.036 292.366 152.921C292.562 152.802 292.72 152.595 292.839 152.301C292.963 152.003 293.056 151.589 293.12 151.061C293.189 150.528 293.238 149.851 293.267 149.028L293.446 144.682H299.992V154.5H298.483V146.088H294.878L294.725 149.591C294.691 150.396 294.618 151.106 294.507 151.719C294.401 152.329 294.237 152.84 294.015 153.254C293.798 153.667 293.508 153.978 293.146 154.187C292.784 154.396 292.33 154.5 291.784 154.5H291.273ZM305.649 154.73C305.027 154.73 304.462 154.613 303.955 154.379C303.448 154.14 303.045 153.797 302.747 153.349C302.449 152.898 302.299 152.352 302.299 151.713C302.299 151.151 302.41 150.695 302.632 150.345C302.853 149.991 303.15 149.714 303.52 149.514C303.891 149.314 304.3 149.165 304.748 149.067C305.199 148.964 305.653 148.884 306.109 148.824C306.706 148.747 307.189 148.69 307.56 148.651C307.935 148.609 308.208 148.538 308.378 148.44C308.553 148.342 308.64 148.172 308.64 147.929V147.878C308.64 147.247 308.468 146.757 308.123 146.408C307.782 146.058 307.264 145.884 306.569 145.884C305.849 145.884 305.284 146.041 304.875 146.357C304.466 146.672 304.179 147.009 304.012 147.366L302.581 146.855C302.836 146.259 303.177 145.794 303.603 145.462C304.034 145.125 304.502 144.891 305.01 144.759C305.521 144.622 306.024 144.554 306.518 144.554C306.833 144.554 307.196 144.592 307.605 144.669C308.018 144.741 308.417 144.893 308.8 145.123C309.188 145.353 309.51 145.7 309.765 146.165C310.021 146.629 310.149 147.251 310.149 148.031V154.5H308.64V153.17H308.564C308.461 153.384 308.291 153.612 308.052 153.854C307.814 154.097 307.496 154.304 307.1 154.474C306.703 154.645 306.22 154.73 305.649 154.73ZM305.879 153.375C306.475 153.375 306.978 153.258 307.387 153.023C307.801 152.789 308.112 152.487 308.321 152.116C308.534 151.745 308.64 151.355 308.64 150.946V149.565C308.576 149.642 308.436 149.712 308.218 149.776C308.005 149.836 307.758 149.889 307.477 149.936C307.2 149.979 306.929 150.017 306.665 150.051C306.405 150.081 306.194 150.107 306.032 150.128C305.64 150.179 305.274 150.262 304.933 150.377C304.596 150.488 304.324 150.656 304.115 150.882C303.91 151.104 303.808 151.406 303.808 151.79C303.808 152.314 304.002 152.71 304.39 152.979C304.782 153.243 305.278 153.375 305.879 153.375ZM312.033 154.5V153.094H312.391C312.685 153.094 312.93 153.036 313.126 152.921C313.322 152.802 313.48 152.595 313.599 152.301C313.722 152.003 313.816 151.589 313.88 151.061C313.948 150.528 313.997 149.851 314.027 149.028L314.206 144.682H320.752V154.5H319.243V146.088H315.638L315.485 149.591C315.45 150.396 315.378 151.106 315.267 151.719C315.161 152.329 314.997 152.84 314.775 153.254C314.558 153.667 314.268 153.978 313.906 154.187C313.544 154.396 313.09 154.5 312.544 154.5H312.033ZM332.57 154.705C331.65 154.705 330.857 154.487 330.193 154.053C329.528 153.618 329.017 153.019 328.659 152.256C328.301 151.494 328.122 150.622 328.122 149.642C328.122 148.645 328.305 147.765 328.671 147.002C329.042 146.235 329.558 145.636 330.218 145.206C330.883 144.771 331.659 144.554 332.545 144.554C333.235 144.554 333.857 144.682 334.411 144.938C334.965 145.193 335.419 145.551 335.773 146.011C336.127 146.472 336.346 147.009 336.431 147.622H334.923C334.808 147.175 334.552 146.778 334.156 146.433C333.764 146.084 333.235 145.909 332.57 145.909C331.982 145.909 331.467 146.062 331.024 146.369C330.585 146.672 330.242 147.1 329.994 147.654C329.752 148.204 329.63 148.849 329.63 149.591C329.63 150.349 329.749 151.01 329.988 151.572C330.231 152.135 330.572 152.572 331.011 152.883C331.454 153.194 331.974 153.349 332.57 153.349C332.963 153.349 333.318 153.281 333.638 153.145C333.958 153.009 334.228 152.812 334.45 152.557C334.671 152.301 334.829 151.994 334.923 151.636H336.431C336.346 152.216 336.135 152.738 335.798 153.202C335.466 153.663 335.025 154.029 334.475 154.302C333.93 154.57 333.295 154.705 332.57 154.705ZM338.637 154.5V144.682H342.651C343.708 144.682 344.547 144.92 345.169 145.398C345.791 145.875 346.102 146.506 346.102 147.29C346.102 147.886 345.926 148.349 345.572 148.677C345.218 149.001 344.764 149.22 344.21 149.335C344.573 149.386 344.924 149.514 345.265 149.719C345.61 149.923 345.896 150.205 346.122 150.562C346.347 150.916 346.46 151.351 346.46 151.866C346.46 152.369 346.333 152.819 346.077 153.215C345.821 153.612 345.455 153.925 344.977 154.155C344.5 154.385 343.929 154.5 343.264 154.5H338.637ZM340.068 153.119H343.264C343.784 153.119 344.191 152.996 344.485 152.749C344.779 152.501 344.926 152.165 344.926 151.739C344.926 151.232 344.779 150.833 344.485 150.543C344.191 150.249 343.784 150.102 343.264 150.102H340.068V153.119ZM340.068 148.798H342.651C343.056 148.798 343.403 148.743 343.693 148.632C343.982 148.517 344.204 148.355 344.357 148.146C344.515 147.933 344.594 147.682 344.594 147.392C344.594 146.979 344.421 146.655 344.076 146.42C343.731 146.182 343.256 146.062 342.651 146.062H340.068V148.798ZM352.733 154.705C351.846 154.705 351.069 154.494 350.4 154.072C349.735 153.65 349.215 153.06 348.84 152.301C348.469 151.543 348.284 150.656 348.284 149.642C348.284 148.619 348.469 147.727 348.84 146.964C349.215 146.201 349.735 145.609 350.4 145.187C351.069 144.765 351.846 144.554 352.733 144.554C353.619 144.554 354.395 144.765 355.059 145.187C355.728 145.609 356.248 146.201 356.619 146.964C356.994 147.727 357.181 148.619 357.181 149.642C357.181 150.656 356.994 151.543 356.619 152.301C356.248 153.06 355.728 153.65 355.059 154.072C354.395 154.494 353.619 154.705 352.733 154.705ZM352.733 153.349C353.406 153.349 353.96 153.177 354.395 152.832C354.829 152.487 355.151 152.033 355.36 151.47C355.569 150.908 355.673 150.298 355.673 149.642C355.673 148.986 355.569 148.374 355.36 147.808C355.151 147.241 354.829 146.783 354.395 146.433C353.96 146.084 353.406 145.909 352.733 145.909C352.059 145.909 351.505 146.084 351.071 146.433C350.636 146.783 350.314 147.241 350.105 147.808C349.897 148.374 349.792 148.986 349.792 149.642C349.792 150.298 349.897 150.908 350.105 151.47C350.314 152.033 350.636 152.487 351.071 152.832C351.505 153.177 352.059 153.349 352.733 153.349ZM360.993 152.276L365.723 144.682H367.461V154.5H365.953V146.906L361.248 154.5H359.484V144.682H360.993V152.276ZM375.594 152.455L379.02 144.682H380.452L376.207 154.5H374.98L370.812 144.682H372.219L375.594 152.455ZM371.733 144.682V154.5H370.224V144.682H371.733ZM379.455 154.5V144.682H380.963V154.5H379.455ZM388.991 154.5V141.409H390.577V147.239H397.557V141.409H399.142V154.5H397.557V148.645H390.577V154.5H388.991ZM402.316 154.5V141.409H406.739C407.762 141.409 408.601 141.584 409.257 141.933C409.914 142.278 410.4 142.754 410.715 143.359C411.03 143.964 411.188 144.652 411.188 145.423C411.188 146.195 411.03 146.879 410.715 147.475C410.4 148.072 409.916 148.54 409.264 148.881C408.612 149.218 407.779 149.386 406.765 149.386H403.185V147.955H406.713C407.412 147.955 407.975 147.852 408.401 147.648C408.831 147.443 409.142 147.153 409.334 146.778C409.53 146.399 409.628 145.947 409.628 145.423C409.628 144.899 409.53 144.441 409.334 144.049C409.138 143.657 408.825 143.354 408.395 143.141C407.964 142.924 407.395 142.815 406.688 142.815H403.901V154.5H402.316ZM408.478 148.619L411.699 154.5H409.858L406.688 148.619H408.478Z" fill="#43D18C"/>
</g>
<g filter="url(#filter2_d_383_54)">
<rect x="176.5" y="186.5" width="232" height="60" rx="15" fill="#43D18C" fill-opacity="0.05"/>
<rect x="176.5" y="186.5" width="232" height="60" rx="15" stroke="#43D18C"/>
<path d="M198.085 212.5V199.409H202.662C203.574 199.409 204.326 199.567 204.918 199.882C205.511 200.193 205.952 200.613 206.241 201.141C206.531 201.665 206.676 202.247 206.676 202.886C206.676 203.449 206.576 203.913 206.376 204.28C206.18 204.646 205.92 204.936 205.596 205.149C205.276 205.362 204.929 205.52 204.554 205.622V205.75C204.955 205.776 205.357 205.916 205.762 206.172C206.167 206.428 206.506 206.794 206.778 207.271C207.051 207.749 207.188 208.332 207.188 209.023C207.188 209.679 207.038 210.269 206.74 210.793C206.442 211.317 205.971 211.733 205.327 212.04C204.684 212.347 203.847 212.5 202.815 212.5H198.085ZM199.67 211.094H202.815C203.851 211.094 204.586 210.893 205.021 210.493C205.46 210.088 205.679 209.598 205.679 209.023C205.679 208.58 205.566 208.17 205.34 207.795C205.114 207.416 204.793 207.114 204.375 206.888C203.957 206.658 203.463 206.543 202.892 206.543H199.67V211.094ZM199.67 205.162H202.611C203.088 205.162 203.518 205.068 203.902 204.881C204.29 204.693 204.597 204.429 204.822 204.088C205.053 203.747 205.168 203.347 205.168 202.886C205.168 202.311 204.967 201.823 204.567 201.423C204.166 201.018 203.531 200.815 202.662 200.815H199.67V205.162ZM218.639 212.705C217.718 212.705 216.926 212.487 216.261 212.053C215.596 211.618 215.085 211.019 214.727 210.256C214.369 209.494 214.19 208.622 214.19 207.642C214.19 206.645 214.373 205.765 214.74 205.002C215.11 204.235 215.626 203.636 216.287 203.206C216.951 202.771 217.727 202.554 218.613 202.554C219.304 202.554 219.926 202.682 220.48 202.938C221.034 203.193 221.488 203.551 221.841 204.011C222.195 204.472 222.414 205.009 222.5 205.622H220.991C220.876 205.175 220.62 204.778 220.224 204.433C219.832 204.084 219.304 203.909 218.639 203.909C218.051 203.909 217.535 204.062 217.092 204.369C216.653 204.672 216.31 205.1 216.063 205.654C215.82 206.204 215.699 206.849 215.699 207.591C215.699 208.349 215.818 209.01 216.056 209.572C216.299 210.135 216.64 210.572 217.079 210.883C217.522 211.194 218.042 211.349 218.639 211.349C219.031 211.349 219.387 211.281 219.706 211.145C220.026 211.009 220.297 210.812 220.518 210.557C220.74 210.301 220.897 209.994 220.991 209.636H222.5C222.414 210.216 222.203 210.738 221.867 211.202C221.534 211.663 221.093 212.029 220.544 212.302C219.998 212.57 219.363 212.705 218.639 212.705ZM224.705 212.5V202.682H228.719C229.776 202.682 230.615 202.92 231.238 203.398C231.86 203.875 232.171 204.506 232.171 205.29C232.171 205.886 231.994 206.349 231.64 206.677C231.287 207.001 230.833 207.22 230.279 207.335C230.641 207.386 230.993 207.514 231.333 207.719C231.679 207.923 231.964 208.205 232.19 208.562C232.416 208.916 232.529 209.351 232.529 209.866C232.529 210.369 232.401 210.819 232.145 211.215C231.89 211.612 231.523 211.925 231.046 212.155C230.569 212.385 229.998 212.5 229.333 212.5H224.705ZM226.137 211.119H229.333C229.853 211.119 230.26 210.996 230.554 210.749C230.848 210.501 230.995 210.165 230.995 209.739C230.995 209.232 230.848 208.833 230.554 208.543C230.26 208.249 229.853 208.102 229.333 208.102H226.137V211.119ZM226.137 206.798H228.719C229.124 206.798 229.471 206.743 229.761 206.632C230.051 206.517 230.272 206.355 230.426 206.146C230.583 205.933 230.662 205.682 230.662 205.392C230.662 204.979 230.49 204.655 230.145 204.42C229.799 204.182 229.324 204.062 228.719 204.062H226.137V206.798ZM238.801 212.705C237.915 212.705 237.137 212.494 236.468 212.072C235.803 211.65 235.283 211.06 234.908 210.301C234.537 209.543 234.352 208.656 234.352 207.642C234.352 206.619 234.537 205.727 234.908 204.964C235.283 204.201 235.803 203.609 236.468 203.187C237.137 202.765 237.915 202.554 238.801 202.554C239.687 202.554 240.463 202.765 241.128 203.187C241.797 203.609 242.317 204.201 242.687 204.964C243.062 205.727 243.25 206.619 243.25 207.642C243.25 208.656 243.062 209.543 242.687 210.301C242.317 211.06 241.797 211.65 241.128 212.072C240.463 212.494 239.687 212.705 238.801 212.705ZM238.801 211.349C239.474 211.349 240.028 211.177 240.463 210.832C240.898 210.487 241.219 210.033 241.428 209.47C241.637 208.908 241.741 208.298 241.741 207.642C241.741 206.986 241.637 206.374 241.428 205.808C241.219 205.241 240.898 204.783 240.463 204.433C240.028 204.084 239.474 203.909 238.801 203.909C238.128 203.909 237.574 204.084 237.139 204.433C236.704 204.783 236.383 205.241 236.174 205.808C235.965 206.374 235.861 206.986 235.861 207.642C235.861 208.298 235.965 208.908 236.174 209.47C236.383 210.033 236.704 210.487 237.139 210.832C237.574 211.177 238.128 211.349 238.801 211.349ZM250.257 206.977V208.384H245.067V206.977H250.257ZM246.345 202.682V212.5H244.837V202.682H246.345ZM253.274 212.705C252.388 212.705 251.61 212.494 250.941 212.072C250.276 211.65 249.756 211.06 249.381 210.301C249.011 209.543 248.825 208.656 248.825 207.642C248.825 206.619 249.011 205.727 249.381 204.964C249.756 204.201 250.276 203.609 250.941 203.187C251.61 202.765 252.388 202.554 253.274 202.554C254.161 202.554 254.936 202.765 255.601 203.187C256.27 203.609 256.79 204.201 257.161 204.964C257.536 205.727 257.723 206.619 257.723 207.642C257.723 208.656 257.536 209.543 257.161 210.301C256.79 211.06 256.27 211.65 255.601 212.072C254.936 212.494 254.161 212.705 253.274 212.705ZM253.274 211.349C253.947 211.349 254.501 211.177 254.936 210.832C255.371 210.487 255.692 210.033 255.901 209.47C256.11 208.908 256.214 208.298 256.214 207.642C256.214 206.986 256.11 206.374 255.901 205.808C255.692 205.241 255.371 204.783 254.936 204.433C254.501 204.084 253.947 203.909 253.274 203.909C252.601 203.909 252.047 204.084 251.612 204.433C251.178 204.783 250.856 205.241 250.647 205.808C250.438 206.374 250.334 206.986 250.334 207.642C250.334 208.298 250.438 208.908 250.647 209.47C250.856 210.033 251.178 210.487 251.612 210.832C252.047 211.177 252.601 211.349 253.274 211.349ZM264.678 204.088V202.682H272.655V204.088H269.433V212.5H267.925V204.088H264.678ZM278.334 212.705C277.448 212.705 276.67 212.494 276.001 212.072C275.336 211.65 274.816 211.06 274.441 210.301C274.071 209.543 273.885 208.656 273.885 207.642C273.885 206.619 274.071 205.727 274.441 204.964C274.816 204.201 275.336 203.609 276.001 203.187C276.67 202.765 277.448 202.554 278.334 202.554C279.221 202.554 279.996 202.765 280.661 203.187C281.33 203.609 281.85 204.201 282.221 204.964C282.596 205.727 282.783 206.619 282.783 207.642C282.783 208.656 282.596 209.543 282.221 210.301C281.85 211.06 281.33 211.65 280.661 212.072C279.996 212.494 279.221 212.705 278.334 212.705ZM278.334 211.349C279.007 211.349 279.561 211.177 279.996 210.832C280.431 210.487 280.752 210.033 280.961 209.47C281.17 208.908 281.275 208.298 281.275 207.642C281.275 206.986 281.17 206.374 280.961 205.808C280.752 205.241 280.431 204.783 279.996 204.433C279.561 204.084 279.007 203.909 278.334 203.909C277.661 203.909 277.107 204.084 276.672 204.433C276.238 204.783 275.916 205.241 275.707 205.808C275.498 206.374 275.394 206.986 275.394 207.642C275.394 208.298 275.498 208.908 275.707 209.47C275.916 210.033 276.238 210.487 276.672 210.832C277.107 211.177 277.661 211.349 278.334 211.349ZM284.068 212.5L288.056 207.514L284.119 202.682H285.909L289.181 206.875H290V202.682H291.508V206.875H292.301L295.574 202.682H297.363L293.451 207.514L297.414 212.5H295.599L292.275 208.281H291.508V212.5H290V208.281H289.233L285.883 212.5H284.068ZM303.282 212.705C302.336 212.705 301.52 212.496 300.834 212.078C300.152 211.656 299.626 211.068 299.255 210.314C298.889 209.555 298.706 208.673 298.706 207.668C298.706 206.662 298.889 205.776 299.255 205.009C299.626 204.237 300.142 203.636 300.802 203.206C301.467 202.771 302.243 202.554 303.129 202.554C303.64 202.554 304.145 202.639 304.644 202.81C305.142 202.98 305.596 203.257 306.005 203.641C306.414 204.02 306.74 204.523 306.983 205.149C307.226 205.776 307.348 206.547 307.348 207.463V208.102H299.779V206.798H305.814C305.814 206.244 305.703 205.75 305.481 205.315C305.264 204.881 304.953 204.538 304.548 204.286C304.147 204.035 303.674 203.909 303.129 203.909C302.528 203.909 302.008 204.058 301.569 204.357C301.135 204.651 300.8 205.034 300.566 205.507C300.331 205.98 300.214 206.487 300.214 207.028V207.898C300.214 208.639 300.342 209.268 300.598 209.783C300.858 210.295 301.218 210.685 301.678 210.953C302.138 211.217 302.673 211.349 303.282 211.349C303.679 211.349 304.037 211.294 304.356 211.183C304.68 211.068 304.959 210.898 305.194 210.672C305.428 210.442 305.609 210.156 305.737 209.815L307.194 210.224C307.041 210.719 306.783 211.153 306.421 211.528C306.059 211.899 305.611 212.189 305.078 212.398C304.546 212.602 303.947 212.705 303.282 212.705ZM314.091 209.994H315.702C315.736 210.437 315.936 210.774 316.303 211.004C316.674 211.234 317.155 211.349 317.748 211.349C318.353 211.349 318.87 211.226 319.301 210.979C319.731 210.727 319.946 210.322 319.946 209.764C319.946 209.436 319.865 209.151 319.703 208.908C319.542 208.661 319.314 208.469 319.02 208.332C318.725 208.196 318.378 208.128 317.978 208.128H316.29V206.773H317.978C318.578 206.773 319.022 206.636 319.307 206.364C319.597 206.091 319.742 205.75 319.742 205.341C319.742 204.902 319.586 204.55 319.275 204.286C318.964 204.018 318.523 203.884 317.952 203.884C317.377 203.884 316.897 204.013 316.514 204.273C316.13 204.529 315.928 204.859 315.907 205.264H314.321C314.338 204.736 314.5 204.269 314.807 203.864C315.114 203.455 315.532 203.136 316.06 202.906C316.588 202.671 317.194 202.554 317.875 202.554C318.566 202.554 319.164 202.675 319.672 202.918C320.183 203.157 320.577 203.483 320.854 203.896C321.135 204.305 321.276 204.77 321.276 205.29C321.276 205.844 321.12 206.291 320.809 206.632C320.498 206.973 320.108 207.216 319.64 207.361V207.463C320.01 207.489 320.332 207.608 320.605 207.821C320.882 208.03 321.097 208.305 321.25 208.646C321.404 208.982 321.48 209.355 321.48 209.764C321.48 210.361 321.321 210.881 321.001 211.324C320.681 211.763 320.243 212.104 319.684 212.347C319.126 212.585 318.489 212.705 317.773 212.705C317.078 212.705 316.456 212.592 315.907 212.366C315.357 212.136 314.92 211.818 314.596 211.413C314.277 211.004 314.108 210.531 314.091 209.994ZM326.489 212.73C325.866 212.73 325.302 212.613 324.795 212.379C324.288 212.14 323.885 211.797 323.587 211.349C323.288 210.898 323.139 210.352 323.139 209.713C323.139 209.151 323.25 208.695 323.472 208.345C323.693 207.991 323.989 207.714 324.36 207.514C324.731 207.314 325.14 207.165 325.587 207.067C326.039 206.964 326.493 206.884 326.949 206.824C327.545 206.747 328.029 206.69 328.4 206.651C328.775 206.609 329.048 206.538 329.218 206.44C329.393 206.342 329.48 206.172 329.48 205.929V205.878C329.48 205.247 329.308 204.757 328.962 204.408C328.621 204.058 328.104 203.884 327.409 203.884C326.689 203.884 326.124 204.041 325.715 204.357C325.306 204.672 325.018 205.009 324.852 205.366L323.42 204.855C323.676 204.259 324.017 203.794 324.443 203.462C324.874 203.125 325.342 202.891 325.849 202.759C326.361 202.622 326.864 202.554 327.358 202.554C327.673 202.554 328.036 202.592 328.445 202.669C328.858 202.741 329.256 202.893 329.64 203.123C330.028 203.353 330.349 203.7 330.605 204.165C330.861 204.629 330.989 205.251 330.989 206.031V212.5H329.48V211.17H329.403C329.301 211.384 329.131 211.612 328.892 211.854C328.653 212.097 328.336 212.304 327.94 212.474C327.543 212.645 327.06 212.73 326.489 212.73ZM326.719 211.375C327.315 211.375 327.818 211.258 328.227 211.023C328.641 210.789 328.952 210.487 329.161 210.116C329.374 209.745 329.48 209.355 329.48 208.946V207.565C329.416 207.642 329.276 207.712 329.058 207.776C328.845 207.836 328.598 207.889 328.317 207.936C328.04 207.979 327.769 208.017 327.505 208.051C327.245 208.081 327.034 208.107 326.872 208.128C326.48 208.179 326.114 208.262 325.773 208.377C325.436 208.488 325.163 208.656 324.955 208.882C324.75 209.104 324.648 209.406 324.648 209.79C324.648 210.314 324.842 210.71 325.229 210.979C325.621 211.243 326.118 211.375 326.719 211.375ZM333.742 212.5V202.682H335.251V206.952H336.248L339.776 202.682H341.719L337.756 207.412L341.77 212.5H339.827L336.606 208.358H335.251V212.5H333.742ZM344.919 210.276L349.649 202.682H351.387V212.5H349.879V204.906L345.174 212.5H343.41V202.682H344.919V210.276ZM360.721 206.901V208.307H355.301V206.901H360.721ZM355.659 202.682V212.5H354.15V202.682H355.659ZM361.872 202.682V212.5H360.363V202.682H361.872ZM365.247 216.182C364.991 216.182 364.763 216.161 364.563 216.118C364.363 216.08 364.224 216.041 364.147 216.003L364.531 214.673C364.897 214.767 365.221 214.801 365.502 214.776C365.784 214.75 366.033 214.624 366.25 214.398C366.472 214.177 366.674 213.817 366.858 213.318L367.139 212.551L363.508 202.682H365.145L367.855 210.506H367.957L370.667 202.682H372.304L368.136 213.932C367.949 214.439 367.716 214.859 367.439 215.191C367.162 215.528 366.841 215.777 366.474 215.939C366.112 216.101 365.703 216.182 365.247 216.182ZM372.599 212.5V211.094H372.957C373.251 211.094 373.496 211.036 373.692 210.921C373.888 210.802 374.046 210.595 374.165 210.301C374.289 210.003 374.383 209.589 374.447 209.061C374.515 208.528 374.564 207.851 374.594 207.028L374.773 202.682H381.318V212.5H379.809V204.088H376.204L376.051 207.591C376.017 208.396 375.944 209.106 375.834 209.719C375.727 210.329 375.563 210.84 375.341 211.254C375.124 211.667 374.834 211.978 374.472 212.187C374.11 212.396 373.656 212.5 373.111 212.5H372.599ZM386.336 210.71L386.233 211.401C386.161 211.886 386.05 212.406 385.901 212.96C385.756 213.514 385.605 214.036 385.447 214.526C385.29 215.016 385.16 215.406 385.057 215.696H383.907C383.962 215.423 384.035 215.063 384.124 214.616C384.214 214.168 384.303 213.668 384.393 213.114C384.486 212.564 384.563 212.001 384.623 211.426L384.699 210.71H386.336ZM197.881 234.5V224.682H205.602V234.5H204.094V226.088H199.389V234.5H197.881ZM208.977 238.182C208.722 238.182 208.494 238.161 208.293 238.118C208.093 238.08 207.955 238.041 207.878 238.003L208.261 236.673C208.628 236.767 208.952 236.801 209.233 236.776C209.514 236.75 209.763 236.624 209.981 236.398C210.202 236.177 210.405 235.817 210.588 235.318L210.869 234.551L207.239 224.682H208.875L211.585 232.506H211.688L214.398 224.682H216.034L211.866 235.932C211.679 236.439 211.447 236.859 211.17 237.191C210.893 237.528 210.571 237.777 210.205 237.939C209.842 238.101 209.433 238.182 208.977 238.182ZM221.662 234.705C220.742 234.705 219.949 234.487 219.284 234.053C218.62 233.618 218.108 233.019 217.75 232.256C217.392 231.494 217.213 230.622 217.213 229.642C217.213 228.645 217.397 227.765 217.763 227.002C218.134 226.235 218.65 225.636 219.31 225.206C219.975 224.771 220.75 224.554 221.637 224.554C222.327 224.554 222.949 224.682 223.503 224.938C224.057 225.193 224.511 225.551 224.865 226.011C225.218 226.472 225.438 227.009 225.523 227.622H224.015C223.9 227.175 223.644 226.778 223.248 226.433C222.855 226.084 222.327 225.909 221.662 225.909C221.074 225.909 220.559 226.062 220.115 226.369C219.676 226.672 219.333 227.1 219.086 227.654C218.843 228.204 218.722 228.849 218.722 229.591C218.722 230.349 218.841 231.01 219.08 231.572C219.323 232.135 219.664 232.572 220.103 232.883C220.546 233.194 221.066 233.349 221.662 233.349C222.054 233.349 222.41 233.281 222.73 233.145C223.049 233.009 223.32 232.812 223.542 232.557C223.763 232.301 223.921 231.994 224.015 231.636H225.523C225.438 232.216 225.227 232.738 224.89 233.202C224.558 233.663 224.117 234.029 223.567 234.302C223.022 234.57 222.387 234.705 221.662 234.705ZM226.955 226.088V224.682H234.932V226.088H231.711V234.5H230.202V226.088H226.955ZM238.437 228.236H241.249C242.4 228.236 243.28 228.528 243.889 229.112C244.498 229.695 244.803 230.435 244.803 231.33C244.803 231.918 244.667 232.452 244.394 232.934C244.121 233.411 243.721 233.793 243.192 234.078C242.664 234.359 242.016 234.5 241.249 234.5H237.133V224.682H238.641V233.094H241.249C241.846 233.094 242.336 232.936 242.719 232.621C243.103 232.305 243.295 231.901 243.295 231.406C243.295 230.886 243.103 230.462 242.719 230.134C242.336 229.806 241.846 229.642 241.249 229.642H238.437V228.236ZM258.222 224.682V226.088H253.67V234.5H252.162V224.682H258.222ZM258.728 234.5V233.094H259.086C259.38 233.094 259.625 233.036 259.821 232.921C260.017 232.802 260.175 232.595 260.294 232.301C260.418 232.003 260.512 231.589 260.575 231.061C260.644 230.528 260.693 229.851 260.722 229.028L260.901 224.682H267.447V234.5H265.938V226.088H262.333L262.18 229.591C262.146 230.396 262.073 231.106 261.963 231.719C261.856 232.329 261.692 232.84 261.47 233.254C261.253 233.667 260.963 233.978 260.601 234.187C260.239 234.396 259.785 234.5 259.24 234.5H258.728ZM276.121 234.5V226.062H273.513C272.925 226.062 272.463 226.199 272.126 226.472C271.789 226.744 271.621 227.119 271.621 227.597C271.621 228.065 271.772 228.434 272.075 228.702C272.382 228.971 272.801 229.105 273.334 229.105H276.504V230.511H273.334C272.669 230.511 272.096 230.394 271.615 230.16C271.133 229.925 270.762 229.591 270.502 229.156C270.242 228.717 270.112 228.197 270.112 227.597C270.112 226.991 270.249 226.472 270.521 226.037C270.794 225.602 271.184 225.268 271.691 225.033C272.203 224.799 272.81 224.682 273.513 224.682H277.553V234.5H276.121ZM269.575 234.5L272.362 229.616H273.999L271.212 234.5H269.575ZM286.893 228.901V230.307H281.473V228.901H286.893ZM281.831 224.682V234.5H280.322V224.682H281.831ZM288.044 224.682V234.5H286.535V224.682H288.044ZM291.419 238.182C291.163 238.182 290.935 238.161 290.735 238.118C290.534 238.08 290.396 238.041 290.319 238.003L290.703 236.673C291.069 236.767 291.393 236.801 291.674 236.776C291.956 236.75 292.205 236.624 292.422 236.398C292.644 236.177 292.846 235.817 293.029 235.318L293.311 234.551L289.68 224.682H291.316L294.027 232.506H294.129L296.839 224.682H298.475L294.308 235.932C294.12 236.439 293.888 236.859 293.611 237.191C293.334 237.528 293.012 237.777 292.646 237.939C292.284 238.101 291.875 238.182 291.419 238.182ZM299.904 226.088V224.682H307.881V226.088H304.66V234.5H303.151V226.088H299.904Z" fill="#43D18C"/>
</g>
<path d="M75.3309 111.986L60.9753 140.709C60.4418 141.776 60.3536 143.011 60.7301 144.142C61.1067 145.274 61.9172 146.21 62.9835 146.745L78.4979 154.502L96.8812 117.73L81.3724 109.978C80.8439 109.713 80.2683 109.555 79.6786 109.512C79.0889 109.47 78.4966 109.544 77.9355 109.73C77.3744 109.917 76.8556 110.212 76.4087 110.599C75.9618 110.986 75.5955 111.458 75.3309 111.986Z" fill="#43D18C"/>
<path d="M177.502 154.502L193.016 146.745C194.083 146.21 194.893 145.274 195.27 144.142C195.646 143.011 195.558 141.776 195.025 140.709L180.669 111.986C180.404 111.458 180.038 110.986 179.591 110.599C179.144 110.212 178.625 109.917 178.064 109.73C177.503 109.544 176.911 109.47 176.321 109.512C175.732 109.555 175.156 109.713 174.627 109.978L159.119 117.73L177.502 154.502Z" fill="#43D18C"/>
<g filter="url(#filter3_d_383_54)">
<path d="M78.498 154.502L109.999 177.003L146.001 186.003L178.065 154.502L159.501 117.657L128.281 109.5L96.4988 117.657L78.498 154.502Z" fill="#43D18C" fill-opacity="0.05" shape-rendering="crispEdges"/>
<path d="M78.498 154.502L109.999 177.003L146.001 186.003L178.065 154.502L159.501 117.657L128.281 109.5L96.4988 117.657L78.498 154.502Z" stroke="#43D18C" stroke-width="2" stroke-linecap="round" stroke-linejoin="round" shape-rendering="crispEdges"/>
</g>
<path d="M159.502 118.5H137.001L111.316 143.415C110.838 143.892 110.474 144.47 110.251 145.107C110.027 145.744 109.95 146.424 110.025 147.095C110.099 147.766 110.324 148.411 110.682 148.984C111.04 149.556 111.522 150.04 112.092 150.401C121.942 156.696 135.313 156.263 146.001 145.502L168.502 163.502" stroke="#43D18C" stroke-width="2" stroke-linecap="round" stroke-linejoin="round"/>
<path d="M125.783 199.504L102.315 193.637L87.498 183.05" stroke="#43D18C" stroke-width="2" stroke-linecap="round" stroke-linejoin="round"/>
<defs>
<filter id="filter0_d_383_54" x="0" y="0" width="308" height="141" filterUnits="userSpaceOnUse" color-interpolation-filters="sRGB">
<feFlood flood-opacity="0" result="BackgroundImageFix"/>
<feColorMatrix in="SourceAlpha" type="matrix" values="0 0 0 0 0 0 0 0 0 0 0 0 0 0 0 0 0 0 127 0" result="hardAlpha"/>
<feOffset dy="14"/>
<feGaussianBlur stdDeviation="20"/>
<feColorMatrix type="matrix" values="0 0 0 0 0.264364 0 0 0 0 0.818269 0 0 0 0 0.550548 0 0 0 0.1 0"/>
<feBlend mode="normal" in2="BackgroundImageFix" result="effect1_dropShadow_383_54"/>
<feBlend mode="normal" in="SourceGraphic" in2="effect1_dropShadow_383_54" result="shape"/>
</filter>
<filter id="filter1_d_383_54" x="195" y="80" width="278" height="141" filterUnits="userSpaceOnUse" color-interpolation-filters="sRGB">
<feFlood flood-opacity="0" result="BackgroundImageFix"/>
<feColorMatrix in="SourceAlpha" type="matrix" values="0 0 0 0 0 0 0 0 0 0 0 0 0 0 0 0 0 0 127 0" result="hardAlpha"/>
<feOffset dy="14"/>
<feGaussianBlur stdDeviation="20"/>
<feColorMatrix type="matrix" values="0 0 0 0 0.264364 0 0 0 0 0.818269 0 0 0 0 0.550548 0 0 0 0.1 0"/>
<feBlend mode="normal" in2="BackgroundImageFix" result="effect1_dropShadow_383_54"/>
<feBlend mode="normal" in="SourceGraphic" in2="effect1_dropShadow_383_54" result="shape"/>
</filter>
<filter id="filter2_d_383_54" x="136" y="160" width="313" height="141" filterUnits="userSpaceOnUse" color-interpolation-filters="sRGB">
<feFlood flood-opacity="0" result="BackgroundImageFix"/>
<feColorMatrix in="SourceAlpha" type="matrix" values="0 0 0 0 0 0 0 0 0 0 0 0 0 0 0 0 0 0 127 0" result="hardAlpha"/>
<feOffset dy="14"/>
<feGaussianBlur stdDeviation="20"/>
<feColorMatrix type="matrix" values="0 0 0 0 0.264364 0 0 0 0 0.818269 0 0 0 0 0.550548 0 0 0 0.1 0"/>
<feBlend mode="normal" in2="BackgroundImageFix" result="effect1_dropShadow_383_54"/>
<feBlend mode="normal" in="SourceGraphic" in2="effect1_dropShadow_383_54" result="shape"/>
</filter>
<filter id="filter3_d_383_54" x="37.498" y="82.5" width="181.567" height="158.503" filterUnits="userSpaceOnUse" color-interpolation-filters="sRGB">
<feFlood flood-opacity="0" result="BackgroundImageFix"/>
<feColorMatrix in="SourceAlpha" type="matrix" values="0 0 0 0 0 0 0 0 0 0 0 0 0 0 0 0 0 0 127 0" result="hardAlpha"/>
<feOffset dy="14"/>
<feGaussianBlur stdDeviation="20"/>
<feComposite in2="hardAlpha" operator="out"/>
<feColorMatrix type="matrix" values="0 0 0 0 0.264364 0 0 0 0 0.818269 0 0 0 0 0.550548 0 0 0 0.25 0"/>
<feBlend mode="normal" in2="BackgroundImageFix" result="effect1_dropShadow_383_54"/>
<feBlend mode="normal" in="SourceGraphic" in2="effect1_dropShadow_383_54" result="shape"/>
</filter>
</defs>
</svg>
